<svg width="344" height="96" viewBox="0 0 344 96" fill="none" xmlns="http://www.w3.org/2000/svg">
<g id="logo-inner-r">
<path id="Vector 11" d="M47.5 12.2944L22.5 0.294434L0.5 47.7944L22.5 95.7944L47.5 83.2944L31.5 47.7944L47.5 12.2944Z" fill="#AF5CAA"/>
<path id="Vector 12" d="M290.5 83.7944L315.5 95.7944L337.5 48.2944L315.5 0.294432L290.5 12.7944L306.5 48.2944L290.5 83.7944Z" fill="#BB4BAD"/>
<g id="inner">
<path id="Vector" d="M253.661 40.0983C256.341 37.0163 260.294 35.4753 265.52 35.4753V48.8753C264.314 48.6967 263.198 48.6073 262.17 48.6073C256.989 48.6073 254.398 51.2427 254.398 56.5133V72.7943H239.256V36.1453H253.661V40.0983Z" fill="white"/>
<path id="Vector_2" d="M216.187 62.2753C217.795 62.2753 219.135 62.0743 220.207 61.6723C221.323 61.2703 222.529 60.578 223.825 59.5953L231.731 67.5683C228.068 71.499 222.73 73.4643 215.718 73.4643C211.296 73.4643 207.41 72.6603 204.06 71.0523C200.71 69.3997 198.119 67.1217 196.288 64.2183C194.457 61.315 193.541 58.0543 193.541 54.4363C193.541 50.7737 194.457 47.513 196.288 44.6543C198.119 41.751 200.621 39.4953 203.792 37.8873C207.008 36.2793 210.604 35.4753 214.579 35.4753C218.197 35.4753 221.525 36.2123 224.562 37.6863C227.599 39.1157 230.011 41.2597 231.798 44.1183C233.585 46.9323 234.478 50.3047 234.478 54.2353L209.42 59.0593C210.536 61.2033 212.792 62.2753 216.187 62.2753ZM214.646 45.7933C212.904 45.7933 211.475 46.307 210.358 47.3343C209.286 48.3617 208.638 49.8803 208.415 51.8903L220.14 49.6123C219.738 48.451 219.046 47.5353 218.063 46.8653C217.125 46.1507 215.986 45.7933 214.646 45.7933Z" fill="white"/>
<path id="Vector_3" d="M173.246 35.4753C177.757 35.4753 181.375 36.8377 184.1 39.5623C186.869 42.287 188.254 46.3963 188.254 51.8903V72.7943H173.112V54.5033C173.112 50.3047 171.615 48.2053 168.623 48.2053C166.925 48.2053 165.541 48.8083 164.469 50.0143C163.441 51.1757 162.928 53.0293 162.928 55.5753V72.7943H147.786V36.1453H162.191V39.7633C163.62 38.334 165.273 37.262 167.149 36.5473C169.025 35.8327 171.057 35.4753 173.246 35.4753Z" fill="white"/>
<path id="Vector_4" d="M126.202 35.4753C130.713 35.4753 134.331 36.8377 137.056 39.5623C139.825 42.287 141.21 46.3963 141.21 51.8903V72.7943H126.068V54.5033C126.068 50.3047 124.571 48.2053 121.579 48.2053C119.881 48.2053 118.497 48.8083 117.425 50.0143C116.397 51.1757 115.884 53.0293 115.884 55.5753V72.7943H100.742V36.1453H115.147V39.7633C116.576 38.334 118.229 37.262 120.105 36.5473C121.981 35.8327 124.013 35.4753 126.202 35.4753Z" fill="white"/>
<path id="Vector_5" d="M78.8881 36.1454H94.0301V72.7944H78.8881V36.1454ZM86.4591 33.1974C83.7344 33.1974 81.5234 32.4827 79.8261 31.0534C78.1734 29.5794 77.3471 27.7257 77.3471 25.4924C77.3471 23.259 78.1734 21.4277 79.8261 19.9984C81.5234 18.5244 83.7344 17.7874 86.4591 17.7874C89.2284 17.7874 91.4394 18.4797 93.0921 19.8644C94.7448 21.249 95.5711 23.0357 95.5711 25.2244C95.5711 27.547 94.7448 29.4677 93.0921 30.9864C91.4394 32.4604 89.2284 33.1974 86.4591 33.1974Z" fill="white"/>
</g>
<path id="&#194;&#174;" d="M337.517 0.294434C338.639 0.294434 339.653 0.555057 340.559 1.0763C341.477 1.59755 342.197 2.3171 342.718 3.23494C343.239 4.14146 343.5 5.14996 343.5 6.26044C343.5 7.37092 343.234 8.39075 342.701 9.31993C342.169 10.2378 341.443 10.963 340.525 11.4956C339.608 12.0281 338.593 12.2944 337.483 12.2944C336.373 12.2944 335.358 12.0281 334.441 11.4956C333.534 10.963 332.814 10.2378 332.282 9.31993C331.761 8.40208 331.5 7.39358 331.5 6.29443C331.5 5.19528 331.761 4.18678 332.282 3.26894C332.814 2.35109 333.54 1.62588 334.458 1.0933C335.375 0.560722 336.395 0.294434 337.517 0.294434ZM337.483 11.1896C338.39 11.1896 339.211 10.9743 339.948 10.5437C340.695 10.1018 341.279 9.5069 341.698 8.75902C342.129 7.99982 342.344 7.16695 342.344 6.26044C342.344 5.34259 342.135 4.5154 341.715 3.77885C341.307 3.04231 340.735 2.46441 339.999 2.04514C339.262 1.61455 338.435 1.39925 337.517 1.39925C336.599 1.39925 335.772 1.61455 335.035 2.04514C334.299 2.47574 333.721 3.06497 333.302 3.81285C332.882 4.56072 332.673 5.38792 332.673 6.29443C332.673 7.20095 332.882 8.02814 333.302 8.77602C333.721 9.5239 334.293 10.1131 335.018 10.5437C335.755 10.9743 336.576 11.1896 337.483 11.1896ZM340.644 5.34259C340.644 5.81851 340.537 6.23211 340.322 6.58339C340.118 6.92333 339.812 7.18962 339.404 7.38225L340.848 9.59188H339.081L337.84 7.6882H337.772H336.667V9.59188H334.899V2.99698H337.772C338.667 2.99698 339.37 3.21228 339.88 3.64287C340.39 4.06214 340.644 4.62871 340.644 5.34259ZM337.653 6.36242C338.05 6.36242 338.356 6.27744 338.571 6.10746C338.797 5.92616 338.911 5.6712 338.911 5.34259C338.911 5.01398 338.797 4.75902 338.571 4.57772C338.356 4.39642 338.05 4.30577 337.653 4.30577H336.65V6.36242H337.653Z" fill="#AF5CAA"/>
</g>
</svg>
