<svg width="38" height="37" viewBox="0 0 38 37" fill="none" xmlns="http://www.w3.org/2000/svg">
<g clip-path="url(#clip0_5765_15082)">
<path d="M19.2777 0.874023L6.98289 5.91804L1.78125 18.0552L6.82527 30.1924L19.0412 35.0788L31.336 29.9559L36.5377 17.8188L31.5725 5.76041L19.2777 0.874023Z" fill="#FAA819"/>
<path d="M19.2767 0.875L6.98192 5.91902L1.78027 18.0562L6.82429 30.1933L19.0403 35.0797L31.3351 29.9569L36.5367 17.8197L31.5715 5.76139L19.2767 0.875Z" stroke="white" stroke-width="1.57626"/>
<path d="M25.0302 14.115C24.9514 14.0362 24.9514 14.0362 24.9514 14.0362C24.6361 13.7209 24.242 13.4057 23.9268 13.0904C23.848 13.0116 23.848 13.0116 23.9268 12.9328C24.1632 12.6963 24.3209 12.4599 24.5573 12.3023C24.6361 12.2235 24.6361 12.2235 24.7149 12.3023C25.5819 13.0904 26.37 13.8785 27.2369 14.6667C27.3157 14.7455 27.3157 14.7455 27.2369 14.8243C26.4488 15.6912 25.6607 16.4794 24.8725 17.3463C24.7937 17.4251 24.7937 17.4251 24.7149 17.3463C24.4785 17.1099 24.3209 16.9522 24.0844 16.7946L24.0056 16.7158C24.3997 16.2429 24.7937 15.8488 25.2666 15.376C25.1878 15.376 25.1878 15.376 25.109 15.376C24.6361 15.376 24.242 15.376 23.7692 15.376C23.1387 15.376 22.587 15.4548 21.9565 15.6124C21.1683 15.8488 20.5378 16.3217 20.1438 17.1099C19.9073 17.5827 19.7497 18.0556 19.5133 18.6073C19.2768 19.159 19.1192 19.6319 18.804 20.1047C18.6463 20.3412 18.4887 20.4988 18.3311 20.6564C18.1735 20.8141 18.0946 20.9717 17.937 21.0505C17.6218 21.2081 17.3853 21.3657 17.0701 21.5234C16.1243 21.9174 15.0998 21.9174 14.154 21.9174C13.9176 21.9174 13.6811 21.9174 13.3659 21.9174H13.2083C13.2083 21.9962 13.2871 21.9962 13.2871 21.9962C13.6023 22.3115 13.9964 22.6267 14.3116 22.942C14.3904 23.0208 14.3904 23.0208 14.3116 23.0996C14.0752 23.3361 13.9176 23.4937 13.6811 23.7301C13.6023 23.8089 13.6023 23.8089 13.5235 23.7301C12.6566 22.942 11.8684 22.1539 11.0015 21.4446C10.9227 21.3657 10.9227 21.3657 11.0015 21.2081C11.1591 21.0505 11.3167 20.8141 11.4744 20.6564C11.632 20.42 11.8684 20.1836 12.0261 20.0259C12.4201 19.553 12.8142 19.159 13.2871 18.6861C13.3659 18.6073 13.3659 18.6073 13.4447 18.6861C13.6811 18.9225 13.9176 19.0802 14.0752 19.3166C14.154 19.3954 14.154 19.3954 14.0752 19.4742C13.8388 19.7107 13.6811 19.9471 13.4447 20.1835C13.2871 20.3412 13.1294 20.4988 13.0506 20.6564C13.0506 20.6564 13.0506 20.7352 12.9718 20.7352C13.0506 20.7352 13.1294 20.7352 13.1294 20.7352C13.3659 20.7352 13.5235 20.7352 13.7599 20.7352C14.0752 20.7352 14.3116 20.7352 14.6269 20.7352C14.7845 20.7352 15.0209 20.7352 15.1786 20.7352C15.415 20.7352 15.5726 20.6564 15.8091 20.6564C16.2819 20.5776 16.7548 20.42 17.2277 20.1047C17.7006 19.7895 17.937 19.3166 18.1735 18.8437C18.4099 18.292 18.5675 17.7404 18.804 17.1887C19.0404 16.5582 19.3556 15.9277 19.9073 15.376C20.3802 14.9031 20.9319 14.5878 21.5624 14.4302C22.2717 14.1938 22.981 14.115 23.7692 14.115C24.1632 14.115 24.4785 14.115 24.8725 14.115C24.9514 14.115 25.0302 14.115 25.0302 14.115Z" fill="#855AA5"/>
<path d="M25.1879 20.6571C25.1091 20.5783 25.0303 20.4206 24.9515 20.3418C24.7938 20.1842 24.715 20.1054 24.5574 19.9478C24.3998 19.7901 24.2421 19.5537 24.0845 19.3961C24.0057 19.3173 24.0057 19.3173 24.0845 19.2384C24.321 19.002 24.5574 18.8444 24.715 18.6079C24.7938 18.5291 24.7938 18.5291 24.8727 18.6079C25.1879 18.9232 25.4243 19.2384 25.7396 19.4749C25.8972 19.6325 25.976 19.7113 26.1337 19.8689C26.5277 20.263 26.9218 20.7359 27.237 21.1299C27.3158 21.2088 27.3158 21.2088 27.237 21.2876C26.3701 22.0757 25.582 22.8638 24.715 23.652C24.6362 23.7308 24.6362 23.7308 24.5574 23.652C24.321 23.4155 24.1633 23.1791 23.9269 23.0215C23.8481 22.9426 23.8481 22.9426 23.9269 22.8638C24.2421 22.5486 24.6362 22.2333 24.9515 21.9181L25.0303 21.8393H24.9515C24.4786 21.8393 23.9269 21.8393 23.454 21.8393C22.8235 21.8393 22.2718 21.7604 21.6413 21.524C20.932 21.2876 20.3015 20.8935 19.7498 20.3418C19.671 20.1842 19.5922 20.1054 19.4346 19.9478C19.4346 19.9478 19.4346 19.8689 19.4346 19.7901C19.5922 19.3961 19.7498 19.0808 19.9074 18.6868C19.9074 18.6868 19.9074 18.6079 19.9863 18.6079C20.0651 18.7656 20.1439 18.8444 20.2227 19.002C20.3803 19.3173 20.5379 19.5537 20.7744 19.7901C20.8532 19.8689 21.0108 19.9478 21.1685 20.1054C21.5625 20.3418 21.9566 20.4994 22.4295 20.5783C22.7447 20.6571 23.1388 20.6571 23.454 20.7359C23.6905 20.7359 23.9269 20.7359 24.1633 20.7359C24.4786 20.7359 24.7938 20.7359 25.0303 20.7359C25.1091 20.7359 25.1879 20.7359 25.1879 20.6571Z" fill="#855AA5"/>
<path d="M13.287 14.1163C13.3658 14.1163 13.4446 14.1163 13.5234 14.1163C13.9963 14.1163 14.548 14.1163 15.0208 14.1163C15.7301 14.1163 16.4395 14.274 17.1488 14.5892C17.8581 14.9045 18.4098 15.3773 18.8038 16.0078C18.8038 16.0867 18.8038 16.0867 18.8038 16.1655C18.6462 16.5595 18.4886 16.8748 18.331 17.2689C18.331 17.2689 18.331 17.3477 18.2522 17.4265C18.1733 17.2689 18.0945 17.1112 18.0157 16.9536C17.6217 16.2443 17.07 15.7714 16.2818 15.6138C15.7301 15.2985 15.1785 15.2197 14.6268 15.2197C14.1539 15.2197 13.681 15.2197 13.287 15.2197H13.2081C13.2081 15.2985 13.287 15.2985 13.287 15.2985C13.681 15.6926 13.9963 16.0867 14.3903 16.4807C14.4691 16.5595 14.4691 16.5595 14.3903 16.6384C14.1539 16.8748 13.9175 17.1112 13.681 17.2689L13.6022 17.19C12.8141 16.3231 12.0259 15.535 11.2378 14.668C11.159 14.5892 11.159 14.5892 11.2378 14.5104C12.1048 13.7223 12.9717 12.9342 13.7598 12.146C13.8386 12.0672 13.8386 12.0672 13.9175 12.146C14.1539 12.3825 14.3115 12.6189 14.548 12.7765C14.6268 12.8553 14.6268 12.8553 14.548 12.9342C14.2327 13.2494 13.8386 13.5647 13.5234 13.8799C13.3658 14.0375 13.287 14.0375 13.287 14.1163Z" fill="#855AA5"/>
</g>
<defs>
<clipPath id="clip0_5765_15082">
<rect width="36.4903" height="35.9386" fill="white" transform="translate(0.755859 0.244141)"/>
</clipPath>
</defs>
</svg>
