<svg width="38" height="37" viewBox="0 0 38 37" fill="none" xmlns="http://www.w3.org/2000/svg">
<g clip-path="url(#clip0_5765_15013)">
<path d="M19.2777 1.14258L6.98289 6.18659L1.78125 18.3238L6.82527 30.4609L19.0412 35.3473L31.336 30.2245L36.5377 18.0873L31.5725 6.02897L19.2777 1.14258Z" fill="#D5D1ED"/>
<path d="M19.2767 1.14355L6.98192 6.18757L1.78027 18.3247L6.82429 30.4619L19.0403 35.3483L31.3351 30.2255L36.5367 18.0883L31.5715 6.02995L19.2767 1.14355Z" stroke="white" stroke-width="1.57626"/>
<path d="M25.0302 14.3835C24.9514 14.3047 24.9514 14.3047 24.9514 14.3047C24.6361 13.9895 24.242 13.6742 23.9268 13.359C23.848 13.2801 23.848 13.2801 23.9268 13.2013C24.1632 12.9649 24.3209 12.7285 24.5573 12.5708C24.6361 12.492 24.6361 12.492 24.7149 12.5708C25.5819 13.359 26.37 14.1471 27.2369 14.9352C27.3157 15.014 27.3157 15.014 27.2369 15.0928C26.4488 15.9598 25.6607 16.7479 24.8725 17.6148C24.7937 17.6937 24.7937 17.6937 24.7149 17.6148C24.4785 17.3784 24.3209 17.2208 24.0844 17.0632L24.0056 16.9843C24.3997 16.5115 24.7937 16.1174 25.2666 15.6445C25.1878 15.6445 25.1878 15.6445 25.109 15.6445C24.6361 15.6445 24.242 15.6445 23.7692 15.6445C23.1387 15.6445 22.587 15.7233 21.9565 15.881C21.1683 16.1174 20.5378 16.5903 20.1438 17.3784C19.9073 17.8513 19.7497 18.3242 19.5133 18.8758C19.2768 19.4275 19.1192 19.9004 18.804 20.3733C18.6463 20.6097 18.4887 20.7674 18.3311 20.925C18.1735 21.0826 18.0946 21.2402 17.937 21.319C17.6218 21.4767 17.3853 21.6343 17.0701 21.7919C16.1243 22.186 15.0998 22.186 14.154 22.186C13.9176 22.186 13.6811 22.186 13.3659 22.186H13.2083C13.2083 22.2648 13.2871 22.2648 13.2871 22.2648C13.6023 22.58 13.9964 22.8953 14.3116 23.2106C14.3904 23.2894 14.3904 23.2894 14.3116 23.3682C14.0752 23.6046 13.9176 23.7622 13.6811 23.9987C13.6023 24.0775 13.6023 24.0775 13.5235 23.9987C12.6566 23.2106 11.8684 22.4224 11.0015 21.7131C10.9227 21.6343 10.9227 21.6343 11.0015 21.4767C11.1591 21.319 11.3167 21.0826 11.4744 20.925C11.632 20.6885 11.8684 20.4521 12.0261 20.2945C12.4201 19.8216 12.8142 19.4275 13.2871 18.9547C13.3659 18.8758 13.3659 18.8758 13.4447 18.9547C13.6811 19.1911 13.9176 19.3487 14.0752 19.5852C14.154 19.664 14.154 19.664 14.0752 19.7428C13.8388 19.9792 13.6811 20.2157 13.4447 20.4521C13.2871 20.6097 13.1294 20.7674 13.0506 20.925C13.0506 20.925 13.0506 21.0038 12.9718 21.0038C13.0506 21.0038 13.1294 21.0038 13.1294 21.0038C13.3659 21.0038 13.5235 21.0038 13.7599 21.0038C14.0752 21.0038 14.3116 21.0038 14.6269 21.0038C14.7845 21.0038 15.0209 21.0038 15.1786 21.0038C15.415 21.0038 15.5726 20.925 15.8091 20.925C16.2819 20.8462 16.7548 20.6885 17.2277 20.3733C17.7006 20.058 17.937 19.5852 18.1735 19.1123C18.4099 18.5606 18.5675 18.0089 18.804 17.4572C19.0404 16.8267 19.3556 16.1962 19.9073 15.6445C20.3802 15.1717 20.9319 14.8564 21.5624 14.6988C22.2717 14.4623 22.981 14.3835 23.7692 14.3835C24.1632 14.3835 24.4785 14.3835 24.8725 14.3835C24.9514 14.3835 25.0302 14.3835 25.0302 14.3835Z" fill="#855AA5"/>
<path d="M25.1879 20.9256C25.1091 20.8468 25.0303 20.6892 24.9515 20.6104C24.7938 20.4527 24.715 20.3739 24.5574 20.2163C24.3998 20.0587 24.2421 19.8222 24.0845 19.6646C24.0057 19.5858 24.0057 19.5858 24.0845 19.507C24.321 19.2706 24.5574 19.1129 24.715 18.8765C24.7938 18.7977 24.7938 18.7977 24.8727 18.8765C25.1879 19.1917 25.4243 19.507 25.7396 19.7434C25.8972 19.9011 25.976 19.9799 26.1337 20.1375C26.5277 20.5316 26.9218 21.0044 27.237 21.3985C27.3158 21.4773 27.3158 21.4773 27.237 21.5561C26.3701 22.3443 25.582 23.1324 24.715 23.9205C24.6362 23.9993 24.6362 23.9993 24.5574 23.9205C24.321 23.6841 24.1633 23.4476 23.9269 23.29C23.8481 23.2112 23.8481 23.2112 23.9269 23.1324C24.2421 22.8171 24.6362 22.5019 24.9515 22.1866L25.0303 22.1078H24.9515C24.4786 22.1078 23.9269 22.1078 23.454 22.1078C22.8235 22.1078 22.2718 22.029 21.6413 21.7926C20.932 21.5561 20.3015 21.1621 19.7498 20.6104C19.671 20.4527 19.5922 20.3739 19.4346 20.2163C19.4346 20.2163 19.4346 20.1375 19.4346 20.0587C19.5922 19.6646 19.7498 19.3494 19.9074 18.9553C19.9074 18.9553 19.9074 18.8765 19.9863 18.8765C20.0651 19.0341 20.1439 19.1129 20.2227 19.2706C20.3803 19.5858 20.5379 19.8222 20.7744 20.0587C20.8532 20.1375 21.0108 20.2163 21.1685 20.3739C21.5625 20.6104 21.9566 20.768 22.4295 20.8468C22.7447 20.9256 23.1388 20.9256 23.454 21.0044C23.6905 21.0044 23.9269 21.0044 24.1633 21.0044C24.4786 21.0044 24.7938 21.0044 25.0303 21.0044C25.1091 21.0044 25.1879 21.0044 25.1879 20.9256Z" fill="#855AA5"/>
<path d="M13.287 14.3849C13.3658 14.3849 13.4446 14.3849 13.5234 14.3849C13.9963 14.3849 14.548 14.3849 15.0208 14.3849C15.7301 14.3849 16.4395 14.5425 17.1488 14.8578C17.8581 15.173 18.4098 15.6459 18.8038 16.2764C18.8038 16.3552 18.8038 16.3552 18.8038 16.434C18.6462 16.8281 18.4886 17.1433 18.331 17.5374C18.331 17.5374 18.331 17.6162 18.2522 17.695C18.1733 17.5374 18.0945 17.3798 18.0157 17.2222C17.6217 16.5128 17.07 16.04 16.2818 15.8823C15.7301 15.5671 15.1785 15.4883 14.6268 15.4883C14.1539 15.4883 13.681 15.4883 13.287 15.4883H13.2081C13.2081 15.5671 13.287 15.5671 13.287 15.5671C13.681 15.9612 13.9963 16.3552 14.3903 16.7493C14.4691 16.8281 14.4691 16.8281 14.3903 16.9069C14.1539 17.1433 13.9175 17.3798 13.681 17.5374L13.6022 17.4586C12.8141 16.5917 12.0259 15.8035 11.2378 14.9366C11.159 14.8578 11.159 14.8578 11.2378 14.779C12.1048 13.9908 12.9717 13.2027 13.7598 12.4146C13.8386 12.3358 13.8386 12.3358 13.9175 12.4146C14.1539 12.651 14.3115 12.8875 14.548 13.0451C14.6268 13.1239 14.6268 13.1239 14.548 13.2027C14.2327 13.518 13.8386 13.8332 13.5234 14.1485C13.3658 14.3061 13.287 14.3061 13.287 14.3849Z" fill="#855AA5"/>
</g>
<defs>
<clipPath id="clip0_5765_15013">
<rect width="36.4903" height="35.9386" fill="white" transform="translate(0.755859 0.512695)"/>
</clipPath>
</defs>
</svg>
