<svg width="38" height="37" viewBox="0 0 38 37" fill="none" xmlns="http://www.w3.org/2000/svg">
<g clip-path="url(#clip0_5765_15005)">
<path d="M19.2552 1.37988L6.96043 6.50271L1.75879 18.6399L6.72399 30.6982L19.0188 35.5846L31.3136 30.4618L36.5152 18.3246L31.4712 6.26627L19.2552 1.37988Z" fill="#D5D1ED"/>
<path d="M19.2562 1.37988L6.96141 6.50271L1.75977 18.6399L6.72497 30.6982L19.0198 35.5846L31.3146 30.4618L36.5162 18.3246L31.4722 6.26627L19.2562 1.37988Z" stroke="white" stroke-width="1.57626"/>
<path d="M18.6249 25.4181C18.5461 25.4181 18.5461 25.4181 18.4673 25.4181C17.0487 24.63 15.5512 23.8418 14.1326 23.1325C14.0538 23.1325 14.0538 23.0537 13.975 22.9749C13.8173 22.3444 13.7385 21.7139 13.5809 21.0046C13.5809 20.847 13.5809 20.847 13.6597 20.7681C13.975 20.6105 14.1326 20.3741 14.2902 20.0588C14.6843 19.1131 14.0538 17.9309 13.108 17.6944C12.9504 17.6944 12.8716 17.6156 12.8716 17.458C12.714 16.7487 12.6352 16.1182 12.4775 15.4089C12.4775 15.2512 12.3987 15.0936 12.3987 14.936C12.4775 14.936 12.5563 15.0148 12.5563 15.0148C14.4478 15.8817 16.4182 16.7487 18.3097 17.6156C18.4673 17.6944 18.4673 17.7733 18.4673 17.9309C18.4673 20.3741 18.4673 22.8173 18.4673 25.3393V25.4181H18.6249ZM19.5707 25.4181C19.5707 25.3393 19.5707 25.2605 19.5707 25.1817C19.5707 22.7385 19.5707 20.2164 19.5707 17.7733C19.5707 17.6156 19.6495 17.5368 19.8071 17.458C21.6986 16.5911 23.5901 15.7241 25.4816 14.8572C25.5604 14.8572 25.6393 14.7784 25.7181 14.7784C25.7181 14.8572 25.7181 14.8572 25.7181 14.936C25.5604 15.7241 25.4028 16.5122 25.2452 17.3004C25.2452 17.458 25.1664 17.458 25.0088 17.5368C24.2994 17.7733 23.8266 18.2461 23.7478 18.9554C23.5901 19.6648 23.8266 20.2953 24.4571 20.6893C24.5359 20.6893 24.5359 20.847 24.5359 20.847C24.4571 21.4775 24.2994 22.108 24.1418 22.7385C24.1418 22.8961 24.063 22.9749 23.9054 23.0537C22.4867 23.763 21.1469 24.5512 19.7283 25.2605C19.7283 25.3393 19.6495 25.4181 19.5707 25.4181ZM26.9791 19.1131C26.9791 18.4826 26.7426 18.0885 26.2698 17.7733C26.1909 17.6944 26.1909 17.6156 26.1909 17.5368C26.4274 16.4334 26.585 15.3301 26.8215 14.2267C26.9003 13.9902 26.8215 13.8326 26.6638 13.675C26.5062 13.5174 26.2698 13.5962 26.1121 13.675C24.7723 14.3055 23.3537 14.936 22.0139 15.5665C21.1469 15.9606 20.2012 16.3546 19.3342 16.8275C19.1766 16.9063 19.0978 16.8275 18.9402 16.8275C16.6546 15.8029 14.4478 14.7784 12.1623 13.7538C12.0046 13.675 11.7682 13.5962 11.6106 13.7538C11.453 13.9114 11.3741 14.0691 11.453 14.3055C11.6894 15.4089 11.847 16.5122 12.0835 17.6156C12.0835 17.6944 12.0835 17.7733 12.0046 17.8521C11.3741 18.2461 11.1377 18.7978 11.2953 19.5071C11.3741 20.2164 11.7682 20.7681 12.4775 20.9258C12.714 21.0046 12.7928 21.0834 12.7928 21.3198C12.9504 22.0291 13.0292 22.7385 13.1868 23.4478C13.1868 23.6054 13.3445 23.763 13.5021 23.8418C15.3148 24.7876 17.0487 25.7333 18.8614 26.6791C19.019 26.7579 19.1766 26.7579 19.413 26.6791C21.2257 25.7333 23.0384 24.7876 24.7723 23.763C24.9299 23.6842 25.0088 23.5266 25.0876 23.2901C25.2452 22.5808 25.4028 21.7927 25.4816 21.0834C25.4816 20.9258 25.5604 20.9258 25.6393 20.847C26.5062 20.6893 26.9791 19.98 26.9791 19.1131Z" fill="#855AA5"/>
<path d="M15.3945 14.2264C15.3945 14.2264 15.4733 14.3841 15.5522 14.3841C16.6555 14.9358 17.8377 15.4086 18.9411 15.9603C19.0199 16.0391 19.1775 15.9603 19.2564 15.9603C20.3597 15.4874 21.5419 14.9358 22.6453 14.3841C22.7241 14.3053 22.8029 14.3053 22.8029 14.1476C22.7241 12.5714 22.0936 11.3104 20.675 10.6011C18.9411 9.73411 16.7343 10.3646 15.8674 12.3349C15.5522 12.8866 15.4733 13.5171 15.3945 14.2264Z" fill="#855AA5"/>
</g>
<defs>
<clipPath id="clip0_5765_15005">
<rect width="36.4903" height="35.9386" fill="white" transform="translate(0.892578 0.512695)"/>
</clipPath>
</defs>
</svg>
