<svg width="38" height="37" viewBox="0 0 38 37" fill="none" xmlns="http://www.w3.org/2000/svg">
<g clip-path="url(#clip0_5765_15074)">
<path d="M19.2552 1.11133L6.96043 6.23416L1.75879 18.3713L6.72399 30.4297L19.0188 35.3161L31.3136 30.1932L36.5152 18.0561L31.4712 5.99772L19.2552 1.11133Z" fill="#FAA819"/>
<path d="M19.2562 1.11133L6.96141 6.23416L1.75977 18.3713L6.72497 30.4297L19.0198 35.3161L31.3146 30.1932L36.5162 18.0561L31.4722 5.99772L19.2562 1.11133Z" stroke="white" stroke-width="1.57626"/>
<path d="M18.6249 25.1495C18.5461 25.1495 18.5461 25.1495 18.4673 25.1495C17.0487 24.3614 15.5512 23.5733 14.1326 22.864C14.0538 22.864 14.0538 22.7852 13.975 22.7063C13.8173 22.0758 13.7385 21.4453 13.5809 20.736C13.5809 20.5784 13.5809 20.5784 13.6597 20.4996C13.975 20.342 14.1326 20.1055 14.2902 19.7903C14.6843 18.8445 14.0538 17.6623 13.108 17.4259C12.9504 17.4259 12.8716 17.3471 12.8716 17.1894C12.714 16.4801 12.6352 15.8496 12.4775 15.1403C12.4775 14.9827 12.3987 14.8251 12.3987 14.6674C12.4775 14.6674 12.5563 14.7463 12.5563 14.7463C14.4478 15.6132 16.4182 16.4801 18.3097 17.3471C18.4673 17.4259 18.4673 17.5047 18.4673 17.6623C18.4673 20.1055 18.4673 22.5487 18.4673 25.0707V25.1495H18.6249ZM19.5707 25.1495C19.5707 25.0707 19.5707 24.9919 19.5707 24.9131C19.5707 22.4699 19.5707 19.9479 19.5707 17.5047C19.5707 17.3471 19.6495 17.2683 19.8071 17.1894C21.6986 16.3225 23.5901 15.4556 25.4816 14.5886C25.5604 14.5886 25.6393 14.5098 25.7181 14.5098C25.7181 14.5886 25.7181 14.5886 25.7181 14.6674C25.5604 15.4556 25.4028 16.2437 25.2452 17.0318C25.2452 17.1894 25.1664 17.1894 25.0088 17.2683C24.2994 17.5047 23.8266 17.9776 23.7478 18.6869C23.5901 19.3962 23.8266 20.0267 24.4571 20.4208C24.5359 20.4208 24.5359 20.5784 24.5359 20.5784C24.4571 21.2089 24.2994 21.8394 24.1418 22.4699C24.1418 22.6275 24.063 22.7063 23.9054 22.7852C22.4867 23.4945 21.1469 24.2826 19.7283 24.9919C19.7283 25.0707 19.6495 25.1495 19.5707 25.1495ZM26.9791 18.8445C26.9791 18.214 26.7426 17.8199 26.2698 17.5047C26.1909 17.4259 26.1909 17.3471 26.1909 17.2683C26.4274 16.1649 26.585 15.0615 26.8215 13.9581C26.9003 13.7217 26.8215 13.5641 26.6638 13.4064C26.5062 13.2488 26.2698 13.3276 26.1121 13.4064C24.7723 14.0369 23.3537 14.6674 22.0139 15.2979C21.1469 15.692 20.2012 16.0861 19.3342 16.5589C19.1766 16.6378 19.0978 16.5589 18.9402 16.5589C16.6546 15.5344 14.4478 14.5098 12.1623 13.4852C12.0046 13.4064 11.7682 13.3276 11.6106 13.4852C11.453 13.6429 11.3741 13.8005 11.453 14.0369C11.6894 15.1403 11.847 16.2437 12.0835 17.3471C12.0835 17.4259 12.0835 17.5047 12.0046 17.5835C11.3741 17.9776 11.1377 18.5293 11.2953 19.2386C11.3741 19.9479 11.7682 20.4996 12.4775 20.6572C12.714 20.736 12.7928 20.8148 12.7928 21.0513C12.9504 21.7606 13.0292 22.4699 13.1868 23.1792C13.1868 23.3368 13.3445 23.4945 13.5021 23.5733C15.3148 24.519 17.0487 25.4648 18.8614 26.4105C19.019 26.4894 19.1766 26.4894 19.413 26.4105C21.2257 25.4648 23.0384 24.519 24.7723 23.4945C24.9299 23.4157 25.0088 23.258 25.0876 23.0216C25.2452 22.3123 25.4028 21.5241 25.4816 20.8148C25.4816 20.6572 25.5604 20.6572 25.6393 20.5784C26.5062 20.4208 26.9791 19.7115 26.9791 18.8445Z" fill="#855AA5"/>
<path d="M15.3945 13.9579C15.3945 13.9579 15.4733 14.1155 15.5522 14.1155C16.6555 14.6672 17.8377 15.1401 18.9411 15.6918C19.0199 15.7706 19.1775 15.6918 19.2564 15.6918C20.3597 15.2189 21.5419 14.6672 22.6453 14.1155C22.7241 14.0367 22.8029 14.0367 22.8029 13.8791C22.7241 12.3028 22.0936 11.0418 20.675 10.3325C18.9411 9.46556 16.7343 10.0961 15.8674 12.0664C15.5522 12.6181 15.4733 13.2486 15.3945 13.9579Z" fill="#855AA5"/>
</g>
<defs>
<clipPath id="clip0_5765_15074">
<rect width="36.4903" height="35.9386" fill="white" transform="translate(0.892578 0.244141)"/>
</clipPath>
</defs>
</svg>
