<svg width="38" height="37" viewBox="0 0 38 37" fill="none" xmlns="http://www.w3.org/2000/svg">
<g clip-path="url(#clip0_5765_15022)">
<path d="M18.9818 1.37988L6.68699 6.50271L1.48535 18.6399L6.45056 30.6982L18.7453 35.5846L31.0401 30.4618L36.2418 18.3246L31.1978 6.26627L18.9818 1.37988Z" fill="#D5D1ED" stroke="white" stroke-width="1.57626"/>
<path d="M12.3614 24.9449L18.1147 27.3093L11.5733 22.8958L12.3614 24.9449ZM26.1536 22.9746L19.6122 27.3881L25.3655 25.0237L26.1536 22.9746ZM10.8639 15.645L18.43 26.994L12.2826 12.0984L10.8639 15.645ZM9.68175 18.4822L18.3512 27.1516L10.7851 15.8814L9.68175 18.4822ZM19.3757 27.0728L28.0451 18.4034L26.9417 15.7238L19.3757 27.0728ZM19.2969 26.994L26.8629 15.645L25.4443 12.1772L19.2969 26.994ZM19.1393 26.9152L25.3655 11.9408L22.2918 10.7586L19.1393 26.9152ZM18.9028 26.9152L22.1342 10.6798L18.9028 9.33995V26.9152ZM15.3563 10.7586L12.3614 12.0196L18.5876 26.994L15.3563 10.7586ZM18.7452 26.9152V9.33995L15.5139 10.6798L18.7452 26.9152ZM27.8875 18.8763L19.5333 27.2305L26.3112 22.7381L27.8875 18.8763ZM11.4156 22.6593L18.1935 27.1516L9.76056 18.8763L11.4156 22.6593ZM18.824 9.10352L25.4443 11.862L28.2027 18.4822L25.4443 25.1025L18.824 27.861L12.2038 25.1025L9.44531 18.4822L12.2038 11.862L18.824 9.10352Z" fill="#855AA5" stroke="#855AA5" stroke-width="0.788128"/>
</g>
<defs>
<clipPath id="clip0_5765_15022">
<rect width="36.4903" height="35.9386" fill="white" transform="translate(0.618164 0.512695)"/>
</clipPath>
</defs>
</svg>
