<svg width="38" height="37" viewBox="0 0 38 37" fill="none" xmlns="http://www.w3.org/2000/svg">
<path d="M18.9818 1.11133L6.68699 6.23416L1.48535 18.3713L6.45056 30.4297L18.7453 35.3161L31.0401 30.1932L36.2418 18.0561L31.1978 5.99772L18.9818 1.11133Z" fill="#FAA819"/>
<path d="M12.3614 24.6763L18.1147 27.0407L11.5733 22.6272L12.3614 24.6763ZM26.1536 22.706L19.6122 27.1195L25.3655 24.7551L26.1536 22.706ZM10.8639 15.3764L18.43 26.7255L12.2826 11.8298L10.8639 15.3764ZM9.68175 18.2137L18.3512 26.8831L10.7851 15.6129L9.68175 18.2137ZM19.3757 26.8043L28.0451 18.1349L26.9417 15.4552L19.3757 26.8043ZM19.2969 26.7255L26.8629 15.3764L25.4443 11.9087L19.2969 26.7255ZM19.1393 26.6466L25.3655 11.6722L22.2918 10.49L19.1393 26.6466ZM18.9028 26.6466L22.1342 10.4112L18.9028 9.0714V26.6466ZM15.3563 10.49L12.3614 11.751L18.5876 26.7255L15.3563 10.49ZM18.7452 26.6466V9.0714L15.5139 10.4112L18.7452 26.6466ZM27.8875 18.6077L19.5333 26.9619L26.3112 22.4696L27.8875 18.6077ZM11.4156 22.3908L18.1935 26.8831L9.76056 18.6077L11.4156 22.3908ZM18.824 8.83496L25.4443 11.5934L28.2027 18.2137L25.4443 24.834L18.824 27.5924L12.2038 24.834L9.44531 18.2137L12.2038 11.5934L18.824 8.83496Z" fill="#855AA5" stroke="#855AA5" stroke-width="0.788128"/>
</svg>
