<svg width="79" height="79" viewBox="0 0 79 79" fill="none" xmlns="http://www.w3.org/2000/svg">
<path d="M13.8237 13.0119L13.2497 13.2497L13.0119 13.8237L2.61418 38.926L2.37641 39.5L2.61418 40.074L13.0119 65.1763L13.2497 65.7503L13.8237 65.9881L38.926 76.3858L39.5 76.6236L40.074 76.3858L65.1763 65.9881L65.7503 65.7503L65.9881 65.1763L76.3858 40.074L76.6236 39.5L76.3858 38.926L65.9881 13.8237L65.7503 13.2497L65.1763 13.0119L40.074 2.61418L39.5 2.37641L38.926 2.61418L13.8237 13.0119Z" fill="#DFDCF1" stroke="#8858B5" stroke-width="3"/>
<path d="M36.8293 53.8481C36.4878 54.4173 35.9185 54.7588 35.1216 54.5312C34.3247 54.3035 34.2109 53.6204 34.2109 52.8235C32.7309 53.3927 31.1371 53.5066 29.6571 53.3927C28.4048 53.2789 27.2663 52.9373 26.2417 52.2543C24.3064 51.002 23.5095 48.6112 24.3064 46.6759C24.6479 45.6513 25.331 44.8543 26.1279 44.1713C27.0386 43.4882 28.0632 42.8051 28.974 42.1221C29.0879 42.0082 29.3155 41.8944 29.5432 41.7805C29.0879 41.3252 28.6325 40.9836 28.2909 40.6421C27.3802 39.6175 26.4694 38.7067 25.5587 37.6821C24.4202 36.2021 24.3064 34.4945 25.1033 32.673C25.331 32.2176 25.6725 31.6483 25.9002 31.193C26.3556 30.1684 26.4694 29.0299 26.014 28.0053C25.6725 26.9807 25.2171 26.07 24.8756 25.1592C24.7617 24.7038 24.6479 24.2484 24.6479 23.7931C24.5341 22.8823 24.9894 22.1992 26.014 22.0854C27.494 21.8577 28.8602 22.0854 30.2263 22.7685C32.7309 24.0207 34.5524 25.9561 36.0324 28.233C37.6262 30.5099 38.8785 32.9006 39.9031 35.4052C39.9031 35.5191 40.017 35.6329 40.1308 35.9745C40.2446 35.7468 40.4723 35.5191 40.4723 35.4052C40.7 34.2668 40.8139 33.1283 40.7 31.9899C40.5862 30.5099 39.7893 29.2576 38.537 28.4607C38.7647 28.1192 38.9923 27.7776 39.22 27.3222C41.9523 29.1438 42.4077 31.876 41.9523 34.9498C43.5461 32.3314 45.4815 30.3961 48.783 30.6237C48.783 31.0791 48.6692 31.5345 48.6692 31.9899C46.1646 31.7622 44.6846 33.2422 43.5461 35.0637C42.8631 36.2021 42.7492 36.4298 42.9769 36.8852C43.2046 36.7714 43.3185 36.6575 43.5461 36.5437C46.62 34.7222 49.9215 33.356 53.4506 32.673C55.2722 32.3314 56.9798 32.2176 58.8013 32.673C60.1675 33.0145 61.3059 33.5837 62.3305 34.4945C63.2413 35.4052 63.2413 36.316 62.2167 37.1129C61.6475 37.5683 60.9644 38.0237 60.2813 38.479C59.9398 38.7067 59.5983 38.9344 59.2567 39.0483C57.7767 39.7313 57.0937 40.9836 56.7521 42.5774C56.6383 43.4882 56.2968 44.2851 55.9552 45.082C55.6137 45.8789 54.9306 46.4482 54.2476 46.7897C52.8814 47.4728 51.2876 47.7005 49.8076 47.9282C49.0107 48.042 48.2138 48.042 47.5307 48.1558C47.8722 49.2943 48.2138 50.3189 48.5553 51.4573C48.783 52.4819 48.8968 53.3927 48.783 54.4173C48.4415 57.2634 45.823 58.5157 43.66 58.288C41.6108 58.0603 39.9031 57.0357 38.4231 55.5558C37.8539 54.9865 37.3985 54.4173 36.8293 53.8481Z" fill="#8858B5"/>
</svg>
