<svg width="79" height="79" viewBox="0 0 79 79" fill="none" xmlns="http://www.w3.org/2000/svg">
<path d="M13.8237 13.0119L13.2497 13.2497L13.0119 13.8237L2.61418 38.926L2.37641 39.5L2.61418 40.074L13.0119 65.1763L13.2497 65.7503L13.8237 65.9881L38.926 76.3858L39.5 76.6236L40.074 76.3858L65.1763 65.9881L65.7503 65.7503L65.9881 65.1763L76.3858 40.074L76.6236 39.5L76.3858 38.926L65.9881 13.8237L65.7503 13.2497L65.1763 13.0119L40.074 2.61418L39.5 2.37641L38.926 2.61418L13.8237 13.0119Z" fill="#DFDCF1" stroke="#8858B5" stroke-width="3"/>
<path fill-rule="evenodd" clip-rule="evenodd" d="M40.4888 21.6676C40.49 21.8759 40.4919 22.0841 40.4938 22.2924V24.3178C40.4938 24.3261 40.4943 24.3346 40.4948 24.3431C40.4968 24.3777 40.4988 24.4133 40.4689 24.4401C40.4378 24.4678 40.3444 24.4984 40.2697 24.4984C40.1234 24.5012 39.9772 24.4998 39.8309 24.4984H39.8309C39.6846 24.497 39.5384 24.4956 39.3921 24.4984C39.1743 24.504 39.0062 24.4401 39 24.3289C39 24.2525 39.0031 24.1761 39.0062 24.0997C39.0093 24.0233 39.0124 23.9469 39.0124 23.8705V21.671L34.5274 21.671C34.5067 21.671 34.4854 21.6716 34.4639 21.6721C34.3771 21.6744 34.2876 21.6767 34.2206 21.6432C34.1508 21.6084 34.0741 21.5039 34.0741 21.4204C34.0671 21.2568 34.0706 21.0931 34.0741 20.9295C34.0776 20.7659 34.0811 20.6023 34.0741 20.4386C34.0601 20.195 34.2206 20.007 34.4995 20C34.6913 20 34.8831 20.0035 35.0749 20.007C35.2667 20.0104 35.4585 20.0139 35.6503 20.0139L39.4581 20.0139C39.5481 20.0035 39.6525 19.9989 39.7718 20.0002C39.8593 20.0002 39.9468 20.007 40.0343 20.0139L44.5357 20.0139C45.1146 20.0139 45.3796 20.2785 45.3657 20.8634C45.3657 20.9636 45.3478 21.0639 45.33 21.1642C45.3255 21.1892 45.3211 21.2143 45.3169 21.2394C45.268 21.5736 45.0797 21.678 44.738 21.678C43.3216 21.6607 41.9052 21.6625 40.4888 21.6676ZM46.6403 31.1637C46.1269 31.1637 45.6128 31.1686 45.0985 31.1735C43.8762 31.1852 42.6525 31.1968 41.4323 31.1428C40.2276 31.0917 39.0288 30.9238 37.8358 30.7566L37.8358 30.7566L37.5053 30.7104C35.9596 30.4942 34.4209 30.2361 32.8891 29.9711C32.4666 29.8964 32.0497 29.7773 31.6334 29.6584L31.6334 29.6584L31.6334 29.6584L31.6334 29.6584L31.4826 29.6154C31.4339 29.6015 31.3643 29.4341 31.3921 29.3853C31.4757 29.2248 31.5801 29.0714 31.7054 28.9389C32.0396 28.5762 32.3738 28.2205 32.7289 27.8788L32.7753 27.8336C32.9898 27.6249 33.2063 27.4142 33.4531 27.2581L33.5967 27.1656C34.3079 26.7077 35.0214 26.2483 35.7716 25.8562C36.635 25.4098 37.5889 25.2146 38.5497 25.0541C39.6707 24.8658 40.7569 25.0193 41.85 25.2215C43.1103 25.4587 44.2452 26.0096 45.2826 26.7141C45.8979 27.1357 46.4504 27.6538 47.0018 28.1708C47.1617 28.3208 47.3215 28.4707 47.4828 28.6181C47.8031 28.911 48.1025 29.2248 48.374 29.5596C48.5985 29.8421 48.7897 30.1437 48.9829 30.4486L48.9832 30.449L48.9835 30.4495C49.0238 30.5131 49.0642 30.5769 49.1051 30.6407C49.2443 30.8708 49.1399 30.9894 48.8962 31.0173C48.5238 31.0521 48.1497 31.0853 47.7756 31.1184L47.7755 31.1184L47.7754 31.1184L47.7753 31.1184C47.401 31.1515 47.0268 31.1847 46.6542 31.2195C46.6503 31.2156 46.6486 31.2051 46.6466 31.1929C46.6451 31.1834 46.6434 31.1729 46.6403 31.1637ZM36.8463 36.2921C37.3892 36.3179 37.9307 36.3435 38.4699 36.3738C38.9026 36.3502 39.3327 36.3233 39.7604 36.2966H39.7604H39.7604H39.7604H39.7605C40.7228 36.2364 41.6727 36.1769 42.6127 36.1576C43.882 36.1274 45.1258 35.9073 46.3678 35.6875L46.3678 35.6875C46.8427 35.6035 47.3172 35.5195 47.7929 35.4462C48.4887 35.339 49.1743 35.1453 49.8584 34.952C49.9753 34.919 50.0921 34.886 50.2089 34.8534C50.9609 34.6372 51.0305 34.5186 50.8634 33.9398C50.8438 33.871 50.8069 33.8091 50.7697 33.7468C50.7542 33.7207 50.7385 33.6945 50.7241 33.6678C50.6811 33.5795 50.6356 33.4924 50.5902 33.4054C50.4815 33.1971 50.3731 32.9895 50.2994 32.7681C50.2298 32.5658 50.1532 32.5309 49.9583 32.5449C49.5222 32.5747 49.0861 32.6078 48.6498 32.641C47.5537 32.7244 46.4566 32.8079 45.3559 32.8378C43.9843 32.8727 42.6057 32.8099 41.2271 32.7471C40.1548 32.6983 39.0756 32.6076 38.0103 32.4821C36.952 32.3566 35.9076 32.1683 34.8632 31.98C33.9332 31.8156 33.0032 31.6334 32.0732 31.4512C31.7012 31.3783 31.3292 31.3054 30.9572 31.2337C30.8458 31.2128 30.7274 31.1709 30.6369 31.1012C30.3862 30.9059 30.2052 30.9966 30.066 31.2267L30.0187 31.306C29.8397 31.6065 29.6631 31.9029 29.5159 32.2171C29.133 33.054 28.757 33.8909 28.4088 34.7418C28.2487 35.1394 28.2835 35.2091 28.7222 35.2928C29.0746 35.3609 29.4267 35.4332 29.7787 35.5054C30.7966 35.7143 31.8145 35.9233 32.8441 36.0321C34.1788 36.1658 35.517 36.2292 36.8463 36.2921ZM32.6559 42.9479L33.3502 42.9791L33.8143 42.9303L33.8144 42.9302L33.8147 42.9302C35.1056 42.7943 36.3605 42.6621 37.6044 42.5188C39.335 42.336 41.0262 41.9428 42.7162 41.5498L42.7163 41.5498L42.8681 41.5145C43.5524 41.3563 44.2168 41.1144 44.8794 40.8732C45.0932 40.7954 45.3069 40.7176 45.5209 40.6427C46.2102 40.4056 46.8856 40.1475 47.561 39.8825C47.8529 39.7655 48.142 39.6369 48.4319 39.5079C48.5914 39.437 48.7511 39.3659 48.9117 39.2967C48.9863 39.2629 49.0626 39.2317 49.1391 39.2003C49.2839 39.141 49.4295 39.0813 49.5662 39.0037C50.158 38.655 50.7429 38.2993 51.3208 37.9297C51.356 37.9075 51.3931 37.8859 51.4307 37.864C51.6532 37.7346 51.8926 37.5952 51.8569 37.2671C51.8415 37.092 51.7919 36.9207 51.7418 36.7476L51.7417 36.7474L51.7417 36.7473C51.724 36.686 51.7062 36.6246 51.6898 36.5627C51.5645 36.0884 51.467 36.0535 51.0075 36.2279C50.9202 36.2604 50.833 36.2935 50.7456 36.3267C50.3451 36.4788 49.943 36.6315 49.5314 36.7231C48.3129 36.9811 47.0875 37.2322 45.8551 37.4275C44.6297 37.6228 43.3834 37.7972 42.144 37.8739C41.2488 37.9322 40.3479 37.9386 39.4468 37.945H39.4468H39.4467H39.4467H39.4467H39.4467H39.4466C38.946 37.9485 38.4453 37.9521 37.9455 37.9645C35.7662 38.0203 33.6008 37.7972 31.4494 37.4554C30.745 37.3472 30.0459 37.1987 29.3456 37.0499L29.3456 37.0498L29.3455 37.0498L29.3455 37.0498L29.3455 37.0498L29.3454 37.0498L29.3454 37.0498L29.3454 37.0498L29.3453 37.0498L29.3453 37.0498L29.3453 37.0498L29.3453 37.0498L29.3452 37.0498C28.9173 36.9589 28.489 36.8679 28.0586 36.7859C27.9611 36.7719 27.7592 36.8556 27.7383 36.9323C27.7048 37.0524 27.6703 37.1723 27.6358 37.2921L27.6358 37.2922C27.4842 37.8193 27.3329 38.3453 27.2648 38.8852C27.1459 39.8203 27.0879 40.7605 27.0302 41.6971L27.0302 41.6972C27.0203 41.8573 27.0104 42.0173 27.0003 42.1771C26.9933 42.2957 27.1325 42.484 27.2439 42.5258C27.5364 42.6304 27.8497 42.7211 28.1561 42.735C29.6665 42.8134 31.1769 42.8813 32.6558 42.9479H32.6559ZM52.3719 40.2803L52.3718 40.2799L52.3718 40.2795L52.3718 40.279C52.3455 39.9821 52.3179 39.671 52.2904 39.3242C52.153 39.4016 52.0421 39.4605 51.9446 39.5122C51.884 39.5444 51.8286 39.5738 51.7752 39.6032C51.6574 39.6769 51.541 39.7532 51.4244 39.8295L51.4244 39.8295L51.4244 39.8295L51.4243 39.8295L51.4243 39.8295L51.4243 39.8296L51.4242 39.8296C51.1549 40.0059 50.8852 40.1825 50.5985 40.3285C50.0136 40.6284 49.4148 40.8935 48.816 41.1585C48.3852 41.3527 47.9503 41.5343 47.5144 41.7164L47.5141 41.7165C47.3865 41.7698 47.2588 41.8232 47.1311 41.8769C47.0499 41.9094 46.9694 41.9443 46.889 41.9791L46.8889 41.9791C46.728 42.0489 46.5671 42.1186 46.4 42.1698L46.3998 42.1698C45.5156 42.4279 44.6314 42.6859 43.7403 42.923C42.7585 43.188 41.7768 43.4461 40.7881 43.6623C39.9108 43.8506 39.0196 44.011 38.1284 44.1156L37.8353 44.1495L37.8353 44.1495C36.3594 44.32 34.8831 44.4905 33.4007 44.569C32.2101 44.6318 31.0125 44.569 29.8219 44.4992C29.3173 44.4733 28.8153 44.3992 28.3127 44.325L28.3126 44.325L28.3126 44.325L28.3125 44.325L28.3125 44.325L28.3124 44.325L28.3124 44.325C28.0038 44.2794 27.6949 44.2338 27.385 44.1993C27.2875 44.1854 27.0717 44.3667 27.0856 44.4086C27.1008 44.4556 27.1154 44.5048 27.1301 44.5545L27.1301 44.5546C27.1962 44.7778 27.2661 45.0142 27.4198 45.1339C27.761 45.4059 28.1718 45.5942 28.5756 45.7756C28.8712 45.9122 29.1751 46.0344 29.4793 46.1568L29.4794 46.1568C29.7341 46.2592 29.989 46.3618 30.2397 46.473C31.4581 47.01 32.7114 47.4355 33.9995 47.7493C34.2265 47.8068 34.4509 47.8714 34.6744 47.9359L34.6745 47.9359L34.6746 47.9359L34.6746 47.9359L34.6747 47.9359L34.6747 47.9359L34.6747 47.9359C35.0751 48.0513 35.4729 48.1659 35.8794 48.2375C37.0213 48.4328 38.1632 48.6141 39.312 48.7257C41.6167 48.9489 43.9213 49.0256 46.212 48.649C47.326 48.4677 48.4331 48.2445 49.5262 47.9586C50.1314 47.7993 50.7176 47.5757 51.3045 47.3519L51.3045 47.3519L51.3046 47.3519L51.3046 47.3519L51.3047 47.3519L51.3047 47.3518L51.3048 47.3518C51.5146 47.2718 51.7245 47.1918 51.9353 47.1146C52.0258 47.0868 52.1163 46.9682 52.1372 46.8705C52.2068 46.5706 52.2626 46.2568 52.2974 45.9499C52.4923 44.29 52.5689 42.6231 52.4297 40.9493C52.4115 40.7282 52.3921 40.5085 52.3719 40.2803ZM51.6945 49.0599C51.6374 49.2271 51.5838 49.388 51.5317 49.5444L51.5317 49.5444L51.5316 49.5446C51.4185 49.8841 51.3124 50.2025 51.1932 50.5176C51.1514 50.6222 51.0331 50.7129 50.9356 50.7687L50.9355 50.7687C50.4551 51.0546 49.9747 51.3406 49.4804 51.5917C48.9025 51.8846 48.3107 52.1566 47.7119 52.4007C47.322 52.5611 46.9042 52.6727 46.4934 52.7773C46.0916 52.8849 45.6897 52.9834 45.2879 53.0819C44.9865 53.1558 44.6851 53.2296 44.3837 53.3074C43.1235 53.6282 41.8424 53.7746 40.5404 53.8304C40.2811 53.8414 40.023 53.862 39.765 53.8825H39.765H39.7649H39.7649H39.7648H39.7648C39.3647 53.9144 38.9651 53.9463 38.563 53.942C37.9306 53.9363 37.2983 53.8886 36.666 53.8409C36.5255 53.8303 36.3849 53.8197 36.2444 53.8095C36.1097 53.7997 35.9747 53.7907 35.8396 53.7817L35.8395 53.7817L35.8394 53.7817L35.8393 53.7817L35.8392 53.7817C35.3041 53.746 34.7672 53.7103 34.2392 53.6212C33.3479 53.4747 32.4637 53.3074 31.5933 53.0772C30.7926 52.868 30.0059 52.589 29.24 52.2821C29.0311 52.1984 28.8361 51.9334 28.7456 51.7102C28.4894 51.1133 28.2688 50.501 28.0491 49.8909L28.0491 49.8909C28.0121 49.7882 27.9751 49.6855 27.938 49.583C27.9066 49.5006 27.8951 49.4093 27.8836 49.3178C27.8746 49.2469 27.8657 49.1758 27.8474 49.1088C27.7743 48.8158 27.7012 48.5247 27.6281 48.2335L27.6281 48.2334L27.6281 48.2332L27.628 48.2331L27.628 48.233L27.628 48.2329C27.5549 47.9419 27.4819 47.6509 27.4088 47.3582C27.3879 47.2815 27.374 47.2047 27.4227 47.0374C27.4625 47.0556 27.5027 47.0739 27.543 47.0922L27.5431 47.0923L27.5435 47.0925L27.5438 47.0926L27.5441 47.0927C27.673 47.1513 27.804 47.2109 27.931 47.2745C28.0122 47.3163 28.0919 47.3613 28.1716 47.4062C28.331 47.4961 28.4903 47.586 28.6621 47.6511C28.8075 47.7104 28.9529 47.7702 29.0984 47.83C29.7402 48.0938 30.3836 48.3583 31.0363 48.5857C31.851 48.8716 32.6795 49.1157 33.5081 49.3389C34.2879 49.5481 35.0747 49.7434 35.8684 49.8759L36.0176 49.9009C37.2217 50.1021 38.4322 50.3044 39.6491 50.3781C41.1948 50.4757 42.7545 50.4827 44.3002 50.4409C45.3933 50.413 46.4934 50.2805 47.5796 50.127C48.243 50.034 48.8937 49.8523 49.5379 49.6725L49.6336 49.6458C50.0473 49.5328 50.4515 49.3943 50.8547 49.2562C51.0487 49.1897 51.2424 49.1234 51.4369 49.0599C51.4708 49.0515 51.5072 49.0533 51.5618 49.056C51.597 49.0578 51.6399 49.0599 51.6945 49.0599ZM49.8768 53.6C49.9285 53.4977 49.9801 53.3955 50.0336 53.2946C50.0294 53.2883 50.0246 53.2813 50.0193 53.2737C50.0071 53.2562 49.9925 53.2353 49.9779 53.2109C49.9421 53.2199 49.9062 53.2275 49.8705 53.2349C49.7955 53.2507 49.7215 53.2663 49.6507 53.2946C49.588 53.3225 49.5288 53.3574 49.4697 53.3923C49.4105 53.4271 49.3513 53.462 49.2886 53.4899C48.8848 53.6643 48.481 53.8386 48.0702 53.9781C47.2973 54.2362 46.5175 54.4942 45.7307 54.6965C45.0762 54.8639 44.4009 54.9824 43.7255 55.0731C43.4027 55.1163 43.08 55.1617 42.7571 55.2072L42.757 55.2072L42.7569 55.2072L42.7568 55.2072C41.6729 55.3597 40.5881 55.5124 39.4992 55.5822C37.48 55.7078 35.4817 55.4916 33.4904 55.1289C33.3257 55.0983 33.1608 55.069 32.996 55.0398L32.9956 55.0397L32.9952 55.0397C32.1848 54.8959 31.376 54.7525 30.6009 54.4454C30.5259 54.4126 30.4383 54.4113 30.3296 54.4097H30.3294C30.2767 54.409 30.219 54.4081 30.1553 54.4036C30.1893 54.4791 30.2166 54.5478 30.2415 54.6105C30.2879 54.7276 30.3261 54.824 30.385 54.9057C30.6427 55.2405 30.9072 55.5753 31.1857 55.8891C31.3125 56.0319 31.4378 56.1758 31.5629 56.3196C31.9879 56.8076 32.4113 57.294 32.8846 57.7304C33.553 58.3441 34.2702 58.9021 35.1057 59.2996C35.2293 59.3589 35.3515 59.4199 35.4736 59.4808L35.4736 59.4808C35.8398 59.6636 36.2041 59.8453 36.5957 59.9761C37.4661 60.2691 38.3364 60.5201 39.2624 60.4783C39.2997 60.4783 39.3356 60.4838 39.3713 60.4894L39.3714 60.4894C39.4157 60.4962 39.4599 60.5031 39.5061 60.4992C39.7367 60.4861 39.9693 60.4833 40.2018 60.4804H40.2019H40.202C40.7137 60.4741 41.225 60.4678 41.7133 60.3527C42.3164 60.2145 42.8933 59.9748 43.4687 59.7357L43.4687 59.7357L43.4687 59.7357L43.4688 59.7356L43.4689 59.7356C43.6772 59.649 43.8854 59.5625 44.0945 59.4809C44.3382 59.3903 44.5889 59.2926 44.7977 59.1462C45.1608 58.8916 45.5085 58.6176 45.8551 58.3445L45.8552 58.3444C45.9738 58.2509 46.0922 58.1576 46.2111 58.0651C46.3037 57.9926 46.3987 57.9217 46.4937 57.8508C46.7275 57.6763 46.9621 57.5012 47.165 57.298C47.4636 56.9989 47.7363 56.6778 48.0074 56.3587L48.0079 56.3581C48.1097 56.2382 48.2113 56.1187 48.3139 56.0007C48.348 55.9616 48.3787 55.9157 48.4108 55.8677C48.4246 55.8472 48.4385 55.8263 48.4531 55.8054C48.5806 55.6189 48.711 55.4334 48.8413 55.2477C49.0669 54.9265 49.2927 54.6051 49.5045 54.278C49.6443 54.0608 49.7607 53.8302 49.8768 53.6Z" fill="#8858B5"/>
</svg>
