<svg width="79" height="79" viewBox="0 0 79 79" fill="none" xmlns="http://www.w3.org/2000/svg">
<path d="M13.8237 13.0119L13.2497 13.2497L13.0119 13.8237L2.61418 38.926L2.37641 39.5L2.61418 40.074L13.0119 65.1763L13.2497 65.7503L13.8237 65.9881L38.926 76.3858L39.5 76.6236L40.074 76.3858L65.1763 65.9881L65.7503 65.7503L65.9881 65.1763L76.3858 40.074L76.6236 39.5L76.3858 38.926L65.9881 13.8237L65.7503 13.2497L65.1763 13.0119L40.074 2.61418L39.5 2.37641L38.926 2.61418L13.8237 13.0119Z" fill="#DFDCF1" stroke="#8858B5" stroke-width="3"/>
<path fill-rule="evenodd" clip-rule="evenodd" d="M47.5696 39.8242V41.0903C47.2743 41.0343 46.9837 40.9813 46.6965 40.9289C45.8708 40.7782 45.0745 40.6329 44.2831 40.4399C42.1586 39.9196 40.1901 39.0698 38.5078 37.6216C37.9788 37.162 37.6927 36.6938 37.8921 35.9827C37.9225 35.8552 37.9231 35.7234 37.9237 35.5904C37.924 35.5334 37.9242 35.4762 37.9268 35.419C37.9596 34.8208 37.9858 34.2211 38.0121 33.621V33.621C38.0759 32.1595 38.1399 30.6956 38.2997 29.2449C38.5512 26.9642 39.1755 24.7963 40.5977 22.8973C41.6469 21.4838 42.8696 20.3392 44.5086 19.6628C44.63 19.6107 44.7514 19.4286 44.76 19.2986C44.786 18.9734 44.7828 18.6482 44.7795 18.323C44.7785 18.2146 44.7774 18.1062 44.7774 17.9978C44.7774 17.3995 45.1069 17.0093 45.6185 17.0006C46.1301 16.9919 46.477 17.3821 46.4857 17.9805C46.4914 18.2257 46.4896 18.4672 46.4877 18.7221V18.7222V18.7222C46.4867 18.855 46.4857 18.9913 46.4857 19.1338C47.7864 18.9257 49.0178 19.0644 50.2665 19.446C50.2665 19.2812 50.265 19.1217 50.2636 18.9658C50.26 18.5883 50.2567 18.2324 50.2752 17.8764C50.3012 17.3475 50.6914 16.9833 51.1597 17.0006C51.6453 17.0179 51.9748 17.3908 51.9835 17.9198C51.9847 18.0091 51.9861 18.0984 51.9875 18.1877L51.9875 18.1878L51.9875 18.1879C51.996 18.7227 52.0045 19.2566 51.9748 19.7842C51.9574 20.1224 52.0788 20.2958 52.3477 20.4779C57.1951 23.7037 57.2558 30.9705 52.4691 34.2917C51.203 35.1676 49.8156 35.6618 48.2894 35.8179C48.1593 35.8353 47.9512 35.896 47.9338 35.974C47.8564 36.3468 47.8076 36.7254 47.7688 37.0263L47.7688 37.0263L47.7688 37.0264C47.7597 37.0964 47.7512 37.1622 47.7431 37.2227C47.9472 37.3331 48.1461 37.4338 48.3386 37.5313C48.7512 37.7401 49.1344 37.9342 49.4774 38.1766C49.8676 38.4541 49.8849 38.9137 49.7202 39.3646C49.5641 39.7982 49.2172 39.9543 48.801 39.9369C48.4997 39.9305 48.1983 39.8957 47.8935 39.8604C47.786 39.848 47.6781 39.8355 47.5696 39.8242ZM46.0805 24.7739C46.0456 24.8989 46.0095 25.0282 45.9654 25.1606C46.0078 25.2718 46.0453 25.3863 46.0829 25.501L46.0829 25.5011C46.1684 25.762 46.2544 26.0243 46.399 26.2532C46.6504 26.6607 47.11 26.6261 47.3962 26.2445C47.8124 25.6808 47.8124 24.5969 47.3962 24.0419C47.058 23.5997 46.5897 23.6083 46.3209 24.1026C46.212 24.3032 46.1486 24.5303 46.0805 24.7738L46.0805 24.7739ZM51.7116 24.8274C51.6714 24.9459 51.6306 25.0663 51.5846 25.1866C51.6344 25.314 51.6781 25.4396 51.7207 25.5621C51.8113 25.823 51.897 26.0695 52.0268 26.2879C52.2783 26.7041 52.6859 26.6954 52.998 26.3312C53.4663 25.7762 53.4576 24.5622 52.972 24.0246C52.6945 23.7124 52.2696 23.6777 52.0528 24.0332C51.9 24.2716 51.8076 24.5444 51.7116 24.8274L51.7116 24.8274ZM33.9994 44.0825C35.1614 43.2067 36.0372 42.1054 36.7049 40.8047C39.8094 43.2414 43.3647 44.1432 47.1976 44.3167C47.1901 44.3641 47.1847 44.4086 47.1797 44.4507C47.1672 44.5549 47.1566 44.6439 47.1195 44.7242C46.9548 45.0624 47.0848 45.2185 47.4057 45.3746C47.6658 45.496 47.9086 45.7041 48.1167 45.9209C48.4203 46.2418 48.4376 46.6493 48.2642 47.0482C48.0907 47.4384 47.7872 47.6812 47.3536 47.6552C47.0789 47.6433 46.8083 47.5902 46.5446 47.5385L46.5446 47.5385L46.5444 47.5384C46.4253 47.5151 46.3077 47.492 46.1917 47.4731C45.9324 47.886 45.6732 48.3041 45.4125 48.7247C45.2023 49.0638 44.9911 49.4044 44.7782 49.7451C44.834 49.8089 44.8915 49.8711 44.9488 49.9331L44.9489 49.9332C45.0786 50.0735 45.2076 50.2131 45.3158 50.3694C45.654 50.8637 45.5846 51.2799 45.1164 51.6528C44.6134 52.0517 44.0931 51.939 43.5728 51.6875C43.4218 51.617 43.2734 51.5401 43.125 51.4631L43.1249 51.463L43.1248 51.463L43.1248 51.463C42.8899 51.3412 42.6553 51.2195 42.4108 51.1239C40.0435 50.1787 37.8756 48.9126 36.0893 47.0656C35.2394 46.1897 34.537 45.2098 33.9994 44.0825ZM30.1241 55.2514C30.4883 56.6216 30.9306 57.0898 31.7197 56.9858C32.3354 56.9077 32.5001 56.5695 32.5521 55.2514C32.8701 55.2081 33.1881 55.1628 33.506 55.1175C34.1419 55.0269 34.7778 54.9364 35.4138 54.8612C35.5092 54.8526 35.6652 54.9479 35.7346 55.0433C35.8144 55.1474 35.8859 55.2598 35.9573 55.3722L35.9573 55.3722C36.0645 55.5408 36.1717 55.7093 36.3069 55.8498C36.6798 56.2313 37.2608 56.266 37.7031 56.0059C38.0499 55.7978 38.1713 55.4075 38.0499 54.8526C38.0066 54.6531 37.9632 54.4623 37.9025 54.2369C38.2072 54.1221 38.5074 54.0073 38.8225 53.8867L38.8251 53.8857C39.1281 53.7699 39.4449 53.6487 39.7929 53.5171C35.5178 52.2944 32.5782 49.693 30.8265 45.8168C30.6055 45.851 30.3861 45.8853 30.1681 45.9194L30.1653 45.9198C29.2808 46.058 28.4175 46.1929 27.5486 46.311C27.2365 46.3544 26.9156 46.3717 26.5948 46.3631C26.2219 46.3457 26.1438 46.4931 26.1612 46.8487C26.2913 49.5629 27.1758 52.0343 28.5632 54.3409C28.5916 54.3859 28.6196 54.431 28.6475 54.476C28.9857 55.0216 29.307 55.5398 30.1241 55.2514ZM23.0751 46.3965C23.1531 49.3535 23.5347 52.2498 25.0695 54.9814C24.821 54.9463 24.5834 54.9145 24.3534 54.8838C23.8449 54.8158 23.3733 54.7528 22.9016 54.6692C21.5576 54.4351 20.2481 54.0795 19.1729 53.1777C18.3838 52.5187 17.9588 51.6688 18.0022 50.6369C18.1323 47.6105 20.9592 46.2491 23.0751 46.3965Z" fill="#8858B5"/>
</svg>
