<svg width="115" height="54" viewBox="0 0 115 54" fill="none" xmlns="http://www.w3.org/2000/svg">
<path d="M104.368 11L113.5 27.0434L104.368 43M105.197 11H86.8282H84.3376H90.0184H79.4332H76.5117H50.6713H32.3028H29.8122H12.4815L2 27.0434L12.4815 43H29.8122H32.3028H50.6713H76.5117H79.4332H90.0184H84.3376H86.8282H105.197" stroke="white" stroke-width="2"/>
<path d="M31.6069 22.8995C32.2558 24.4544 33.3646 25.8141 34.6376 27.036C33.0613 28.59 31.9775 30.1114 31.4264 31.6998C30.7738 33.5806 30.9054 35.4458 31.6583 37.3904L31.6626 37.4015L31.6672 37.4125C32.4702 39.3483 33.6385 40.78 35.3922 41.6822C36.9141 42.4651 38.7948 42.806 41.0913 42.8375C41.4448 45.2421 41.978 47.246 42.73 48.8177C43.5763 50.5862 44.7354 51.8765 46.2869 52.5074C47.8328 53.1361 49.593 53.0385 51.498 52.3952C53.1771 51.8282 55.032 50.8173 57.069 49.402C58.1545 50.7791 59.4411 51.832 60.9359 52.435C62.732 53.1594 64.7343 53.1956 66.8808 52.495L66.8808 52.4951L66.894 52.4905C69.4374 51.6209 71.0303 50.0838 71.894 48.0929C72.5862 46.497 72.7833 44.6713 72.7194 42.7809C74.4726 42.9322 76.1212 42.7622 77.5924 42.1597C79.427 41.4085 80.8927 40.0225 81.9168 37.9654C83.1171 35.5541 83.1058 33.3455 82.305 31.3277C81.6623 29.7082 80.5288 28.2556 79.2286 26.9263C80.6624 25.7555 81.7608 24.432 82.3947 22.9271C83.1726 21.0803 83.2095 19.0577 82.4543 16.89C81.588 14.3893 80.0606 12.7961 78.0984 11.9169C76.5018 11.2017 74.6782 10.9859 72.7989 11.0508C72.8418 9.33243 72.6793 7.66273 72.1043 6.17914C71.3852 4.324 70.0454 2.82421 67.8483 1.88452C65.5308 0.85768 63.3814 0.810592 61.3861 1.55862C59.7679 2.16526 58.3127 3.27155 56.9718 4.66931C55.801 3.24719 54.4676 2.17668 52.9572 1.56756C51.0937 0.816048 49.0589 0.806853 46.9056 1.56384L46.9056 1.56377L46.8942 1.56793C44.5173 2.43606 42.9359 3.91025 42.0463 5.82496C41.3142 7.40054 41.0802 9.20972 41.1736 11.1126C39.4499 11.1382 37.7436 11.3446 36.2179 11.9644C34.3196 12.7354 32.7541 14.1251 31.7693 16.4323C30.7387 18.8302 30.8038 20.9748 31.6069 22.8995Z" fill="#564A8D" stroke="white" stroke-width="2"/>
</svg>
