<svg width="90" height="90" viewBox="0 0 90 90" fill="none" xmlns="http://www.w3.org/2000/svg">
<path d="M14.5944 14.5944L45 2L75.4055 14.5944L88 45L75.4055 75.4055L45 88L14.5944 75.4055L2 45L14.5944 14.5944Z" fill="#675C98" stroke="#D5D1ED" stroke-width="3"/>
<path d="M58.216 52.0428H32.0853C31.9433 52.0412 31.8036 52.0065 31.6773 51.9415C27.2106 51.4748 23.752 47.7148 23.752 43.2668C23.752 38.4295 27.728 34.4908 32.616 34.4908C32.816 34.4908 33.0053 34.4908 33.1973 34.4962C33.267 31.3119 34.5805 28.2814 36.8567 26.0536C39.133 23.8257 42.1909 22.5775 45.376 22.5762C52.0533 22.5762 57.4853 28.0348 57.4853 34.7442C57.4853 34.8668 57.48 34.9868 57.4693 35.1015C57.591 35.0952 57.7128 35.0916 57.8346 35.0908C62.472 35.0908 66.2453 38.8935 66.2453 43.5655C66.2453 48.1388 62.816 51.7815 58.2666 52.0375C58.2499 52.0409 58.233 52.0427 58.216 52.0428ZM32.3813 50.1735H58.192C59.8779 50.0854 61.4642 49.3482 62.6185 48.1163C63.7729 46.8844 64.4055 45.2536 64.384 43.5655C64.384 39.9228 61.4453 36.9575 57.8373 36.9575C57.368 36.9575 56.9626 37.0268 56.56 37.0962C56.4264 37.1182 56.2897 37.1109 56.1592 37.0749C56.0287 37.0388 55.9077 36.9748 55.8045 36.8873C55.7012 36.7997 55.6182 36.6908 55.5613 36.568C55.5043 36.4452 55.4747 36.3115 55.4746 36.1762C55.4746 35.9095 55.512 35.6428 55.5546 35.3655C55.5893 35.1682 55.624 34.9655 55.624 34.7442C55.624 29.0642 51.0266 24.4428 45.3786 24.4428C42.6453 24.4435 40.0239 25.5286 38.0896 27.4598C36.1553 29.3911 35.0662 32.0108 35.0613 34.7442C35.0613 34.8482 35.0773 34.9388 35.0906 35.0295C35.112 35.2055 35.1333 35.3788 35.1333 35.5762C35.1336 35.7208 35.1003 35.8636 35.0359 35.9932C34.9716 36.1228 34.878 36.2356 34.7626 36.3228C34.6474 36.4101 34.5133 36.4691 34.3711 36.495C34.2289 36.521 34.0826 36.5131 33.944 36.4722C33.544 36.3575 33.1733 36.3575 32.616 36.3575C28.7573 36.3575 25.616 39.4562 25.616 43.2642C25.616 46.8882 28.3946 49.8268 32.08 50.0988C32.1866 50.1095 32.288 50.1362 32.3813 50.1735ZM31.0293 60.2615C30.8445 60.2615 30.6639 60.2067 30.5103 60.104C30.3567 60.0013 30.2371 59.8553 30.1666 59.6845C30.096 59.5137 30.0778 59.3258 30.1141 59.1447C30.1504 58.9635 30.2397 58.7972 30.3706 58.6668L33.4693 55.5762C33.5545 55.4833 33.6576 55.4087 33.7724 55.3568C33.8873 55.3049 34.0114 55.2768 34.1374 55.2742C34.2634 55.2715 34.3886 55.2945 34.5055 55.3415C34.6223 55.3886 34.7285 55.4588 34.8175 55.548C34.9065 55.6372 34.9765 55.7435 35.0234 55.8605C35.0702 55.9775 35.0928 56.1027 35.09 56.2287C35.0871 56.3547 35.0587 56.4787 35.0066 56.5935C34.9544 56.7082 34.8796 56.8112 34.7866 56.8962L31.688 59.9868C31.5135 60.162 31.2766 60.2608 31.0293 60.2615ZM36.768 60.2615C36.5832 60.2615 36.4026 60.2067 36.249 60.104C36.0954 60.0013 35.9758 59.8553 35.9052 59.6845C35.8347 59.5137 35.8164 59.3258 35.8528 59.1447C35.8891 58.9635 35.9784 58.7972 36.1093 58.6668L39.208 55.5762C39.2932 55.4833 39.3963 55.4087 39.5111 55.3568C39.6259 55.3049 39.7501 55.2768 39.876 55.2742C40.002 55.2715 40.1272 55.2945 40.2441 55.3415C40.361 55.3886 40.4672 55.4588 40.5562 55.548C40.6452 55.6372 40.7152 55.7435 40.762 55.8605C40.8089 55.9775 40.8315 56.1027 40.8286 56.2287C40.8257 56.3547 40.7974 56.4787 40.7452 56.5935C40.6931 56.7082 40.6183 56.8112 40.5253 56.8962L37.4266 59.9868C37.3404 60.0738 37.2378 60.1429 37.1247 60.19C37.0117 60.2372 36.8904 60.2615 36.768 60.2615ZM42.5066 60.2615C42.3219 60.2615 42.1412 60.2067 41.9877 60.104C41.8341 60.0013 41.7144 59.8553 41.6439 59.6845C41.5734 59.5137 41.5551 59.3258 41.5914 59.1447C41.6278 58.9635 41.717 58.7972 41.848 58.6668L44.9466 55.5762C45.0318 55.4833 45.135 55.4087 45.2498 55.3568C45.3646 55.3049 45.4887 55.2768 45.6147 55.2742C45.7407 55.2715 45.8659 55.2945 45.9828 55.3415C46.0997 55.3886 46.2058 55.4588 46.2948 55.548C46.3839 55.6372 46.4539 55.7435 46.5007 55.8605C46.5475 55.9775 46.5702 56.1027 46.5673 56.2287C46.5644 56.3547 46.536 56.4787 46.4839 56.5935C46.4318 56.7082 46.357 56.8112 46.264 56.8962L43.1653 59.9868C43.0791 60.0738 42.9765 60.1429 42.8634 60.19C42.7504 60.2372 42.6291 60.2615 42.5066 60.2615ZM48.248 60.2615C48.0632 60.2615 47.8826 60.2067 47.729 60.104C47.5754 60.0013 47.4558 59.8553 47.3852 59.6845C47.3147 59.5137 47.2964 59.3258 47.3328 59.1447C47.3691 58.9635 47.4584 58.7972 47.5893 58.6668L50.688 55.5762C50.7732 55.4833 50.8763 55.4087 50.9911 55.3568C51.1059 55.3049 51.2301 55.2768 51.356 55.2742C51.482 55.2715 51.6072 55.2945 51.7241 55.3415C51.841 55.3886 51.9472 55.4588 52.0362 55.548C52.1252 55.6372 52.1952 55.7435 52.242 55.8605C52.2889 55.9775 52.3115 56.1027 52.3086 56.2287C52.3057 56.3547 52.2774 56.4787 52.2252 56.5935C52.1731 56.7082 52.0983 56.8112 52.0053 56.8962L48.9066 59.9868C48.7321 60.162 48.4952 60.2608 48.248 60.2615ZM53.9866 60.2615C53.8019 60.2615 53.6212 60.2067 53.4677 60.104C53.3141 60.0013 53.1944 59.8553 53.1239 59.6845C53.0534 59.5137 53.0351 59.3258 53.0714 59.1447C53.1078 58.9635 53.197 58.7972 53.328 58.6668L56.4213 55.5762C56.5065 55.4833 56.6096 55.4087 56.7244 55.3568C56.8393 55.3049 56.9634 55.2768 57.0894 55.2742C57.2154 55.2715 57.3406 55.2945 57.4575 55.3415C57.5743 55.3886 57.6805 55.4588 57.7695 55.548C57.8585 55.6372 57.9285 55.7435 57.9754 55.8605C58.0222 55.9775 58.0448 56.1027 58.042 56.2287C58.0391 56.3547 58.0107 56.4787 57.9586 56.5935C57.9064 56.7082 57.8316 56.8112 57.7386 56.8962L54.6453 59.9868C54.5591 60.0738 54.4565 60.1429 54.3434 60.19C54.2304 60.2372 54.1091 60.2615 53.9866 60.2615ZM29.6693 67.4242C29.4845 67.4242 29.3039 67.3694 29.1503 67.2666C28.9967 67.1639 28.8771 67.0179 28.8066 66.8471C28.736 66.6764 28.7178 66.4885 28.7541 66.3074C28.7904 66.1262 28.8797 65.9599 29.0106 65.8295L32.1093 62.7388C32.1945 62.646 32.2976 62.5714 32.4124 62.5195C32.5273 62.4676 32.6514 62.4395 32.7774 62.4369C32.9034 62.4342 33.0286 62.4571 33.1455 62.5042C33.2623 62.5513 33.3685 62.6215 33.4575 62.7107C33.5465 62.7999 33.6165 62.9062 33.6634 63.0231C33.7102 63.1401 33.7328 63.2654 33.73 63.3914C33.7271 63.5173 33.6987 63.6414 33.6466 63.7561C33.5944 63.8708 33.5196 63.9738 33.4266 64.0588L30.328 67.1495C30.2421 67.237 30.1396 67.3063 30.0264 67.3535C29.9133 67.4007 29.7919 67.4247 29.6693 67.4242ZM35.408 67.4242C35.2232 67.4242 35.0426 67.3694 34.889 67.2666C34.7354 67.1639 34.6158 67.0179 34.5452 66.8471C34.4747 66.6764 34.4564 66.4885 34.4928 66.3074C34.5291 66.1262 34.6184 65.9599 34.7493 65.8295L37.848 62.7388C37.9332 62.646 38.0363 62.5714 38.1511 62.5195C38.2659 62.4676 38.3901 62.4395 38.516 62.4369C38.642 62.4342 38.7672 62.4571 38.8841 62.5042C39.001 62.5513 39.1072 62.6215 39.1962 62.7107C39.2852 62.7999 39.3552 62.9062 39.402 63.0231C39.4489 63.1401 39.4715 63.2654 39.4686 63.3914C39.4657 63.5173 39.4374 63.6414 39.3852 63.7561C39.3331 63.8708 39.2583 63.9738 39.1653 64.0588L36.0666 67.1495C35.9807 67.237 35.8782 67.3063 35.7651 67.3535C35.652 67.4007 35.5305 67.4247 35.408 67.4242ZM41.1493 67.4242C40.9645 67.4242 40.7839 67.3694 40.6303 67.2666C40.4767 67.1639 40.3571 67.0179 40.2866 66.8471C40.216 66.6764 40.1978 66.4885 40.2341 66.3074C40.2704 66.1262 40.3597 65.9599 40.4906 65.8295L43.5893 62.7388C43.6745 62.646 43.7776 62.5714 43.8924 62.5195C44.0073 62.4676 44.1314 62.4395 44.2574 62.4369C44.3834 62.4342 44.5086 62.4571 44.6255 62.5042C44.7423 62.5513 44.8485 62.6215 44.9375 62.7107C45.0265 62.7999 45.0965 62.9062 45.1434 63.0231C45.1902 63.1401 45.2128 63.2654 45.21 63.3914C45.2071 63.5173 45.1787 63.6414 45.1266 63.7561C45.0744 63.8708 44.9996 63.9738 44.9066 64.0588L41.808 67.1495C41.7219 67.2367 41.6193 67.3059 41.5063 67.3531C41.3932 67.4003 41.2718 67.4244 41.1493 67.4242ZM46.888 67.4242C46.7032 67.4242 46.5226 67.3694 46.369 67.2666C46.2154 67.1639 46.0958 67.0179 46.0252 66.8471C45.9547 66.6764 45.9364 66.4885 45.9728 66.3074C46.0091 66.1262 46.0984 65.9599 46.2293 65.8295L49.328 62.7388C49.4132 62.646 49.5163 62.5714 49.6311 62.5195C49.7459 62.4676 49.8701 62.4395 49.996 62.4369C50.122 62.4342 50.2472 62.4571 50.3641 62.5042C50.481 62.5513 50.5872 62.6215 50.6762 62.7107C50.7652 62.7999 50.8352 62.9062 50.882 63.0231C50.9289 63.1401 50.9515 63.2654 50.9486 63.3914C50.9457 63.5173 50.9174 63.6414 50.8652 63.7561C50.8131 63.8708 50.7383 63.9738 50.6453 64.0588L47.5466 67.1495C47.4608 67.237 47.3582 67.3063 47.2451 67.3535C47.132 67.4007 47.0105 67.4247 46.888 67.4242ZM52.6266 67.4242C52.4419 67.4242 52.2612 67.3694 52.1077 67.2666C51.9541 67.1639 51.8344 67.0179 51.7639 66.8471C51.6934 66.6764 51.6751 66.4885 51.7114 66.3074C51.7478 66.1262 51.837 65.9599 51.968 65.8295L55.0613 62.7388C55.1465 62.646 55.2496 62.5714 55.3644 62.5195C55.4793 62.4676 55.6034 62.4395 55.7294 62.4369C55.8554 62.4342 55.9806 62.4571 56.0975 62.5042C56.2143 62.5513 56.3205 62.6215 56.4095 62.7107C56.4985 62.7999 56.5685 62.9062 56.6154 63.0231C56.6622 63.1401 56.6848 63.2654 56.682 63.3914C56.6791 63.5173 56.6507 63.6414 56.5986 63.7561C56.5464 63.8708 56.4716 63.9738 56.3786 64.0588L53.2853 67.1495C53.1994 67.237 53.0969 67.3063 52.9838 67.3535C52.8706 67.4007 52.7492 67.4247 52.6266 67.4242Z" fill="#D5D1ED"/>
</svg>
