<svg width="64" height="64" viewBox="0 0 64 64" fill="none" xmlns="http://www.w3.org/2000/svg">
<path d="M45.216 39.0428H19.0853C18.9433 39.0412 18.8036 39.0065 18.6773 38.9415C14.2107 38.4748 10.752 34.7148 10.752 30.2668C10.752 25.4295 14.728 21.4908 19.616 21.4908C19.816 21.4908 20.0053 21.4908 20.1973 21.4962C20.267 18.3119 21.5806 15.2814 23.8568 13.0536C26.133 10.8257 29.191 9.5775 32.376 9.57617C39.0533 9.57617 44.4853 15.0348 44.4853 21.7442C44.4853 21.8668 44.48 21.9868 44.4693 22.1015C44.591 22.0952 44.7128 22.0916 44.8347 22.0908C49.472 22.0908 53.2453 25.8935 53.2453 30.5655C53.2453 35.1388 49.816 38.7815 45.2667 39.0375C45.25 39.0409 45.233 39.0427 45.216 39.0428ZM19.3813 37.1735H45.192C46.8779 37.0854 48.4643 36.3482 49.6186 35.1163C50.7729 33.8844 51.4056 32.2536 51.384 30.5655C51.384 26.9228 48.4453 23.9575 44.8373 23.9575C44.368 23.9575 43.9627 24.0268 43.56 24.0962C43.4265 24.1182 43.2897 24.1109 43.1593 24.0749C43.0288 24.0388 42.9077 23.9748 42.8045 23.8873C42.7012 23.7997 42.6183 23.6908 42.5613 23.568C42.5044 23.4452 42.4748 23.3115 42.4747 23.1762C42.4747 22.9095 42.512 22.6428 42.5547 22.3655C42.5893 22.1682 42.624 21.9655 42.624 21.7442C42.624 16.0642 38.0267 11.4428 32.3787 11.4428C29.6453 11.4435 27.0239 12.5286 25.0896 14.4598C23.1554 16.3911 22.0663 19.0108 22.0613 21.7442C22.0613 21.8482 22.0773 21.9388 22.0907 22.0295C22.112 22.2055 22.1333 22.3788 22.1333 22.5762C22.1336 22.7208 22.1003 22.8636 22.036 22.9932C21.9717 23.1228 21.8781 23.2356 21.7627 23.3228C21.6474 23.4101 21.5133 23.4691 21.3711 23.495C21.2289 23.521 21.0826 23.5131 20.944 23.4722C20.544 23.3575 20.1733 23.3575 19.616 23.3575C15.7573 23.3575 12.616 26.4562 12.616 30.2642C12.616 33.8882 15.3947 36.8268 19.08 37.0988C19.1867 37.1095 19.288 37.1362 19.3813 37.1735ZM18.0293 47.2615C17.8446 47.2615 17.664 47.2067 17.5104 47.104C17.3568 47.0013 17.2372 46.8553 17.1666 46.6845C17.0961 46.5137 17.0778 46.3258 17.1141 46.1447C17.1505 45.9635 17.2397 45.7972 17.3707 45.6668L20.4693 42.5762C20.5545 42.4833 20.6577 42.4087 20.7725 42.3568C20.8873 42.3049 21.0114 42.2768 21.1374 42.2742C21.2634 42.2715 21.3886 42.2945 21.5055 42.3415C21.6224 42.3886 21.7285 42.4588 21.8176 42.548C21.9066 42.6372 21.9766 42.7435 22.0234 42.8605C22.0702 42.9775 22.0929 43.1027 22.09 43.2287C22.0871 43.3547 22.0588 43.4787 22.0066 43.5935C21.9545 43.7082 21.8797 43.8112 21.7867 43.8962L18.688 46.9868C18.5135 47.162 18.2766 47.2608 18.0293 47.2615ZM23.768 47.2615C23.5832 47.2615 23.4026 47.2067 23.249 47.104C23.0955 47.0013 22.9758 46.8553 22.9053 46.6845C22.8347 46.5137 22.8165 46.3258 22.8528 46.1447C22.8891 45.9635 22.9784 45.7972 23.1093 45.6668L26.208 42.5762C26.2932 42.4833 26.3963 42.4087 26.5112 42.3568C26.626 42.3049 26.7501 42.2768 26.8761 42.2742C27.0021 42.2715 27.1273 42.2945 27.2442 42.3415C27.3611 42.3886 27.4672 42.4588 27.5562 42.548C27.6452 42.6372 27.7153 42.7435 27.7621 42.8605C27.8089 42.9775 27.8316 43.1027 27.8287 43.2287C27.8258 43.3547 27.7974 43.4787 27.7453 43.5935C27.6932 43.7082 27.6183 43.8112 27.5253 43.8962L24.4267 46.9868C24.3404 47.0738 24.2378 47.1429 24.1248 47.19C24.0117 47.2372 23.8905 47.2615 23.768 47.2615ZM29.5067 47.2615C29.3219 47.2615 29.1413 47.2067 28.9877 47.104C28.8341 47.0013 28.7145 46.8553 28.644 46.6845C28.5734 46.5137 28.5552 46.3258 28.5915 46.1447C28.6278 45.9635 28.7171 45.7972 28.848 45.6668L31.9467 42.5762C32.0319 42.4833 32.135 42.4087 32.2498 42.3568C32.3646 42.3049 32.4888 42.2768 32.6148 42.2742C32.7407 42.2715 32.866 42.2945 32.9828 42.3415C33.0997 42.3886 33.2059 42.4588 33.2949 42.548C33.3839 42.6372 33.4539 42.7435 33.5007 42.8605C33.5476 42.9775 33.5702 43.1027 33.5673 43.2287C33.5645 43.3547 33.5361 43.4787 33.484 43.5935C33.4318 43.7082 33.357 43.8112 33.264 43.8962L30.1653 46.9868C30.0791 47.0738 29.9765 47.1429 29.8635 47.19C29.7504 47.2372 29.6291 47.2615 29.5067 47.2615ZM35.248 47.2615C35.0632 47.2615 34.8826 47.2067 34.729 47.104C34.5755 47.0013 34.4558 46.8553 34.3853 46.6845C34.3147 46.5137 34.2965 46.3258 34.3328 46.1447C34.3691 45.9635 34.4584 45.7972 34.5893 45.6668L37.688 42.5762C37.7732 42.4833 37.8763 42.4087 37.9911 42.3568C38.106 42.3049 38.2301 42.2768 38.3561 42.2742C38.4821 42.2715 38.6073 42.2945 38.7242 42.3415C38.8411 42.3886 38.9472 42.4588 39.0362 42.548C39.1252 42.6372 39.1953 42.7435 39.2421 42.8605C39.2889 42.9775 39.3116 43.1027 39.3087 43.2287C39.3058 43.3547 39.2774 43.4787 39.2253 43.5935C39.1732 43.7082 39.0983 43.8112 39.0053 43.8962L35.9067 46.9868C35.7322 47.162 35.4953 47.2608 35.248 47.2615ZM40.9867 47.2615C40.8019 47.2615 40.6213 47.2067 40.4677 47.104C40.3141 47.0013 40.1945 46.8553 40.124 46.6845C40.0534 46.5137 40.0352 46.3258 40.0715 46.1447C40.1078 45.9635 40.1971 45.7972 40.328 45.6668L43.4213 42.5762C43.5065 42.4833 43.6097 42.4087 43.7245 42.3568C43.8393 42.3049 43.9635 42.2768 44.0894 42.2742C44.2154 42.2715 44.3406 42.2945 44.4575 42.3415C44.5744 42.3886 44.6805 42.4588 44.7696 42.548C44.8586 42.6372 44.9286 42.7435 44.9754 42.8605C45.0222 42.9775 45.0449 43.1027 45.042 43.2287C45.0391 43.3547 45.0108 43.4787 44.9586 43.5935C44.9065 43.7082 44.8317 43.8112 44.7387 43.8962L41.6453 46.9868C41.5591 47.0738 41.4565 47.1429 41.3435 47.19C41.2304 47.2372 41.1091 47.2615 40.9867 47.2615ZM16.6693 54.4242C16.4846 54.4242 16.304 54.3694 16.1504 54.2666C15.9968 54.1639 15.8772 54.0179 15.8066 53.8471C15.7361 53.6764 15.7178 53.4885 15.7541 53.3074C15.7905 53.1262 15.8797 52.9599 16.0107 52.8295L19.1093 49.7388C19.1945 49.646 19.2977 49.5714 19.4125 49.5195C19.5273 49.4676 19.6515 49.4395 19.7774 49.4369C19.9034 49.4342 20.0286 49.4571 20.1455 49.5042C20.2624 49.5513 20.3685 49.6215 20.4576 49.7107C20.5466 49.7999 20.6166 49.9062 20.6634 50.0231C20.7102 50.1401 20.7329 50.2654 20.73 50.3914C20.7271 50.5173 20.6988 50.6414 20.6466 50.7561C20.5945 50.8708 20.5197 50.9738 20.4267 51.0588L17.328 54.1495C17.2421 54.237 17.1396 54.3063 17.0265 54.3535C16.9133 54.4007 16.7919 54.4247 16.6693 54.4242ZM22.408 54.4242C22.2232 54.4242 22.0426 54.3694 21.889 54.2666C21.7355 54.1639 21.6158 54.0179 21.5453 53.8471C21.4747 53.6764 21.4565 53.4885 21.4928 53.3074C21.5291 53.1262 21.6184 52.9599 21.7493 52.8295L24.848 49.7388C24.9332 49.646 25.0363 49.5714 25.1512 49.5195C25.266 49.4676 25.3901 49.4395 25.5161 49.4369C25.6421 49.4342 25.7673 49.4571 25.8842 49.5042C26.0011 49.5513 26.1072 49.6215 26.1962 49.7107C26.2852 49.7999 26.3553 49.9062 26.4021 50.0231C26.4489 50.1401 26.4716 50.2654 26.4687 50.3914C26.4658 50.5173 26.4374 50.6414 26.3853 50.7561C26.3332 50.8708 26.2583 50.9738 26.1653 51.0588L23.0667 54.1495C22.9808 54.237 22.8783 54.3063 22.7651 54.3535C22.652 54.4007 22.5306 54.4247 22.408 54.4242ZM28.1493 54.4242C27.9646 54.4242 27.784 54.3694 27.6304 54.2666C27.4768 54.1639 27.3572 54.0179 27.2866 53.8471C27.2161 53.6764 27.1978 53.4885 27.2341 53.3074C27.2705 53.1262 27.3597 52.9599 27.4907 52.8295L30.5893 49.7388C30.6745 49.646 30.7777 49.5714 30.8925 49.5195C31.0073 49.4676 31.1314 49.4395 31.2574 49.4369C31.3834 49.4342 31.5086 49.4571 31.6255 49.5042C31.7424 49.5513 31.8485 49.6215 31.9376 49.7107C32.0266 49.7999 32.0966 49.9062 32.1434 50.0231C32.1902 50.1401 32.2129 50.2654 32.21 50.3914C32.2071 50.5173 32.1788 50.6414 32.1266 50.7561C32.0745 50.8708 31.9997 50.9738 31.9067 51.0588L28.808 54.1495C28.7219 54.2367 28.6194 54.3059 28.5063 54.3531C28.3932 54.4003 28.2719 54.4244 28.1493 54.4242ZM33.888 54.4242C33.7032 54.4242 33.5226 54.3694 33.369 54.2666C33.2155 54.1639 33.0958 54.0179 33.0253 53.8471C32.9547 53.6764 32.9365 53.4885 32.9728 53.3074C33.0091 53.1262 33.0984 52.9599 33.2293 52.8295L36.328 49.7388C36.4132 49.646 36.5163 49.5714 36.6312 49.5195C36.746 49.4676 36.8701 49.4395 36.9961 49.4369C37.1221 49.4342 37.2473 49.4571 37.3642 49.5042C37.4811 49.5513 37.5872 49.6215 37.6762 49.7107C37.7652 49.7999 37.8353 49.9062 37.8821 50.0231C37.9289 50.1401 37.9516 50.2654 37.9487 50.3914C37.9458 50.5173 37.9174 50.6414 37.8653 50.7561C37.8132 50.8708 37.7383 50.9738 37.6453 51.0588L34.5467 54.1495C34.4608 54.237 34.3583 54.3063 34.2451 54.3535C34.132 54.4007 34.0106 54.4247 33.888 54.4242ZM39.6267 54.4242C39.4419 54.4242 39.2613 54.3694 39.1077 54.2666C38.9541 54.1639 38.8345 54.0179 38.764 53.8471C38.6934 53.6764 38.6752 53.4885 38.7115 53.3074C38.7478 53.1262 38.8371 52.9599 38.968 52.8295L42.0613 49.7388C42.1465 49.646 42.2497 49.5714 42.3645 49.5195C42.4793 49.4676 42.6035 49.4395 42.7294 49.4369C42.8554 49.4342 42.9806 49.4571 43.0975 49.5042C43.2144 49.5513 43.3205 49.6215 43.4096 49.7107C43.4986 49.7999 43.5686 49.9062 43.6154 50.0231C43.6622 50.1401 43.6849 50.2654 43.682 50.3914C43.6791 50.5173 43.6508 50.6414 43.5986 50.7561C43.5465 50.8708 43.4717 50.9738 43.3787 51.0588L40.2853 54.1495C40.1995 54.237 40.0969 54.3063 39.9838 54.3535C39.8707 54.4007 39.7492 54.4247 39.6267 54.4242Z" fill="white"/>
</svg>
