<svg width="46" height="34" viewBox="0 0 46 34" fill="none" xmlns="http://www.w3.org/2000/svg">
<g clip-path="url(#clip0_945_58726)">
<path d="M12.4919 17.4152C13.4191 14.0944 16.3037 11.9152 19.6003 11.6039C22.0728 6.93407 27.2238 4.54728 32.2718 5.48124C38.35 6.51898 42.6768 12.3303 42.0587 18.4529C44.4282 19.9058 45.9735 22.6039 45.9735 25.4058C45.9735 29.868 42.3678 33.5001 37.9379 33.5001H13.11C8.68017 33.5001 5.07446 29.868 5.07446 25.4058C5.07446 21.1511 8.37111 17.7265 12.4919 17.4152ZM14.8614 18.868C14.7584 19.9058 13.9342 20.0095 13.11 20.0095C10.1225 20.0095 7.75299 22.3963 7.75299 25.4058C7.75299 28.4152 10.1225 30.802 13.11 30.802H37.9379C40.9255 30.802 43.295 28.4152 43.295 25.4058C43.295 23.2265 42.0587 21.3586 40.2044 20.4246C39.5862 20.2171 39.2772 19.5944 39.3802 18.9718C40.2044 13.8869 36.9077 9.00954 31.8597 8.07558C27.4299 7.24539 23.8241 9.42464 21.7637 13.2643C21.4547 13.7831 21.1456 14.1982 20.4245 14.1982C17.6429 14.1982 15.2735 16.0661 14.8614 18.868Z" fill="#D5D1ED"/>
<path d="M22.9999 4.96226C23.412 5.48113 23.309 6.31132 22.6909 6.83019C22.0727 7.24528 21.2486 7.03774 20.8365 6.51887C19.2912 4.33962 16.9217 3.09434 14.2432 3.09434C9.09218 3.09434 5.28044 7.86792 6.20762 12.8491C6.31064 13.4717 6.00158 14.0943 5.38346 14.3019C2.29285 15.6509 1.67473 19.8019 4.14721 22.0849C4.66231 22.5 4.66231 23.3302 4.14721 23.8491C3.73513 24.4717 2.91097 24.4717 2.29285 23.9528C-1.20984 20.6321 -0.591718 14.9245 3.52909 12.3302C2.91097 6 7.95896 0.5 14.2432 0.5C17.7459 0.5 20.9395 2.16038 22.9999 4.96226Z" fill="#D5D1ED"/>
</g>
<defs>
<clipPath id="clip0_945_58726">
<rect width="46" height="33" fill="white" transform="translate(0 0.5)"/>
</clipPath>
</defs>
</svg>
