<svg width="35" height="24" viewBox="0 0 35 24" fill="none" xmlns="http://www.w3.org/2000/svg">
<g clip-path="url(#clip0_5244_36466)">
<path d="M9.73344 12.3013C10.4188 9.88616 12.5508 8.30126 14.9875 8.07484C16.815 4.67862 20.6222 2.94277 24.3534 3.62201C28.8459 4.37673 32.044 8.60314 31.5872 13.056C33.3385 14.1126 34.4807 16.0748 34.4807 18.1126C34.4807 21.3579 31.8156 23.9994 28.5414 23.9994H10.1903C6.91606 23.9994 4.25098 21.3579 4.25098 18.1126C4.25098 15.0182 6.68763 12.5277 9.73344 12.3013ZM11.4848 13.3579C11.4086 14.1126 10.7995 14.188 10.1903 14.188C7.9821 14.188 6.23076 15.9239 6.23076 18.1126C6.23076 20.3013 7.9821 22.0371 10.1903 22.0371H28.5414C30.7496 22.0371 32.5009 20.3013 32.5009 18.1126C32.5009 16.5277 31.5872 15.1692 30.2166 14.4899C29.7597 14.339 29.5312 13.8862 29.6074 13.4333C30.2166 9.73522 27.7799 6.18805 24.0488 5.5088C20.7745 4.90503 18.1094 6.48994 16.5865 9.28239C16.3581 9.65975 16.1297 9.96164 15.5966 9.96164C13.5407 9.96164 11.7894 11.3201 11.4848 13.3579Z" fill="#FFF14B"/>
<path d="M17.5004 3.24528C17.8049 3.62264 17.7288 4.22642 17.2719 4.60377C16.815 4.90566 16.2059 4.75472 15.9013 4.37736C14.7591 2.79245 13.0078 1.88679 11.028 1.88679C7.22072 1.88679 4.40334 5.35849 5.08865 8.98113C5.1648 9.43396 4.93636 9.88679 4.47949 10.0377C2.19513 11.0189 1.73826 14.0377 3.56575 15.6981C3.94647 16 3.94647 16.6038 3.56575 16.9811C3.26116 17.434 2.652 17.434 2.19513 17.0566C-0.393815 14.6415 0.0630575 10.4906 3.10887 8.60377C2.652 4 6.38312 0 11.028 0C13.6169 0 15.9774 1.20755 17.5004 3.24528Z" fill="#FFF14B"/>
</g>
<defs>
<clipPath id="clip0_5244_36466">
<rect width="34" height="24" fill="white" transform="translate(0.5)"/>
</clipPath>
</defs>
</svg>
