<svg width="64" height="64" viewBox="0 0 64 64" fill="none" xmlns="http://www.w3.org/2000/svg">
<path d="M45.216 39.0428H19.0853C18.9433 39.0412 18.8036 39.0065 18.6773 38.9415C14.2106 38.4748 10.752 34.7148 10.752 30.2668C10.752 25.4295 14.728 21.4908 19.616 21.4908C19.816 21.4908 20.0053 21.4908 20.1973 21.4962C20.267 18.3119 21.5805 15.2814 23.8567 13.0536C26.133 10.8257 29.1909 9.5775 32.376 9.57617C39.0533 9.57617 44.4853 15.0348 44.4853 21.7442C44.4853 21.8668 44.48 21.9868 44.4693 22.1015C44.591 22.0952 44.7128 22.0916 44.8346 22.0908C49.472 22.0908 53.2453 25.8935 53.2453 30.5655C53.2453 35.1388 49.816 38.7815 45.2666 39.0375C45.2499 39.0409 45.233 39.0427 45.216 39.0428ZM19.3813 37.1735H45.192C46.8779 37.0854 48.4642 36.3482 49.6185 35.1163C50.7729 33.8844 51.4055 32.2536 51.384 30.5655C51.384 26.9228 48.4453 23.9575 44.8373 23.9575C44.368 23.9575 43.9626 24.0268 43.56 24.0962C43.4264 24.1182 43.2897 24.1109 43.1592 24.0749C43.0287 24.0388 42.9077 23.9748 42.8045 23.8873C42.7012 23.7997 42.6182 23.6908 42.5613 23.568C42.5043 23.4452 42.4747 23.3115 42.4746 23.1762C42.4746 22.9095 42.512 22.6428 42.5546 22.3655C42.5893 22.1682 42.624 21.9655 42.624 21.7442C42.624 16.0642 38.0266 11.4428 32.3786 11.4428C29.6453 11.4435 27.0239 12.5286 25.0896 14.4598C23.1553 16.3911 22.0662 19.0108 22.0613 21.7442C22.0613 21.8482 22.0773 21.9388 22.0906 22.0295C22.112 22.2055 22.1333 22.3788 22.1333 22.5762C22.1336 22.7208 22.1003 22.8636 22.0359 22.9932C21.9716 23.1228 21.878 23.2356 21.7626 23.3228C21.6474 23.4101 21.5133 23.4691 21.3711 23.495C21.2289 23.521 21.0826 23.5131 20.944 23.4722C20.544 23.3575 20.1733 23.3575 19.616 23.3575C15.7573 23.3575 12.616 26.4562 12.616 30.2642C12.616 33.8882 15.3946 36.8268 19.08 37.0988C19.1866 37.1095 19.288 37.1362 19.3813 37.1735ZM18.0293 47.2615C17.8445 47.2615 17.6639 47.2067 17.5103 47.104C17.3567 47.0013 17.2371 46.8553 17.1666 46.6845C17.096 46.5137 17.0778 46.3258 17.1141 46.1447C17.1504 45.9635 17.2397 45.7972 17.3706 45.6668L20.4693 42.5762C20.5545 42.4833 20.6576 42.4087 20.7724 42.3568C20.8873 42.3049 21.0114 42.2768 21.1374 42.2742C21.2634 42.2715 21.3886 42.2945 21.5055 42.3415C21.6223 42.3886 21.7285 42.4588 21.8175 42.548C21.9065 42.6372 21.9765 42.7435 22.0234 42.8605C22.0702 42.9775 22.0928 43.1027 22.09 43.2287C22.0871 43.3547 22.0587 43.4787 22.0066 43.5935C21.9544 43.7082 21.8796 43.8112 21.7866 43.8962L18.688 46.9868C18.5135 47.162 18.2766 47.2608 18.0293 47.2615ZM23.768 47.2615C23.5832 47.2615 23.4026 47.2067 23.249 47.104C23.0954 47.0013 22.9758 46.8553 22.9052 46.6845C22.8347 46.5137 22.8164 46.3258 22.8528 46.1447C22.8891 45.9635 22.9784 45.7972 23.1093 45.6668L26.208 42.5762C26.2932 42.4833 26.3963 42.4087 26.5111 42.3568C26.6259 42.3049 26.7501 42.2768 26.876 42.2742C27.002 42.2715 27.1272 42.2945 27.2441 42.3415C27.361 42.3886 27.4672 42.4588 27.5562 42.548C27.6452 42.6372 27.7152 42.7435 27.762 42.8605C27.8089 42.9775 27.8315 43.1027 27.8286 43.2287C27.8257 43.3547 27.7974 43.4787 27.7452 43.5935C27.6931 43.7082 27.6183 43.8112 27.5253 43.8962L24.4266 46.9868C24.3404 47.0738 24.2378 47.1429 24.1247 47.19C24.0117 47.2372 23.8904 47.2615 23.768 47.2615ZM29.5066 47.2615C29.3219 47.2615 29.1412 47.2067 28.9877 47.104C28.8341 47.0013 28.7144 46.8553 28.6439 46.6845C28.5734 46.5137 28.5551 46.3258 28.5914 46.1447C28.6278 45.9635 28.717 45.7972 28.848 45.6668L31.9466 42.5762C32.0318 42.4833 32.135 42.4087 32.2498 42.3568C32.3646 42.3049 32.4887 42.2768 32.6147 42.2742C32.7407 42.2715 32.8659 42.2945 32.9828 42.3415C33.0997 42.3886 33.2058 42.4588 33.2948 42.548C33.3839 42.6372 33.4539 42.7435 33.5007 42.8605C33.5475 42.9775 33.5702 43.1027 33.5673 43.2287C33.5644 43.3547 33.536 43.4787 33.4839 43.5935C33.4318 43.7082 33.357 43.8112 33.264 43.8962L30.1653 46.9868C30.0791 47.0738 29.9765 47.1429 29.8634 47.19C29.7504 47.2372 29.6291 47.2615 29.5066 47.2615ZM35.248 47.2615C35.0632 47.2615 34.8826 47.2067 34.729 47.104C34.5754 47.0013 34.4558 46.8553 34.3852 46.6845C34.3147 46.5137 34.2964 46.3258 34.3328 46.1447C34.3691 45.9635 34.4584 45.7972 34.5893 45.6668L37.688 42.5762C37.7732 42.4833 37.8763 42.4087 37.9911 42.3568C38.1059 42.3049 38.2301 42.2768 38.356 42.2742C38.482 42.2715 38.6072 42.2945 38.7241 42.3415C38.841 42.3886 38.9472 42.4588 39.0362 42.548C39.1252 42.6372 39.1952 42.7435 39.242 42.8605C39.2889 42.9775 39.3115 43.1027 39.3086 43.2287C39.3057 43.3547 39.2774 43.4787 39.2252 43.5935C39.1731 43.7082 39.0983 43.8112 39.0053 43.8962L35.9066 46.9868C35.7321 47.162 35.4952 47.2608 35.248 47.2615ZM40.9866 47.2615C40.8019 47.2615 40.6212 47.2067 40.4677 47.104C40.3141 47.0013 40.1944 46.8553 40.1239 46.6845C40.0534 46.5137 40.0351 46.3258 40.0714 46.1447C40.1078 45.9635 40.197 45.7972 40.328 45.6668L43.4213 42.5762C43.5065 42.4833 43.6096 42.4087 43.7244 42.3568C43.8393 42.3049 43.9634 42.2768 44.0894 42.2742C44.2154 42.2715 44.3406 42.2945 44.4575 42.3415C44.5743 42.3886 44.6805 42.4588 44.7695 42.548C44.8585 42.6372 44.9285 42.7435 44.9754 42.8605C45.0222 42.9775 45.0448 43.1027 45.042 43.2287C45.0391 43.3547 45.0107 43.4787 44.9586 43.5935C44.9064 43.7082 44.8316 43.8112 44.7386 43.8962L41.6453 46.9868C41.5591 47.0738 41.4565 47.1429 41.3434 47.19C41.2304 47.2372 41.1091 47.2615 40.9866 47.2615ZM16.6693 54.4242C16.4845 54.4242 16.3039 54.3694 16.1503 54.2666C15.9967 54.1639 15.8771 54.0179 15.8066 53.8471C15.736 53.6764 15.7178 53.4885 15.7541 53.3074C15.7904 53.1262 15.8797 52.9599 16.0106 52.8295L19.1093 49.7388C19.1945 49.646 19.2976 49.5714 19.4124 49.5195C19.5273 49.4676 19.6514 49.4395 19.7774 49.4369C19.9034 49.4342 20.0286 49.4571 20.1455 49.5042C20.2623 49.5513 20.3685 49.6215 20.4575 49.7107C20.5465 49.7999 20.6165 49.9062 20.6634 50.0231C20.7102 50.1401 20.7328 50.2654 20.73 50.3914C20.7271 50.5173 20.6987 50.6414 20.6466 50.7561C20.5944 50.8708 20.5196 50.9738 20.4266 51.0588L17.328 54.1495C17.2421 54.237 17.1396 54.3063 17.0264 54.3535C16.9133 54.4007 16.7919 54.4247 16.6693 54.4242ZM22.408 54.4242C22.2232 54.4242 22.0426 54.3694 21.889 54.2666C21.7354 54.1639 21.6158 54.0179 21.5452 53.8471C21.4747 53.6764 21.4564 53.4885 21.4928 53.3074C21.5291 53.1262 21.6184 52.9599 21.7493 52.8295L24.848 49.7388C24.9332 49.646 25.0363 49.5714 25.1511 49.5195C25.2659 49.4676 25.3901 49.4395 25.516 49.4369C25.642 49.4342 25.7672 49.4571 25.8841 49.5042C26.001 49.5513 26.1072 49.6215 26.1962 49.7107C26.2852 49.7999 26.3552 49.9062 26.402 50.0231C26.4489 50.1401 26.4715 50.2654 26.4686 50.3914C26.4657 50.5173 26.4374 50.6414 26.3852 50.7561C26.3331 50.8708 26.2583 50.9738 26.1653 51.0588L23.0666 54.1495C22.9807 54.237 22.8782 54.3063 22.7651 54.3535C22.652 54.4007 22.5305 54.4247 22.408 54.4242ZM28.1493 54.4242C27.9645 54.4242 27.7839 54.3694 27.6303 54.2666C27.4767 54.1639 27.3571 54.0179 27.2866 53.8471C27.216 53.6764 27.1978 53.4885 27.2341 53.3074C27.2704 53.1262 27.3597 52.9599 27.4906 52.8295L30.5893 49.7388C30.6745 49.646 30.7776 49.5714 30.8924 49.5195C31.0073 49.4676 31.1314 49.4395 31.2574 49.4369C31.3834 49.4342 31.5086 49.4571 31.6255 49.5042C31.7423 49.5513 31.8485 49.6215 31.9375 49.7107C32.0265 49.7999 32.0965 49.9062 32.1434 50.0231C32.1902 50.1401 32.2128 50.2654 32.21 50.3914C32.2071 50.5173 32.1787 50.6414 32.1266 50.7561C32.0744 50.8708 31.9996 50.9738 31.9066 51.0588L28.808 54.1495C28.7219 54.2367 28.6193 54.3059 28.5063 54.3531C28.3932 54.4003 28.2718 54.4244 28.1493 54.4242ZM33.888 54.4242C33.7032 54.4242 33.5226 54.3694 33.369 54.2666C33.2154 54.1639 33.0958 54.0179 33.0252 53.8471C32.9547 53.6764 32.9364 53.4885 32.9728 53.3074C33.0091 53.1262 33.0984 52.9599 33.2293 52.8295L36.328 49.7388C36.4132 49.646 36.5163 49.5714 36.6311 49.5195C36.7459 49.4676 36.8701 49.4395 36.996 49.4369C37.122 49.4342 37.2472 49.4571 37.3641 49.5042C37.481 49.5513 37.5872 49.6215 37.6762 49.7107C37.7652 49.7999 37.8352 49.9062 37.882 50.0231C37.9289 50.1401 37.9515 50.2654 37.9486 50.3914C37.9457 50.5173 37.9174 50.6414 37.8652 50.7561C37.8131 50.8708 37.7383 50.9738 37.6453 51.0588L34.5466 54.1495C34.4608 54.237 34.3582 54.3063 34.2451 54.3535C34.132 54.4007 34.0105 54.4247 33.888 54.4242ZM39.6266 54.4242C39.4419 54.4242 39.2612 54.3694 39.1077 54.2666C38.9541 54.1639 38.8344 54.0179 38.7639 53.8471C38.6934 53.6764 38.6751 53.4885 38.7114 53.3074C38.7478 53.1262 38.837 52.9599 38.968 52.8295L42.0613 49.7388C42.1465 49.646 42.2496 49.5714 42.3644 49.5195C42.4793 49.4676 42.6034 49.4395 42.7294 49.4369C42.8554 49.4342 42.9806 49.4571 43.0975 49.5042C43.2143 49.5513 43.3205 49.6215 43.4095 49.7107C43.4985 49.7999 43.5685 49.9062 43.6154 50.0231C43.6622 50.1401 43.6848 50.2654 43.682 50.3914C43.6791 50.5173 43.6507 50.6414 43.5986 50.7561C43.5464 50.8708 43.4716 50.9738 43.3786 51.0588L40.2853 54.1495C40.1994 54.237 40.0969 54.3063 39.9838 54.3535C39.8706 54.4007 39.7492 54.4247 39.6266 54.4242Z" fill="#D5D1ED"/>
</svg>
