<svg width="43" height="42" viewBox="0 0 43 42" fill="none" xmlns="http://www.w3.org/2000/svg">
<g clip-path="url(#clip0_5244_36474)">
<path d="M21.5 10.5C9.9017 10.5 0.5 19.9017 0.5 31.5H3.65C3.65 26.7659 5.53062 22.2257 8.87814 18.8781C12.2257 15.5306 16.7659 13.65 21.5 13.65C26.2341 13.65 30.7743 15.5306 34.1219 18.8781C37.4694 22.2257 39.35 26.7659 39.35 31.5H42.5C42.5 19.9017 33.0983 10.5 21.5 10.5ZM21.5 23.1C19.2722 23.1 17.1356 23.985 15.5603 25.5603C13.985 27.1356 13.1 29.2722 13.1 31.5H16.25C16.25 30.1076 16.8031 28.7723 17.7877 27.7877C18.7723 26.8031 20.1076 26.25 21.5 26.25C22.8924 26.25 24.2277 26.8031 25.2123 27.7877C26.1969 28.7723 26.75 30.1076 26.75 31.5H29.9C29.9 29.2722 29.015 27.1356 27.4397 25.5603C25.8644 23.985 23.7278 23.1 21.5 23.1ZM21.5 16.8C17.6013 16.8 13.8623 18.3487 11.1055 21.1055C8.34874 23.8623 6.8 27.6013 6.8 31.5H9.95C9.95 28.4367 11.1669 25.499 13.3329 23.3329C15.499 21.1669 18.4367 19.95 21.5 19.95C24.5632 19.95 27.501 21.1669 29.6671 23.3329C31.8331 25.499 33.05 28.4367 33.05 31.5H36.2C36.2 27.6013 34.6513 23.8623 31.8945 21.1055C29.1377 18.3487 25.3987 16.8 21.5 16.8Z" fill="#FFF14B"/>
</g>
<defs>
<clipPath id="clip0_5244_36474">
<rect width="42" height="42" fill="white" transform="translate(0.5)"/>
</clipPath>
</defs>
</svg>
