<svg width="50" height="50" viewBox="0 0 50 50" fill="none" xmlns="http://www.w3.org/2000/svg">
<path d="M25 12.5C11.1925 12.5 0 23.6925 0 37.5H3.75C3.75 31.8641 5.98883 26.4591 9.97398 22.474C13.9591 18.4888 19.3641 16.25 25 16.25C30.6359 16.25 36.0409 18.4888 40.026 22.474C44.0112 26.4591 46.25 31.8641 46.25 37.5H50C50 23.6925 38.8075 12.5 25 12.5ZM25 27.5C22.3478 27.5 19.8043 28.5536 17.9289 30.4289C16.0536 32.3043 15 34.8478 15 37.5H18.75C18.75 35.8424 19.4085 34.2527 20.5806 33.0806C21.7527 31.9085 23.3424 31.25 25 31.25C26.6576 31.25 28.2473 31.9085 29.4194 33.0806C30.5915 34.2527 31.25 35.8424 31.25 37.5H35C35 34.8478 33.9464 32.3043 32.0711 30.4289C30.1957 28.5536 27.6522 27.5 25 27.5ZM25 20C20.3587 20 15.9075 21.8437 12.6256 25.1256C9.34374 28.4075 7.5 32.8587 7.5 37.5H11.25C11.25 33.8533 12.6987 30.3559 15.2773 27.7773C17.8559 25.1987 21.3533 23.75 25 23.75C28.6467 23.75 32.1441 25.1987 34.7227 27.7773C37.3013 30.3559 38.75 33.8533 38.75 37.5H42.5C42.5 32.8587 40.6563 28.4075 37.3744 25.1256C34.0925 21.8437 29.6413 20 25 20Z" fill="#D5D1ED"/>
</svg>
