<svg width="45" height="44" viewBox="0 0 45 44" fill="none" xmlns="http://www.w3.org/2000/svg">
<path d="M31.5856 26.8423H13.6208C13.5231 26.8412 13.4271 26.8173 13.3403 26.7726C10.2694 26.4518 7.8916 23.8668 7.8916 20.8088C7.8916 17.4832 10.6251 14.7753 13.9856 14.7753C14.1231 14.7753 14.2533 14.7753 14.3853 14.779C14.4332 12.5898 15.3363 10.5064 16.9011 8.9747C18.466 7.44304 20.5684 6.5849 22.7581 6.58398C27.3488 6.58398 31.0833 10.3368 31.0833 14.9495C31.0833 15.0338 31.0796 15.1163 31.0723 15.1952C31.1559 15.1908 31.2397 15.1883 31.3234 15.1878C34.5116 15.1878 37.1058 17.8022 37.1058 21.0142C37.1058 24.1583 34.7481 26.6627 31.6204 26.8387C31.609 26.841 31.5973 26.8422 31.5856 26.8423ZM13.8243 25.5571H31.5691C32.7282 25.4966 33.8188 24.9898 34.6124 24.1428C35.406 23.2959 35.8409 22.1747 35.8261 21.0142C35.8261 18.5098 33.8058 16.4712 31.3253 16.4712C31.0026 16.4712 30.7239 16.5188 30.4471 16.5665C30.3553 16.5816 30.2613 16.5766 30.1716 16.5518C30.0819 16.527 29.9987 16.483 29.9277 16.4229C29.8567 16.3627 29.7997 16.2878 29.7605 16.2034C29.7213 16.119 29.701 16.027 29.7009 15.934C29.7009 15.7507 29.7266 15.5673 29.7559 15.3767C29.7798 15.241 29.8036 15.1017 29.8036 14.9495C29.8036 11.0445 26.6429 7.86732 22.7599 7.86732C20.8808 7.8678 19.0785 8.61376 17.7487 9.9415C16.4189 11.2692 15.6702 13.0703 15.6668 14.9495C15.6668 15.021 15.6778 15.0833 15.6869 15.1457C15.7016 15.2667 15.7163 15.3858 15.7163 15.5215C15.7165 15.6209 15.6936 15.7191 15.6493 15.8082C15.6051 15.8973 15.5408 15.9749 15.4614 16.0348C15.3822 16.0948 15.29 16.1354 15.1922 16.1532C15.0945 16.171 14.9939 16.1657 14.8986 16.1375C14.6236 16.0587 14.3688 16.0587 13.9856 16.0587C11.3328 16.0587 9.1731 18.189 9.1731 20.807C9.1731 23.2985 11.0834 25.3188 13.6171 25.5058C13.6904 25.5131 13.7601 25.5315 13.8243 25.5571ZM12.8948 32.4927C12.7677 32.4927 12.6436 32.455 12.538 32.3843C12.4324 32.3137 12.3501 32.2134 12.3017 32.0959C12.2532 31.9785 12.2406 31.8494 12.2656 31.7248C12.2905 31.6003 12.3519 31.486 12.4419 31.3963L14.5723 29.2715C14.6308 29.2077 14.7017 29.1564 14.7807 29.1207C14.8596 29.085 14.945 29.0657 15.0316 29.0639C15.1182 29.0621 15.2043 29.0778 15.2846 29.1102C15.365 29.1425 15.438 29.1908 15.4992 29.2521C15.5604 29.3134 15.6085 29.3865 15.6407 29.4669C15.6729 29.5474 15.6885 29.6335 15.6865 29.7201C15.6845 29.8067 15.665 29.892 15.6292 29.9709C15.5933 30.0497 15.5419 30.1205 15.4779 30.179L13.3476 32.3038C13.2276 32.4243 13.0648 32.4922 12.8948 32.4927ZM16.8401 32.4927C16.7131 32.4927 16.5889 32.455 16.4833 32.3843C16.3777 32.3137 16.2955 32.2134 16.247 32.0959C16.1985 31.9785 16.1859 31.8494 16.2109 31.7248C16.2359 31.6003 16.2973 31.486 16.3873 31.3963L18.5176 29.2715C18.5762 29.2077 18.6471 29.1564 18.726 29.1207C18.805 29.085 18.8903 29.0657 18.9769 29.0639C19.0635 29.0621 19.1496 29.0778 19.23 29.1102C19.3103 29.1425 19.3833 29.1908 19.4445 29.2521C19.5057 29.3134 19.5538 29.3865 19.586 29.4669C19.6182 29.5474 19.6338 29.6335 19.6318 29.7201C19.6298 29.8067 19.6103 29.892 19.5745 29.9709C19.5386 30.0497 19.4872 30.1205 19.4233 30.179L17.2929 32.3038C17.2337 32.3636 17.1631 32.4111 17.0854 32.4435C17.0077 32.4759 16.9243 32.4926 16.8401 32.4927ZM20.7854 32.4927C20.6584 32.4927 20.5342 32.455 20.4286 32.3843C20.3231 32.3137 20.2408 32.2134 20.1923 32.0959C20.1438 31.9785 20.1313 31.8494 20.1562 31.7248C20.1812 31.6003 20.2426 31.486 20.3326 31.3963L22.4629 29.2715C22.5215 29.2077 22.5924 29.1564 22.6714 29.1207C22.7503 29.085 22.8356 29.0657 22.9222 29.0639C23.0089 29.0621 23.0949 29.0778 23.1753 29.1102C23.2557 29.1425 23.3286 29.1908 23.3898 29.2521C23.451 29.3134 23.4992 29.3865 23.5314 29.4669C23.5636 29.5474 23.5791 29.6335 23.5771 29.7201C23.5752 29.8067 23.5557 29.892 23.5198 29.9709C23.484 30.0497 23.4325 30.1205 23.3686 30.179L21.2383 32.3038C21.179 32.3636 21.1084 32.4111 21.0307 32.4435C20.953 32.4759 20.8696 32.4926 20.7854 32.4927ZM24.7326 32.4927C24.6056 32.4927 24.4814 32.455 24.3758 32.3843C24.2702 32.3137 24.188 32.2134 24.1395 32.0959C24.091 31.9785 24.0784 31.8494 24.1034 31.7248C24.1284 31.6003 24.1898 31.486 24.2798 31.3963L26.4101 29.2715C26.4687 29.2077 26.5396 29.1564 26.6185 29.1207C26.6975 29.085 26.7828 29.0657 26.8694 29.0639C26.956 29.0621 27.0421 29.0778 27.1225 29.1102C27.2028 29.1425 27.2758 29.1908 27.337 29.2521C27.3982 29.3134 27.4463 29.3865 27.4785 29.4669C27.5107 29.5474 27.5263 29.6335 27.5243 29.7201C27.5223 29.8067 27.5028 29.892 27.467 29.9709C27.4311 30.0497 27.3797 30.1205 27.3158 30.179L25.1854 32.3038C25.0655 32.4243 24.9026 32.4922 24.7326 32.4927ZM28.6779 32.4927C28.5509 32.4927 28.4267 32.455 28.3211 32.3843C28.2156 32.3137 28.1333 32.2134 28.0848 32.0959C28.0363 31.9785 28.0238 31.8494 28.0487 31.7248C28.0737 31.6003 28.1351 31.486 28.2251 31.3963L30.3518 29.2715C30.4104 29.2077 30.4812 29.1564 30.5602 29.1207C30.6391 29.085 30.7245 29.0657 30.8111 29.0639C30.8977 29.0621 30.9838 29.0778 31.0641 29.1102C31.1445 29.1425 31.2175 29.1908 31.2787 29.2521C31.3399 29.3134 31.388 29.3865 31.4202 29.4669C31.4524 29.5474 31.468 29.6335 31.466 29.7201C31.464 29.8067 31.4445 29.892 31.4087 29.9709C31.3728 30.0497 31.3214 30.1205 31.2574 30.179L29.1308 32.3038C29.0715 32.3636 29.0009 32.4111 28.9232 32.4435C28.8455 32.4759 28.7621 32.4926 28.6779 32.4927ZM11.9598 37.417C11.8327 37.417 11.7086 37.3793 11.603 37.3087C11.4974 37.2381 11.4151 37.1377 11.3667 37.0203C11.3182 36.9029 11.3056 36.7737 11.3306 36.6492C11.3555 36.5246 11.4169 36.4103 11.5069 36.3207L13.6373 34.1958C13.6958 34.132 13.7667 34.0807 13.8457 34.045C13.9246 34.0093 14.01 33.99 14.0966 33.9882C14.1832 33.9864 14.2693 34.0021 14.3496 34.0345C14.43 34.0668 14.503 34.1151 14.5642 34.1765C14.6254 34.2378 14.6735 34.3109 14.7057 34.3913C14.7379 34.4717 14.7535 34.5578 14.7515 34.6444C14.7495 34.731 14.73 34.8163 14.6942 34.8952C14.6583 34.9741 14.6069 35.0449 14.5429 35.1033L12.4126 37.2282C12.3536 37.2883 12.2831 37.336 12.2053 37.3684C12.1275 37.4008 12.044 37.4174 11.9598 37.417ZM15.9051 37.417C15.7781 37.417 15.6539 37.3793 15.5483 37.3087C15.4427 37.2381 15.3605 37.1377 15.312 37.0203C15.2635 36.9029 15.2509 36.7737 15.2759 36.6492C15.3009 36.5246 15.3623 36.4103 15.4523 36.3207L17.5826 34.1958C17.6412 34.132 17.7121 34.0807 17.791 34.045C17.87 34.0093 17.9553 33.99 18.0419 33.9882C18.1285 33.9864 18.2146 34.0021 18.295 34.0345C18.3753 34.0668 18.4483 34.1151 18.5095 34.1765C18.5707 34.2378 18.6188 34.3109 18.651 34.3913C18.6832 34.4717 18.6988 34.5578 18.6968 34.6444C18.6948 34.731 18.6753 34.8163 18.6395 34.8952C18.6036 34.9741 18.5522 35.0449 18.4883 35.1033L16.3579 37.2282C16.2989 37.2883 16.2284 37.336 16.1506 37.3684C16.0729 37.4008 15.9894 37.4174 15.9051 37.417ZM19.8523 37.417C19.7252 37.417 19.6011 37.3793 19.4955 37.3087C19.3899 37.2381 19.3076 37.1377 19.2592 37.0203C19.2107 36.9029 19.1981 36.7737 19.2231 36.6492C19.248 36.5246 19.3094 36.4103 19.3994 36.3207L21.5298 34.1958C21.5883 34.132 21.6592 34.0807 21.7382 34.045C21.8171 34.0093 21.9025 33.99 21.9891 33.9882C22.0757 33.9864 22.1618 34.0021 22.2421 34.0345C22.3225 34.0668 22.3955 34.1151 22.4567 34.1765C22.5179 34.2378 22.566 34.3109 22.5982 34.3913C22.6304 34.4717 22.646 34.5578 22.644 34.6444C22.642 34.731 22.6225 34.8163 22.5867 34.8952C22.5508 34.9741 22.4994 35.0449 22.4354 35.1033L20.3051 37.2282C20.2459 37.2881 20.1754 37.3357 20.0977 37.3681C20.0199 37.4005 19.9365 37.4172 19.8523 37.417ZM23.7976 37.417C23.6706 37.417 23.5464 37.3793 23.4408 37.3087C23.3352 37.2381 23.253 37.1377 23.2045 37.0203C23.156 36.9029 23.1434 36.7737 23.1684 36.6492C23.1934 36.5246 23.2548 36.4103 23.3448 36.3207L25.4751 34.1958C25.5337 34.132 25.6046 34.0807 25.6835 34.045C25.7625 34.0093 25.8478 33.99 25.9344 33.9882C26.021 33.9864 26.1071 34.0021 26.1875 34.0345C26.2678 34.0668 26.3408 34.1151 26.402 34.1765C26.4632 34.2378 26.5113 34.3109 26.5435 34.3913C26.5757 34.4717 26.5913 34.5578 26.5893 34.6444C26.5873 34.731 26.5678 34.8163 26.532 34.8952C26.4961 34.9741 26.4447 35.0449 26.3808 35.1033L24.2504 37.2282C24.1914 37.2883 24.1209 37.336 24.0431 37.3684C23.9654 37.4008 23.8819 37.4174 23.7976 37.417ZM27.7429 37.417C27.6159 37.417 27.4917 37.3793 27.3862 37.3087C27.2806 37.2381 27.1983 37.1377 27.1498 37.0203C27.1013 36.9029 27.0888 36.7737 27.1137 36.6492C27.1387 36.5246 27.2001 36.4103 27.2901 36.3207L29.4168 34.1958C29.4753 34.132 29.5462 34.0807 29.6252 34.045C29.7041 34.0093 29.7895 33.99 29.8761 33.9882C29.9627 33.9864 30.0488 34.0021 30.1291 34.0345C30.2095 34.0668 30.2825 34.1151 30.3437 34.1765C30.4049 34.2378 30.453 34.3109 30.4852 34.3913C30.5174 34.4717 30.533 34.5578 30.531 34.6444C30.529 34.731 30.5095 34.8163 30.4737 34.8952C30.4378 34.9741 30.3864 35.0449 30.3224 35.1033L28.1958 37.2282C28.1367 37.2883 28.0662 37.336 27.9885 37.3684C27.9107 37.4008 27.8272 37.4174 27.7429 37.417Z" fill="#FFF14B"/>
</svg>
