<svg width="71" height="72" viewBox="0 0 71 72" fill="none" xmlns="http://www.w3.org/2000/svg">
<g filter="url(#filter0_d_945_58729)">
<path d="M20.7143 40.6772C20.5805 40.6777 20.4478 40.6519 20.3239 40.6012C20.2001 40.5504 20.0874 40.4757 19.9925 40.3813C17.9276 38.3637 16.7886 35.6657 16.7886 32.7814C16.7886 29.897 17.9276 27.196 19.9925 25.1785C20.9791 24.167 22.159 23.3643 23.4621 22.818C24.7651 22.2717 26.1647 21.9929 27.5777 21.9982H27.5806C30.4709 21.9982 33.1719 23.1342 35.1924 25.1962C35.3846 25.3924 35.4911 25.6568 35.4883 25.9315C35.4855 26.2061 35.3738 26.4684 35.1776 26.6606C34.9815 26.8528 34.717 26.9592 34.4424 26.9565C34.1677 26.9537 33.9055 26.8419 33.7132 26.6458C32.9161 25.827 31.9623 25.1769 30.9088 24.7342C29.8552 24.2915 28.7234 24.0653 27.5806 24.0691H27.5777C25.2524 24.0691 23.078 24.9832 21.4539 26.6428C19.7765 28.2847 18.8594 30.4591 18.8594 32.7784C18.8594 35.0977 19.7765 37.2751 21.4362 38.8962C21.5338 38.991 21.6118 39.1042 21.6656 39.2292C21.7194 39.3542 21.7479 39.4886 21.7496 39.6247C21.7512 39.7608 21.726 39.8959 21.6752 40.0222C21.6245 40.1485 21.5493 40.2635 21.4539 40.3606C21.3585 40.4607 21.2438 40.5404 21.1166 40.5948C20.9895 40.6493 20.8526 40.6773 20.7143 40.6772ZM21.8858 20.099C21.678 20.0994 21.4749 20.0368 21.3033 19.9196C21.1317 19.8024 20.9996 19.636 20.9244 19.4422L19.5044 15.8449C19.4456 15.7171 19.4135 15.5786 19.41 15.4379C19.4065 15.2972 19.4318 15.1573 19.4842 15.0267C19.5366 14.8961 19.6151 14.7776 19.7148 14.6783C19.8146 14.5791 19.9335 14.5012 20.0644 14.4495C20.1953 14.3977 20.3353 14.3732 20.4759 14.3774C20.6166 14.3816 20.7549 14.4144 20.8825 14.4739C21.01 14.5333 21.1241 14.6181 21.2178 14.7231C21.3115 14.8281 21.3827 14.9511 21.4273 15.0846L22.8473 18.682C22.911 18.8389 22.9351 19.0091 22.9173 19.1775C22.8996 19.3459 22.8405 19.5074 22.7454 19.6475C22.6503 19.7877 22.5221 19.9022 22.3722 19.981C22.2222 20.0597 22.0552 20.1003 21.8858 20.099ZM9.91049 41.3428C9.67145 41.3401 9.44065 41.255 9.25707 41.1019C9.07348 40.9488 8.94836 40.737 8.90281 40.5023C8.85726 40.2676 8.89409 40.0244 9.00707 39.8137C9.12005 39.6031 9.30226 39.4378 9.52295 39.3459L13.0404 37.9259C13.295 37.8237 13.5798 37.8268 13.8322 37.9344C14.0846 38.042 14.2839 38.2454 14.3864 38.4998C14.4379 38.6256 14.464 38.7604 14.4631 38.8963C14.4623 39.0323 14.4345 39.1667 14.3814 39.2918C14.3283 39.417 14.251 39.5303 14.1539 39.6254C14.0567 39.7205 13.9417 39.7955 13.8155 39.8459L10.298 41.2659C10.1753 41.3172 10.0435 41.3433 9.91049 41.3428ZM13.5078 28.2107C13.3751 28.2109 13.2436 28.1858 13.1203 28.1368L9.60282 26.7168C9.34744 26.614 9.14334 26.414 9.03543 26.1607C8.92752 25.9075 8.92465 25.6217 9.02743 25.3663C9.13021 25.1109 9.33023 24.9068 9.5835 24.7989C9.83676 24.691 10.1225 24.6881 10.3779 24.7909L13.8954 26.2109C14.4279 26.4269 14.6823 27.0274 14.4663 27.5599C14.3903 27.7521 14.2583 27.9169 14.0873 28.033C13.9164 28.149 13.7145 28.211 13.5078 28.2107ZM33.5298 20.1818C33.3584 20.182 33.1895 20.1396 33.0385 20.0584C32.8875 19.9772 32.759 19.8598 32.6645 19.7167C32.5701 19.5735 32.5127 19.4092 32.4975 19.2384C32.4822 19.0676 32.5096 18.8957 32.5772 18.7382L34.086 15.2237C34.1992 14.9789 34.4034 14.788 34.6551 14.6914C34.9069 14.5949 35.1864 14.6004 35.4342 14.7068C35.682 14.8131 35.8785 15.012 35.982 15.261C36.0854 15.51 36.0877 15.7895 35.9882 16.0402L34.4794 19.5547C34.4 19.7407 34.2677 19.8994 34.0988 20.0109C33.93 20.1224 33.7321 20.1818 33.5298 20.1818Z" fill="#D5D1ED"/>
<path d="M53.1345 57.5724H24.1458C23.9754 57.5715 23.8078 57.5289 23.6577 57.4481C18.6936 56.8328 14.9868 52.7148 14.9868 47.7537C14.9868 42.3873 19.3947 38.0178 24.8144 38.0178C25.0304 38.0178 25.2463 38.0267 25.4593 38.0444C25.6398 30.7581 31.5949 24.8828 38.8902 24.8828C46.2978 24.8828 52.3239 30.9385 52.3239 38.3817C52.3239 38.5148 52.321 38.6479 52.3121 38.7811C53.5793 38.7273 54.8442 38.9301 56.031 39.3773C57.2178 39.8245 58.302 40.507 59.2185 41.3837C60.135 42.2604 60.8649 43.3133 61.3643 44.4791C61.8637 45.6449 62.1225 46.8996 62.1249 48.1679C62.1185 50.5793 61.1892 52.8969 59.5277 54.6447C57.8663 56.3925 55.5988 57.438 53.1907 57.5665L53.1345 57.5724ZM24.4712 55.4986H53.1049C54.9788 55.3917 56.7413 54.574 58.0331 53.2124C59.325 51.8508 60.0488 50.0477 60.057 48.1708C60.0531 46.227 59.2786 44.3641 57.9033 42.9905C56.528 41.6168 54.6641 40.8446 52.7204 40.843C52.1938 40.843 51.7441 40.917 51.2974 40.9939C51.1364 41.0188 50.9719 41.0058 50.8168 40.956C50.6617 40.9062 50.5204 40.8209 50.4041 40.7068C50.2878 40.5928 50.1997 40.4532 50.1467 40.2992C50.0938 40.1451 50.0776 39.9809 50.0993 39.8194C50.191 39.2159 50.259 38.7988 50.259 38.3817C50.259 32.0804 45.1589 26.9536 38.8931 26.9536C32.6274 26.9536 27.5272 32.0804 27.5272 38.3817C27.5272 38.5119 27.5272 38.787 27.5597 38.8816C27.6139 39.0499 27.6249 39.2291 27.5919 39.4028C27.5588 39.5765 27.4826 39.7391 27.3704 39.8756C27.2577 40.0095 27.1136 40.1133 26.951 40.1778C26.7884 40.2423 26.6123 40.2656 26.4385 40.2454C25.8824 40.1656 25.3558 40.0886 24.8203 40.0886C20.5426 40.0886 17.0606 43.5262 17.0606 47.7507C17.0606 51.6764 20.1846 55.046 24.1636 55.4187C24.2695 55.4302 24.3731 55.4571 24.4712 55.4986Z" fill="#D5D1ED"/>
</g>
<defs>
<filter id="filter0_d_945_58729" x="-4" y="0.5" width="79" height="79" filterUnits="userSpaceOnUse" color-interpolation-filters="sRGB">
<feFlood flood-opacity="0" result="BackgroundImageFix"/>
<feColorMatrix in="SourceAlpha" type="matrix" values="0 0 0 0 0 0 0 0 0 0 0 0 0 0 0 0 0 0 127 0" result="hardAlpha"/>
<feOffset dy="4"/>
<feGaussianBlur stdDeviation="2"/>
<feComposite in2="hardAlpha" operator="out"/>
<feColorMatrix type="matrix" values="0 0 0 0 0 0 0 0 0 0 0 0 0 0 0 0 0 0 0.25 0"/>
<feBlend mode="normal" in2="BackgroundImageFix" result="effect1_dropShadow_945_58729"/>
<feBlend mode="normal" in="SourceGraphic" in2="effect1_dropShadow_945_58729" result="shape"/>
</filter>
</defs>
</svg>
