<svg width="76" height="76" viewBox="0 0 76 76" fill="none" xmlns="http://www.w3.org/2000/svg">
<path d="M38.0001 49.1376C31.6541 49.1376 26.4892 43.9411 26.4892 37.5507C26.4951 34.5014 27.7104 31.579 29.8683 29.4245C32.0263 27.2701 34.9508 26.0597 38.0001 26.0589C44.3967 26.0589 49.5996 31.2142 49.5996 37.5507C49.5945 40.6244 48.3704 43.5705 46.1958 45.7428C44.0212 47.915 41.0738 49.1359 38.0001 49.1376ZM38.0001 28.2756C35.5384 28.2756 33.1773 29.2522 31.4348 30.991C29.6924 32.7299 28.7109 35.0891 28.7059 37.5507C28.7059 42.7156 32.8732 46.9177 38.0001 46.9177C40.485 46.9161 42.8679 45.929 44.6262 44.1731C46.3845 42.4172 47.3747 40.0357 47.3797 37.5507C47.3797 32.4366 43.1712 28.2756 38.0001 28.2756ZM38.0001 22.8131C37.7061 22.8131 37.4242 22.6963 37.2164 22.4884C37.0085 22.2806 36.8917 21.9987 36.8917 21.7047V17.5849C36.8917 17.2909 37.0085 17.009 37.2164 16.8012C37.4242 16.5933 37.7061 16.4766 38.0001 16.4766C38.294 16.4766 38.5759 16.5933 38.7838 16.8012C38.9916 17.009 39.1084 17.2909 39.1084 17.5849V21.7047C39.1084 21.9987 38.9916 22.2806 38.7838 22.4884C38.5759 22.6963 38.294 22.8131 38.0001 22.8131ZM38.0001 59.5242C37.8545 59.5242 37.7104 59.4956 37.5759 59.4399C37.4415 59.3842 37.3193 59.3025 37.2164 59.1996C37.1135 59.0967 37.0318 58.9745 36.9761 58.84C36.9204 58.7056 36.8917 58.5614 36.8917 58.4159V54.2961C36.8917 54.0021 37.0085 53.7202 37.2164 53.5123C37.4242 53.3045 37.7061 53.1877 38.0001 53.1877C38.294 53.1877 38.5759 53.3045 38.7838 53.5123C38.9916 53.7202 39.1084 54.0021 39.1084 54.2961V58.4159C39.1084 58.5614 39.0797 58.7056 39.024 58.84C38.9683 58.9745 38.8867 59.0967 38.7838 59.1996C38.6809 59.3025 38.5587 59.3842 38.4242 59.4399C38.2897 59.4956 38.1456 59.5242 38.0001 59.5242ZM58.4472 39.1087H54.4097C54.1158 39.1087 53.8339 38.992 53.626 38.7841C53.4182 38.5763 53.3014 38.2943 53.3014 38.0004C53.3014 37.7064 53.4182 37.4245 53.626 37.2167C53.8339 37.0088 54.1158 36.8921 54.4097 36.8921H58.4472C58.7412 36.8921 59.0231 37.0088 59.231 37.2167C59.4388 37.4245 59.5556 37.7064 59.5556 38.0004C59.5556 38.2943 59.4388 38.5763 59.231 38.7841C59.0231 38.992 58.7412 39.1087 58.4472 39.1087ZM21.6791 39.1087H17.5529C17.259 39.1087 16.9771 38.992 16.7692 38.7841C16.5614 38.5763 16.4446 38.2943 16.4446 38.0004C16.4446 37.7064 16.5614 37.4245 16.7692 37.2167C16.9771 37.0088 17.259 36.8921 17.5529 36.8921H21.6791C21.973 36.8921 22.2549 37.0088 22.4628 37.2167C22.6706 37.4245 22.7874 37.7064 22.7874 38.0004C22.7874 38.2943 22.6706 38.5763 22.4628 38.7841C22.2549 38.992 21.973 39.1087 21.6791 39.1087ZM52.5287 53.5266C52.2411 53.5268 51.9648 53.4143 51.7592 53.2131L48.7952 50.3472C48.6907 50.246 48.607 50.1251 48.5492 49.9915C48.4913 49.8579 48.4603 49.7143 48.4579 49.5687C48.4556 49.4232 48.4819 49.2786 48.5355 49.1432C48.589 49.0078 48.6687 48.8843 48.7699 48.7797C48.8712 48.6751 48.992 48.5915 49.1256 48.5336C49.2592 48.4758 49.4029 48.4448 49.5484 48.4424C49.694 48.4401 49.8386 48.4664 49.9739 48.5199C50.1093 48.5735 50.2328 48.6531 50.3374 48.7544L53.3014 51.6202C53.4607 51.7738 53.5704 51.9715 53.6164 52.1879C53.6624 52.4043 53.6425 52.6295 53.5594 52.8346C53.4763 53.0396 53.3338 53.2151 53.1501 53.3384C52.9664 53.4617 52.75 53.5273 52.5287 53.5266ZM26.5209 27.5599C26.2324 27.56 25.9552 27.4475 25.7482 27.2464L22.7937 24.3806C22.5825 24.1761 22.4612 23.896 22.4564 23.6021C22.4517 23.3081 22.5639 23.0243 22.7684 22.8131C22.9729 22.6018 23.253 22.4805 23.5469 22.4758C23.8409 22.471 24.1247 22.5832 24.3359 22.7877L27.2936 25.6536C27.4529 25.8071 27.5626 26.0048 27.6086 26.2212C27.6545 26.4376 27.6347 26.6629 27.5516 26.8679C27.4685 27.0729 27.3259 27.2484 27.1422 27.3717C26.9586 27.4951 26.7422 27.5606 26.5209 27.5599ZM23.5632 53.5266C23.3429 53.526 23.1278 53.4598 22.9453 53.3363C22.7628 53.2129 22.6212 53.0379 22.5386 52.8337C22.4561 52.6294 22.4362 52.4052 22.4817 52.1896C22.5271 51.9741 22.6358 51.7769 22.7937 51.6234L25.7514 48.7576C25.856 48.6563 25.9795 48.5766 26.1149 48.5231C26.2503 48.4696 26.3949 48.4432 26.5404 48.4456C26.686 48.4479 26.8296 48.4789 26.9632 48.5368C27.0968 48.5947 27.2177 48.6783 27.3189 48.7829C27.4202 48.8875 27.4998 49.011 27.5534 49.1464C27.6069 49.2817 27.6332 49.4263 27.6309 49.5719C27.6285 49.7174 27.5975 49.8611 27.5397 49.9947C27.4818 50.1283 27.3982 50.2491 27.2936 50.3504L24.3359 53.2162C24.1279 53.4153 23.8512 53.5265 23.5632 53.5266ZM49.5647 27.5599C49.3438 27.56 49.1278 27.494 48.9446 27.3704C48.7614 27.2468 48.6194 27.0713 48.5366 26.8664C48.4539 26.6615 48.4344 26.4366 48.4804 26.2204C48.5265 26.0043 48.6361 25.8069 48.7952 25.6536L51.7592 22.7877C51.9705 22.5832 52.2543 22.471 52.5482 22.4758C52.8422 22.4805 53.1222 22.6018 53.3267 22.8131C53.5312 23.0243 53.6435 23.3081 53.6387 23.6021C53.634 23.896 53.5126 24.1761 53.3014 24.3806L50.3374 27.2464C50.1305 27.4475 49.8533 27.56 49.5647 27.5599Z" fill="#D5D1ED"/>
</svg>
