<svg width="55" height="54" viewBox="0 0 55 54" fill="none" xmlns="http://www.w3.org/2000/svg">
<path d="M27.5003 34.9135C22.9913 34.9135 19.3216 31.2213 19.3216 26.6808C19.3257 24.5142 20.1892 22.4377 21.7225 20.9069C23.2558 19.3761 25.3337 18.5161 27.5003 18.5155C32.0453 18.5155 35.7421 22.1785 35.7421 26.6808C35.7385 28.8647 34.8687 30.958 33.3236 32.5014C31.7785 34.0449 29.6842 34.9123 27.5003 34.9135ZM27.5003 20.0905C25.7512 20.0905 24.0736 20.7844 22.8355 22.0199C21.5975 23.2555 20.9001 24.9317 20.8966 26.6808C20.8966 30.3505 23.8576 33.3363 27.5003 33.3363C29.2659 33.3351 30.959 32.6338 32.2083 31.3862C33.4577 30.1385 34.1612 28.4464 34.1648 26.6808C34.1648 23.047 31.1746 20.0905 27.5003 20.0905ZM27.5003 16.2093C27.2915 16.2093 27.0912 16.1263 26.9435 15.9786C26.7958 15.8309 26.7128 15.6306 26.7128 15.4218V12.4945C26.7128 12.2857 26.7958 12.0854 26.9435 11.9377C27.0912 11.79 27.2915 11.707 27.5003 11.707C27.7092 11.707 27.9095 11.79 28.0572 11.9377C28.2048 12.0854 28.2878 12.2857 28.2878 12.4945V15.4218C28.2878 15.6306 28.2048 15.8309 28.0572 15.9786C27.9095 16.1263 27.7092 16.2093 27.5003 16.2093ZM27.5003 42.2935C27.3969 42.2935 27.2945 42.2732 27.199 42.2336C27.1034 42.194 27.0166 42.136 26.9435 42.0629C26.8703 41.9897 26.8123 41.9029 26.7728 41.8074C26.7332 41.7118 26.7128 41.6094 26.7128 41.506V38.5788C26.7128 38.3699 26.7958 38.1696 26.9435 38.0219C27.0912 37.8742 27.2915 37.7913 27.5003 37.7913C27.7092 37.7913 27.9095 37.8742 28.0572 38.0219C28.2048 38.1696 28.2878 38.3699 28.2878 38.5788V41.506C28.2878 41.6094 28.2674 41.7118 28.2279 41.8074C28.1883 41.9029 28.1303 41.9897 28.0572 42.0629C27.984 42.136 27.8972 42.194 27.8017 42.2336C27.7061 42.2732 27.6037 42.2935 27.5003 42.2935ZM42.0286 27.7878H39.1598C38.951 27.7878 38.7507 27.7048 38.603 27.5571C38.4553 27.4094 38.3723 27.2091 38.3723 27.0003C38.3723 26.7914 38.4553 26.5911 38.603 26.4434C38.7507 26.2958 38.951 26.2128 39.1598 26.2128H42.0286C42.2374 26.2128 42.4377 26.2958 42.5854 26.4434C42.7331 26.5911 42.8161 26.7914 42.8161 27.0003C42.8161 27.2091 42.7331 27.4094 42.5854 27.5571C42.4377 27.7048 42.2374 27.7878 42.0286 27.7878ZM15.9038 27.7878H12.9721C12.7632 27.7878 12.5629 27.7048 12.4152 27.5571C12.2675 27.4094 12.1846 27.2091 12.1846 27.0003C12.1846 26.7914 12.2675 26.5911 12.4152 26.4434C12.5629 26.2958 12.7632 26.2128 12.9721 26.2128H15.9038C16.1127 26.2128 16.313 26.2958 16.4607 26.4434C16.6084 26.5911 16.6913 26.7914 16.6913 27.0003C16.6913 27.2091 16.6084 27.4094 16.4607 27.5571C16.313 27.7048 16.1127 27.7878 15.9038 27.7878ZM37.8233 38.032C37.6189 38.0322 37.4226 37.9522 37.2766 37.8093L35.1706 35.773C35.0963 35.7011 35.0368 35.6152 34.9957 35.5203C34.9546 35.4254 34.9326 35.3233 34.9309 35.2199C34.9292 35.1165 34.9479 35.0137 34.986 34.9175C35.024 34.8213 35.0806 34.7336 35.1526 34.6593C35.2245 34.585 35.3104 34.5256 35.4053 34.4844C35.5002 34.4433 35.6023 34.4213 35.7057 34.4196C35.8091 34.4179 35.9119 34.4367 36.0081 34.4747C36.1042 34.5127 36.192 34.5693 36.2663 34.6413L38.3723 36.6775C38.4855 36.7866 38.5634 36.9271 38.5961 37.0809C38.6288 37.2346 38.6147 37.3947 38.5556 37.5403C38.4966 37.686 38.3953 37.8107 38.2648 37.8983C38.1343 37.986 37.9805 38.0325 37.8233 38.032ZM19.3441 19.582C19.1391 19.5821 18.9421 19.5022 18.7951 19.3593L16.6958 17.323C16.5457 17.1777 16.4595 16.9788 16.4562 16.7699C16.4528 16.561 16.5325 16.3594 16.6778 16.2093C16.8231 16.0592 17.0221 15.973 17.231 15.9696C17.4398 15.9662 17.6415 16.046 17.7916 16.1913L19.8931 18.2275C20.0063 18.3366 20.0842 18.4771 20.1169 18.6309C20.1495 18.7846 20.1354 18.9447 20.0764 19.0903C20.0173 19.236 19.916 19.3607 19.7855 19.4483C19.655 19.536 19.5013 19.5825 19.3441 19.582ZM17.2426 38.032C17.086 38.0316 16.9332 37.9846 16.8035 37.8969C16.6738 37.8092 16.5732 37.6848 16.5146 37.5397C16.4559 37.3946 16.4418 37.2353 16.4741 37.0821C16.5064 36.9289 16.5836 36.7889 16.6958 36.6798L18.7973 34.6435C18.8716 34.5716 18.9594 34.515 19.0556 34.4769C19.1518 34.4389 19.2545 34.4202 19.3579 34.4219C19.4613 34.4235 19.5634 34.4456 19.6583 34.4867C19.7532 34.5278 19.8391 34.5872 19.9111 34.6615C19.983 34.7358 20.0396 34.8236 20.0777 34.9198C20.1157 35.016 20.1344 35.1187 20.1327 35.2221C20.1311 35.3256 20.109 35.4276 20.0679 35.5225C20.0268 35.6175 19.9674 35.7033 19.8931 35.7753L17.7916 37.8115C17.6438 37.953 17.4471 38.032 17.2426 38.032ZM35.7173 19.582C35.5603 19.5821 35.4069 19.5352 35.2767 19.4474C35.1465 19.3596 35.0456 19.2349 34.9868 19.0893C34.9281 18.9437 34.9141 18.7839 34.9469 18.6303C34.9796 18.4768 35.0575 18.3365 35.1706 18.2275L37.2766 16.1913C37.4266 16.046 37.6283 15.9662 37.8372 15.9696C38.046 15.973 38.245 16.0592 38.3903 16.2093C38.5356 16.3594 38.6154 16.561 38.612 16.7699C38.6086 16.9788 38.5224 17.1777 38.3723 17.323L36.2663 19.3593C36.1193 19.5022 35.9223 19.5821 35.7173 19.582Z" fill="#FFF14B"/>
</svg>
