<svg width="51" height="50" viewBox="0 0 51 50" fill="none" xmlns="http://www.w3.org/2000/svg">
<path d="M15.0872 28.2947C14.993 28.2951 14.8995 28.2769 14.8123 28.2412C14.7251 28.2054 14.6458 28.1528 14.5789 28.0864C13.1247 26.6655 12.3226 24.7655 12.3226 22.7343C12.3226 20.703 13.1247 18.801 14.5789 17.3801C15.2737 16.6679 16.1046 16.1026 17.0223 15.7178C17.9399 15.3331 18.9255 15.1368 19.9206 15.1405H19.9226C21.9581 15.1405 23.8601 15.9405 25.2831 17.3926C25.4184 17.5308 25.4934 17.717 25.4914 17.9104C25.4895 18.1038 25.4108 18.2885 25.2726 18.4239C25.1345 18.5593 24.9483 18.6342 24.7549 18.6322C24.5615 18.6303 24.3768 18.5516 24.2414 18.4135C23.68 17.8368 23.0084 17.379 22.2664 17.0673C21.5245 16.7555 20.7274 16.5962 19.9226 16.5989H19.9206C18.2831 16.5989 16.7518 17.2426 15.6081 18.4114C14.4268 19.5676 13.781 21.0989 13.781 22.7322C13.781 24.3655 14.4268 25.8989 15.5956 27.0405C15.6643 27.1073 15.7193 27.187 15.7571 27.275C15.795 27.3631 15.8151 27.4577 15.8163 27.5536C15.8174 27.6494 15.7997 27.7445 15.7639 27.8335C15.7282 27.9224 15.6752 28.0034 15.6081 28.0718C15.5409 28.1423 15.4601 28.1984 15.3705 28.2367C15.281 28.2751 15.1846 28.2948 15.0872 28.2947ZM15.9122 13.803C15.7659 13.8033 15.6229 13.7593 15.502 13.6767C15.3812 13.5942 15.2881 13.477 15.2351 13.3405L14.2351 10.8072C14.1937 10.7172 14.1711 10.6196 14.1687 10.5206C14.1662 10.4215 14.184 10.323 14.2209 10.231C14.2578 10.1391 14.3131 10.0556 14.3834 9.98568C14.4536 9.91579 14.5374 9.86095 14.6295 9.82452C14.7217 9.78808 14.8203 9.77081 14.9193 9.77376C15.0184 9.77671 15.1158 9.79982 15.2056 9.84168C15.2955 9.88354 15.3758 9.94327 15.4418 10.0172C15.5077 10.0912 15.5579 10.1778 15.5893 10.2718L16.5893 12.8051C16.6342 12.9156 16.6512 13.0355 16.6386 13.1541C16.6261 13.2727 16.5845 13.3864 16.5176 13.4851C16.4506 13.5838 16.3603 13.6645 16.2547 13.7199C16.1491 13.7754 16.0315 13.8039 15.9122 13.803ZM7.47889 28.7635C7.31055 28.7616 7.14802 28.7016 7.01873 28.5938C6.88945 28.486 6.80133 28.3368 6.76925 28.1716C6.73718 28.0063 6.76311 27.835 6.84268 27.6867C6.92224 27.5383 7.05056 27.4219 7.20597 27.3572L9.68305 26.3572C9.86236 26.2852 10.0629 26.2874 10.2406 26.3632C10.4184 26.4389 10.5588 26.5822 10.631 26.7614C10.6672 26.85 10.6856 26.9449 10.685 27.0406C10.6844 27.1363 10.6648 27.231 10.6274 27.3191C10.5901 27.4072 10.5356 27.4871 10.4672 27.5541C10.3988 27.621 10.3178 27.6738 10.2289 27.7093L7.7518 28.7093C7.66537 28.7454 7.57257 28.7638 7.47889 28.7635ZM10.0122 19.5155C9.91877 19.5156 9.82616 19.498 9.7393 19.4635L7.26222 18.4635C7.08237 18.3911 6.93864 18.2502 6.86265 18.0719C6.78666 17.8935 6.78463 17.6923 6.85701 17.5124C6.9294 17.3326 7.07026 17.1888 7.24861 17.1128C7.42697 17.0369 7.6282 17.0348 7.80805 17.1072L10.2851 18.1072C10.6601 18.2593 10.8393 18.6822 10.6872 19.0572C10.6337 19.1925 10.5407 19.3086 10.4203 19.3903C10.2999 19.4721 10.1577 19.5157 10.0122 19.5155ZM24.1122 13.8614C23.9915 13.8615 23.8726 13.8316 23.7662 13.7745C23.6599 13.7173 23.5694 13.6346 23.5029 13.5338C23.4364 13.433 23.3959 13.3173 23.3852 13.197C23.3745 13.0767 23.3938 12.9557 23.4414 12.8447L24.5039 10.3697C24.5836 10.1974 24.7274 10.0629 24.9047 9.99491C25.082 9.92693 25.2788 9.9308 25.4533 10.0057C25.6278 10.0806 25.7662 10.2206 25.8391 10.396C25.9119 10.5713 25.9135 10.7682 25.8435 10.9447L24.781 13.4197C24.725 13.5508 24.6318 13.6625 24.5129 13.741C24.394 13.8195 24.2547 13.8614 24.1122 13.8614Z" fill="#FFF14B"/>
<path d="M37.9183 40.1908H17.5037C17.3837 40.1902 17.2657 40.1601 17.16 40.1033C13.6641 39.6699 11.0537 36.7699 11.0537 33.2762C11.0537 29.497 14.1579 26.4199 17.9745 26.4199C18.1266 26.4199 18.2787 26.4262 18.4287 26.4387C18.5558 21.3074 22.7495 17.1699 27.887 17.1699C33.1037 17.1699 37.3475 21.4345 37.3475 26.6762C37.3475 26.7699 37.3454 26.8637 37.3391 26.9574C38.2315 26.9195 39.1223 27.0623 39.9581 27.3773C40.7939 27.6923 41.5574 28.1729 42.2028 28.7903C42.8482 29.4077 43.3622 30.1491 43.7139 30.9701C44.0656 31.7911 44.2478 32.6747 44.2495 33.5678C44.245 35.2661 43.5906 36.8981 42.4206 38.129C41.2505 39.3598 39.6537 40.0961 37.9579 40.1866L37.9183 40.1908ZM17.7329 38.7303H37.8975C39.2171 38.655 40.4583 38.0792 41.368 37.1203C42.2778 36.1615 42.7875 34.8917 42.7933 33.5699C42.7905 32.2011 42.2451 30.8891 41.2766 29.9218C40.3081 28.9544 38.9955 28.4106 37.6266 28.4095C37.2558 28.4095 36.9391 28.4616 36.6245 28.5158C36.5112 28.5333 36.3953 28.5242 36.2861 28.4891C36.1769 28.454 36.0774 28.3939 35.9955 28.3136C35.9135 28.2333 35.8515 28.135 35.8142 28.0265C35.777 27.918 35.7655 27.8024 35.7808 27.6887C35.8454 27.2637 35.8933 26.9699 35.8933 26.6762C35.8933 22.2387 32.3016 18.6283 27.8891 18.6283C23.4766 18.6283 19.885 22.2387 19.885 26.6762C19.885 26.7678 19.885 26.9616 19.9079 27.0283C19.946 27.1468 19.9538 27.273 19.9305 27.3953C19.9072 27.5176 19.8536 27.6321 19.7745 27.7283C19.6952 27.8225 19.5937 27.8956 19.4792 27.941C19.3647 27.9865 19.2407 28.0028 19.1183 27.9887C18.7266 27.9324 18.3558 27.8783 17.9787 27.8783C14.9662 27.8783 12.5141 30.2991 12.5141 33.2741C12.5141 36.0387 14.7141 38.4116 17.5162 38.6741C17.5908 38.6822 17.6638 38.7011 17.7329 38.7303Z" fill="#FFF14B"/>
</svg>
