<svg width="221" height="78" viewBox="0 0 221 78" fill="none" xmlns="http://www.w3.org/2000/svg">
<mask id="mask0_945_58544" style="mask-type:luminance" maskUnits="userSpaceOnUse" x="0" y="0" width="221" height="78">
<path d="M221 0H0V77.0592H221V0Z" fill="white"/>
</mask>
<g mask="url(#mask0_945_58544)">
<g opacity="0.33">
<mask id="mask1_945_58544" style="mask-type:luminance" maskUnits="userSpaceOnUse" x="62" y="-2" width="84" height="81">
<path d="M145.864 -1.36328H62.2385V78.6507H145.864V-1.36328Z" fill="white"/>
</mask>
<g mask="url(#mask1_945_58544)">
<path d="M105.435 9.56445L83.7663 19.0855L74.3391 40.8009L82.6407 62.0473L103.793 70.3488L125.462 60.8278L134.889 39.1124L126.587 17.866L105.435 9.56445Z" fill="white"/>
</g>
</g>
</g>
<path d="M206.226 24.0098H104.028L111.25 40.7536L104.028 57.4975H206.226L216.31 40.7536L206.226 24.0098Z" fill="white"/>
<path d="M206.226 24.0098H104.028L111.25 40.7536L104.028 57.4975H206.226L216.31 40.7536L206.226 24.0098Z" stroke="white" stroke-width="1.642"/>
<path d="M95.1164 24.0098H13.2263L4.64331 40.7536L13.2263 57.4975H95.1164L104.262 40.7536L95.1164 24.0098Z" fill="white"/>
<path d="M95.1164 24.0098H13.2263L4.64331 40.7536L13.2263 57.4975H95.1164L104.262 40.7536L95.1164 24.0098Z" stroke="white" stroke-width="1.642"/>
<path d="M88.8784 24.6658L82.3591 40.4247L88.8784 56.1367L104.59 62.656L120.349 56.1367L126.869 40.4247L120.349 24.6658L104.59 18.1465L88.8784 24.6658Z" fill="#AE5CAA"/>
<path d="M87.7528 24.2405L81.2335 39.9525L81.0459 40.4215L81.2335 40.8905L87.7528 56.6026L87.9404 57.0716L88.4094 57.2592L104.168 63.7785L104.59 63.9661L105.059 63.7785L120.818 57.2592L121.287 57.0716L121.475 56.6026L127.994 40.8905L128.182 40.4215L127.994 39.9525L121.475 24.2405L121.287 23.7715L120.818 23.5839L105.059 17.0646L104.59 16.877L104.168 17.0646L88.4094 23.5839L87.9404 23.7715L87.7528 24.2405Z" stroke="#AE5CAA"/>
<mask id="mask2_945_58544" style="mask-type:luminance" maskUnits="userSpaceOnUse" x="0" y="0" width="221" height="78">
<path d="M221 0H0V77.0592H221V0Z" fill="white"/>
</mask>
<g mask="url(#mask2_945_58544)">
<path d="M89.8165 25.607C87.7528 30.5317 85.736 35.5032 83.6724 40.4279C85.736 45.3525 87.7528 50.2772 89.8165 55.2488C94.7411 57.3124 99.6658 59.3292 104.637 61.3929C109.562 59.3292 114.534 57.3124 119.458 55.2488C121.522 50.3241 123.539 45.3994 125.602 40.4279C123.539 35.5032 121.522 30.5317 119.458 25.607C114.534 23.5433 109.609 21.5266 104.637 19.4629C99.6658 21.5266 94.7411 23.5902 89.8165 25.607Z" stroke="white" stroke-width="2.574"/>
</g>
<mask id="mask3_945_58544" style="mask-type:luminance" maskUnits="userSpaceOnUse" x="0" y="0" width="221" height="78">
<path d="M221 0H0V77.0592H221V0Z" fill="white"/>
</mask>
<g mask="url(#mask3_945_58544)">
<path d="M67.2568 46.9483H76.0743V43.759H71.0559V34.8008H67.3037V46.9483H67.2568ZM56.0474 46.9483H64.8649V43.759H59.8464V34.8008H56.0943V46.9483H56.0474ZM47.5582 37.8963H52.9519V34.8008H43.8999V46.9483H53.1864V43.8528H47.5582V37.8963ZM47.3237 42.2581H52.2953V39.3033H47.3237V42.2581ZM37.4275 34.8008V41.6953C37.4275 42.4457 37.2868 43.0085 37.0054 43.3369C36.7239 43.7121 36.3018 43.8997 35.739 43.8997C35.1762 43.8997 34.7541 43.7121 34.4727 43.3369C34.1913 42.9616 34.0506 42.3988 34.0506 41.6953V34.8008H30.2984V41.6953C30.2984 42.4457 30.1577 43.0085 29.9232 43.3369C29.6418 43.7121 29.2197 43.8997 28.6569 43.8997C28.0941 43.8997 27.672 43.7121 27.3905 43.3369C27.1091 42.9616 26.9684 42.3988 26.9684 41.6953V34.8008H23.2163V41.836C23.2163 43.5714 23.6853 44.8846 24.6703 45.8226C25.6552 46.7607 26.9684 47.2297 28.7038 47.2297C30.1577 47.2297 31.2834 46.8545 32.1745 46.1041C33.0656 46.8545 34.1913 47.2297 35.6452 47.2297C37.3806 47.2297 38.7407 46.7607 39.6787 45.8226C40.6637 44.8846 41.1327 43.5714 41.1327 41.836V34.8008H37.4275Z" fill="#80569B"/>
</g>
<mask id="mask4_945_58544" style="mask-type:luminance" maskUnits="userSpaceOnUse" x="0" y="0" width="221" height="78">
<path d="M221 0H0V77.0592H221V0Z" fill="white"/>
</mask>
<g mask="url(#mask4_945_58544)">
<path d="M194.97 34.8008C194.219 34.8008 193.563 34.9415 192.953 35.2229C192.343 35.5043 191.874 35.8795 191.452 36.4423C190.748 35.3636 189.717 34.8008 188.263 34.8008C186.903 34.8008 185.871 35.3167 185.167 36.3016V35.0822H181.509V47.2297H185.261V40.1007C185.261 39.444 185.402 38.975 185.683 38.5998C185.964 38.2715 186.34 38.0839 186.809 38.0839C187.278 38.0839 187.653 38.2246 187.887 38.5529C188.169 38.8812 188.263 39.3502 188.263 39.913V47.1828H192.015V40.1007C192.015 39.444 192.155 38.975 192.484 38.5998C192.765 38.2715 193.187 38.0839 193.703 38.0839C194.219 38.0839 194.594 38.2246 194.876 38.5529C195.157 38.8812 195.298 39.3502 195.298 39.913V47.1828H199.05V39.8192C199.05 38.1777 198.675 36.9583 197.924 36.0671C197.315 35.2229 196.283 34.8008 194.97 34.8008ZM174.567 35.0822V39.3971H171.097V35.0822H167.345V47.2297H171.097V42.774H174.567V47.2297H178.32V35.0822H174.567ZM162.139 47.2297V38.2246H165.422V35.0353H155.103V38.2246H158.386V47.1828H162.139V47.2297ZM153.087 38.1308V35.0353H145.957V38.1308H147.646V44.0873H145.957V47.1828H153.087V44.0873H151.398V38.1308H153.087ZM139.673 39.6316C139.673 40.1007 139.532 40.429 139.297 40.6635C139.063 40.898 138.641 41.0387 138.172 41.0387H136.812V38.1777H138.172C138.688 38.1777 139.063 38.3184 139.297 38.5529C139.579 38.8343 139.673 39.2095 139.673 39.6316ZM139.72 47.2297H143.753L141.408 43.4776C142.112 43.1024 142.627 42.5864 142.956 41.9298C143.331 41.2732 143.519 40.5228 143.519 39.6785C143.519 38.7405 143.331 37.9432 142.909 37.2397C142.487 36.5361 141.924 36.0202 141.127 35.645C140.376 35.2698 139.485 35.0822 138.453 35.0822H133.06V47.2297H136.812V44.1811H137.844L139.72 47.2297Z" fill="#80569B"/>
</g>
<mask id="mask5_945_58544" style="mask-type:luminance" maskUnits="userSpaceOnUse" x="0" y="0" width="221" height="78">
<path d="M221 0H0V77.0592H221V0Z" fill="white"/>
</mask>
<g mask="url(#mask5_945_58544)">
<path d="M112.611 43.3828C112.048 43.3828 111.532 43.2421 111.11 42.9606C110.641 42.6792 110.313 42.304 110.031 41.7881C109.75 41.2722 109.656 40.7094 109.656 40.0528C109.656 39.3961 109.797 38.7864 110.031 38.3174C110.313 37.8015 110.641 37.4263 111.11 37.1449C111.579 36.8634 112.048 36.7227 112.611 36.7227C113.174 36.7227 113.689 36.8634 114.112 37.1449C114.581 37.4263 114.909 37.8015 115.19 38.3174C115.472 38.8333 115.565 39.3961 115.565 40.0528C115.565 40.7094 115.425 41.3191 115.19 41.7881C114.909 42.304 114.581 42.6792 114.112 42.9606C113.689 43.2421 113.174 43.3828 112.611 43.3828ZM112.611 46.9942C114.018 46.9942 115.331 46.7128 116.457 46.1031C117.582 45.4933 118.473 44.696 119.13 43.6173C119.787 42.5854 120.115 41.366 120.115 40.0528C120.115 38.7395 119.787 37.5201 119.13 36.4882C118.473 35.4564 117.582 34.6122 116.457 34.0025C115.331 33.3927 114.018 33.1113 112.611 33.1113C111.204 33.1113 109.89 33.3927 108.765 34.0025C107.639 34.6122 106.748 35.4095 106.091 36.4882C105.435 37.5201 105.106 38.7395 105.106 40.0528C105.106 41.366 105.435 42.5854 106.091 43.6173C106.748 44.6491 107.639 45.4933 108.765 46.1031C109.89 46.7128 111.204 46.9942 112.611 46.9942ZM99.3845 42.8668C98.8216 43.2421 98.165 43.4297 97.4146 43.4297C96.5704 43.4297 95.9137 43.1483 95.3978 42.6323C94.8819 42.0695 94.6005 41.2722 94.6005 40.1935C94.6005 39.1147 94.8819 38.2705 95.4447 37.6608C96.0075 37.0511 96.8049 36.7696 97.7898 36.7696C98.9154 36.7696 99.9473 37.2387 100.745 38.2236L103.606 35.6909C102.902 34.8467 102.058 34.237 101.026 33.7679C99.9942 33.3458 98.8216 33.1113 97.5084 33.1113C96.0544 33.1113 94.7412 33.3927 93.6156 34.0025C92.4899 34.6122 91.5988 35.4095 90.9422 36.5351C90.2856 37.6608 90.0042 38.8333 90.0042 40.2404C90.0042 41.6474 90.2856 42.8668 90.8953 43.8987C91.505 44.9305 92.3023 45.6809 93.3342 46.1969C94.366 46.7128 95.4916 46.9942 96.7111 46.9942C98.2119 46.9942 99.3845 46.619 100.276 45.8685V46.6659H103.183V39.6775H99.2907V42.8668H99.3845Z" fill="white"/>
</g>
</svg>
