<svg width="30" height="30" viewBox="0 0 30 30" fill="none" xmlns="http://www.w3.org/2000/svg">
<path d="M28.7609 9.45825L28.7615 9.46007C29.0997 10.4304 29.0584 11.2321 28.7623 11.9352C28.4558 12.6628 27.8343 13.3821 26.8444 14.0808L25.8453 14.7859L26.7347 15.6251C27.671 16.5085 28.3607 17.3425 28.6958 18.1868C29.0082 18.9739 29.0359 19.8252 28.5177 20.8662C28.0576 21.7906 27.4533 22.3268 26.7491 22.6152C26.0221 22.9129 25.0952 22.9836 23.9501 22.7964L22.6816 22.589L22.7924 23.8696C22.9039 25.1568 22.8185 26.2123 22.4685 27.019C22.1416 27.7727 21.549 28.3923 20.4253 28.7781C19.4502 29.0951 18.6426 29.0524 17.96 28.7771C17.2622 28.4957 16.6004 27.932 16.0061 27.0496L15.4261 26.1884L14.5873 26.8003C13.2368 27.7856 12.1109 28.4092 11.1869 28.7212C10.2675 29.0317 9.63057 29.0077 9.17486 28.8223C8.72463 28.6392 8.2775 28.2279 7.88129 27.4C7.48074 26.5629 7.16958 25.3726 6.97107 23.7775L6.85993 22.8844L5.96013 22.9012C4.44861 22.9293 3.45479 22.7402 2.76728 22.3865C2.12161 22.0544 1.65078 21.5275 1.28278 20.6455C0.946182 19.7706 0.922735 19.0497 1.16745 18.3443C1.42611 17.5988 2.02171 16.7629 3.13418 15.7573L3.96644 15.005L3.12374 14.2643C2.22693 13.4762 1.5709 12.7147 1.24077 11.9235C0.93091 11.1809 0.878738 10.3444 1.3318 9.29061L1.33287 9.2881C1.75412 8.30084 2.37559 7.76859 3.13286 7.46099C3.93636 7.13461 4.94243 7.04241 6.13057 7.07082L7.2742 7.09817L7.14842 5.96115C7.01325 4.73925 7.1224 3.73624 7.4788 2.96914C7.81888 2.23717 8.42307 1.63304 9.47973 1.24573C10.4485 0.906417 11.263 0.936898 11.9759 1.22441C12.71 1.52047 13.4343 2.12944 14.1229 3.11368L14.8622 4.17032L15.7015 3.1913C16.5569 2.19351 17.3771 1.53935 18.1933 1.23335C18.9692 0.942495 19.825 0.93384 20.8639 1.3949L20.8704 1.39779L20.8769 1.40058C21.8006 1.79488 22.2945 2.37314 22.5707 3.08572C22.8652 3.84559 22.9338 4.8189 22.8498 6.00017L22.7665 7.17158L23.9362 7.06714C25.1744 6.9566 26.2089 7.05372 27.0048 7.41033C27.7567 7.74719 28.3773 8.35046 28.7609 9.45825Z" fill="#564A8D" stroke="white" stroke-width="2"/>
</svg>
