<svg width="30" height="30" viewBox="0 0 30 30" fill="none" xmlns="http://www.w3.org/2000/svg">
<path d="M0 15.5305C0.168712 15.0721 0.325372 14.6013 0.506135 14.143C1.28944 12.1607 2.44632 10.4387 3.97677 8.9892C5.70004 7.35388 7.70048 6.17694 9.97809 5.5575C10.7252 5.35928 11.4844 5.17344 12.2557 5.09911C13.1716 5 14.0995 5.01239 15.0274 5C15.5697 5 16.112 5.03717 16.6542 5.07433C17.5822 5.12389 18.4739 5.3345 19.3657 5.59466C21.342 6.17694 23.1496 7.1061 24.7765 8.40693C26.8131 10.0299 28.4038 12.0369 29.5727 14.3907C30.344 15.9393 30.0427 17.7605 28.8979 18.9126C27.6085 20.2259 25.4996 20.3745 24.1017 19.2224C23.7281 18.9126 23.4148 18.5162 23.1135 18.1322C21.4987 16.0261 20.4744 14.1677 19.7513 13.3625C19.2693 12.7306 17.2086 10.6865 16.5458 10.29C15.4492 9.63342 14.2802 9.15026 13.039 8.92726C12.0147 8.74142 10.9904 8.69187 9.95399 8.79098C8.64044 8.91487 7.38716 9.22459 6.18208 9.7697C4.66367 10.4511 3.32603 11.4174 2.16915 12.6315C1.37379 13.4616 0.698948 14.3783 0.14461 15.3818C0.120508 15.4314 0.0843558 15.4809 0.0602541 15.5181C0.0602541 15.5305 0.0482033 15.5305 0.0361525 15.5305C0.0241017 15.5429 0.0120508 15.5305 0 15.5305Z" fill="#8E86B2"/>
<path d="M23 10.1504C22.7794 10.5434 22.5589 10.9363 22.3506 11.317C22.2158 11.5626 22.081 11.8205 21.9462 12.0661C21.6766 12.5573 21.3948 13.0485 21.1252 13.552C20.9537 13.8712 20.7822 14.1905 20.6106 14.4975C20.3288 15.001 20.047 15.5045 19.7774 16.008C19.6058 16.3272 19.4343 16.6465 19.2505 16.9658C18.9196 17.5675 18.5766 18.1815 18.2457 18.7832C18.0742 19.0902 17.9026 19.4095 17.7311 19.7165C17.4125 20.2937 17.1062 20.8585 16.7876 21.4357C16.469 22.0128 16.1504 22.6023 15.8073 23.1672C15.5867 23.5356 15.2682 23.8303 14.9251 24.1004C14.3737 24.5425 13.7487 24.8127 13.0503 24.9355C12.744 24.9846 12.4376 25.0092 12.1313 24.9969C11.3471 24.9723 10.6119 24.739 9.95022 24.3092C9.47234 24.0022 9.06798 23.597 8.74939 23.1303C8.43081 22.6637 8.2225 22.1602 8.09997 21.6076C8.01419 21.2147 7.97743 20.8217 8.01419 20.4287C8.07546 19.6919 8.28377 19.0165 8.68813 18.3903C9.09249 17.764 9.61938 17.2728 10.2688 16.9167C10.7589 16.6465 11.2368 16.3764 11.7147 16.1062C12.1681 15.8483 12.6337 15.6027 13.0993 15.3448C13.5037 15.1238 13.908 14.8905 14.3124 14.6694C14.6187 14.4975 14.9251 14.3379 15.2314 14.166C15.7828 13.859 16.3342 13.552 16.8856 13.245C17.4738 12.9134 18.0742 12.5941 18.6623 12.2626C19.0912 12.0293 19.5201 11.7837 19.9612 11.5503C20.6719 11.1574 21.3948 10.7521 22.1055 10.3592C22.2893 10.2487 22.4854 10.1504 22.6692 10.0399C22.7427 9.99079 22.8285 9.97851 22.902 10.0522C22.902 10.089 22.951 10.1136 23 10.1504Z" fill="#D6D1E8"/>
</svg>
