<svg width="129" height="129" viewBox="0 0 129 129" fill="none" xmlns="http://www.w3.org/2000/svg">
<path d="M77.6411 46.8861L77.6386 46.8766C77.0682 44.7507 76.4455 42.6745 75.8178 40.5823C74.8226 37.2824 73.8802 33.9317 72.9408 30.5916L72.9393 30.5862C72.9392 30.586 72.9392 30.5858 72.9391 30.5855C72.3671 28.5577 71.7428 26.4764 71.1155 24.3855C71.1154 24.3851 71.1152 24.3846 71.1151 24.3841L72.0729 24.0968C71.468 22.0909 70.9018 20.085 70.339 18.091C69.9782 16.8125 69.6187 15.539 69.2513 14.2734C69.0162 13.4634 68.7679 12.6404 68.5197 11.8173C68.2715 10.9944 68.0234 10.1715 67.7883 9.36171L77.6411 46.8861ZM77.6411 46.8861L77.6439 46.8955C78.2174 48.8767 78.7909 50.8842 79.3651 52.8937L79.3672 52.9011L79.3675 52.9021C79.9417 54.9119 80.5165 56.9238 81.0914 58.9098C81.3796 59.9315 81.6807 60.9655 81.9803 61.9948L81.9812 61.9978C82.2819 63.0305 82.5811 64.0584 82.8672 65.0726L82.8686 65.0776C83.4177 66.9863 83.9667 68.8687 84.5151 70.7489L84.5156 70.7505C85.0643 72.6319 85.6124 74.5112 86.1605 76.4163C86.3268 76.9944 86.494 77.5728 86.6613 78.1515C87.6016 81.4034 88.5441 84.6633 89.3372 87.9239L89.3387 87.9301C89.9214 90.2607 89.8337 92.7291 89.525 95.3017L89.524 95.3104C89.0739 99.3617 87.6261 103.016 85.2623 106.388C84.1963 107.859 83.0388 109.216 81.7405 110.414L81.7342 110.42C78.4206 113.533 74.458 115.59 69.9831 116.546L69.9781 116.547C66.7745 117.247 63.4616 117.249 60.2392 116.645C57.0316 116.044 54.1199 114.841 51.3445 113.075C49.3737 111.812 47.6297 110.362 46.1944 108.63L46.1944 108.63L46.1878 108.622C43.4076 105.336 41.5044 101.721 40.6022 97.5104C39.6963 93.2828 39.8473 89.1144 41.0544 84.9901L41.055 84.988C41.9969 81.7437 42.8862 78.5525 43.7739 75.3673L43.7751 75.3633L43.7758 75.3607C44.2814 73.5276 44.8211 71.7095 45.3673 69.8692C45.7235 68.6691 46.0825 67.4596 46.4367 66.2304C46.83 64.8932 47.2099 63.5437 47.588 62.2009L47.5887 62.1983C47.9678 60.8519 48.3451 59.512 48.7351 58.1861L48.7351 58.1861L48.7382 58.1753C49.0231 57.165 49.3214 56.1665 49.6222 55.1595L49.6233 55.1558C49.9228 54.1529 50.2249 53.1415 50.5142 52.1159C50.5144 52.1153 50.5146 52.1147 50.5147 52.1141L52.0814 46.6309L53.6489 41.1444L53.6504 41.1393C54.1971 39.1868 54.7701 37.2333 55.3452 35.2728L55.3461 35.2697C55.9196 33.3146 56.4951 31.3526 57.0448 29.3896C57.3769 28.2687 57.6973 27.152 58.0177 26.0352C58.5131 24.3088 59.0085 22.5821 59.5473 20.839L59.55 20.8301L59.5526 20.8212C60.2323 18.4683 60.912 16.0896 61.5911 13.7125L61.5912 13.7121C62.2706 11.3344 62.9495 8.95833 63.6283 6.60863L63.6333 6.59121L63.6377 6.57363C63.7889 5.96862 63.9662 5.3603 64.1501 4.73002L64.1527 4.72086C64.3338 4.09993 64.5213 3.45735 64.6827 2.81148L64.6885 2.7884L64.6932 2.76507C64.6996 2.73294 64.7068 2.70601 64.714 2.68387M77.6411 46.8861L64.714 2.68387M64.714 2.68387C64.7635 2.69344 64.8112 2.69998 64.8565 2.70427L64.714 2.68387Z" fill="#8858B5" stroke="white" stroke-width="2"/>
<circle cx="65.5" cy="96.5" r="7.5" fill="#8858B5" stroke="white" stroke-width="2"/>
</svg>
