<svg width="182" height="80" viewBox="0 0 182 80" fill="none" xmlns="http://www.w3.org/2000/svg">
<path d="M0 79.9916C0.53824 77.1094 0.99084 74.1672 1.60177 71.2719C4.25343 58.7502 9.43038 47.3577 17.1456 37.1675C25.8294 25.6745 36.6644 16.5825 49.7541 10.4752C54.0533 8.50114 58.4381 6.58703 63.0122 5.31669C68.4326 3.74431 74.0423 2.81572 79.6261 1.74117C82.8969 1.15584 86.2066 0.789437 89.5163 0.423034C95.1649 -0.28663 100.764 -0.00857287 106.415 0.561391C118.944 1.85808 130.818 5.38023 141.991 11.2868C155.972 18.6485 167.665 28.7537 177.177 41.3576C183.448 49.6472 183.536 60.7 177.836 68.7225C171.431 77.8499 158.867 81.0019 149.231 75.7239C146.654 74.3027 144.349 72.3056 142.131 70.3686C130.188 59.7055 122.067 49.8646 116.864 45.9016C113.295 42.7001 98.7287 32.8832 94.3164 31.2633C87.0154 28.5792 79.4597 26.9948 71.74 27.021C65.3674 27.032 59.1373 27.8457 52.9901 29.5482C45.197 31.6958 37.9616 34.8729 31.2631 39.3847C22.8174 45.0373 15.7599 52.1733 10.0517 60.5738C6.12254 66.3217 3.01088 72.4504 0.716756 78.9598C0.623207 79.2778 0.456974 79.6087 0.35047 79.8536C0.363425 79.9266 0.29074 79.9396 0.218055 79.9526C0.158325 80.0386 0.072685 79.9786 0 79.9916Z" fill="#8E86B2"/>
</svg>
