<svg width="68" height="53" viewBox="0 0 68 53" fill="none" xmlns="http://www.w3.org/2000/svg">
<path d="M8.50823 12.8189L8.50215 12.8304L8.49637 12.8422L2.10296 25.8189L1.88029 26.2709L2.111 26.7188L8.50179 39.1262L14.4303 50.9694L14.7068 51.5217H15.3246H53.6827H54.3207L54.5896 50.9431L60.0934 39.0975L60.0947 39.0948L65.9056 26.6849L66.0999 26.2701L65.9126 25.8521L60.1004 12.8754L60.0937 12.8604L60.0866 12.8457L54.5814 1.56153L54.3075 1H53.6827H15.3246H14.7205L14.4394 1.53474L8.50823 12.8189Z" fill="#564A8D" stroke="#D5D1ED" stroke-width="2"/>
<rect x="26.377" y="14.8242" width="26.9565" height="5.3913" rx="2.69565" transform="rotate(45 26.377 14.8242)" fill="#D5D1ED"/>
<rect width="26.9565" height="5.3913" rx="2.69565" transform="matrix(-0.707107 0.707107 0.707107 0.707107 41.623 14.8242)" fill="#D5D1ED"/>
</svg>
