<svg width="543" height="533" viewBox="0 0 543 533" fill="none" xmlns="http://www.w3.org/2000/svg">
<g style="mix-blend-mode:multiply">
<path d="M268.641 529L84.4901 457.589L5 268.763L82.1888 80.8787L270.846 4L460.51 83.1412L540 272.015L462.859 459.852L268.641 529Z" fill="#FFF200" fill-opacity="1"/>
<path d="M268.641 529L84.4901 457.589L5 268.763L82.1888 80.8787L270.846 4L460.51 83.1412L540 272.015L462.859 459.852L268.641 529Z" stroke="white"/>
</g>
<mask id="path-2-outside-1_9262_173992" maskUnits="userSpaceOnUse" x="0" y="0" width="543" height="533" fill="black">
<rect fill="white" width="543" height="533"/>
<path d="M267.629 529L83.4921 457.579L4 268.738L81.1928 80.9114L269.881 4L459.508 83.1722L538.578 270.952L539 271.921L461.76 459.84L267.629 529ZM269.881 9.62879L85.2284 84.8331L9.67801 268.738L87.5278 453.565L267.769 523.463L457.865 455.78L533.416 271.921L455.566 87.0477L269.881 9.58265"/>
</mask>
<path d="M267.629 529L83.4921 457.579L4 268.738L81.1928 80.9114L269.881 4L459.508 83.1722L538.578 270.952L539 271.921L461.76 459.84L267.629 529ZM269.881 9.62879L85.2284 84.8331L9.67801 268.738L87.5278 453.565L267.769 523.463L457.865 455.78L533.416 271.921L455.566 87.0477L269.881 9.58265" fill="white"/>
<path d="M538.024 269.558L535.584 270.527L536.691 273.315L539.131 272.346L538.024 269.558ZM267.629 529L266.544 531.797L267.584 532.201L268.635 531.826L267.629 529ZM83.4921 457.579L80.7271 458.743L81.2209 459.916L82.4073 460.376L83.4921 457.579ZM4 268.738L1.2252 267.597L0.75085 268.751L1.23499 269.902L4 268.738ZM81.1928 80.9114L80.0604 78.1333L78.896 78.608L78.418 79.771L81.1928 80.9114ZM269.881 4L271.037 1.2316L269.895 0.754754L268.749 1.22192L269.881 4ZM459.508 83.1722L462.273 82.0079L461.796 80.8767L460.664 80.4038L459.508 83.1722ZM538.578 270.952L535.813 272.117L535.82 272.134L535.828 272.151L538.578 270.952ZM539 271.921L541.775 273.062L542.258 271.887L541.75 270.722L539 271.921ZM461.76 459.84L462.767 462.666L464.027 462.217L464.535 460.98L461.76 459.84ZM85.2284 84.8331L84.0968 82.0547L82.9315 82.5293L82.4534 83.6931L85.2284 84.8331ZM9.67801 268.738L6.90305 267.598L6.42881 268.752L6.91325 269.902L9.67801 268.738ZM87.5278 453.565L84.763 454.73L85.2569 455.902L86.4431 456.362L87.5278 453.565ZM267.769 523.463L266.685 526.261L267.725 526.664L268.776 526.29L267.769 523.463ZM457.865 455.78L458.872 458.606L460.132 458.157L460.64 456.92L457.865 455.78ZM533.416 271.921L536.191 273.061L536.665 271.907L536.181 270.757L533.416 271.921ZM455.566 87.0477L458.331 85.8834L457.854 84.7518L456.721 84.279L455.566 87.0477ZM268.713 526.203L84.577 454.782L82.4073 460.376L266.544 531.797L268.713 526.203ZM86.2572 456.415L6.76501 267.574L1.23499 269.902L80.7271 458.743L86.2572 456.415ZM6.7748 269.878L83.9676 82.0518L78.418 79.771L1.2252 267.597L6.7748 269.878ZM82.3252 83.6895L271.013 6.77808L268.749 1.22192L80.0604 78.1333L82.3252 83.6895ZM268.725 6.7684L458.352 85.9406L460.664 80.4038L271.037 1.2316L268.725 6.7684ZM456.743 84.3364L535.813 272.117L541.343 269.788L462.273 82.0079L456.743 84.3364ZM535.828 272.151L536.25 273.12L541.75 270.722L541.328 269.754L535.828 272.151ZM536.225 270.781L458.986 458.699L464.535 460.98L541.775 273.062L536.225 270.781ZM460.754 457.014L266.622 526.174L268.635 531.826L462.767 462.666L460.754 457.014ZM268.749 6.85038L84.0968 82.0547L86.36 87.6115L271.013 12.4072L268.749 6.85038ZM82.4534 83.6931L6.90305 267.598L12.453 269.878L88.0034 85.9731L82.4534 83.6931ZM6.91325 269.902L84.763 454.73L90.2925 452.4L12.4428 267.573L6.91325 269.902ZM86.4431 456.362L266.685 526.261L268.854 520.666L88.6125 450.768L86.4431 456.362ZM268.776 526.29L458.872 458.606L456.859 452.953L266.763 520.637L268.776 526.29ZM460.64 456.92L536.191 273.061L530.641 270.781L455.091 454.639L460.64 456.92ZM536.181 270.757L458.331 85.8834L452.801 88.212L530.651 273.085L536.181 270.757ZM456.721 84.279L271.036 6.81393L268.726 12.3514L454.411 89.8164L456.721 84.279Z" fill="white" mask="url(#path-2-outside-1_9262_173992)"/>
</svg>
