<svg width="50" height="50" viewBox="0 0 50 50" fill="none" xmlns="http://www.w3.org/2000/svg">
<path d="M48.5648 15.5456L48.5654 15.5474C49.177 17.3024 49.1162 18.8102 48.5516 20.1507C47.9765 21.5159 46.8375 22.804 45.1251 24.0126L44.126 24.7178L45.0154 25.557C46.5961 27.0484 47.8327 28.5199 48.446 30.0654C49.0367 31.5537 49.0741 33.1701 48.1263 35.0741C47.2951 36.7438 46.1734 37.7606 44.8345 38.3089C43.4729 38.8665 41.794 38.9765 39.8092 38.6519L38.5407 38.4445L38.6516 39.7251C38.8411 41.9146 38.7069 43.8038 38.0592 45.297C37.4344 46.7371 36.2951 47.8961 34.2535 48.5959C32.4971 49.1678 30.9865 49.1055 29.684 48.5802C28.3662 48.0486 27.1673 47.0044 26.1238 45.455L25.5438 44.5939L24.7051 45.2058C22.4269 46.8678 20.4881 47.9499 18.8581 48.5004C17.2326 49.0493 15.9964 49.0436 15.0403 48.6548C14.0896 48.2682 13.241 47.4315 12.5341 45.9544C11.823 44.4682 11.2921 42.405 10.9569 39.7115L10.8457 38.8184L9.94594 38.8352C7.37988 38.8829 5.59516 38.5664 4.30714 37.9037C3.06118 37.2627 2.18021 36.2457 1.51912 34.6572C0.909034 33.0759 0.846683 31.7078 1.31591 30.3554C1.79915 28.9625 2.88297 27.4794 4.77658 25.7676L5.60883 25.0153L4.76613 24.2747C3.24442 22.9373 2.06111 21.5873 1.45271 20.1293C0.86456 18.7198 0.783095 17.1379 1.6072 15.221L1.60827 15.2185C2.38103 13.4074 3.5493 12.3946 4.97054 11.8173C6.43801 11.2212 8.22522 11.0702 10.2336 11.1182L11.3772 11.1456L11.2514 10.0086C11.0186 7.90399 11.1961 6.09677 11.8601 4.66767C12.5077 3.27376 13.6586 2.14984 15.5746 1.44863C17.3246 0.834672 18.8519 0.875023 20.2091 1.4224C21.5877 1.97836 22.8881 3.09732 24.0845 4.8073L24.8237 5.86395L25.663 4.88493C27.1238 3.181 28.5787 1.99724 30.0882 1.43134C31.5573 0.88059 33.165 0.881743 35.0436 1.71549L35.0501 1.71837L35.0566 1.72117C36.7615 2.44892 37.7143 3.54697 38.2394 4.90194C38.783 6.30419 38.8906 8.04247 38.748 10.0476L38.6647 11.219L39.8344 11.1145C41.9514 10.9255 43.8061 11.0815 45.2806 11.7421C46.7112 12.383 47.8687 13.5355 48.5648 15.5456Z" fill="#FFF200" stroke="#8858B5" stroke-width="2"/>
</svg>
