<svg width="44" height="44" viewBox="0 0 44 44" fill="none" xmlns="http://www.w3.org/2000/svg">
<path d="M1.50098 18.7966C2.00889 20.0138 2.85628 21.0786 3.82492 22.0307C2.62798 23.2378 1.78906 24.435 1.35217 25.6943C0.811899 27.2515 0.923917 28.793 1.54014 30.3845L1.54444 30.3956L1.54901 30.4067C2.20558 31.9894 3.16886 33.1759 4.62227 33.9236C5.8389 34.5495 7.32205 34.8273 9.1003 34.8669C9.3848 36.7284 9.80815 38.2961 10.4036 39.5405C11.0946 40.9845 12.0529 42.062 13.3542 42.5912C14.6499 43.1182 16.1105 43.0297 17.6624 42.5057C18.9866 42.0585 20.4366 41.2754 22.0158 40.1919C22.8765 41.2439 23.8934 42.0573 25.0739 42.5334C26.56 43.1328 28.2108 43.1593 29.9667 42.5861L29.9667 42.5862L29.9799 42.5817C32.0644 41.8689 33.3839 40.6015 34.0987 38.9539C34.6405 37.7048 34.8107 36.2927 34.7814 34.8412C36.1253 34.9317 37.3997 34.7838 38.5497 34.3128C40.0669 33.6916 41.2739 32.5458 42.1124 30.8614C43.098 28.8817 43.0915 27.0556 42.4299 25.3884C41.9277 24.1229 41.064 22.9888 40.0766 21.9569C41.1611 21.0392 42.0024 20.0008 42.5001 18.8193C43.1436 17.2916 43.1709 15.6225 42.5527 13.8475C41.8428 11.7973 40.5837 10.4783 38.9605 9.75104C37.7072 9.18958 36.2922 9.00515 34.843 9.03492C34.8597 7.71809 34.7188 6.42928 34.2699 5.27103C33.6754 3.73712 32.565 2.49724 30.7585 1.72426C28.8608 0.883721 27.0874 0.841543 25.4387 1.45962C24.1706 1.93503 23.0321 2.77999 21.9884 3.83741C21.07 2.76444 20.0248 1.94614 18.8405 1.46856C17.2993 0.847001 15.6209 0.842709 13.8581 1.46239L13.8581 1.46232L13.8467 1.46648C11.8995 2.17769 10.5915 3.39199 9.85564 4.9757C9.27935 6.21607 9.08094 7.62413 9.13057 9.09423C7.80709 9.12796 6.48944 9.30264 5.29902 9.78619C3.73275 10.4224 2.44066 11.5718 1.63158 13.4671C0.786533 15.4335 0.837001 17.2053 1.50098 18.7966Z" fill="#8858B5" stroke="#FFF200" stroke-width="2"/>
</svg>
