<svg width="124" height="170" viewBox="0 0 124 170" fill="none" xmlns="http://www.w3.org/2000/svg">
<path d="M62.5997 48.3C53.7997 32.6 43.2997 17.9 38.3997 0C35.3997 6.9 32.9997 13.7 29.6997 19.9C23.7997 31 17.1997 41.7 10.9997 52.6C6.79973 60 2.99973 67.7 1.09973 76.1C-3.00027 94 4.89973 110.3 21.8997 117.3C24.9997 118.6 28.0997 119.5 31.1997 120.1C31.1997 116.4 31.5997 112.6 32.3997 108.8C25.9997 107.6 19.9997 104.4 15.9997 99C11.4997 93.1 10.3997 86.5 12.0997 79.4C12.9997 75.7 13.8997 71.9 15.5997 68.7C22.6997 55.5 30.0997 42.4 37.7997 28.6C43.8997 38.9 49.6997 48.1 54.8997 57.7C55.2997 58.4 55.5997 59.1 55.9997 59.8C58.1997 56 60.4997 52.2 62.5997 48.3Z" fill="white"/>
<path d="M75.2997 54.7C65.6997 72 56.3997 88.3 47.5997 104.8C45.3997 108.9 44.2997 113.6 43.1997 118.2C40.9997 127 42.3997 135.3 48.0997 142.6C61.0997 159.5 89.2997 159.9 102.7 143.3C109.5 134.9 110.8 125.4 107.5 115.5C104.6 107.1 101 98.8 96.7997 90.9C90.1997 79.1 82.8997 67.5 75.2997 54.7ZM76.0997 19C82.2997 41.6 95.7997 60.3 106.9 80.2C111.7 88.9 116.5 97.7 119.8 107C126.4 125.4 124.9 143 109.4 156.8C93.4997 171 74.8997 173.5 55.3997 165.5C34.2997 156.8 24.3997 136.5 29.4997 114.1C31.8997 103.6 36.5997 94 41.8997 84.7C49.5997 71.1 57.7997 57.7 65.1997 44C69.3997 36.1 72.2997 27.6 76.0997 19Z" fill="white"/>
</svg>
