<svg width="50" height="50" viewBox="0 0 50 50" fill="none" xmlns="http://www.w3.org/2000/svg">
<path d="M34.4544 48.5648L34.4526 48.5654C32.6976 49.177 31.1898 49.1162 29.8493 48.5516C28.4841 47.9765 27.196 46.8375 25.9874 45.1251L25.2822 44.126L24.443 45.0154C22.9516 46.5961 21.4801 47.8327 19.9346 48.446C18.4462 49.0367 16.8299 49.0741 14.9259 48.1263C13.2562 47.2951 12.2394 46.1734 11.6911 44.8345C11.1335 43.4728 11.0235 41.794 11.3481 39.8092L11.5555 38.5407L10.2749 38.6516C8.08539 38.8411 6.1962 38.7069 4.70304 38.0592C3.26288 37.4344 2.10386 36.2951 1.40412 34.2535C0.832175 32.4971 0.894511 30.9865 1.41985 29.684C1.9514 28.3662 2.99559 27.1673 4.54495 26.1238L5.40613 25.5438L4.79421 24.7051C3.13225 22.4269 2.05012 20.4881 1.49964 18.8581C0.950732 17.2326 0.956393 15.9964 1.34522 15.0403C1.73182 14.0896 2.56852 13.241 4.04562 12.5341C5.53179 11.823 7.59497 11.2921 10.2885 10.9569L11.1816 10.8457L11.1648 9.94594C11.1171 7.37988 11.4336 5.59516 12.0963 4.30714C12.7373 3.06118 13.7543 2.18021 15.3428 1.51912C16.9241 0.909033 18.2922 0.846682 19.6446 1.31591C21.0375 1.79915 22.5206 2.88296 24.2324 4.77658L24.9847 5.60883L25.7253 4.76613C27.0627 3.24442 28.4127 2.06111 29.8707 1.45271C31.2802 0.86456 32.8621 0.783095 34.779 1.6072L34.7815 1.60827C36.5926 2.38103 37.6054 3.5493 38.1827 4.97054C38.7788 6.43801 38.9298 8.22522 38.8818 10.2336L38.8544 11.3772L39.9914 11.2514C42.096 11.0186 43.9032 11.1961 45.3323 11.8601C46.7262 12.5077 47.8502 13.6586 48.5514 15.5746C49.1653 17.3246 49.125 18.8519 48.5776 20.2091C48.0216 21.5877 46.9027 22.8881 45.1927 24.0845L44.1361 24.8237L45.1151 25.663C46.819 27.1238 48.0028 28.5787 48.5687 30.0882C49.1194 31.5573 49.1183 33.165 48.2845 35.0436L48.2816 35.0501L48.2788 35.0566C47.5511 36.7615 46.453 37.7143 45.0981 38.2394C43.6958 38.783 41.9575 38.8906 39.9524 38.748L38.781 38.6647L38.8855 39.8344C39.0745 41.9514 38.9185 43.8061 38.2579 45.2806C37.617 46.7112 36.4645 47.8687 34.4544 48.5648Z" fill="#8858B5" stroke="white" stroke-width="2"/>
</svg>
