<svg width="24" height="30" viewBox="0 0 24 30" fill="none" xmlns="http://www.w3.org/2000/svg">
<path d="M12.1615 8.54831C10.451 5.76967 8.40999 3.16801 7.45752 0C6.87438 1.22119 6.40787 2.42468 5.76641 3.52198C4.61957 5.48649 3.33665 7.38022 2.13149 9.30934C1.31509 10.619 0.576446 11.9818 0.207123 13.4685C-0.589839 16.6365 0.945769 19.5213 4.25024 20.7602C4.85282 20.9903 5.4554 21.1495 6.05798 21.2557C6.05798 20.6009 6.13574 19.9284 6.29124 19.2558C5.0472 19.0434 3.88092 18.4771 3.1034 17.5214C2.22868 16.4772 2.01486 15.3091 2.34531 14.0525C2.52025 13.3977 2.6952 12.7251 3.02564 12.1588C4.40575 9.82259 5.84416 7.50411 7.3409 5.06173C8.52662 6.88467 9.65403 8.51291 10.6648 10.212C10.7426 10.3358 10.8009 10.4597 10.8786 10.5836C11.3063 9.91109 11.7533 9.23855 12.1615 8.54831Z" fill="#D6D1E8"/>
<path d="M14.6302 9.59251C12.7641 12.6543 10.9564 15.5392 9.24583 18.4594C8.82626 19.1713 8.61251 19.9855 8.40265 20.7849C8.39862 20.8003 8.39459 20.8156 8.39055 20.831C7.96292 22.3884 8.23505 23.8574 9.34302 25.1494C11.87 28.1404 17.3515 28.2112 19.9562 25.2733C21.278 23.7866 21.5307 22.1053 20.8892 20.3531C20.3255 18.8665 19.6258 17.3975 18.8094 15.9993C17.5264 13.9109 16.1075 11.8579 14.6302 9.59251ZM14.7857 3.2742C15.9908 7.27403 18.615 10.5836 20.7726 14.1056C21.7056 15.6454 22.6387 17.2028 23.2801 18.8488C24.563 22.1053 24.2715 25.2202 21.2586 27.6625C18.1679 30.1757 14.5524 30.6182 10.762 29.2023C6.66056 27.6625 4.73619 24.0698 5.72754 20.1053C6.19405 18.247 7.10764 16.548 8.13786 14.902C9.63459 12.495 11.2285 10.1235 12.6669 7.69879C13.4833 6.30062 14.047 4.79626 14.7857 3.2742Z" fill="#D6D1E8"/>
<path d="M14.6302 9.59251C12.7641 12.6543 10.9564 15.5392 9.24583 18.4594C8.82626 19.1713 8.61251 19.9855 8.40265 20.7849L8.39055 20.831C7.96292 22.3884 8.23505 23.8574 9.34302 25.1494C11.87 28.1404 17.3515 28.2112 19.9562 25.2733C21.278 23.7866 21.5307 22.1053 20.8892 20.3531C20.3255 18.8665 19.6258 17.3975 18.8094 15.9993C17.5264 13.9109 16.1075 11.8579 14.6302 9.59251Z" fill="#D6D1E8"/>
</svg>
