<svg width="124" height="170" viewBox="0 0 124 170" fill="none" xmlns="http://www.w3.org/2000/svg">
<path d="M62.5997 48.3C53.7997 32.6 43.2997 17.9 38.3997 0C35.3997 6.9 32.9997 13.7 29.6997 19.9C23.7997 31 17.1997 41.7 10.9997 52.6C6.79973 60 2.99973 67.7 1.09973 76.1C-3.00027 94 4.89973 110.3 21.8997 117.3C24.9997 118.6 28.0997 119.5 31.1997 120.1C31.1997 116.4 31.5997 112.6 32.3997 108.8C25.9997 107.6 19.9997 104.4 15.9997 99C11.4997 93.1 10.3997 86.5 12.0997 79.4C12.9997 75.7 13.8997 71.9 15.5997 68.7C22.6997 55.5 30.0997 42.4 37.7997 28.6C43.8997 38.9 49.6997 48.1 54.8997 57.7C55.2997 58.4 55.5997 59.1 55.9997 59.8C58.1997 56 60.4997 52.2 62.5997 48.3Z" fill="#D6D1E8"/>
<path d="M75.2997 54.2C65.6997 71.5 56.3997 87.8 47.5997 104.3C45.3997 108.4 44.2997 113.1 43.1997 117.7C40.9997 126.5 42.3997 134.8 48.0997 142.1C61.0997 159 89.2997 159.4 102.7 142.8C109.5 134.4 110.8 124.9 107.5 115C104.6 106.6 101 98.3 96.7997 90.4C90.1997 78.6 82.8997 67 75.2997 54.2ZM76.0997 18.5C82.2997 41.1 95.7997 59.8 106.9 79.7C111.7 88.4 116.5 97.2 119.8 106.5C126.4 124.9 124.9 142.5 109.4 156.3C93.4997 170.5 74.8997 173 55.3997 165C34.2997 156.3 24.3997 136 29.4997 113.6C31.8997 103.1 36.5997 93.5 41.8997 84.2C49.5997 70.6 57.7997 57.2 65.1997 43.5C69.3997 35.6 72.2997 27.1 76.0997 18.5Z" fill="#D6D1E8"/>
</svg>
