<svg width="64" height="65" viewBox="0 0 64 65" fill="none" xmlns="http://www.w3.org/2000/svg">
<path d="M14.3223 14.4981L32 7.17578L49.6776 14.4981L57 32.1758L49.6776 49.8534L32 57.1758L14.3223 49.8534L7 32.1758L14.3223 14.4981Z" fill="#675C98" stroke="#DFDCF1" stroke-width="3"/>
<path fill-rule="evenodd" clip-rule="evenodd" d="M19.9758 19.2324C19.037 19.4275 18.2391 20.2894 18.0571 21.3048C17.981 21.7296 17.981 32.2937 18.0571 32.7185C18.2434 33.7579 19.0365 34.5973 20.0186 34.7944C20.1804 34.827 20.6267 34.8535 21.0102 34.8535H21.7075L22.4382 35.8939C23.3481 37.1896 23.5562 37.335 24.0948 37.0513C24.2707 36.9587 24.4695 36.7173 25.0477 35.8939L25.7784 34.8535H28.4169C29.9829 34.8535 31.1751 34.8295 31.3498 34.7944C32.3319 34.5973 33.125 33.7579 33.3112 32.7185C33.3874 32.2937 33.3874 21.7296 33.3112 21.3048C33.125 20.2654 32.3319 19.426 31.3498 19.2289C30.9864 19.1559 20.3278 19.1592 19.9758 19.2324ZM24.9186 23.2499C24.4554 23.3511 23.7596 23.7074 23.3875 24.0338C21.3701 25.8035 21.6976 29.1366 24.015 30.4206C24.5859 30.737 24.9441 30.826 25.6568 30.8288C26.3444 30.8315 26.8466 30.7088 27.3673 30.4109L27.6286 30.2613L27.8321 30.4671C28.1018 30.74 28.2282 30.8024 28.5104 30.8021C29.159 30.8016 29.5369 30.0614 29.1784 29.4938C29.1002 29.37 28.9739 29.2107 28.8979 29.1398C28.7637 29.0147 28.7624 29.0063 28.8528 28.8604C29.0219 28.5871 29.2043 27.9883 29.2702 27.4891C29.5055 25.7089 28.4252 23.9144 26.785 23.3609C26.2298 23.1736 25.4735 23.1286 24.9186 23.2499ZM25.3185 24.9586C24.9642 25.0218 24.4278 25.3374 24.2039 25.6142C23.7723 26.1479 23.6099 26.8297 23.7606 27.4759C23.923 28.1726 24.2794 28.6192 24.921 28.9301C25.1713 29.0513 25.3167 29.0815 25.6503 29.0814C25.8795 29.0813 26.1374 29.0513 26.2234 29.0148L26.3798 28.9484L26.1584 28.6941C25.7981 28.2804 25.7952 27.7407 26.1517 27.4232C26.5135 27.101 26.9344 27.1208 27.3076 27.4776L27.5348 27.6948L27.5848 27.5558C27.6124 27.4793 27.6254 27.1933 27.6138 26.9201C27.5868 26.2867 27.4178 25.8955 26.9939 25.4856C26.5418 25.0482 25.9173 24.8518 25.3185 24.9586ZM34.9954 29.6304C34.9786 33.0686 34.9778 33.0907 34.8517 33.4935C34.5926 34.321 34.0856 35.116 33.5058 35.604C32.7846 36.2109 32.0392 36.5199 31.1661 36.5737L30.6329 36.6066V38.0081C30.6329 38.779 30.658 39.5499 30.6888 39.7212C30.875 40.7606 31.6681 41.6 32.6502 41.7971C32.8249 41.8322 34.0171 41.8562 35.5831 41.8562H38.2216L38.9523 42.8966C39.8622 44.1923 40.0703 44.3377 40.6089 44.054C40.7848 43.9614 40.9836 43.72 41.5618 42.8966L42.2925 41.8562H42.9898C43.3733 41.8562 43.8196 41.8297 43.9814 41.7971C44.9635 41.6 45.7566 40.7606 45.9429 39.7212C46.019 39.2964 46.019 28.7323 45.9429 28.3075C45.7566 27.2681 44.9635 26.4287 43.9814 26.2316C43.7968 26.1945 42.0713 26.1725 39.3498 26.1725H35.0123L34.9954 29.6304ZM37.8784 30.2707C37.7881 30.3318 37.6612 30.4439 37.5964 30.5198C37.4294 30.715 35.2809 36.7147 35.2812 36.9849C35.2815 37.4248 35.6566 37.8044 36.0911 37.8048C36.5472 37.8052 36.7496 37.6053 37.0082 36.8988L37.2062 36.3582H38.3175H39.4289L39.6014 36.8357C39.8141 37.4245 39.8879 37.5487 40.1096 37.6919C40.6294 38.0273 41.3503 37.6007 41.3506 36.9575C41.3507 36.7921 39.3455 31.0574 39.142 30.6408C39.0012 30.3527 38.7491 30.2013 38.3729 30.1791C38.1177 30.164 38.0051 30.1848 37.8784 30.2707ZM38.0763 33.9296C37.9524 34.2809 37.851 34.5804 37.851 34.5951C37.851 34.6099 38.0602 34.622 38.3158 34.622C38.5738 34.622 38.7806 34.5975 38.7806 34.5669C38.7806 34.5007 38.3423 33.2909 38.3183 33.2909C38.3091 33.2909 38.2002 33.5783 38.0763 33.9296Z" fill="white"/>
</svg>
