<svg width="40" height="40" viewBox="0 0 40 40" fill="none" xmlns="http://www.w3.org/2000/svg">
<path d="M35.82 27.02H26.76C26.2296 27.02 25.7209 27.2307 25.3458 27.6058C24.9707 27.9809 24.76 28.4896 24.76 29.02C24.76 29.5504 24.9707 30.0591 25.3458 30.4342C25.7209 30.8093 26.2296 31.02 26.76 31.02H31.56C29.3539 33.3255 26.5088 34.9186 23.3903 35.5948C20.2718 36.2709 17.0224 35.9992 14.0596 34.8145C11.0967 33.6298 8.55574 31.5862 6.76318 28.9463C4.97063 26.3065 4.00835 23.1909 4 20C4 19.4696 3.78929 18.9609 3.41421 18.5858C3.03914 18.2107 2.53043 18 2 18C1.46957 18 0.960859 18.2107 0.585786 18.5858C0.210714 18.9609 0 19.4696 0 20C0.0105733 23.9056 1.16444 27.7226 3.31921 30.9801C5.47397 34.2375 8.53533 36.7927 12.1255 38.3304C15.7156 39.8682 19.6775 40.3211 23.522 39.6333C27.3666 38.9455 30.9257 37.1471 33.76 34.46V38C33.76 38.5304 33.9707 39.0391 34.3458 39.4142C34.7209 39.7893 35.2296 40 35.76 40C36.2904 40 36.7991 39.7893 37.1742 39.4142C37.5493 39.0391 37.76 38.5304 37.76 38V29C37.7551 28.4833 37.5503 27.9885 37.1887 27.6194C36.827 27.2503 36.3365 27.0355 35.82 27.02ZM20 0C14.8728 0.0146244 9.94698 1.99783 6.24 5.54V2C6.24 1.46957 6.02929 0.960859 5.65421 0.585786C5.27914 0.210714 4.77043 0 4.24 0C3.70957 0 3.20086 0.210714 2.82579 0.585786C2.45071 0.960859 2.24 1.46957 2.24 2V11C2.24 11.5304 2.45071 12.0391 2.82579 12.4142C3.20086 12.7893 3.70957 13 4.24 13H13.24C13.7704 13 14.2791 12.7893 14.6542 12.4142C15.0293 12.0391 15.24 11.5304 15.24 11C15.24 10.4696 15.0293 9.96086 14.6542 9.58579C14.2791 9.21071 13.7704 9 13.24 9H8.44C10.6449 6.69574 13.4882 5.103 16.6048 4.42622C19.7214 3.74943 22.9692 4.01949 25.9312 5.20173C28.8932 6.38396 31.4344 8.42442 33.2285 11.0612C35.0225 13.698 35.9877 16.8108 36 20C36 20.5304 36.2107 21.0391 36.5858 21.4142C36.9609 21.7893 37.4696 22 38 22C38.5304 22 39.0391 21.7893 39.4142 21.4142C39.7893 21.0391 40 20.5304 40 20C40 17.3736 39.4827 14.7728 38.4776 12.3463C37.4725 9.91982 35.9993 7.71504 34.1421 5.85786C32.285 4.00069 30.0802 2.5275 27.6537 1.52241C25.2272 0.517315 22.6264 0 20 0Z" fill="#D6D1E8"/>
<path d="M20 12L19.25 12.8165C19.25 12.8165 17.97 14.226 16.68 16.0535C15.39 17.8809 14 20.068 14 22.1677C14 23.7145 14.6321 25.198 15.7574 26.2918C16.8826 27.3855 18.4087 28 20 28C21.5913 28 23.1174 27.3855 24.2426 26.2918C25.3679 25.198 26 23.7145 26 22.1677C26 20.068 24.61 17.8809 23.32 16.0535C22.03 14.226 20.75 12.8165 20.75 12.8165L20 12ZM20 15.0425C20.44 15.548 20.84 15.966 21.68 17.1519C22.89 18.8627 24 21.0401 24 22.1677C24 24.3256 22.22 26.0559 20 26.0559C17.78 26.0559 16 24.3256 16 22.1677C16 21.0401 17.11 18.8627 18.32 17.1519C19.16 15.966 19.56 15.548 20 15.0425Z" fill="#D6D1E8"/>
<path d="M20 15.0425C20.44 15.548 20.84 15.966 21.68 17.1519C22.89 18.8627 24 21.0401 24 22.1677C24 24.3256 22.22 26.0559 20 26.0559C17.78 26.0559 16 24.3256 16 22.1677C16 21.0401 17.11 18.8627 18.32 17.1519C19.16 15.966 19.56 15.548 20 15.0425Z" fill="#D6D1E8"/>
</svg>
