<svg width="27" height="18" viewBox="0 0 27 18" fill="none" xmlns="http://www.w3.org/2000/svg">
<path d="M21.1173 12.8386C20.6648 12.8386 19.9106 12.8386 19.3073 12.8386C19.1564 12.8386 19.0056 12.8386 18.8548 12.6651C18.7039 12.6651 18.5531 12.4916 18.7039 12.3181C18.8548 12.1446 19.0056 11.9711 19.1564 11.6241C19.4581 11.2771 19.7598 10.9301 19.9106 10.5831C19.9106 10.5831 19.9106 10.4096 20.0615 10.4096C20.2123 10.2361 20.2123 10.2361 20.0615 10.0627C20.0615 9.88916 19.9106 9.71566 19.9106 9.71566C19.3073 8.6747 18.7039 7.63374 17.9497 6.76627C17.0447 5.55181 15.9888 4.51084 14.6313 3.81687C13.8771 3.46988 13.2738 3.29639 12.5196 3.12289C12.0671 2.9494 11.6145 2.9494 11.162 2.7759C11.0112 2.7759 10.8604 2.60241 10.7095 2.42892C10.5587 2.42892 10.5587 2.25542 10.7095 2.08193C10.7095 1.90843 10.8604 1.90843 11.0112 1.73494C11.6145 1.21446 12.3687 0.86747 12.9721 0.693976C13.7263 0.346988 14.4805 0.173494 15.2347 0.173494C15.838 0 16.5922 0 17.3464 0C18.4022 0 19.4581 0.346988 20.3631 0.86747C21.1173 1.21446 21.8715 1.73494 22.4749 2.42892C23.0782 3.12289 23.6816 3.64337 24.2849 4.33735C24.4358 4.51084 24.5866 4.68434 24.5866 4.68434C24.7374 4.85783 24.7374 4.85783 24.8883 4.68434C25.3408 4.33735 25.6425 3.99036 26.095 3.46988C26.2458 3.29639 26.3966 3.29639 26.3966 3.29639C26.5475 3.12289 26.6983 3.29639 26.8492 3.46988C26.8492 3.81687 27 4.16386 27 4.33735C27 5.37831 27 6.24578 27 7.28675C27 7.98072 27 8.84819 26.8492 9.54217C26.8492 10.0627 26.6983 10.7566 26.6983 11.2771C26.6983 11.6241 26.5475 11.7976 26.3966 12.1446C26.2458 12.3181 25.9441 12.3181 25.7933 12.4916C25.0391 12.4916 24.4358 12.6651 23.6816 12.6651C22.7765 12.8386 22.0224 12.8386 21.1173 12.8386Z" fill="#FFF200"/>
<path d="M5.88267 5.20482C6.33519 5.20482 7.08938 5.20482 7.69273 5.20482C7.84356 5.20482 7.9944 5.20482 8.14524 5.37831C8.29608 5.37831 8.44692 5.55181 8.29608 5.7253C8.29608 6.07229 8.14524 6.24578 7.9944 6.41928C7.69273 6.76627 7.39105 7.11325 7.24021 7.46024C7.24021 7.46024 7.24021 7.46024 7.08938 7.63374C6.93854 7.80723 6.93854 7.80723 7.08938 7.98072C7.08938 8.15422 7.24021 8.32771 7.24021 8.32771C7.84356 9.36868 8.44692 10.4096 9.2011 11.2771C10.1061 12.4916 11.162 13.5325 12.5195 14.2265C13.1229 14.5735 13.7262 14.747 14.4804 14.9205C14.9329 15.094 15.5363 15.094 15.9888 15.2675C16.1396 15.2675 16.2905 15.441 16.4413 15.6145C16.5922 15.788 16.5922 15.9614 16.4413 15.9614C16.2905 16.1349 16.2905 16.1349 16.1396 16.3084C15.3855 16.8289 14.7821 17.1759 14.0279 17.3494C13.2737 17.6964 12.5195 17.8699 11.7653 17.8699C11.0112 18.0434 10.4078 18.0434 9.65362 17.8699C8.59775 17.8699 7.54189 17.5229 6.63686 17.0024C5.88267 16.8289 5.27932 16.3084 4.67597 15.6145C3.92178 15.094 3.31843 14.4 2.71508 13.706C2.56424 13.5325 2.56424 13.359 2.4134 13.359C2.26257 13.1855 2.26257 13.1855 2.11173 13.359C1.65922 13.706 1.35754 14.053 0.905027 14.5735C0.754189 14.5735 0.603351 14.747 0.603351 14.747C0.452513 14.9205 0.301676 14.747 0.150838 14.5735C0 14.2265 0 14.053 0 13.706C0 12.6651 0 11.7976 0 10.7566C0 10.0627 0 9.19518 0.150838 8.50121C0.150838 7.98072 0.301676 7.28675 0.301676 6.76627C0.301676 6.41928 0.452513 6.24578 0.603351 6.07229C0.754189 5.8988 1.05586 5.8988 1.2067 5.7253C1.96089 5.7253 2.56424 5.55181 3.31843 5.55181C4.22346 5.20482 4.97765 5.20482 5.88267 5.20482Z" fill="#FFF200"/>
</svg>
