<svg width="75" height="74" viewBox="0 0 75 74" fill="none" xmlns="http://www.w3.org/2000/svg">
<path d="M71.0341 23.6942L71.0351 23.6969C71.968 26.3207 71.9209 28.6351 71.0743 30.684C70.2234 32.7435 68.5424 34.5877 66.1137 36.2166L65.5892 36.5685L66.052 36.9983C68.3661 39.1471 70.2276 41.3239 71.1503 43.6795C72.0615 46.0056 72.072 48.5438 70.605 51.4777L70.6025 51.4828C69.3663 54.0279 67.6097 55.6221 65.487 56.4762C63.3521 57.3352 60.8041 57.4623 57.9719 56.9878L57.3415 56.8822L57.3907 57.5194C57.6301 60.6167 57.4211 63.4093 56.4039 65.6854C55.3974 67.9375 53.5795 69.7296 50.493 70.8071C47.7745 71.7422 45.4103 71.6946 43.3513 70.8824C41.2837 70.0668 39.4718 68.4594 37.906 66.1846L37.6149 65.7617L37.1999 66.0638C33.9673 68.4169 31.1638 69.9906 28.7555 70.8038C26.3495 71.6162 24.3791 71.6565 22.7714 71.0051C21.1665 70.3549 19.8353 68.9797 18.7791 66.7794C17.7206 64.5744 16.9564 61.5757 16.4755 57.7514L16.4193 57.3046L15.9692 57.3139C12.3133 57.3888 9.64109 56.9436 7.64111 55.913C5.66104 54.8928 4.28746 53.2713 3.2788 50.8756C2.35089 48.5684 2.24477 46.4491 3.00026 44.3145C3.76315 42.159 5.42123 39.9406 8.11574 37.4856L8.52661 37.1113L8.11101 36.7422C5.96877 34.8397 4.18805 32.8115 3.24733 30.5646C2.31647 28.3413 2.19474 25.8735 3.4257 23.034C4.64505 20.2769 6.47158 18.646 8.67782 17.7313C10.9037 16.8083 13.5478 16.6017 16.4046 16.7662L17.0076 16.8009L16.9291 16.2021C16.5281 13.1429 16.7734 10.4027 17.8055 8.19107C18.8304 5.99489 20.651 4.2755 23.4986 3.27304L23.4986 3.2731L23.5064 3.27019C26.2231 2.26238 28.582 2.27483 30.6957 3.12532C32.8231 3.98129 34.7593 5.70914 36.5735 8.2371L36.9483 8.75944L37.3623 8.2675C39.4222 5.8195 41.5643 4.04486 43.8794 3.183C46.1755 2.32822 48.6888 2.35355 51.5461 3.59236C54.1654 4.75052 55.719 6.49923 56.5738 8.64151C57.4367 10.8042 57.5999 13.4009 57.3607 16.2556L57.3116 16.8422L57.8985 16.7957C60.9183 16.5565 63.6727 16.7653 65.9297 17.782C68.1638 18.7884 69.9565 20.6069 71.0341 23.6942Z" fill="#675C98" stroke="#D5D1ED"/>
<path d="M71.5062 23.5294C69.2669 17.1143 63.9715 15.8131 57.859 16.2973C58.3432 10.5177 57.2235 5.55505 51.7465 3.13427C45.8156 0.562183 41.1556 2.98297 36.9797 7.94558C33.288 2.80141 28.9609 0.713482 23.3325 2.80141C17.4016 4.88934 15.6163 10.0335 16.4333 16.267C10.6537 15.9342 5.50951 17.084 2.96768 22.8334C0.395597 28.7643 3.45184 33.2731 7.77899 37.1161C2.33223 42.0787 0.879754 46.2545 2.81638 51.0658C4.90431 56.0284 8.59601 57.9651 15.9794 57.8138C17.916 73.216 24.4824 75.9394 37.4941 66.4681C40.7017 71.1281 45.0288 73.216 50.6572 71.2794C57.0722 69.0402 58.3734 63.7447 57.8893 57.4809C63.6689 58.4492 68.4802 56.9968 71.0523 51.7013C74.1085 45.5888 71.0523 40.959 66.3923 36.6319C71.3549 33.3033 73.4428 28.9762 71.5062 23.5294Z" fill="#675C98" stroke="#D5D1ED" stroke-width="4" stroke-miterlimit="10"/>
<g clip-path="url(#clip0_5244_39251)">
<path d="M43.1624 36.6838C43.1624 33.6558 40.6185 31.1784 37.6035 31.1784C34.4943 31.1784 31.9504 33.6558 31.9504 36.6838C31.9504 39.7117 34.4943 42.1891 37.6035 42.1891C40.5243 42.1891 43.0682 39.7117 43.1624 36.6838ZM37.5093 44.9418C33.5521 44.9418 30.066 43.4737 27.051 40.9045C25.732 39.7117 24.5071 38.4271 23.5649 36.959C23.4707 36.8673 23.4707 36.592 23.4707 36.5003C25.5435 33.4723 28.1816 30.9949 31.6677 29.6186C37.2266 27.4165 42.3144 28.334 47.0254 31.729C48.8155 33.0135 50.2288 34.6651 51.4537 36.5003C51.5479 36.592 51.5479 36.7755 51.4537 36.8673C49.0982 40.354 45.989 43.0149 41.7491 44.2995C40.3359 44.7582 38.9226 44.9418 37.5093 44.9418Z" fill="#D5D1ED"/>
</g>
<defs>
<clipPath id="clip0_5244_39251">
<rect width="28.0772" height="16.516" fill="white" transform="translate(23.4707 28.4258)"/>
</clipPath>
</defs>
</svg>
