<svg width="75" height="74" viewBox="0 0 75 74" fill="none" xmlns="http://www.w3.org/2000/svg">
<path d="M71.3153 23.6942L71.3163 23.6969C72.2492 26.3207 72.2022 28.6351 71.3556 30.684C70.5046 32.7435 68.8237 34.5877 66.395 36.2166L65.8704 36.5685L66.3333 36.9983C68.6474 39.1471 70.5089 41.3239 71.4316 43.6795C72.3427 46.0056 72.3533 48.5438 70.8863 51.4777L70.8838 51.4828C69.6476 54.0279 67.891 55.6221 65.7682 56.4762C63.6333 57.3352 61.0853 57.4623 58.2531 56.9878L57.6227 56.8822L57.672 57.5194C57.9114 60.6167 57.7024 63.4093 56.6852 65.6854C55.6787 67.9375 53.8608 69.7296 50.7742 70.8071C48.0558 71.7422 45.6916 71.6946 43.6326 70.8824C41.565 70.0668 39.7531 68.4594 38.1872 66.1846L37.8962 65.7617L37.4811 66.0638C34.2485 68.4169 31.445 69.9906 29.0368 70.8038C26.6308 71.6162 24.6603 71.6565 23.0526 71.0051C21.4478 70.3549 20.1166 68.9797 19.0603 66.7794C18.0019 64.5744 17.2376 61.5757 16.7567 57.7514L16.7006 57.3046L16.2504 57.3139C12.5946 57.3888 9.92234 56.9436 7.92236 55.913C5.94229 54.8928 4.56871 53.2713 3.56005 50.8756C2.63214 48.5684 2.52602 46.4491 3.28151 44.3145C4.0444 42.159 5.70248 39.9406 8.39699 37.4856L8.80786 37.1113L8.39226 36.7422C6.25002 34.8397 4.4693 32.8115 3.52858 30.5646C2.59772 28.3413 2.47599 25.8735 3.70695 23.034C4.9263 20.2769 6.75283 18.646 8.95907 17.7313C11.185 16.8083 13.829 16.6017 16.6858 16.7662L17.2888 16.8009L17.2103 16.2021C16.8094 13.1429 17.0547 10.4027 18.0868 8.19107C19.1117 5.99489 20.9322 4.2755 23.7798 3.27304L23.7798 3.2731L23.7877 3.27019C26.5044 2.26238 28.8632 2.27483 30.977 3.12532C33.1044 3.98129 35.0406 5.70914 36.8547 8.2371L37.2296 8.75944L37.6435 8.2675C39.7034 5.8195 41.8455 4.04486 44.1607 3.183C46.4567 2.32822 48.97 2.35355 51.8274 3.59236C54.4466 4.75052 56.0003 6.49923 56.855 8.64151C57.7179 10.8042 57.8811 13.4009 57.642 16.2556L57.5928 16.8422L58.1797 16.7957C61.1995 16.5565 63.9539 16.7653 66.2109 17.782C68.4451 18.7884 70.2377 20.6069 71.3153 23.6942Z" fill="#675C98" stroke="#D5D1ED"/>
<path d="M71.7874 23.5294C69.5482 17.1143 64.2527 15.8131 58.1402 16.2973C58.6244 10.5177 57.5048 5.55505 52.0278 3.13427C46.0968 0.562183 41.4368 2.98297 37.261 7.94558C33.5693 2.80141 29.2421 0.713482 23.6138 2.80141C17.6829 4.88934 15.8975 10.0335 16.7146 16.267C10.9349 15.9342 5.79076 17.084 3.24893 22.8334C0.676847 28.7643 3.73309 33.2731 8.06024 37.1161C2.61348 42.0787 1.161 46.2545 3.09763 51.0658C5.18556 56.0284 8.87726 57.9651 16.2607 57.8138C18.1973 73.216 24.7637 75.9394 37.7754 66.4681C40.9829 71.1281 45.3101 73.216 50.9384 71.2794C57.3535 69.0402 58.6547 63.7447 58.1705 57.4809C63.9501 58.4492 68.7614 56.9968 71.3335 51.7013C74.3898 45.5888 71.3335 40.959 66.6735 36.6319C71.6361 33.3033 73.7241 28.9762 71.7874 23.5294Z" fill="#675C98" stroke="#D5D1ED" stroke-width="4" stroke-miterlimit="10"/>
<path d="M45.5452 27.5118L45.5471 27.514C46.2013 28.2798 46.4691 29.0465 46.4488 29.8134C46.4282 30.5918 46.109 31.4281 45.4822 32.3162L45.118 32.8322L45.7039 33.0683C46.8192 33.5177 47.7356 34.0234 48.3439 34.6914C48.931 35.336 49.2576 36.1603 49.1419 37.3334L49.1419 37.3334L49.1414 37.3392C49.0531 38.3545 48.6715 39.0965 48.0859 39.6398C47.4908 40.1919 46.6506 40.5697 45.6021 40.7816L44.9756 40.9082L45.2493 41.4858C45.7523 42.5473 46.0372 43.5255 45.9886 44.4095C45.9414 45.2672 45.578 46.0848 44.6766 46.846C43.8753 47.5162 43.088 47.7913 42.3199 47.7834C41.5427 47.7753 40.7287 47.4766 39.8866 46.8972L39.4636 46.6063L39.1839 47.0368C38.3536 48.3146 37.5817 49.2377 36.8612 49.8335C36.1426 50.4278 35.509 50.6698 34.939 50.6586C34.372 50.6475 33.7737 50.3841 33.1273 49.7723C32.4772 49.157 31.8083 48.216 31.1169 46.9212L30.9048 46.524L30.4876 46.6935C29.2037 47.215 28.2372 47.4019 27.4497 47.3146C26.6844 47.2298 26.0311 46.8793 25.3779 46.1979C24.7718 45.5437 24.4786 44.8661 24.4588 44.08C24.4384 43.2718 24.7058 42.2987 25.3262 41.0667L25.5762 40.5702L25.0561 40.374C24.0405 39.9907 23.1716 39.5263 22.5712 38.897C21.9884 38.2861 21.636 37.4971 21.6841 36.3912C21.7395 35.3109 22.1381 34.548 22.7477 33.9704C23.3726 33.3783 24.2446 32.9579 25.2752 32.6303L25.8508 32.4473L25.5635 31.916C25.0154 30.9025 24.7515 29.9425 24.8129 29.0827C24.873 28.24 25.2483 27.446 26.0759 26.7435L26.0759 26.7436L26.0822 26.7381C26.8725 26.0441 27.6505 25.7598 28.4394 25.7734C29.243 25.7872 30.12 26.1112 31.0923 26.7523L31.629 27.1062L31.8399 26.4988C32.2351 25.3604 32.7385 24.4832 33.3967 23.9039C34.0396 23.338 34.8669 23.0238 35.9922 23.0727C37.0136 23.125 37.7367 23.5054 38.2834 24.0981C38.845 24.707 39.2438 25.5664 39.5445 26.605L39.7082 27.1705L40.2397 26.9174C41.2725 26.4256 42.2366 26.1458 43.1135 26.1966C43.9653 26.2459 44.7836 26.6097 45.5452 27.5118Z" fill="#8858B5" stroke="#D5D1ED"/>
<path d="M45.9273 27.1893C44.2395 25.1904 42.1563 25.451 40.0248 26.4659C39.4038 24.3209 38.3185 22.6904 36.0159 22.5733C33.5293 22.4642 32.1865 23.9758 31.3675 26.3349C29.3323 24.9928 27.489 24.8373 25.7523 26.3624C23.9067 27.9291 23.9723 30.0246 25.1237 32.1538C22.9995 32.8292 21.3078 33.9503 21.1846 36.3675C21.0756 38.8541 22.7949 40.0551 24.8796 40.8418C23.6036 43.3756 23.6557 45.0771 25.014 46.5409C26.4475 48.0382 28.0415 48.2268 30.6758 47.1567C33.4911 52.4291 36.227 52.5051 39.6032 47.3092C41.3977 48.5437 43.241 48.6993 44.9986 47.2286C46.9974 45.5409 46.7369 43.4576 45.7011 41.2717C47.9127 40.8248 49.4431 39.6406 49.6395 37.3825C49.8977 34.764 48.1618 33.5195 45.8907 32.6045C47.2174 30.7248 47.373 28.8815 45.9273 27.1893Z" fill="#8858B5" stroke="#D5D1ED" stroke-width="4" stroke-miterlimit="10"/>
</svg>
