<svg width="55" height="45" viewBox="0 0 55 45" fill="none" xmlns="http://www.w3.org/2000/svg">
<g clip-path="url(#clip0_8048_40832)">
<mask id="mask0_8048_40832" style="mask-type:luminance" maskUnits="userSpaceOnUse" x="-250" y="0" width="446" height="45">
<path d="M195.7 0.214844H-250V44.6148H195.7V0.214844Z" fill="white"/>
</mask>
<g mask="url(#mask0_8048_40832)">
<path d="M25.9006 5.11386C25.1006 5.31386 24.5006 5.41386 23.8006 5.61386C21.2006 6.01386 18.7006 6.71386 16.5006 8.11386C14.3006 9.51386 12.3006 11.1139 10.5006 12.9139C8.00062 15.4139 5.70061 18.1139 3.40061 20.7139C2.80061 21.4139 2.30062 21.4139 1.80062 20.6139C1.30062 19.9139 0.700613 19.2139 0.200613 18.5139C-0.399387 17.6139 -0.29939 17.3139 0.40061 16.5139C1.90061 14.9139 3.30062 13.1139 4.80062 11.5139C7.60062 8.51386 10.6006 5.71386 14.3006 3.71386C16.7006 2.41386 19.1006 1.31386 21.8006 0.913858C23.2006 0.713858 24.6006 0.213858 26.0006 0.313858C27.9006 0.313858 29.8006 0.613858 31.7006 1.01386C34.9006 1.81386 37.8006 3.11386 40.6006 5.01386C44.8006 7.91386 48.1006 11.8139 51.4006 15.5139C53.1006 17.4139 53.3006 17.3139 51.4006 19.5139C51.0006 20.0139 50.6006 20.5139 50.2006 20.9139C49.9006 21.2139 49.5006 21.3139 49.2006 20.8139C47.0006 18.2139 44.9006 15.6139 42.6006 13.1139C39.7006 10.0139 36.3006 7.51386 32.2006 6.21386C29.9006 5.61386 27.8006 5.41386 25.9006 5.11386Z" fill="#FFF200"/>
</g>
<mask id="mask1_8048_40832" style="mask-type:luminance" maskUnits="userSpaceOnUse" x="-250" y="0" width="446" height="45">
<path d="M195.7 0.214844H-250V44.6148H195.7V0.214844Z" fill="white"/>
</mask>
<g mask="url(#mask1_8048_40832)">
<path d="M81.6006 44.5136C77.6006 44.9136 74.0006 44.0136 70.7006 42.3136C68.1006 41.0136 65.7006 39.4136 63.5006 37.5136C60.5006 34.8136 57.8006 31.7136 55.2006 28.6136C54.5006 27.8136 54.5006 27.0136 55.3006 26.2136C55.8006 25.7136 56.3006 25.1136 56.7006 24.5136C57.3006 23.7136 57.6006 23.7136 58.3006 24.4136C60.0006 26.4136 61.6006 28.4136 63.4006 30.3136C65.6006 32.7136 68.0006 34.9136 70.8006 36.6136C72.3006 37.6136 74.1006 38.2136 75.8006 38.8136C77.0006 39.2136 78.4006 39.5136 79.7006 39.7136C83.0006 40.1136 86.1006 39.4136 89.2006 38.2136C92.3006 37.0136 94.6006 34.8136 97.1006 32.7136C100.001 30.3136 102.101 27.3136 104.401 24.4136C105.001 23.7136 105.301 23.6136 105.901 24.3136C106.601 25.1136 107.301 26.0136 107.901 26.9136C108.101 27.2136 108.101 27.9136 107.901 28.2136C105.801 30.7136 103.601 33.2136 101.401 35.5136C99.0006 37.9136 96.4006 40.1136 93.4006 41.7136C89.4006 43.5136 85.6006 45.0136 81.6006 44.5136Z" fill="#FFF200"/>
</g>
<mask id="mask2_8048_40832" style="mask-type:luminance" maskUnits="userSpaceOnUse" x="-250" y="0" width="446" height="45">
<path d="M195.7 0.214844H-250V44.6148H195.7V0.214844Z" fill="white"/>
</mask>
<g mask="url(#mask2_8048_40832)">
<path d="M26.9008 22.6133V37.2133C26.9008 38.1133 26.5008 38.6133 25.8008 38.6133C25.1008 38.6133 24.8008 38.1133 24.8008 37.2133C24.9008 27.8133 24.9008 18.4133 24.9008 9.01328C24.9008 8.61328 24.8008 8.11328 24.8008 7.71328C24.8008 7.01328 25.1008 6.61328 25.8008 6.61328C26.5008 6.61328 26.9008 7.01328 27.0008 7.71328C27.0008 8.21328 26.9008 8.71328 26.9008 9.21328C26.8008 13.6133 26.8008 18.1133 26.9008 22.6133Z" fill="#FFF200"/>
</g>
<mask id="mask3_8048_40832" style="mask-type:luminance" maskUnits="userSpaceOnUse" x="-250" y="0" width="446" height="45">
<path d="M195.7 0.214844H-250V44.6148H195.7V0.214844Z" fill="white"/>
</mask>
<g mask="url(#mask3_8048_40832)">
<path d="M35.8993 20.8132V30.6132C35.8993 31.8132 35.9993 33.0132 35.9993 34.2132C35.9993 35.1132 35.3993 36.1132 34.4993 36.2132C33.8993 36.3132 33.4993 36.1132 33.5993 35.4132C33.6993 28.0132 33.7993 20.5132 33.7993 13.0132C33.7993 11.8132 33.5993 10.7132 33.5993 9.51319C33.5993 9.21319 33.6993 8.81319 33.8993 8.61319C33.9993 8.51319 34.4993 8.71319 34.7993 8.81319C35.8993 9.21319 36.0993 10.0132 36.0993 11.1132V20.8132C35.9993 20.8132 35.8993 20.8132 35.8993 20.8132Z" fill="#FFF200"/>
</g>
<mask id="mask4_8048_40832" style="mask-type:luminance" maskUnits="userSpaceOnUse" x="-250" y="0" width="446" height="45">
<path d="M195.7 0.214844H-250V44.6148H195.7V0.214844Z" fill="white"/>
</mask>
<g mask="url(#mask4_8048_40832)">
<path d="M17.9993 23.3135V34.6135C17.9993 35.1135 18.2993 35.8135 17.4993 36.0135C16.8993 36.1135 15.8993 35.4135 15.7993 34.7135C15.6993 34.0135 15.6993 33.2135 15.6993 32.5135C15.6993 29.4135 15.8993 26.4135 15.8993 23.3135C15.8993 19.7135 15.8993 16.1135 15.7993 12.4135C15.7993 11.5135 15.3993 10.6135 16.0993 9.81352C16.2993 9.61352 16.4993 9.31352 16.6993 9.21352C17.4993 8.71352 17.9993 9.01352 17.9993 9.91352C17.9993 11.0135 17.8993 12.1135 17.8993 13.2135C17.8993 16.5135 17.8993 19.9135 17.9993 23.3135Z" fill="#FFF200"/>
</g>
<mask id="mask5_8048_40832" style="mask-type:luminance" maskUnits="userSpaceOnUse" x="-250" y="0" width="446" height="45">
<path d="M195.7 0.214844H-250V44.6148H195.7V0.214844Z" fill="white"/>
</mask>
<g mask="url(#mask5_8048_40832)">
<path d="M45.0996 22.5156V25.9156C45.0996 26.9156 44.5996 27.7156 43.8996 28.3156C43.6996 28.5156 43.1996 28.6156 42.9996 28.5156C42.7996 28.5156 42.6996 28.0156 42.6996 27.7156C42.7996 24.6156 42.8996 21.6156 42.8996 18.5156C42.8996 17.9156 42.6996 17.3156 42.5996 16.8156C42.5996 16.6156 42.5996 16.2156 42.7996 16.1156C42.9996 16.0156 43.2996 16.1156 43.4996 16.2156C44.3996 16.9156 44.9996 17.7156 44.9996 18.9156C45.0996 20.2156 45.0996 21.3156 45.0996 22.5156Z" fill="#FFF200"/>
</g>
<mask id="mask6_8048_40832" style="mask-type:luminance" maskUnits="userSpaceOnUse" x="-250" y="0" width="446" height="45">
<path d="M195.7 0.214844H-250V44.6148H195.7V0.214844Z" fill="white"/>
</mask>
<g mask="url(#mask6_8048_40832)">
<path d="M9 21.4166V27.6166C9 27.8166 8.90001 28.2166 8.70001 28.3166C8.50001 28.4166 8.09999 28.3166 7.89999 28.2166C6.99999 27.5166 6.5 26.6166 6.5 25.5166C6.5 23.5166 6.60001 21.5166 6.60001 19.5166C6.60001 18.4166 7.19999 17.7166 7.89999 17.0166C7.99999 16.8166 8.4 16.7166 8.5 16.8166C8.7 16.9166 8.89999 17.2166 8.89999 17.4166C8.99999 17.9166 8.89999 18.5166 8.89999 19.0166V21.6166C8.89999 21.4166 9 21.4166 9 21.4166Z" fill="#FFF200"/>
</g>
<mask id="mask7_8048_40832" style="mask-type:luminance" maskUnits="userSpaceOnUse" x="-250" y="0" width="446" height="45">
<path d="M195.7 0.214844H-250V44.6148H195.7V0.214844Z" fill="white"/>
</mask>
<g mask="url(#mask7_8048_40832)">
<path d="M195.7 5.91501C195 5.91501 194.2 5.61501 193.5 5.41501C192.2 5.11501 190.9 5.11501 189.6 5.41501C188.4 5.71501 187.1 5.71501 186 6.11501C184.4 6.71501 182.8 7.31501 181.4 8.21501C176.9 11.015 173.2 14.715 170 18.915C168.1 21.415 166.1 23.715 164.1 26.115C161.3 29.415 158.6 32.715 155.7 35.815C152.4 39.315 148.4 42.015 143.8 43.515C141.6 44.215 139.3 44.515 137 44.515C133.1 44.615 129.4 43.915 125.9 42.115C121.2 39.715 117.4 36.415 114 32.515C110.4 28.315 107.1 24.015 103.6 19.815C100.4 15.915 97 12.215 92.9 9.21501C90.7 7.61501 88.3 6.31501 85.5 5.91501C85 5.81501 84.5 5.71501 84 5.51501C82.1 5.01501 80.2 4.91501 78.4 5.71501C78.3 5.81501 78.1 5.81501 78 5.81501C74.3 6.11501 71.2 7.91501 68.4 10.115C66.6 11.615 64.8 13.115 63.2 14.715C61.6 16.315 60.3 18.215 58.8 19.915C56.6 22.615 54.5 25.315 52.3 27.915C50.6 30.015 49 32.115 47.1 34.115C44.3 37.115 41.2 39.715 37.6 41.715C35.5 42.815 33.3 43.615 31.1 44.215C30.3 44.415 29.5 44.415 28.6 44.415C26.5 44.415 24.4 44.515 22.3 44.315C20.8 44.115 19.2 43.615 17.7 43.115C14.5 42.015 11.7 40.015 9.10001 37.915C7.39999 36.515 5.79999 35.015 4.39999 33.315C-0.100006 28.015 -4.39999 22.515 -8.89999 17.215C-11.1 14.715 -13.5 12.315 -16.1 10.115C-18.1 8.31501 -20.5 7.01501 -23 6.11501C-23.4 5.91501 -23.9 5.91501 -24.3 5.81501C-25.9 5.51501 -27.5 5.21501 -29.2 5.01501C-29.5 5.01501 -29.8 4.91501 -30 5.01501C-32.6 5.81501 -35.4 5.91501 -37.9 7.21501C-41.8 9.31501 -45 12.115 -47.9 15.415C-50.9 18.915 -53.7 22.515 -56.6 26.015C-59.6 29.715 -62.6 33.415 -66.1 36.715C-69.1 39.615 -72.5 41.915 -76.5 43.315C-78.7 44.115 -81 44.515 -83.3 44.415C-84.9 44.315 -86.6 44.515 -88.2 44.215C-91 43.815 -93.6 42.815 -96.1 41.415C-100.6 38.815 -104.3 35.315 -107.6 31.315C-112 26.115 -116.3 20.715 -120.7 15.515C-123.6 12.115 -126.9 9.21501 -130.9 7.11501C-132.3 6.41501 -133.8 5.71501 -135.5 5.71501C-135.9 5.71501 -136.4 5.61501 -136.8 5.41501C-138.5 4.71501 -140.2 4.81501 -141.9 5.31501C-142.3 5.41501 -142.8 5.61501 -143.2 5.61501C-145.7 5.51501 -147.7 6.71501 -149.7 7.91501C-151.8 9.21501 -153.9 10.815 -155.6 12.615C-158.4 15.515 -161 18.615 -163.6 21.715C-165.6 24.015 -167.3 26.615 -169.3 28.915C-171.7 31.715 -174.1 34.615 -176.9 37.115C-178.9 38.915 -181.4 40.215 -183.7 41.715C-185.6 43.015 -187.8 43.515 -189.9 44.115C-191.1 44.415 -192.4 44.415 -193.7 44.415C-195.6 44.415 -197.4 44.415 -199.3 44.215C-200.4 44.115 -201.4 43.715 -202.4 43.415C-205.5 42.215 -208.4 40.515 -211 38.415C-214.6 35.515 -217.7 32.115 -220.6 28.415C-223.3 24.915 -226.2 21.515 -229 18.115C-230.4 16.415 -231.7 14.715 -233.3 13.315C-236.1 10.615 -239.1 8.11501 -242.8 6.61501C-244.5 5.91501 -246.7 5.51501 -248.8 5.31501C-249.6 5.31501 -250 4.91501 -250 4.11501C-250 3.11501 -250 2.11501 -249.9 1.11501C-249.9 0.415012 -249.4 0.115012 -248.5 0.215012C-247 0.515012 -245.5 0.715012 -244.1 1.01501C-240.1 1.91501 -236.7 3.81501 -233.5 6.31501C-230.4 8.71501 -227.7 11.515 -225.2 14.615C-221.9 18.615 -218.6 22.515 -215.4 26.615C-212.8 29.915 -209.8 32.715 -206.6 35.315C-203.3 38.015 -199.5 39.515 -195.3 39.815C-192.4 40.015 -189.6 39.415 -187 38.215C-181.5 35.715 -177.5 31.615 -173.8 27.015C-171.2 23.815 -168.7 20.515 -166 17.415C-163.8 14.815 -161.6 12.115 -159.2 9.61501C-157 7.41501 -154.6 5.31501 -151.7 3.91501C-150.1 3.11501 -148.5 2.21501 -146.8 1.71501C-143.2 0.615012 -139.6 -0.0849883 -135.7 0.615012C-131 1.51501 -126.8 3.51501 -123 6.31501C-119.7 8.91501 -116.7 11.915 -114.2 15.315C-112.8 17.215 -111.2 19.115 -109.7 20.915C-107.6 23.515 -105.5 26.115 -103.4 28.615C-101.1 31.315 -98.6 33.815 -95.6 35.815C-93.3 37.415 -90.9 38.515 -88.2 39.215C-84.9 40.015 -81.6 39.915 -78.4 38.815C-74.6 37.615 -71.6 35.315 -68.7 32.615C-65.4 29.615 -62.8 26.015 -60 22.615C-56.9 18.915 -53.9 15.015 -50.7 11.415C-49.2 9.71501 -47.6 8.11501 -45.8 6.71501C-43.3 4.71501 -40.6 3.21501 -37.6 2.01501C-35 0.915012 -32.2 0.415012 -29.4 0.215012C-28.4 0.115012 -27.3 0.215012 -26.2 0.415012C-20.3 1.31501 -15.2 3.81501 -10.9 7.91501C-8.39999 10.315 -6 12.815 -3.7 15.415C-1.39999 18.015 0.599991 20.715 2.7 23.415C6.10001 27.815 9.70001 32.015 14.2 35.415C18.6 38.715 23.4 40.315 28.9 39.615C31.9 39.215 34.8 38.215 37.2 36.315C39.7 34.315 42.3 32.215 44.6 29.815C46.8 27.515 48.7 24.815 50.8 22.315C52.6 20.115 54.3 17.915 56.1 15.815C58.2 13.415 60.2 11.015 62.5 8.81501C65.3 6.11501 68.4 3.81501 72 2.31501C76 0.715012 80.2 -0.284988 84.5 0.515012C86.3 0.815012 88.1 1.41501 89.9 2.01501C94.3 3.41501 97.8 6.21501 101.1 9.31501C104.7 12.815 107.7 16.715 110.8 20.515C114.2 24.815 117.4 29.215 121.6 32.915C124.1 35.115 126.8 37.315 130 38.415C132.5 39.315 135 39.915 137.7 39.815C142 39.515 145.8 37.915 149 35.215C151.1 33.415 153.2 31.715 155.1 29.715C156.9 27.815 158.5 25.615 160.2 23.515C163.2 19.815 166.4 16.115 169.3 12.415C171.1 10.115 173.3 8.21501 175.6 6.41501C177.6 4.81501 179.9 3.41501 182.2 2.41501C185.1 1.11501 188.2 0.315012 191.4 0.215012" fill="#FFF200"/>
</g>
</g>
<defs>
<clipPath id="clip0_8048_40832">
<rect width="55" height="44" fill="white" transform="translate(0 0.175781)"/>
</clipPath>
</defs>
</svg>
