<svg width="442" height="45" viewBox="0 0 442 45" fill="none" xmlns="http://www.w3.org/2000/svg">
<g clip-path="url(#clip0_7758_462763)">
<g opacity="0.3" clip-path="url(#clip1_7758_462763)">
<mask id="mask0_7758_462763" style="mask-type:luminance" maskUnits="userSpaceOnUse" x="0" y="0" width="446" height="45">
<path d="M445.7 0.214844H0V44.6148H445.7V0.214844Z" fill="white"/>
</mask>
<g mask="url(#mask0_7758_462763)">
<path d="M56.0992 0.214844C58.3992 0.514844 60.9993 0.914844 63.5993 1.81484C70.4993 4.31484 75.3993 9.41484 79.9993 14.8148C80.4993 15.4148 80.9993 16.0148 81.4993 16.5148C81.9993 17.0148 81.9993 17.6148 81.5993 18.2148C80.9993 19.0148 80.2993 19.9148 79.5993 20.7148C79.1992 21.2148 78.5993 21.2148 78.1992 20.6148C75.6992 17.3148 72.9993 14.3148 69.9993 11.5148C68.5993 10.2148 67.0993 8.91484 65.3993 7.91484C63.6993 6.91484 61.7992 6.31484 59.7992 5.81484C56.8993 5.11484 54.1992 5.21484 51.2992 5.81484C49.0992 6.31484 47.1993 7.11484 45.3993 8.21484C40.2993 11.4148 36.1993 15.8148 32.6993 20.7148C32.2993 21.2148 31.9993 21.3148 31.5993 20.9148C30.6993 19.9148 29.8993 19.0148 29.0993 17.9148C28.8993 17.7148 28.9993 17.0148 29.1993 16.8148C32.4993 13.1148 35.5993 9.31484 39.4993 6.31484C41.4993 4.81484 43.5992 3.41484 45.7992 2.41484C48.9993 1.11484 52.2992 0.314844 56.0992 0.214844Z" fill="#D5D1ED"/>
</g>
<mask id="mask1_7758_462763" style="mask-type:luminance" maskUnits="userSpaceOnUse" x="0" y="0" width="446" height="45">
<path d="M445.7 0.214844H0V44.6148H445.7V0.214844Z" fill="white"/>
</mask>
<g mask="url(#mask1_7758_462763)">
<path d="M2.5 44.5156H0.9C0.3 44.5156 0 44.1156 0 43.4156C0.1 42.5156 0.1 41.7156 0 40.8156C0 39.9156 0.2 39.6156 1.1 39.7156C3.2 39.9156 5.1 39.2156 7 38.5156C10.7 37.1156 13.8 34.8156 16.5 31.9156C18.9 29.4156 21.2 26.7156 23.5 24.2156C24 23.6156 24.4 23.6156 24.9 24.3156C25.4 25.0156 25.9 25.7156 26.5 26.3156C27.1 27.0156 27.1 27.6156 26.6 28.4156C23.6 32.0156 20.6 35.6156 16.9 38.5156C12.6 41.9156 8 44.3156 2.5 44.5156Z" fill="#D5D1ED"/>
</g>
<mask id="mask2_7758_462763" style="mask-type:luminance" maskUnits="userSpaceOnUse" x="0" y="0" width="446" height="45">
<path d="M445.7 0.214844H0V44.6148H445.7V0.214844Z" fill="white"/>
</mask>
<g mask="url(#mask2_7758_462763)">
<path d="M56.5996 22.6156V37.2156C56.5996 38.1156 56.2996 38.5156 55.3996 38.5156C54.4996 38.5156 54.0996 38.1156 54.0996 37.2156C54.0996 28.0156 54.1996 18.9156 54.1996 9.71562V7.91562C54.1996 7.01562 54.5996 6.51562 55.3996 6.51562C56.1996 6.51562 56.5996 7.01562 56.5996 7.91562V22.6156Z" fill="#D5D1ED"/>
</g>
<mask id="mask3_7758_462763" style="mask-type:luminance" maskUnits="userSpaceOnUse" x="0" y="0" width="446" height="45">
<path d="M445.7 0.214844H0V44.6148H445.7V0.214844Z" fill="white"/>
</mask>
<g mask="url(#mask3_7758_462763)">
<path d="M45.3003 34.1166V10.9166C45.3003 9.81661 45.8003 9.21661 46.6003 9.11661C47.2003 9.01661 47.6003 9.31661 47.6003 9.91661C47.6003 17.1166 47.5003 24.4166 47.5003 31.6166C47.5003 32.7166 47.6003 33.9166 47.7003 35.0166C47.7003 35.3166 47.6003 35.8166 47.4003 35.9166C47.2003 36.0166 46.7003 35.9166 46.4003 35.7166C45.6003 35.5166 45.2003 34.9166 45.3003 34.1166Z" fill="#D5D1ED"/>
</g>
<mask id="mask4_7758_462763" style="mask-type:luminance" maskUnits="userSpaceOnUse" x="0" y="0" width="446" height="45">
<path d="M445.7 0.214844H0V44.6148H445.7V0.214844Z" fill="white"/>
</mask>
<g mask="url(#mask4_7758_462763)">
<path d="M65.4995 22.7151V34.5151C65.4995 35.4151 64.8995 36.1151 63.9995 36.1151C63.3995 36.1151 63.2995 35.7151 63.2995 35.3151C63.3995 31.0151 63.3995 26.8151 63.3995 22.5151V11.4151C63.3995 11.0151 63.1995 10.5151 63.2995 10.1151C63.3995 9.61514 63.4995 9.11514 63.7995 8.81514C64.0995 8.51514 65.0995 9.31514 65.1995 9.91514C65.2995 10.5151 65.2995 11.1151 65.2995 11.7151C65.4995 15.3151 65.4995 19.0151 65.4995 22.7151Z" fill="#D5D1ED"/>
</g>
<mask id="mask5_7758_462763" style="mask-type:luminance" maskUnits="userSpaceOnUse" x="0" y="0" width="446" height="45">
<path d="M445.7 0.214844H0V44.6148H445.7V0.214844Z" fill="white"/>
</mask>
<g mask="url(#mask5_7758_462763)">
<path d="M10.6 22.7149V34.4149C10.6 35.2149 10.3 35.7149 9.6 36.1149C8.9 36.4149 8.5 36.2149 8.5 35.4149C8.6 30.7149 8.6 26.0149 8.7 21.3149V11.8149C8.7 11.2149 8.5 10.5149 8.5 9.9149C8.5 9.6149 8.6 9.1149 8.8 9.0149C9 8.9149 9.5 8.9149 9.7 9.1149C10.4 9.5149 10.7 10.2149 10.7 10.9149C10.6 14.8149 10.6 18.7149 10.6 22.7149Z" fill="#D5D1ED"/>
</g>
<mask id="mask6_7758_462763" style="mask-type:luminance" maskUnits="userSpaceOnUse" x="0" y="0" width="446" height="45">
<path d="M445.7 0.214844H0V44.6148H445.7V0.214844Z" fill="white"/>
</mask>
<g mask="url(#mask6_7758_462763)">
<path d="M17.1992 27.8156C17.5992 24.1156 17.5992 20.5156 17.3992 16.8156C17.3992 16.6156 17.5992 16.3156 17.6992 16.0156C17.8992 16.1156 18.1992 16.2156 18.2992 16.4156C19.3992 17.5156 19.9992 18.7156 19.7992 20.3156C19.5992 21.8156 19.6992 23.4156 19.8992 24.9156C19.9992 26.3156 19.4992 27.3156 18.5992 28.2156C18.3992 28.4156 17.8992 28.7156 17.7992 28.6156C17.3992 28.5156 17.2992 28.1156 17.1992 27.8156Z" fill="#D5D1ED"/>
</g>
<mask id="mask7_7758_462763" style="mask-type:luminance" maskUnits="userSpaceOnUse" x="0" y="0" width="446" height="45">
<path d="M445.7 0.214844H0V44.6148H445.7V0.214844Z" fill="white"/>
</mask>
<g mask="url(#mask7_7758_462763)">
<path d="M72.3008 21.6141V16.8141C72.3008 16.5141 72.5008 16.2141 72.6008 15.9141C72.9008 16.1141 73.2008 16.2141 73.4008 16.4141C74.5008 17.5141 74.6008 19.0141 74.6008 20.4141V25.7141C74.6008 26.8141 74.2008 27.7141 73.5008 28.4141C73.3008 28.6141 72.9008 28.7141 72.6008 28.8141C72.5008 28.5141 72.3008 28.2141 72.3008 27.8141C72.4008 25.7141 72.5008 23.6141 72.5008 21.5141C72.4008 21.6141 72.3008 21.6141 72.3008 21.6141Z" fill="#D5D1ED"/>
</g>
<mask id="mask8_7758_462763" style="mask-type:luminance" maskUnits="userSpaceOnUse" x="0" y="0" width="446" height="45">
<path d="M445.7 0.214844H0V44.6148H445.7V0.214844Z" fill="white"/>
</mask>
<g mask="url(#mask8_7758_462763)">
<path d="M36.3008 23.0164V19.4164C36.3008 18.2164 37.0008 17.4164 37.6008 16.5164C37.7008 16.4164 38.1008 16.3164 38.1008 16.4164C38.3008 16.6164 38.4008 16.8164 38.4008 17.1164V20.1164C38.4008 22.7164 38.5008 25.4164 38.5008 28.0164C38.5008 28.3164 38.3008 28.5164 38.2008 28.8164C37.9008 28.7164 37.6008 28.7164 37.5008 28.5164C37.1008 27.7164 36.6008 26.9164 36.4008 26.0164C36.2008 24.9164 36.4008 23.9164 36.3008 23.0164Z" fill="#D5D1ED"/>
</g>
<mask id="mask9_7758_462763" style="mask-type:luminance" maskUnits="userSpaceOnUse" x="0" y="0" width="446" height="45">
<path d="M445.7 0.214844H0V44.6148H445.7V0.214844Z" fill="white"/>
</mask>
<g mask="url(#mask9_7758_462763)">
<path d="M445.7 5.91501C445 5.91501 444.2 5.61501 443.5 5.41501C442.2 5.11501 440.9 5.11501 439.6 5.41501C438.4 5.71501 437.1 5.71501 436 6.11501C434.4 6.71501 432.8 7.31501 431.4 8.21501C426.9 11.015 423.2 14.715 420 18.915C418.1 21.415 416.1 23.715 414.1 26.115C411.3 29.415 408.6 32.715 405.7 35.815C402.4 39.315 398.4 42.015 393.8 43.515C391.6 44.215 389.3 44.515 387 44.515C383.1 44.615 379.4 43.915 375.9 42.115C371.2 39.715 367.4 36.415 364 32.515C360.4 28.315 357.1 24.015 353.6 19.815C350.4 15.915 347 12.215 342.9 9.21501C340.7 7.61501 338.3 6.31501 335.5 5.91501C335 5.81501 334.5 5.71501 334 5.51501C332.1 5.01501 330.2 4.91501 328.4 5.71501C328.3 5.81501 328.1 5.81501 328 5.81501C324.3 6.11501 321.2 7.91501 318.4 10.115C316.6 11.615 314.8 13.115 313.2 14.715C311.6 16.315 310.3 18.215 308.8 19.915C306.6 22.615 304.5 25.315 302.3 27.915C300.6 30.015 299 32.115 297.1 34.115C294.3 37.115 291.2 39.715 287.6 41.715C285.5 42.815 283.3 43.615 281.1 44.215C280.3 44.415 279.5 44.415 278.6 44.415C276.5 44.415 274.4 44.515 272.3 44.315C270.8 44.115 269.2 43.615 267.7 43.115C264.5 42.015 261.7 40.015 259.1 37.915C257.4 36.515 255.8 35.015 254.4 33.315C249.9 28.015 245.6 22.515 241.1 17.215C238.9 14.715 236.5 12.315 233.9 10.115C231.9 8.31501 229.5 7.01501 227 6.11501C226.6 5.91501 226.1 5.91501 225.7 5.81501C224.1 5.51501 222.5 5.21501 220.8 5.01501C220.5 5.01501 220.2 4.91501 220 5.01501C217.4 5.81501 214.6 5.91501 212.1 7.21501C208.2 9.31501 205 12.115 202.1 15.415C199.1 18.915 196.3 22.515 193.4 26.015C190.4 29.715 187.4 33.415 183.9 36.715C180.9 39.615 177.5 41.915 173.5 43.315C171.3 44.115 169 44.515 166.7 44.415C165.1 44.315 163.4 44.515 161.8 44.215C159 43.815 156.4 42.815 153.9 41.415C149.4 38.815 145.7 35.315 142.4 31.315C138 26.115 133.7 20.715 129.3 15.515C126.4 12.115 123.1 9.21501 119.1 7.11501C117.7 6.41501 116.2 5.71501 114.5 5.71501C114.1 5.71501 113.6 5.61501 113.2 5.41501C111.5 4.71501 109.8 4.81501 108.1 5.31501C107.7 5.41501 107.2 5.61501 106.8 5.61501C104.3 5.51501 102.3 6.71501 100.3 7.91501C98.2 9.21501 96.1 10.815 94.4 12.615C91.6 15.515 89 18.615 86.4 21.715C84.4 24.015 82.7 26.615 80.7 28.915C78.3 31.715 75.9 34.615 73.1 37.115C71.1 38.915 68.6 40.215 66.3 41.715C64.4 43.015 62.2 43.515 60.1 44.115C58.9 44.415 57.6 44.415 56.3 44.415C54.4 44.415 52.6 44.415 50.7 44.215C49.6 44.115 48.6 43.715 47.6 43.415C44.5 42.215 41.6 40.515 39 38.415C35.4 35.515 32.3 32.115 29.4 28.415C26.7 24.915 23.8 21.515 21 18.115C19.6 16.415 18.3 14.715 16.7 13.315C13.9 10.615 10.9 8.11501 7.2 6.61501C5.5 5.91501 3.3 5.51501 1.2 5.31501C0.4 5.31501 0 4.91501 0 4.11501C0 3.11501 0 2.11501 0.1 1.11501C0.1 0.415012 0.6 0.115012 1.5 0.215012C3 0.515012 4.5 0.715012 5.9 1.01501C9.9 1.91501 13.3 3.81501 16.5 6.31501C19.6 8.71501 22.3 11.515 24.8 14.615C28.1 18.615 31.4 22.515 34.6 26.615C37.2 29.915 40.2 32.715 43.4 35.315C46.7 38.015 50.5 39.515 54.7 39.815C57.6 40.015 60.4 39.415 63 38.215C68.5 35.715 72.5 31.615 76.2 27.015C78.8 23.815 81.3 20.515 84 17.415C86.2 14.815 88.4 12.115 90.8 9.61501C93 7.41501 95.4 5.31501 98.3 3.91501C99.9 3.11501 101.5 2.21501 103.2 1.71501C106.8 0.615012 110.4 -0.0849883 114.3 0.615012C119 1.51501 123.2 3.51501 127 6.31501C130.3 8.91501 133.3 11.915 135.8 15.315C137.2 17.215 138.8 19.115 140.3 20.915C142.4 23.515 144.5 26.115 146.6 28.615C148.9 31.315 151.4 33.815 154.4 35.815C156.7 37.415 159.1 38.515 161.8 39.215C165.1 40.015 168.4 39.915 171.6 38.815C175.4 37.615 178.4 35.315 181.3 32.615C184.6 29.615 187.2 26.015 190 22.615C193.1 18.915 196.1 15.015 199.3 11.415C200.8 9.71501 202.4 8.11501 204.2 6.71501C206.7 4.71501 209.4 3.21501 212.4 2.01501C215 0.915012 217.8 0.415012 220.6 0.215012C221.6 0.115012 222.7 0.215012 223.8 0.415012C229.7 1.31501 234.8 3.81501 239.1 7.91501C241.6 10.315 244 12.815 246.3 15.415C248.6 18.015 250.6 20.715 252.7 23.415C256.1 27.815 259.7 32.015 264.2 35.415C268.6 38.715 273.4 40.315 278.9 39.615C281.9 39.215 284.8 38.215 287.2 36.315C289.7 34.315 292.3 32.215 294.6 29.815C296.8 27.515 298.7 24.815 300.8 22.315C302.6 20.115 304.3 17.915 306.1 15.815C308.2 13.415 310.2 11.015 312.5 8.81501C315.3 6.11501 318.4 3.81501 322 2.31501C326 0.715012 330.2 -0.284988 334.5 0.515012C336.3 0.815012 338.1 1.41501 339.9 2.01501C344.3 3.41501 347.8 6.21501 351.1 9.31501C354.7 12.815 357.7 16.715 360.8 20.515C364.2 24.815 367.4 29.215 371.6 32.915C374.1 35.115 376.8 37.315 380 38.415C382.5 39.315 385 39.915 387.7 39.815C392 39.515 395.8 37.915 399 35.215C401.1 33.415 403.2 31.715 405.1 29.715C406.9 27.815 408.5 25.615 410.2 23.515C413.2 19.815 416.4 16.115 419.3 12.415C421.1 10.115 423.3 8.21501 425.6 6.41501C427.6 4.81501 429.9 3.41501 432.2 2.41501C435.1 1.11501 438.2 0.315012 441.4 0.215012" fill="#D5D1ED"/>
</g>
</g>
<g opacity="0.3" clip-path="url(#clip2_7758_462763)">
<mask id="mask10_7758_462763" style="mask-type:luminance" maskUnits="userSpaceOnUse" x="0" y="0" width="446" height="45">
<path d="M445.7 0.214844H0V44.6148H445.7V0.214844Z" fill="white"/>
</mask>
<g mask="url(#mask10_7758_462763)">
<path d="M111.199 44.5129C107.799 44.6129 104.899 44.1129 101.899 43.0129C98.3992 41.7129 95.5992 39.6129 92.7992 37.3129C90.1992 35.2129 88.0992 32.5129 85.8992 30.0129C85.3992 29.4129 84.7992 28.9129 84.3992 28.3129C83.7992 27.5129 83.7992 27.1129 84.4992 26.4129C85.0992 25.8129 85.5992 25.1129 86.1992 24.4129C86.8992 23.6129 87.1992 23.6129 87.7992 24.4129C90.9992 28.3129 94.0992 32.2129 98.2992 35.2129C101.599 37.6129 105.099 39.1129 109.099 39.6129C112.199 40.0129 115.199 39.3129 118.099 38.1129C121.999 36.5129 125.199 33.7129 127.999 30.7129C129.899 28.7129 131.599 26.5129 133.399 24.4129C134.299 23.4129 134.499 23.3129 135.299 24.4129C135.699 25.0129 136.199 25.5129 136.599 26.1129C137.499 27.2129 137.399 27.5129 136.499 28.6129C134.699 30.6129 132.999 32.6129 131.099 34.5129C128.699 37.0129 126.099 39.4129 122.999 41.2129C119.299 43.5129 115.299 44.9129 111.199 44.5129Z" fill="#D5D1ED"/>
</g>
<mask id="mask11_7758_462763" style="mask-type:luminance" maskUnits="userSpaceOnUse" x="0" y="0" width="446" height="45">
<path d="M445.7 0.214844H0V44.6148H445.7V0.214844Z" fill="white"/>
</mask>
<g mask="url(#mask11_7758_462763)">
<path d="M111.7 22.5133V36.9133C111.7 38.2133 111.4 38.6133 110.4 38.5133C109.7 38.4133 109.3 38.1133 109.3 37.3133C109.3 28.1133 109.4 18.8133 109.4 9.61334C109.4 9.01334 109.4 8.51334 109.3 7.91334C109.2 7.01334 109.7 6.51334 110.6 6.41334C111.4 6.31334 111.7 6.71334 111.7 7.71334V22.5133Z" fill="#D5D1ED"/>
</g>
<mask id="mask12_7758_462763" style="mask-type:luminance" maskUnits="userSpaceOnUse" x="0" y="0" width="446" height="45">
<path d="M445.7 0.214844H0V44.6148H445.7V0.214844Z" fill="white"/>
</mask>
<g mask="url(#mask12_7758_462763)">
<path d="M100.399 22.4147V10.7147C100.399 9.91473 100.799 9.31473 101.499 8.91473C102.199 8.51473 102.799 8.91473 102.799 9.71473C102.699 16.9147 102.599 24.1147 102.599 31.3147C102.599 32.6147 102.599 33.9147 102.699 35.3147C102.699 36.0147 102.399 36.2147 101.799 36.0147C100.799 35.7147 100.399 35.1147 100.399 34.0147C100.299 30.2147 100.299 26.3147 100.399 22.4147C100.333 22.4147 100.333 22.4147 100.399 22.4147Z" fill="#D5D1ED"/>
</g>
<mask id="mask13_7758_462763" style="mask-type:luminance" maskUnits="userSpaceOnUse" x="0" y="0" width="446" height="45">
<path d="M445.7 0.214844H0V44.6148H445.7V0.214844Z" fill="white"/>
</mask>
<g mask="url(#mask13_7758_462763)">
<path d="M120.6 22.3151C120.6 26.2151 120.5 30.1151 120.6 34.1151C120.6 35.0151 120.5 35.7151 119.6 36.1151C119.3 36.2151 118.9 36.3151 118.7 36.2151C118.5 36.1151 118.4 35.7151 118.4 35.4151C118.4 32.7151 118.5 30.0151 118.5 27.4151C118.5 22.2151 118.6 16.9151 118.6 11.6151C118.6 11.0151 118.4 10.4151 118.5 9.81508C118.5 9.41508 118.7 8.81508 118.9 8.81508C119.2 8.71508 119.8 8.91508 120 9.21508C120.3 9.61508 120.5 10.3151 120.6 10.8151C120.6 14.6151 120.6 18.5151 120.6 22.3151Z" fill="#D5D1ED"/>
</g>
<mask id="mask14_7758_462763" style="mask-type:luminance" maskUnits="userSpaceOnUse" x="0" y="0" width="446" height="45">
<path d="M445.7 0.214844H0V44.6148H445.7V0.214844Z" fill="white"/>
</mask>
<g mask="url(#mask14_7758_462763)">
<path d="M127.501 29.2164C127.401 28.9164 127.301 28.6164 127.301 28.4164V16.6164C127.301 16.3164 127.501 16.1164 127.601 15.8164C127.801 15.9164 128.101 16.0164 128.301 16.2164C129.501 17.3164 129.901 18.7164 129.701 20.3164C129.501 22.3164 129.601 24.3164 129.601 26.3164C129.601 27.6164 128.901 28.6164 127.501 29.2164Z" fill="#D5D1ED"/>
</g>
<mask id="mask15_7758_462763" style="mask-type:luminance" maskUnits="userSpaceOnUse" x="0" y="0" width="446" height="45">
<path d="M445.7 0.214844H0V44.6148H445.7V0.214844Z" fill="white"/>
</mask>
<g mask="url(#mask15_7758_462763)">
<path d="M93.7008 21.8155V28.0155C93.7008 28.3155 93.6008 28.7155 93.4008 28.7155C93.2008 28.8155 92.8008 28.6155 92.6008 28.5155C91.7008 27.8155 91.4008 26.9155 91.4008 25.7155C91.5008 23.5155 91.4008 21.3155 91.3008 19.2155C91.3008 17.9155 92.0008 17.0155 92.8008 16.3155C93.3008 15.9155 93.5008 16.5155 93.5008 16.9155C93.5008 18.0155 93.5008 19.1155 93.4008 20.2155V22.0155C93.5341 21.8822 93.6341 21.8155 93.7008 21.8155Z" fill="#D5D1ED"/>
</g>
<mask id="mask16_7758_462763" style="mask-type:luminance" maskUnits="userSpaceOnUse" x="0" y="0" width="446" height="45">
<path d="M445.7 0.214844H0V44.6148H445.7V0.214844Z" fill="white"/>
</mask>
<g mask="url(#mask16_7758_462763)">
<path d="M445.7 5.91501C445 5.91501 444.2 5.61501 443.5 5.41501C442.2 5.11501 440.9 5.11501 439.6 5.41501C438.4 5.71501 437.1 5.71501 436 6.11501C434.4 6.71501 432.8 7.31501 431.4 8.21501C426.9 11.015 423.2 14.715 420 18.915C418.1 21.415 416.1 23.715 414.1 26.115C411.3 29.415 408.6 32.715 405.7 35.815C402.4 39.315 398.4 42.015 393.8 43.515C391.6 44.215 389.3 44.515 387 44.515C383.1 44.615 379.4 43.915 375.9 42.115C371.2 39.715 367.4 36.415 364 32.515C360.4 28.315 357.1 24.015 353.6 19.815C350.4 15.915 347 12.215 342.9 9.21501C340.7 7.61501 338.3 6.31501 335.5 5.91501C335 5.81501 334.5 5.71501 334 5.51501C332.1 5.01501 330.2 4.91501 328.4 5.71501C328.3 5.81501 328.1 5.81501 328 5.81501C324.3 6.11501 321.2 7.91501 318.4 10.115C316.6 11.615 314.8 13.115 313.2 14.715C311.6 16.315 310.3 18.215 308.8 19.915C306.6 22.615 304.5 25.315 302.3 27.915C300.6 30.015 299 32.115 297.1 34.115C294.3 37.115 291.2 39.715 287.6 41.715C285.5 42.815 283.3 43.615 281.1 44.215C280.3 44.415 279.5 44.415 278.6 44.415C276.5 44.415 274.4 44.515 272.3 44.315C270.8 44.115 269.2 43.615 267.7 43.115C264.5 42.015 261.7 40.015 259.1 37.915C257.4 36.515 255.8 35.015 254.4 33.315C249.9 28.015 245.6 22.515 241.1 17.215C238.9 14.715 236.5 12.315 233.9 10.115C231.9 8.31501 229.5 7.01501 227 6.11501C226.6 5.91501 226.1 5.91501 225.7 5.81501C224.1 5.51501 222.5 5.21501 220.8 5.01501C220.5 5.01501 220.2 4.91501 220 5.01501C217.4 5.81501 214.6 5.91501 212.1 7.21501C208.2 9.31501 205 12.115 202.1 15.415C199.1 18.915 196.3 22.515 193.4 26.015C190.4 29.715 187.4 33.415 183.9 36.715C180.9 39.615 177.5 41.915 173.5 43.315C171.3 44.115 169 44.515 166.7 44.415C165.1 44.315 163.4 44.515 161.8 44.215C159 43.815 156.4 42.815 153.9 41.415C149.4 38.815 145.7 35.315 142.4 31.315C138 26.115 133.7 20.715 129.3 15.515C126.4 12.115 123.1 9.21501 119.1 7.11501C117.7 6.41501 116.2 5.71501 114.5 5.71501C114.1 5.71501 113.6 5.61501 113.2 5.41501C111.5 4.71501 109.8 4.81501 108.1 5.31501C107.7 5.41501 107.2 5.61501 106.8 5.61501C104.3 5.51501 102.3 6.71501 100.3 7.91501C98.2 9.21501 96.1 10.815 94.4 12.615C91.6 15.515 89 18.615 86.4 21.715C84.4 24.015 82.7 26.615 80.7 28.915C78.3 31.715 75.9 34.615 73.1 37.115C71.1 38.915 68.6 40.215 66.3 41.715C64.4 43.015 62.2 43.515 60.1 44.115C58.9 44.415 57.6 44.415 56.3 44.415C54.4 44.415 52.6 44.415 50.7 44.215C49.6 44.115 48.6 43.715 47.6 43.415C44.5 42.215 41.6 40.515 39 38.415C35.4 35.515 32.3 32.115 29.4 28.415C26.7 24.915 23.8 21.515 21 18.115C19.6 16.415 18.3 14.715 16.7 13.315C13.9 10.615 10.9 8.11501 7.2 6.61501C5.5 5.91501 3.3 5.51501 1.2 5.31501C0.4 5.31501 0 4.91501 0 4.11501C0 3.11501 0 2.11501 0.1 1.11501C0.1 0.415012 0.6 0.115012 1.5 0.215012C3 0.515012 4.5 0.715012 5.9 1.01501C9.9 1.91501 13.3 3.81501 16.5 6.31501C19.6 8.71501 22.3 11.515 24.8 14.615C28.1 18.615 31.4 22.515 34.6 26.615C37.2 29.915 40.2 32.715 43.4 35.315C46.7 38.015 50.5 39.515 54.7 39.815C57.6 40.015 60.4 39.415 63 38.215C68.5 35.715 72.5 31.615 76.2 27.015C78.8 23.815 81.3 20.515 84 17.415C86.2 14.815 88.4 12.115 90.8 9.61501C93 7.41501 95.4 5.31501 98.3 3.91501C99.9 3.11501 101.5 2.21501 103.2 1.71501C106.8 0.615012 110.4 -0.0849883 114.3 0.615012C119 1.51501 123.2 3.51501 127 6.31501C130.3 8.91501 133.3 11.915 135.8 15.315C137.2 17.215 138.8 19.115 140.3 20.915C142.4 23.515 144.5 26.115 146.6 28.615C148.9 31.315 151.4 33.815 154.4 35.815C156.7 37.415 159.1 38.515 161.8 39.215C165.1 40.015 168.4 39.915 171.6 38.815C175.4 37.615 178.4 35.315 181.3 32.615C184.6 29.615 187.2 26.015 190 22.615C193.1 18.915 196.1 15.015 199.3 11.415C200.8 9.71501 202.4 8.11501 204.2 6.71501C206.7 4.71501 209.4 3.21501 212.4 2.01501C215 0.915012 217.8 0.415012 220.6 0.215012C221.6 0.115012 222.7 0.215012 223.8 0.415012C229.7 1.31501 234.8 3.81501 239.1 7.91501C241.6 10.315 244 12.815 246.3 15.415C248.6 18.015 250.6 20.715 252.7 23.415C256.1 27.815 259.7 32.015 264.2 35.415C268.6 38.715 273.4 40.315 278.9 39.615C281.9 39.215 284.8 38.215 287.2 36.315C289.7 34.315 292.3 32.215 294.6 29.815C296.8 27.515 298.7 24.815 300.8 22.315C302.6 20.115 304.3 17.915 306.1 15.815C308.2 13.415 310.2 11.015 312.5 8.81501C315.3 6.11501 318.4 3.81501 322 2.31501C326 0.715012 330.2 -0.284988 334.5 0.515012C336.3 0.815012 338.1 1.41501 339.9 2.01501C344.3 3.41501 347.8 6.21501 351.1 9.31501C354.7 12.815 357.7 16.715 360.8 20.515C364.2 24.815 367.4 29.215 371.6 32.915C374.1 35.115 376.8 37.315 380 38.415C382.5 39.315 385 39.915 387.7 39.815C392 39.515 395.8 37.915 399 35.215C401.1 33.415 403.2 31.715 405.1 29.715C406.9 27.815 408.5 25.615 410.2 23.515C413.2 19.815 416.4 16.115 419.3 12.415C421.1 10.115 423.3 8.21501 425.6 6.41501C427.6 4.81501 429.9 3.41501 432.2 2.41501C435.1 1.11501 438.2 0.315012 441.4 0.215012" fill="#D5D1ED"/>
</g>
</g>
<g opacity="0.3" clip-path="url(#clip3_7758_462763)" filter="url(#filter0_d_7758_462763)">
<mask id="mask17_7758_462763" style="mask-type:luminance" maskUnits="userSpaceOnUse" x="0" y="0" width="446" height="45">
<path d="M445.7 0.214844H0V44.6148H445.7V0.214844Z" fill="white"/>
</mask>
<g mask="url(#mask17_7758_462763)">
<path d="M220.099 44.5141C218.099 44.8141 215.499 44.3141 212.999 43.4141C210.499 42.5141 208.099 41.2141 205.899 39.6141C201.499 36.4141 198.099 32.3141 194.499 28.3141C194.099 27.8141 193.999 27.3141 194.399 26.8141C195.099 26.0141 195.699 25.1141 196.299 24.3141C196.899 23.6141 197.099 23.6141 197.699 24.3141C199.899 26.9141 202.099 29.5141 204.399 31.9141C205.899 33.4141 207.699 34.5141 209.299 35.9141C211.199 37.6141 213.499 38.3141 215.899 39.0141C218.999 40.0141 222.099 40.0141 225.099 39.1141C226.699 38.7141 228.199 38.2141 229.699 37.5141C231.099 36.8141 232.299 35.7141 233.599 34.8141C236.099 33.0141 238.399 30.9141 240.199 28.4141C241.299 26.9141 242.599 25.5141 243.799 24.1141C243.999 23.9141 244.599 23.9141 244.699 24.0141C245.499 24.9141 246.299 25.8141 246.999 26.8141C247.399 27.3141 247.199 27.9141 246.799 28.4141C243.599 32.1141 240.399 35.8141 236.599 38.9141C234.599 40.5141 232.399 41.7141 230.099 42.7141C226.299 44.6141 224.599 44.5141 220.099 44.5141Z" fill="#D5D1ED"/>
</g>
<mask id="mask18_7758_462763" style="mask-type:luminance" maskUnits="userSpaceOnUse" x="0" y="0" width="446" height="45">
<path d="M445.7 0.214844H0V44.6148H445.7V0.214844Z" fill="white"/>
</mask>
<g mask="url(#mask18_7758_462763)">
<path d="M166.301 0.214844C168.701 0.614844 171.501 0.714844 174.001 1.91484C176.201 3.01484 178.501 4.01484 180.501 5.31484C182.001 6.21484 183.301 7.51484 184.501 8.81484C187.001 11.3148 189.301 14.0148 191.701 16.6148C192.201 17.1148 192.201 17.7148 191.901 18.2148C191.201 19.2148 190.501 20.1148 189.701 21.1148C189.301 21.6148 188.901 21.3148 188.601 20.9148C187.301 19.3148 186.101 17.8148 184.801 16.2148C182.501 13.4148 179.801 11.0148 176.801 8.91484C174.301 7.11484 171.501 6.21484 168.601 5.71484C167.401 5.51484 166.101 5.41484 164.901 5.21484C164.701 5.21484 164.401 5.21484 164.201 5.31484C161.601 6.01484 158.801 6.51484 156.401 7.81484C155.201 8.51484 154.201 9.41484 153.001 10.2148C150.101 12.3148 147.601 14.9148 145.401 17.8148C144.601 18.9148 143.701 19.8148 142.901 20.9148C142.501 21.4148 142.101 21.4148 141.701 20.9148C140.901 20.0148 140.201 19.0148 139.501 18.0148C139.001 17.3148 139.501 16.8148 139.901 16.4148C141.901 14.3148 143.901 12.1148 145.901 10.0148C147.401 8.51484 149.001 7.01484 150.701 5.61484C152.001 4.61484 153.601 3.81484 155.101 3.01484C158.501 1.21484 162.201 0.514844 166.301 0.214844Z" fill="#D5D1ED"/>
</g>
<mask id="mask19_7758_462763" style="mask-type:luminance" maskUnits="userSpaceOnUse" x="0" y="0" width="446" height="45">
<path d="M445.7 0.214844H0V44.6148H445.7V0.214844Z" fill="white"/>
</mask>
<g mask="url(#mask19_7758_462763)">
<path d="M166.699 22.1133V35.6133C166.699 36.2133 166.799 36.7133 166.799 37.3133C166.799 38.0133 166.599 38.5133 165.799 38.6133C164.999 38.6133 164.499 38.1133 164.499 37.3133C164.499 35.6133 164.599 33.9133 164.599 32.2133V9.51328C164.599 9.01328 164.499 8.61328 164.499 8.11328C164.399 7.21328 164.799 6.61328 165.699 6.61328C166.399 6.61328 166.799 7.11328 166.799 8.01328C166.799 12.6133 166.799 17.3133 166.699 22.1133C166.766 22.1133 166.766 22.1133 166.699 22.1133Z" fill="#D5D1ED"/>
</g>
<mask id="mask20_7758_462763" style="mask-type:luminance" maskUnits="userSpaceOnUse" x="0" y="0" width="446" height="45">
<path d="M445.7 0.214844H0V44.6148H445.7V0.214844Z" fill="white"/>
</mask>
<g mask="url(#mask20_7758_462763)">
<path d="M157.8 10.4163V31.6163C157.8 32.8163 157.8 34.0163 157.9 35.2163C157.9 35.9163 157.6 36.0163 157 35.9163C155.6 35.5163 155.4 35.0163 155.4 33.6163C155.5 29.3163 155.5 25.0163 155.5 20.7163C155.5 17.4163 155.4 14.1163 155.4 10.8163C155.4 10.5163 155.5 10.2163 155.6 9.91633C155.9 9.21633 156.5 8.81633 157.2 9.01633C157.6 9.11633 157.8 9.81633 158 10.2163C158 10.3163 157.9 10.4163 157.8 10.4163Z" fill="#D5D1ED"/>
</g>
<mask id="mask21_7758_462763" style="mask-type:luminance" maskUnits="userSpaceOnUse" x="0" y="0" width="446" height="45">
<path d="M445.7 0.214844H0V44.6148H445.7V0.214844Z" fill="white"/>
</mask>
<g mask="url(#mask21_7758_462763)">
<path d="M175.7 11.8133V32.0133C175.7 32.8133 175.8 33.6133 175.8 34.5133C175.8 35.1133 174.8 36.4133 174.2 36.5133C173.6 36.6133 173.5 36.1133 173.6 35.7133C173.6 33.0133 173.7 30.4133 173.7 27.7133V10.0133C173.8 9.51328 174 9.11328 174.1 8.61328C174.6 9.01328 175.2 9.41328 175.7 9.91328C175.9 10.1133 175.8 10.6133 175.8 10.9133C175.7 11.2133 175.7 11.5133 175.7 11.8133Z" fill="#D5D1ED"/>
</g>
<mask id="mask22_7758_462763" style="mask-type:luminance" maskUnits="userSpaceOnUse" x="0" y="0" width="446" height="45">
<path d="M445.7 0.214844H0V44.6148H445.7V0.214844Z" fill="white"/>
</mask>
<g mask="url(#mask22_7758_462763)">
<path d="M182.501 27.7141C182.601 24.9141 182.701 22.1141 182.701 19.3141C182.701 18.5141 182.501 17.7141 182.501 16.8141C182.501 16.5141 182.601 16.2141 182.701 15.9141C183.001 16.0141 183.401 16.1141 183.601 16.4141C184.601 17.4141 185.201 18.5141 184.901 20.2141C184.601 21.8141 184.801 23.5141 185.001 25.2141C185.101 26.5141 184.701 27.5141 183.901 28.3141C183.701 28.6141 183.201 28.8141 182.901 28.7141C182.701 28.7141 182.601 28.1141 182.401 27.8141C182.301 27.8141 182.401 27.8141 182.501 27.7141Z" fill="#D5D1ED"/>
</g>
<mask id="mask23_7758_462763" style="mask-type:luminance" maskUnits="userSpaceOnUse" x="0" y="0" width="446" height="45">
<path d="M445.7 0.214844H0V44.6148H445.7V0.214844Z" fill="white"/>
</mask>
<g mask="url(#mask23_7758_462763)">
<path d="M146.7 22.5156C146.7 21.5156 146.6 20.5156 146.5 19.5156C146.4 18.3156 147.1 17.5156 147.8 16.7156C147.9 16.6156 148.3 16.5156 148.3 16.6156C148.5 16.8156 148.6 17.1156 148.7 17.3156C148.7 18.3156 148.6 19.4156 148.6 20.4156C148.6 22.8156 148.7 25.2156 148.8 27.6156C148.8 27.9156 148.6 28.2156 148.5 28.5156C148.2 28.4156 147.9 28.3156 147.6 28.1156C146.7 27.2156 146.3 26.2156 146.5 24.9156C146.6 24.1156 146.5 23.3156 146.5 22.5156C146.566 22.5156 146.633 22.5156 146.7 22.5156Z" fill="#D5D1ED"/>
</g>
<mask id="mask24_7758_462763" style="mask-type:luminance" maskUnits="userSpaceOnUse" x="0" y="0" width="446" height="45">
<path d="M445.7 0.214844H0V44.6148H445.7V0.214844Z" fill="white"/>
</mask>
<g mask="url(#mask24_7758_462763)">
<path d="M445.7 5.91501C445 5.91501 444.2 5.61501 443.5 5.41501C442.2 5.11501 440.9 5.11501 439.6 5.41501C438.4 5.71501 437.1 5.71501 436 6.11501C434.4 6.71501 432.8 7.31501 431.4 8.21501C426.9 11.015 423.2 14.715 420 18.915C418.1 21.415 416.1 23.715 414.1 26.115C411.3 29.415 408.6 32.715 405.7 35.815C402.4 39.315 398.4 42.015 393.8 43.515C391.6 44.215 389.3 44.515 387 44.515C383.1 44.615 379.4 43.915 375.9 42.115C371.2 39.715 367.4 36.415 364 32.515C360.4 28.315 357.1 24.015 353.6 19.815C350.4 15.915 347 12.215 342.9 9.21501C340.7 7.61501 338.3 6.31501 335.5 5.91501C335 5.81501 334.5 5.71501 334 5.51501C332.1 5.01501 330.2 4.91501 328.4 5.71501C328.3 5.81501 328.1 5.81501 328 5.81501C324.3 6.11501 321.2 7.91501 318.4 10.115C316.6 11.615 314.8 13.115 313.2 14.715C311.6 16.315 310.3 18.215 308.8 19.915C306.6 22.615 304.5 25.315 302.3 27.915C300.6 30.015 299 32.115 297.1 34.115C294.3 37.115 291.2 39.715 287.6 41.715C285.5 42.815 283.3 43.615 281.1 44.215C280.3 44.415 279.5 44.415 278.6 44.415C276.5 44.415 274.4 44.515 272.3 44.315C270.8 44.115 269.2 43.615 267.7 43.115C264.5 42.015 261.7 40.015 259.1 37.915C257.4 36.515 255.8 35.015 254.4 33.315C249.9 28.015 245.6 22.515 241.1 17.215C238.9 14.715 236.5 12.315 233.9 10.115C231.9 8.31501 229.5 7.01501 227 6.11501C226.6 5.91501 226.1 5.91501 225.7 5.81501C224.1 5.51501 222.5 5.21501 220.8 5.01501C220.5 5.01501 220.2 4.91501 220 5.01501C217.4 5.81501 214.6 5.91501 212.1 7.21501C208.2 9.31501 205 12.115 202.1 15.415C199.1 18.915 196.3 22.515 193.4 26.015C190.4 29.715 187.4 33.415 183.9 36.715C180.9 39.615 177.5 41.915 173.5 43.315C171.3 44.115 169 44.515 166.7 44.415C165.1 44.315 163.4 44.515 161.8 44.215C159 43.815 156.4 42.815 153.9 41.415C149.4 38.815 145.7 35.315 142.4 31.315C138 26.115 133.7 20.715 129.3 15.515C126.4 12.115 123.1 9.21501 119.1 7.11501C117.7 6.41501 116.2 5.71501 114.5 5.71501C114.1 5.71501 113.6 5.61501 113.2 5.41501C111.5 4.71501 109.8 4.81501 108.1 5.31501C107.7 5.41501 107.2 5.61501 106.8 5.61501C104.3 5.51501 102.3 6.71501 100.3 7.91501C98.2 9.21501 96.1 10.815 94.4 12.615C91.6 15.515 89 18.615 86.4 21.715C84.4 24.015 82.7 26.615 80.7 28.915C78.3 31.715 75.9 34.615 73.1 37.115C71.1 38.915 68.6 40.215 66.3 41.715C64.4 43.015 62.2 43.515 60.1 44.115C58.9 44.415 57.6 44.415 56.3 44.415C54.4 44.415 52.6 44.415 50.7 44.215C49.6 44.115 48.6 43.715 47.6 43.415C44.5 42.215 41.6 40.515 39 38.415C35.4 35.515 32.3 32.115 29.4 28.415C26.7 24.915 23.8 21.515 21 18.115C19.6 16.415 18.3 14.715 16.7 13.315C13.9 10.615 10.9 8.11501 7.2 6.61501C5.5 5.91501 3.3 5.51501 1.2 5.31501C0.4 5.31501 0 4.91501 0 4.11501C0 3.11501 0 2.11501 0.1 1.11501C0.1 0.415012 0.6 0.115012 1.5 0.215012C3 0.515012 4.5 0.715012 5.9 1.01501C9.9 1.91501 13.3 3.81501 16.5 6.31501C19.6 8.71501 22.3 11.515 24.8 14.615C28.1 18.615 31.4 22.515 34.6 26.615C37.2 29.915 40.2 32.715 43.4 35.315C46.7 38.015 50.5 39.515 54.7 39.815C57.6 40.015 60.4 39.415 63 38.215C68.5 35.715 72.5 31.615 76.2 27.015C78.8 23.815 81.3 20.515 84 17.415C86.2 14.815 88.4 12.115 90.8 9.61501C93 7.41501 95.4 5.31501 98.3 3.91501C99.9 3.11501 101.5 2.21501 103.2 1.71501C106.8 0.615012 110.4 -0.0849883 114.3 0.615012C119 1.51501 123.2 3.51501 127 6.31501C130.3 8.91501 133.3 11.915 135.8 15.315C137.2 17.215 138.8 19.115 140.3 20.915C142.4 23.515 144.5 26.115 146.6 28.615C148.9 31.315 151.4 33.815 154.4 35.815C156.7 37.415 159.1 38.515 161.8 39.215C165.1 40.015 168.4 39.915 171.6 38.815C175.4 37.615 178.4 35.315 181.3 32.615C184.6 29.615 187.2 26.015 190 22.615C193.1 18.915 196.1 15.015 199.3 11.415C200.8 9.71501 202.4 8.11501 204.2 6.71501C206.7 4.71501 209.4 3.21501 212.4 2.01501C215 0.915012 217.8 0.415012 220.6 0.215012C221.6 0.115012 222.7 0.215012 223.8 0.415012C229.7 1.31501 234.8 3.81501 239.1 7.91501C241.6 10.315 244 12.815 246.3 15.415C248.6 18.015 250.6 20.715 252.7 23.415C256.1 27.815 259.7 32.015 264.2 35.415C268.6 38.715 273.4 40.315 278.9 39.615C281.9 39.215 284.8 38.215 287.2 36.315C289.7 34.315 292.3 32.215 294.6 29.815C296.8 27.515 298.7 24.815 300.8 22.315C302.6 20.115 304.3 17.915 306.1 15.815C308.2 13.415 310.2 11.015 312.5 8.81501C315.3 6.11501 318.4 3.81501 322 2.31501C326 0.715012 330.2 -0.284988 334.5 0.515012C336.3 0.815012 338.1 1.41501 339.9 2.01501C344.3 3.41501 347.8 6.21501 351.1 9.31501C354.7 12.815 357.7 16.715 360.8 20.515C364.2 24.815 367.4 29.215 371.6 32.915C374.1 35.115 376.8 37.315 380 38.415C382.5 39.315 385 39.915 387.7 39.815C392 39.515 395.8 37.915 399 35.215C401.1 33.415 403.2 31.715 405.1 29.715C406.9 27.815 408.5 25.615 410.2 23.515C413.2 19.815 416.4 16.115 419.3 12.415C421.1 10.115 423.3 8.21501 425.6 6.41501C427.6 4.81501 429.9 3.41501 432.2 2.41501C435.1 1.11501 438.2 0.315012 441.4 0.215012" fill="#D5D1ED"/>
</g>
</g>
<g clip-path="url(#clip4_7758_462763)">
<mask id="mask25_7758_462763" style="mask-type:luminance" maskUnits="userSpaceOnUse" x="0" y="0" width="446" height="45">
<path d="M445.7 0.214844H0V44.6148H445.7V0.214844Z" fill="white"/>
</mask>
<g mask="url(#mask25_7758_462763)">
<path d="M275.901 5.11386C275.101 5.31386 274.501 5.41386 273.801 5.61386C271.201 6.01386 268.701 6.71386 266.501 8.11386C264.301 9.51386 262.301 11.1139 260.501 12.9139C258.001 15.4139 255.701 18.1139 253.401 20.7139C252.801 21.4139 252.301 21.4139 251.801 20.6139C251.301 19.9139 250.701 19.2139 250.201 18.5139C249.601 17.6139 249.701 17.3139 250.401 16.5139C251.901 14.9139 253.301 13.1139 254.801 11.5139C257.601 8.51386 260.601 5.71386 264.301 3.71386C266.701 2.41386 269.101 1.31386 271.801 0.913858C273.201 0.713858 274.601 0.213858 276.001 0.313858C277.901 0.313858 279.801 0.613858 281.701 1.01386C284.901 1.81386 287.801 3.11386 290.601 5.01386C294.801 7.91386 298.101 11.8139 301.401 15.5139C303.101 17.4139 303.301 17.3139 301.401 19.5139C301.001 20.0139 300.601 20.5139 300.201 20.9139C299.901 21.2139 299.501 21.3139 299.201 20.8139C297.001 18.2139 294.901 15.6139 292.601 13.1139C289.701 10.0139 286.301 7.51386 282.201 6.21386C279.901 5.61386 277.801 5.41386 275.901 5.11386Z" fill="#FFF200"/>
</g>
<mask id="mask26_7758_462763" style="mask-type:luminance" maskUnits="userSpaceOnUse" x="0" y="0" width="446" height="45">
<path d="M445.7 0.214844H0V44.6148H445.7V0.214844Z" fill="white"/>
</mask>
<g mask="url(#mask26_7758_462763)">
<path d="M220.099 44.5141C218.099 44.8141 215.499 44.3141 212.999 43.4141C210.499 42.5141 208.099 41.2141 205.899 39.6141C201.499 36.4141 198.099 32.3141 194.499 28.3141C194.099 27.8141 193.999 27.3141 194.399 26.8141C195.099 26.0141 195.699 25.1141 196.299 24.3141C196.899 23.6141 197.099 23.6141 197.699 24.3141C199.899 26.9141 202.099 29.5141 204.399 31.9141C205.899 33.4141 207.699 34.5141 209.299 35.9141C211.199 37.6141 213.499 38.3141 215.899 39.0141C218.999 40.0141 222.099 40.0141 225.099 39.1141C226.699 38.7141 228.199 38.2141 229.699 37.5141C231.099 36.8141 232.299 35.7141 233.599 34.8141C236.099 33.0141 238.399 30.9141 240.199 28.4141C241.299 26.9141 242.599 25.5141 243.799 24.1141C243.999 23.9141 244.599 23.9141 244.699 24.0141C245.499 24.9141 246.299 25.8141 246.999 26.8141C247.399 27.3141 247.199 27.9141 246.799 28.4141C243.599 32.1141 240.399 35.8141 236.599 38.9141C234.599 40.5141 232.399 41.7141 230.099 42.7141C226.299 44.6141 224.599 44.5141 220.099 44.5141Z" fill="#FFF200"/>
</g>
<mask id="mask27_7758_462763" style="mask-type:luminance" maskUnits="userSpaceOnUse" x="0" y="0" width="446" height="45">
<path d="M445.7 0.214844H0V44.6148H445.7V0.214844Z" fill="white"/>
</mask>
<g mask="url(#mask27_7758_462763)">
<path d="M221.901 22.7133V37.3133C221.901 38.2133 221.601 38.6133 220.901 38.6133C220.201 38.6133 219.801 38.1133 219.801 37.3133C219.801 29.9133 219.901 22.6133 219.901 15.2133C219.901 13.0133 219.901 10.7133 219.801 8.51333V7.51333C219.901 6.91333 220.201 6.31333 220.801 6.41333C221.201 6.51333 221.501 7.01333 221.701 7.41333C221.801 7.61333 221.801 7.91333 221.801 8.21333C221.801 13.0133 221.801 17.9133 221.901 22.7133C221.834 22.7133 221.834 22.7133 221.901 22.7133Z" fill="#FFF200"/>
</g>
<mask id="mask28_7758_462763" style="mask-type:luminance" maskUnits="userSpaceOnUse" x="0" y="0" width="446" height="45">
<path d="M445.7 0.214844H0V44.6148H445.7V0.214844Z" fill="white"/>
</mask>
<g mask="url(#mask28_7758_462763)">
<path d="M212.9 23.3168V35.2168C212.9 36.1168 212.6 36.3168 211.8 36.0168C210.7 35.5168 210.4 34.9168 210.4 33.4168C210.5 26.9168 210.5 20.4168 210.5 14.0168C210.5 13.0168 210.4 12.0168 210.4 10.9168C210.4 10.2168 211.2 9.11676 211.9 9.01676C212.6 8.81676 212.9 9.31676 212.9 10.1168C212.9 12.0168 212.8 13.8168 212.8 15.7168C212.9 18.2168 212.9 20.7168 212.9 23.3168Z" fill="#FFF200"/>
</g>
<mask id="mask29_7758_462763" style="mask-type:luminance" maskUnits="userSpaceOnUse" x="0" y="0" width="446" height="45">
<path d="M445.7 0.214844H0V44.6148H445.7V0.214844Z" fill="white"/>
</mask>
<g mask="url(#mask29_7758_462763)">
<path d="M228.6 22.2148V9.71484C228.6 9.41484 228.8 9.01484 228.9 8.71484C229.2 8.81484 229.6 8.91484 229.9 9.11484C230.5 9.41484 230.8 10.0148 230.8 10.7148V29.3148C230.8 31.2148 230.8 33.0148 230.9 34.9148C230.9 35.5148 229.7 36.7148 229.1 36.5148C228.9 36.4148 228.6 36.0148 228.5 35.8148C228.5 31.2148 228.5 26.7148 228.6 22.2148Z" fill="#FFF200"/>
</g>
<mask id="mask30_7758_462763" style="mask-type:luminance" maskUnits="userSpaceOnUse" x="0" y="0" width="446" height="45">
<path d="M445.7 0.214844H0V44.6148H445.7V0.214844Z" fill="white"/>
</mask>
<g mask="url(#mask30_7758_462763)">
<path d="M240 20.2164V25.9164C240 27.1164 239.5 28.0164 238.6 28.7164C238.4 28.9164 238 29.0164 237.7 28.9164C237.6 28.9164 237.4 28.4164 237.5 28.1164C237.6 24.9164 237.7 21.6164 237.7 18.4164C237.7 17.8164 237.6 17.3164 237.6 16.7164C237.6 16.4164 237.7 16.1164 237.7 15.8164C238 15.9164 238.3 15.9164 238.5 16.1164C239.5 17.0164 240.3 18.0164 240 19.5164C240 19.7164 240 20.0164 240 20.2164Z" fill="#FFF200"/>
</g>
<mask id="mask31_7758_462763" style="mask-type:luminance" maskUnits="userSpaceOnUse" x="0" y="0" width="446" height="45">
<path d="M445.7 0.214844H0V44.6148H445.7V0.214844Z" fill="white"/>
</mask>
<g mask="url(#mask31_7758_462763)">
<path d="M203.7 20.4149C203.8 22.8149 203.9 25.2149 203.9 27.5149C203.9 27.9149 203.7 28.2149 203.6 28.6149C203.2 28.4149 202.8 28.3149 202.5 28.0149C201.7 27.3149 201.5 26.3149 201.5 25.3149V19.1149C201.5 17.9149 202.2 17.2149 202.8 16.4149C202.9 16.3149 203.3 16.2149 203.4 16.3149C203.6 16.5149 203.8 16.8149 203.8 17.0149V20.4149H203.7Z" fill="#FFF200"/>
</g>
<mask id="mask32_7758_462763" style="mask-type:luminance" maskUnits="userSpaceOnUse" x="0" y="0" width="446" height="45">
<path d="M445.7 0.214844H0V44.6148H445.7V0.214844Z" fill="white"/>
</mask>
<g mask="url(#mask32_7758_462763)">
<path d="M445.7 5.91501C445 5.91501 444.2 5.61501 443.5 5.41501C442.2 5.11501 440.9 5.11501 439.6 5.41501C438.4 5.71501 437.1 5.71501 436 6.11501C434.4 6.71501 432.8 7.31501 431.4 8.21501C426.9 11.015 423.2 14.715 420 18.915C418.1 21.415 416.1 23.715 414.1 26.115C411.3 29.415 408.6 32.715 405.7 35.815C402.4 39.315 398.4 42.015 393.8 43.515C391.6 44.215 389.3 44.515 387 44.515C383.1 44.615 379.4 43.915 375.9 42.115C371.2 39.715 367.4 36.415 364 32.515C360.4 28.315 357.1 24.015 353.6 19.815C350.4 15.915 347 12.215 342.9 9.21501C340.7 7.61501 338.3 6.31501 335.5 5.91501C335 5.81501 334.5 5.71501 334 5.51501C332.1 5.01501 330.2 4.91501 328.4 5.71501C328.3 5.81501 328.1 5.81501 328 5.81501C324.3 6.11501 321.2 7.91501 318.4 10.115C316.6 11.615 314.8 13.115 313.2 14.715C311.6 16.315 310.3 18.215 308.8 19.915C306.6 22.615 304.5 25.315 302.3 27.915C300.6 30.015 299 32.115 297.1 34.115C294.3 37.115 291.2 39.715 287.6 41.715C285.5 42.815 283.3 43.615 281.1 44.215C280.3 44.415 279.5 44.415 278.6 44.415C276.5 44.415 274.4 44.515 272.3 44.315C270.8 44.115 269.2 43.615 267.7 43.115C264.5 42.015 261.7 40.015 259.1 37.915C257.4 36.515 255.8 35.015 254.4 33.315C249.9 28.015 245.6 22.515 241.1 17.215C238.9 14.715 236.5 12.315 233.9 10.115C231.9 8.31501 229.5 7.01501 227 6.11501C226.6 5.91501 226.1 5.91501 225.7 5.81501C224.1 5.51501 222.5 5.21501 220.8 5.01501C220.5 5.01501 220.2 4.91501 220 5.01501C217.4 5.81501 214.6 5.91501 212.1 7.21501C208.2 9.31501 205 12.115 202.1 15.415C199.1 18.915 196.3 22.515 193.4 26.015C190.4 29.715 187.4 33.415 183.9 36.715C180.9 39.615 177.5 41.915 173.5 43.315C171.3 44.115 169 44.515 166.7 44.415C165.1 44.315 163.4 44.515 161.8 44.215C159 43.815 156.4 42.815 153.9 41.415C149.4 38.815 145.7 35.315 142.4 31.315C138 26.115 133.7 20.715 129.3 15.515C126.4 12.115 123.1 9.21501 119.1 7.11501C117.7 6.41501 116.2 5.71501 114.5 5.71501C114.1 5.71501 113.6 5.61501 113.2 5.41501C111.5 4.71501 109.8 4.81501 108.1 5.31501C107.7 5.41501 107.2 5.61501 106.8 5.61501C104.3 5.51501 102.3 6.71501 100.3 7.91501C98.2 9.21501 96.1 10.815 94.4 12.615C91.6 15.515 89 18.615 86.4 21.715C84.4 24.015 82.7 26.615 80.7 28.915C78.3 31.715 75.9 34.615 73.1 37.115C71.1 38.915 68.6 40.215 66.3 41.715C64.4 43.015 62.2 43.515 60.1 44.115C58.9 44.415 57.6 44.415 56.3 44.415C54.4 44.415 52.6 44.415 50.7 44.215C49.6 44.115 48.6 43.715 47.6 43.415C44.5 42.215 41.6 40.515 39 38.415C35.4 35.515 32.3 32.115 29.4 28.415C26.7 24.915 23.8 21.515 21 18.115C19.6 16.415 18.3 14.715 16.7 13.315C13.9 10.615 10.9 8.11501 7.2 6.61501C5.5 5.91501 3.3 5.51501 1.2 5.31501C0.4 5.31501 0 4.91501 0 4.11501C0 3.11501 0 2.11501 0.1 1.11501C0.1 0.415012 0.6 0.115012 1.5 0.215012C3 0.515012 4.5 0.715012 5.9 1.01501C9.9 1.91501 13.3 3.81501 16.5 6.31501C19.6 8.71501 22.3 11.515 24.8 14.615C28.1 18.615 31.4 22.515 34.6 26.615C37.2 29.915 40.2 32.715 43.4 35.315C46.7 38.015 50.5 39.515 54.7 39.815C57.6 40.015 60.4 39.415 63 38.215C68.5 35.715 72.5 31.615 76.2 27.015C78.8 23.815 81.3 20.515 84 17.415C86.2 14.815 88.4 12.115 90.8 9.61501C93 7.41501 95.4 5.31501 98.3 3.91501C99.9 3.11501 101.5 2.21501 103.2 1.71501C106.8 0.615012 110.4 -0.0849883 114.3 0.615012C119 1.51501 123.2 3.51501 127 6.31501C130.3 8.91501 133.3 11.915 135.8 15.315C137.2 17.215 138.8 19.115 140.3 20.915C142.4 23.515 144.5 26.115 146.6 28.615C148.9 31.315 151.4 33.815 154.4 35.815C156.7 37.415 159.1 38.515 161.8 39.215C165.1 40.015 168.4 39.915 171.6 38.815C175.4 37.615 178.4 35.315 181.3 32.615C184.6 29.615 187.2 26.015 190 22.615C193.1 18.915 196.1 15.015 199.3 11.415C200.8 9.71501 202.4 8.11501 204.2 6.71501C206.7 4.71501 209.4 3.21501 212.4 2.01501C215 0.915012 217.8 0.415012 220.6 0.215012C221.6 0.115012 222.7 0.215012 223.8 0.415012C229.7 1.31501 234.8 3.81501 239.1 7.91501C241.6 10.315 244 12.815 246.3 15.415C248.6 18.015 250.6 20.715 252.7 23.415C256.1 27.815 259.7 32.015 264.2 35.415C268.6 38.715 273.4 40.315 278.9 39.615C281.9 39.215 284.8 38.215 287.2 36.315C289.7 34.315 292.3 32.215 294.6 29.815C296.8 27.515 298.7 24.815 300.8 22.315C302.6 20.115 304.3 17.915 306.1 15.815C308.2 13.415 310.2 11.015 312.5 8.81501C315.3 6.11501 318.4 3.81501 322 2.31501C326 0.715012 330.2 -0.284988 334.5 0.515012C336.3 0.815012 338.1 1.41501 339.9 2.01501C344.3 3.41501 347.8 6.21501 351.1 9.31501C354.7 12.815 357.7 16.715 360.8 20.515C364.2 24.815 367.4 29.215 371.6 32.915C374.1 35.115 376.8 37.315 380 38.415C382.5 39.315 385 39.915 387.7 39.815C392 39.515 395.8 37.915 399 35.215C401.1 33.415 403.2 31.715 405.1 29.715C406.9 27.815 408.5 25.615 410.2 23.515C413.2 19.815 416.4 16.115 419.3 12.415C421.1 10.115 423.3 8.21501 425.6 6.41501C427.6 4.81501 429.9 3.41501 432.2 2.41501C435.1 1.11501 438.2 0.315012 441.4 0.215012" fill="#FFF200"/>
</g>
</g>
<g opacity="0.3" clip-path="url(#clip5_7758_462763)">
<mask id="mask33_7758_462763" style="mask-type:luminance" maskUnits="userSpaceOnUse" x="0" y="0" width="446" height="45">
<path d="M445.7 0.214844H0V44.6148H445.7V0.214844Z" fill="white"/>
</mask>
<g mask="url(#mask33_7758_462763)">
<path d="M275.901 5.11386C275.101 5.31386 274.501 5.41386 273.801 5.61386C271.201 6.01386 268.701 6.71386 266.501 8.11386C264.301 9.51386 262.301 11.1139 260.501 12.9139C258.001 15.4139 255.701 18.1139 253.401 20.7139C252.801 21.4139 252.301 21.4139 251.801 20.6139C251.301 19.9139 250.701 19.2139 250.201 18.5139C249.601 17.6139 249.701 17.3139 250.401 16.5139C251.901 14.9139 253.301 13.1139 254.801 11.5139C257.601 8.51386 260.601 5.71386 264.301 3.71386C266.701 2.41386 269.101 1.31386 271.801 0.913858C273.201 0.713858 274.601 0.213858 276.001 0.313858C277.901 0.313858 279.801 0.613858 281.701 1.01386C284.901 1.81386 287.801 3.11386 290.601 5.01386C294.801 7.91386 298.101 11.8139 301.401 15.5139C303.101 17.4139 303.301 17.3139 301.401 19.5139C301.001 20.0139 300.601 20.5139 300.201 20.9139C299.901 21.2139 299.501 21.3139 299.201 20.8139C297.001 18.2139 294.901 15.6139 292.601 13.1139C289.701 10.0139 286.301 7.51386 282.201 6.21386C279.901 5.61386 277.801 5.41386 275.901 5.11386Z" fill="#D5D1ED"/>
</g>
<mask id="mask34_7758_462763" style="mask-type:luminance" maskUnits="userSpaceOnUse" x="0" y="0" width="446" height="45">
<path d="M445.7 0.214844H0V44.6148H445.7V0.214844Z" fill="white"/>
</mask>
<g mask="url(#mask34_7758_462763)">
<path d="M331.601 44.5136C327.601 44.9136 324.001 44.0136 320.701 42.3136C318.101 41.0136 315.701 39.4136 313.501 37.5136C310.501 34.8136 307.801 31.7136 305.201 28.6136C304.501 27.8136 304.501 27.0136 305.301 26.2136C305.801 25.7136 306.301 25.1136 306.701 24.5136C307.301 23.7136 307.601 23.7136 308.301 24.4136C310.001 26.4136 311.601 28.4136 313.401 30.3136C315.601 32.7136 318.001 34.9136 320.801 36.6136C322.301 37.6136 324.101 38.2136 325.801 38.8136C327.001 39.2136 328.401 39.5136 329.701 39.7136C333.001 40.1136 336.101 39.4136 339.201 38.2136C342.301 37.0136 344.601 34.8136 347.101 32.7136C350.001 30.3136 352.101 27.3136 354.401 24.4136C355.001 23.7136 355.301 23.6136 355.901 24.3136C356.601 25.1136 357.301 26.0136 357.901 26.9136C358.101 27.2136 358.101 27.9136 357.901 28.2136C355.801 30.7136 353.601 33.2136 351.401 35.5136C349.001 37.9136 346.401 40.1136 343.401 41.7136C339.401 43.5136 335.601 45.0136 331.601 44.5136Z" fill="#D5D1ED"/>
</g>
<mask id="mask35_7758_462763" style="mask-type:luminance" maskUnits="userSpaceOnUse" x="0" y="0" width="446" height="45">
<path d="M445.7 0.214844H0V44.6148H445.7V0.214844Z" fill="white"/>
</mask>
<g mask="url(#mask35_7758_462763)">
<path d="M276.901 22.6133V37.2133C276.901 38.1133 276.501 38.6133 275.801 38.6133C275.101 38.6133 274.801 38.1133 274.801 37.2133C274.901 27.8133 274.901 18.4133 274.901 9.01328C274.901 8.61328 274.801 8.11328 274.801 7.71328C274.801 7.01328 275.101 6.61328 275.801 6.61328C276.501 6.61328 276.901 7.01328 277.001 7.71328C277.001 8.21328 276.901 8.71328 276.901 9.21328C276.801 13.6133 276.801 18.1133 276.901 22.6133Z" fill="#D5D1ED"/>
</g>
<mask id="mask36_7758_462763" style="mask-type:luminance" maskUnits="userSpaceOnUse" x="0" y="0" width="446" height="45">
<path d="M445.7 0.214844H0V44.6148H445.7V0.214844Z" fill="white"/>
</mask>
<g mask="url(#mask36_7758_462763)">
<path d="M285.899 20.8132V30.6132C285.899 31.8132 285.999 33.0132 285.999 34.2132C285.999 35.1132 285.399 36.1132 284.499 36.2132C283.899 36.3132 283.499 36.1132 283.599 35.4132C283.699 28.0132 283.799 20.5132 283.799 13.0132C283.799 11.8132 283.599 10.7132 283.599 9.51319C283.599 9.21319 283.699 8.81319 283.899 8.61319C283.999 8.51319 284.499 8.71319 284.799 8.81319C285.899 9.21319 286.099 10.0132 286.099 11.1132V20.8132C285.999 20.8132 285.899 20.8132 285.899 20.8132Z" fill="#D5D1ED"/>
</g>
<mask id="mask37_7758_462763" style="mask-type:luminance" maskUnits="userSpaceOnUse" x="0" y="0" width="446" height="45">
<path d="M445.7 0.214844H0V44.6148H445.7V0.214844Z" fill="white"/>
</mask>
<g mask="url(#mask37_7758_462763)">
<path d="M267.999 23.3135V34.6135C267.999 35.1135 268.299 35.8135 267.499 36.0135C266.899 36.1135 265.899 35.4135 265.799 34.7135C265.699 34.0135 265.699 33.2135 265.699 32.5135C265.699 29.4135 265.899 26.4135 265.899 23.3135C265.899 19.7135 265.899 16.1135 265.799 12.4135C265.799 11.5135 265.399 10.6135 266.099 9.81352C266.299 9.61352 266.499 9.31352 266.699 9.21352C267.499 8.71352 267.999 9.01352 267.999 9.91352C267.999 11.0135 267.899 12.1135 267.899 13.2135C267.899 16.5135 267.899 19.9135 267.999 23.3135Z" fill="#D5D1ED"/>
</g>
<mask id="mask38_7758_462763" style="mask-type:luminance" maskUnits="userSpaceOnUse" x="0" y="0" width="446" height="45">
<path d="M445.7 0.214844H0V44.6148H445.7V0.214844Z" fill="white"/>
</mask>
<g mask="url(#mask38_7758_462763)">
<path d="M295.1 22.5156V25.9156C295.1 26.9156 294.6 27.7156 293.9 28.3156C293.7 28.5156 293.2 28.6156 293 28.5156C292.8 28.5156 292.7 28.0156 292.7 27.7156C292.8 24.6156 292.9 21.6156 292.9 18.5156C292.9 17.9156 292.7 17.3156 292.6 16.8156C292.6 16.6156 292.6 16.2156 292.8 16.1156C293 16.0156 293.3 16.1156 293.5 16.2156C294.4 16.9156 295 17.7156 295 18.9156C295.1 20.2156 295.1 21.3156 295.1 22.5156Z" fill="#D5D1ED"/>
</g>
<mask id="mask39_7758_462763" style="mask-type:luminance" maskUnits="userSpaceOnUse" x="0" y="0" width="446" height="45">
<path d="M445.7 0.214844H0V44.6148H445.7V0.214844Z" fill="white"/>
</mask>
<g mask="url(#mask39_7758_462763)">
<path d="M259 21.4166V27.6166C259 27.8166 258.9 28.2166 258.7 28.3166C258.5 28.4166 258.1 28.3166 257.9 28.2166C257 27.5166 256.5 26.6166 256.5 25.5166C256.5 23.5166 256.6 21.5166 256.6 19.5166C256.6 18.4166 257.2 17.7166 257.9 17.0166C258 16.8166 258.4 16.7166 258.5 16.8166C258.7 16.9166 258.9 17.2166 258.9 17.4166C259 17.9166 258.9 18.5166 258.9 19.0166V21.6166C258.9 21.4166 259 21.4166 259 21.4166Z" fill="#D5D1ED"/>
</g>
<mask id="mask40_7758_462763" style="mask-type:luminance" maskUnits="userSpaceOnUse" x="0" y="0" width="446" height="45">
<path d="M445.7 0.214844H0V44.6148H445.7V0.214844Z" fill="white"/>
</mask>
<g mask="url(#mask40_7758_462763)">
<path d="M445.7 5.91501C445 5.91501 444.2 5.61501 443.5 5.41501C442.2 5.11501 440.9 5.11501 439.6 5.41501C438.4 5.71501 437.1 5.71501 436 6.11501C434.4 6.71501 432.8 7.31501 431.4 8.21501C426.9 11.015 423.2 14.715 420 18.915C418.1 21.415 416.1 23.715 414.1 26.115C411.3 29.415 408.6 32.715 405.7 35.815C402.4 39.315 398.4 42.015 393.8 43.515C391.6 44.215 389.3 44.515 387 44.515C383.1 44.615 379.4 43.915 375.9 42.115C371.2 39.715 367.4 36.415 364 32.515C360.4 28.315 357.1 24.015 353.6 19.815C350.4 15.915 347 12.215 342.9 9.21501C340.7 7.61501 338.3 6.31501 335.5 5.91501C335 5.81501 334.5 5.71501 334 5.51501C332.1 5.01501 330.2 4.91501 328.4 5.71501C328.3 5.81501 328.1 5.81501 328 5.81501C324.3 6.11501 321.2 7.91501 318.4 10.115C316.6 11.615 314.8 13.115 313.2 14.715C311.6 16.315 310.3 18.215 308.8 19.915C306.6 22.615 304.5 25.315 302.3 27.915C300.6 30.015 299 32.115 297.1 34.115C294.3 37.115 291.2 39.715 287.6 41.715C285.5 42.815 283.3 43.615 281.1 44.215C280.3 44.415 279.5 44.415 278.6 44.415C276.5 44.415 274.4 44.515 272.3 44.315C270.8 44.115 269.2 43.615 267.7 43.115C264.5 42.015 261.7 40.015 259.1 37.915C257.4 36.515 255.8 35.015 254.4 33.315C249.9 28.015 245.6 22.515 241.1 17.215C238.9 14.715 236.5 12.315 233.9 10.115C231.9 8.31501 229.5 7.01501 227 6.11501C226.6 5.91501 226.1 5.91501 225.7 5.81501C224.1 5.51501 222.5 5.21501 220.8 5.01501C220.5 5.01501 220.2 4.91501 220 5.01501C217.4 5.81501 214.6 5.91501 212.1 7.21501C208.2 9.31501 205 12.115 202.1 15.415C199.1 18.915 196.3 22.515 193.4 26.015C190.4 29.715 187.4 33.415 183.9 36.715C180.9 39.615 177.5 41.915 173.5 43.315C171.3 44.115 169 44.515 166.7 44.415C165.1 44.315 163.4 44.515 161.8 44.215C159 43.815 156.4 42.815 153.9 41.415C149.4 38.815 145.7 35.315 142.4 31.315C138 26.115 133.7 20.715 129.3 15.515C126.4 12.115 123.1 9.21501 119.1 7.11501C117.7 6.41501 116.2 5.71501 114.5 5.71501C114.1 5.71501 113.6 5.61501 113.2 5.41501C111.5 4.71501 109.8 4.81501 108.1 5.31501C107.7 5.41501 107.2 5.61501 106.8 5.61501C104.3 5.51501 102.3 6.71501 100.3 7.91501C98.2 9.21501 96.1 10.815 94.4 12.615C91.6 15.515 89 18.615 86.4 21.715C84.4 24.015 82.7 26.615 80.7 28.915C78.3 31.715 75.9 34.615 73.1 37.115C71.1 38.915 68.6 40.215 66.3 41.715C64.4 43.015 62.2 43.515 60.1 44.115C58.9 44.415 57.6 44.415 56.3 44.415C54.4 44.415 52.6 44.415 50.7 44.215C49.6 44.115 48.6 43.715 47.6 43.415C44.5 42.215 41.6 40.515 39 38.415C35.4 35.515 32.3 32.115 29.4 28.415C26.7 24.915 23.8 21.515 21 18.115C19.6 16.415 18.3 14.715 16.7 13.315C13.9 10.615 10.9 8.11501 7.2 6.61501C5.5 5.91501 3.3 5.51501 1.2 5.31501C0.4 5.31501 0 4.91501 0 4.11501C0 3.11501 0 2.11501 0.1 1.11501C0.1 0.415012 0.6 0.115012 1.5 0.215012C3 0.515012 4.5 0.715012 5.9 1.01501C9.9 1.91501 13.3 3.81501 16.5 6.31501C19.6 8.71501 22.3 11.515 24.8 14.615C28.1 18.615 31.4 22.515 34.6 26.615C37.2 29.915 40.2 32.715 43.4 35.315C46.7 38.015 50.5 39.515 54.7 39.815C57.6 40.015 60.4 39.415 63 38.215C68.5 35.715 72.5 31.615 76.2 27.015C78.8 23.815 81.3 20.515 84 17.415C86.2 14.815 88.4 12.115 90.8 9.61501C93 7.41501 95.4 5.31501 98.3 3.91501C99.9 3.11501 101.5 2.21501 103.2 1.71501C106.8 0.615012 110.4 -0.0849883 114.3 0.615012C119 1.51501 123.2 3.51501 127 6.31501C130.3 8.91501 133.3 11.915 135.8 15.315C137.2 17.215 138.8 19.115 140.3 20.915C142.4 23.515 144.5 26.115 146.6 28.615C148.9 31.315 151.4 33.815 154.4 35.815C156.7 37.415 159.1 38.515 161.8 39.215C165.1 40.015 168.4 39.915 171.6 38.815C175.4 37.615 178.4 35.315 181.3 32.615C184.6 29.615 187.2 26.015 190 22.615C193.1 18.915 196.1 15.015 199.3 11.415C200.8 9.71501 202.4 8.11501 204.2 6.71501C206.7 4.71501 209.4 3.21501 212.4 2.01501C215 0.915012 217.8 0.415012 220.6 0.215012C221.6 0.115012 222.7 0.215012 223.8 0.415012C229.7 1.31501 234.8 3.81501 239.1 7.91501C241.6 10.315 244 12.815 246.3 15.415C248.6 18.015 250.6 20.715 252.7 23.415C256.1 27.815 259.7 32.015 264.2 35.415C268.6 38.715 273.4 40.315 278.9 39.615C281.9 39.215 284.8 38.215 287.2 36.315C289.7 34.315 292.3 32.215 294.6 29.815C296.8 27.515 298.7 24.815 300.8 22.315C302.6 20.115 304.3 17.915 306.1 15.815C308.2 13.415 310.2 11.015 312.5 8.81501C315.3 6.11501 318.4 3.81501 322 2.31501C326 0.715012 330.2 -0.284988 334.5 0.515012C336.3 0.815012 338.1 1.41501 339.9 2.01501C344.3 3.41501 347.8 6.21501 351.1 9.31501C354.7 12.815 357.7 16.715 360.8 20.515C364.2 24.815 367.4 29.215 371.6 32.915C374.1 35.115 376.8 37.315 380 38.415C382.5 39.315 385 39.915 387.7 39.815C392 39.515 395.8 37.915 399 35.215C401.1 33.415 403.2 31.715 405.1 29.715C406.9 27.815 408.5 25.615 410.2 23.515C413.2 19.815 416.4 16.115 419.3 12.415C421.1 10.115 423.3 8.21501 425.6 6.41501C427.6 4.81501 429.9 3.41501 432.2 2.41501C435.1 1.11501 438.2 0.315012 441.4 0.215012" fill="#D5D1ED"/>
</g>
</g>
<g opacity="0.3" clip-path="url(#clip6_7758_462763)">
<mask id="mask41_7758_462763" style="mask-type:luminance" maskUnits="userSpaceOnUse" x="0" y="0" width="446" height="45">
<path d="M445.7 0.214844H0V44.6148H445.7V0.214844Z" fill="white"/>
</mask>
<g mask="url(#mask41_7758_462763)">
<path d="M331.601 44.5136C327.601 44.9136 324.001 44.0136 320.701 42.3136C318.101 41.0136 315.701 39.4136 313.501 37.5136C310.501 34.8136 307.801 31.7136 305.201 28.6136C304.501 27.8136 304.501 27.0136 305.301 26.2136C305.801 25.7136 306.301 25.1136 306.701 24.5136C307.301 23.7136 307.601 23.7136 308.301 24.4136C310.001 26.4136 311.601 28.4136 313.401 30.3136C315.601 32.7136 318.001 34.9136 320.801 36.6136C322.301 37.6136 324.101 38.2136 325.801 38.8136C327.001 39.2136 328.401 39.5136 329.701 39.7136C333.001 40.1136 336.101 39.4136 339.201 38.2136C342.301 37.0136 344.601 34.8136 347.101 32.7136C350.001 30.3136 352.101 27.3136 354.401 24.4136C355.001 23.7136 355.301 23.6136 355.901 24.3136C356.601 25.1136 357.301 26.0136 357.901 26.9136C358.101 27.2136 358.101 27.9136 357.901 28.2136C355.801 30.7136 353.601 33.2136 351.401 35.5136C349.001 37.9136 346.401 40.1136 343.401 41.7136C339.401 43.5136 335.601 45.0136 331.601 44.5136Z" fill="#D5D1ED"/>
</g>
<mask id="mask42_7758_462763" style="mask-type:luminance" maskUnits="userSpaceOnUse" x="0" y="0" width="446" height="45">
<path d="M445.7 0.214844H0V44.6148H445.7V0.214844Z" fill="white"/>
</mask>
<g mask="url(#mask42_7758_462763)">
<path d="M341.2 11.3142V33.0142C341.2 33.6142 341.2 34.3142 341.1 34.9142C341 35.6142 339.9 36.5142 339.2 36.3142C338.9 36.2142 338.6 35.7142 338.6 35.4142C338.6 31.8142 338.7 28.3142 338.8 24.7142C338.8 21.0142 338.9 17.4142 338.8 13.7142C338.8 12.3142 338.7 10.9142 338.6 9.61424C338.5 8.61424 338.8 8.41424 339.7 8.81424C341.1 9.31424 341.1 10.4142 341.2 11.3142Z" fill="#D5D1ED"/>
</g>
<mask id="mask43_7758_462763" style="mask-type:luminance" maskUnits="userSpaceOnUse" x="0" y="0" width="446" height="45">
<path d="M445.7 0.214844H0V44.6148H445.7V0.214844Z" fill="white"/>
</mask>
<g mask="url(#mask43_7758_462763)">
<path d="M332 22.6164V37.1164C332 38.0164 331.6 38.6164 330.9 38.6164C330.2 38.6164 329.9 38.2164 329.9 37.2164C329.9 29.3164 330 21.3164 330 13.4164C330 11.6164 330 9.81641 329.9 8.01641C329.9 7.11641 330.2 6.41641 330.9 6.31641C331.6 6.31641 332.1 6.91641 332.1 7.91641C332 12.9164 332 17.7164 332 22.6164Z" fill="#D5D1ED"/>
</g>
<mask id="mask44_7758_462763" style="mask-type:luminance" maskUnits="userSpaceOnUse" x="0" y="0" width="446" height="45">
<path d="M445.7 0.214844H0V44.6148H445.7V0.214844Z" fill="white"/>
</mask>
<g mask="url(#mask44_7758_462763)">
<path d="M320.899 34.0147V13.3147C320.899 12.5147 320.899 11.7147 320.799 10.9147C320.799 10.2147 321.399 9.11473 322.099 8.81473C322.699 8.61473 323.099 8.91473 323.099 9.61473C323.099 12.1147 322.999 14.6147 322.999 17.1147V33.5147C322.999 34.0147 323.099 34.6147 323.099 35.1147C323.099 35.4147 322.899 35.9147 322.699 36.0147C322.399 36.1147 321.899 36.0147 321.699 35.8147C321.299 35.3147 320.999 34.7147 320.699 34.1147C320.699 34.0147 320.799 34.0147 320.899 34.0147Z" fill="#D5D1ED"/>
</g>
<mask id="mask45_7758_462763" style="mask-type:luminance" maskUnits="userSpaceOnUse" x="0" y="0" width="446" height="45">
<path d="M445.7 0.214844H0V44.6148H445.7V0.214844Z" fill="white"/>
</mask>
<g mask="url(#mask45_7758_462763)">
<path d="M314 21.0163C314.1 23.2163 314.2 25.5163 314.3 27.7163C314.3 28.0163 314.1 28.3163 314 28.6163C313.7 28.5163 313.4 28.4163 313.2 28.3163C312.3 27.5163 311.7 26.5163 311.8 25.1163C311.9 23.3163 311.9 21.5163 311.8 19.7163C311.7 18.3163 312.4 17.4163 313.3 16.5163C313.4 16.4163 313.8 16.2163 313.9 16.3163C314.1 16.4163 314.2 16.7163 314.2 16.9163V21.0163H314Z" fill="#D5D1ED"/>
</g>
<mask id="mask46_7758_462763" style="mask-type:luminance" maskUnits="userSpaceOnUse" x="0" y="0" width="446" height="45">
<path d="M445.7 0.214844H0V44.6148H445.7V0.214844Z" fill="white"/>
</mask>
<g mask="url(#mask46_7758_462763)">
<path d="M350.099 18.9141V26.2141C350.099 27.3141 349.599 28.1141 348.899 28.8141C348.699 29.0141 348.199 29.1141 347.999 29.0141C347.799 28.9141 347.699 28.4141 347.699 28.2141C348.299 25.6141 347.999 22.9141 347.999 20.3141C347.999 19.1141 347.899 17.9141 347.799 16.7141C347.799 16.5141 347.899 16.2141 348.099 16.0141C348.199 15.9141 348.599 16.0141 348.699 16.1141C349.499 16.9141 350.199 17.7141 350.099 18.9141Z" fill="#D5D1ED"/>
</g>
<mask id="mask47_7758_462763" style="mask-type:luminance" maskUnits="userSpaceOnUse" x="0" y="0" width="446" height="45">
<path d="M445.7 0.214844H0V44.6148H445.7V0.214844Z" fill="white"/>
</mask>
<g mask="url(#mask47_7758_462763)">
<path d="M445.7 5.91501C445 5.91501 444.2 5.61501 443.5 5.41501C442.2 5.11501 440.9 5.11501 439.6 5.41501C438.4 5.71501 437.1 5.71501 436 6.11501C434.4 6.71501 432.8 7.31501 431.4 8.21501C426.9 11.015 423.2 14.715 420 18.915C418.1 21.415 416.1 23.715 414.1 26.115C411.3 29.415 408.6 32.715 405.7 35.815C402.4 39.315 398.4 42.015 393.8 43.515C391.6 44.215 389.3 44.515 387 44.515C383.1 44.615 379.4 43.915 375.9 42.115C371.2 39.715 367.4 36.415 364 32.515C360.4 28.315 357.1 24.015 353.6 19.815C350.4 15.915 347 12.215 342.9 9.21501C340.7 7.61501 338.3 6.31501 335.5 5.91501C335 5.81501 334.5 5.71501 334 5.51501C332.1 5.01501 330.2 4.91501 328.4 5.71501C328.3 5.81501 328.1 5.81501 328 5.81501C324.3 6.11501 321.2 7.91501 318.4 10.115C316.6 11.615 314.8 13.115 313.2 14.715C311.6 16.315 310.3 18.215 308.8 19.915C306.6 22.615 304.5 25.315 302.3 27.915C300.6 30.015 299 32.115 297.1 34.115C294.3 37.115 291.2 39.715 287.6 41.715C285.5 42.815 283.3 43.615 281.1 44.215C280.3 44.415 279.5 44.415 278.6 44.415C276.5 44.415 274.4 44.515 272.3 44.315C270.8 44.115 269.2 43.615 267.7 43.115C264.5 42.015 261.7 40.015 259.1 37.915C257.4 36.515 255.8 35.015 254.4 33.315C249.9 28.015 245.6 22.515 241.1 17.215C238.9 14.715 236.5 12.315 233.9 10.115C231.9 8.31501 229.5 7.01501 227 6.11501C226.6 5.91501 226.1 5.91501 225.7 5.81501C224.1 5.51501 222.5 5.21501 220.8 5.01501C220.5 5.01501 220.2 4.91501 220 5.01501C217.4 5.81501 214.6 5.91501 212.1 7.21501C208.2 9.31501 205 12.115 202.1 15.415C199.1 18.915 196.3 22.515 193.4 26.015C190.4 29.715 187.4 33.415 183.9 36.715C180.9 39.615 177.5 41.915 173.5 43.315C171.3 44.115 169 44.515 166.7 44.415C165.1 44.315 163.4 44.515 161.8 44.215C159 43.815 156.4 42.815 153.9 41.415C149.4 38.815 145.7 35.315 142.4 31.315C138 26.115 133.7 20.715 129.3 15.515C126.4 12.115 123.1 9.21501 119.1 7.11501C117.7 6.41501 116.2 5.71501 114.5 5.71501C114.1 5.71501 113.6 5.61501 113.2 5.41501C111.5 4.71501 109.8 4.81501 108.1 5.31501C107.7 5.41501 107.2 5.61501 106.8 5.61501C104.3 5.51501 102.3 6.71501 100.3 7.91501C98.2 9.21501 96.1 10.815 94.4 12.615C91.6 15.515 89 18.615 86.4 21.715C84.4 24.015 82.7 26.615 80.7 28.915C78.3 31.715 75.9 34.615 73.1 37.115C71.1 38.915 68.6 40.215 66.3 41.715C64.4 43.015 62.2 43.515 60.1 44.115C58.9 44.415 57.6 44.415 56.3 44.415C54.4 44.415 52.6 44.415 50.7 44.215C49.6 44.115 48.6 43.715 47.6 43.415C44.5 42.215 41.6 40.515 39 38.415C35.4 35.515 32.3 32.115 29.4 28.415C26.7 24.915 23.8 21.515 21 18.115C19.6 16.415 18.3 14.715 16.7 13.315C13.9 10.615 10.9 8.11501 7.2 6.61501C5.5 5.91501 3.3 5.51501 1.2 5.31501C0.4 5.31501 0 4.91501 0 4.11501C0 3.11501 0 2.11501 0.1 1.11501C0.1 0.415012 0.6 0.115012 1.5 0.215012C3 0.515012 4.5 0.715012 5.9 1.01501C9.9 1.91501 13.3 3.81501 16.5 6.31501C19.6 8.71501 22.3 11.515 24.8 14.615C28.1 18.615 31.4 22.515 34.6 26.615C37.2 29.915 40.2 32.715 43.4 35.315C46.7 38.015 50.5 39.515 54.7 39.815C57.6 40.015 60.4 39.415 63 38.215C68.5 35.715 72.5 31.615 76.2 27.015C78.8 23.815 81.3 20.515 84 17.415C86.2 14.815 88.4 12.115 90.8 9.61501C93 7.41501 95.4 5.31501 98.3 3.91501C99.9 3.11501 101.5 2.21501 103.2 1.71501C106.8 0.615012 110.4 -0.0849883 114.3 0.615012C119 1.51501 123.2 3.51501 127 6.31501C130.3 8.91501 133.3 11.915 135.8 15.315C137.2 17.215 138.8 19.115 140.3 20.915C142.4 23.515 144.5 26.115 146.6 28.615C148.9 31.315 151.4 33.815 154.4 35.815C156.7 37.415 159.1 38.515 161.8 39.215C165.1 40.015 168.4 39.915 171.6 38.815C175.4 37.615 178.4 35.315 181.3 32.615C184.6 29.615 187.2 26.015 190 22.615C193.1 18.915 196.1 15.015 199.3 11.415C200.8 9.71501 202.4 8.11501 204.2 6.71501C206.7 4.71501 209.4 3.21501 212.4 2.01501C215 0.915012 217.8 0.415012 220.6 0.215012C221.6 0.115012 222.7 0.215012 223.8 0.415012C229.7 1.31501 234.8 3.81501 239.1 7.91501C241.6 10.315 244 12.815 246.3 15.415C248.6 18.015 250.6 20.715 252.7 23.415C256.1 27.815 259.7 32.015 264.2 35.415C268.6 38.715 273.4 40.315 278.9 39.615C281.9 39.215 284.8 38.215 287.2 36.315C289.7 34.315 292.3 32.215 294.6 29.815C296.8 27.515 298.7 24.815 300.8 22.315C302.6 20.115 304.3 17.915 306.1 15.815C308.2 13.415 310.2 11.015 312.5 8.81501C315.3 6.11501 318.4 3.81501 322 2.31501C326 0.715012 330.2 -0.284988 334.5 0.515012C336.3 0.815012 338.1 1.41501 339.9 2.01501C344.3 3.41501 347.8 6.21501 351.1 9.31501C354.7 12.815 357.7 16.715 360.8 20.515C364.2 24.815 367.4 29.215 371.6 32.915C374.1 35.115 376.8 37.315 380 38.415C382.5 39.315 385 39.915 387.7 39.815C392 39.515 395.8 37.915 399 35.215C401.1 33.415 403.2 31.715 405.1 29.715C406.9 27.815 408.5 25.615 410.2 23.515C413.2 19.815 416.4 16.115 419.3 12.415C421.1 10.115 423.3 8.21501 425.6 6.41501C427.6 4.81501 429.9 3.41501 432.2 2.41501C435.1 1.11501 438.2 0.315012 441.4 0.215012" fill="#D5D1ED"/>
</g>
</g>
<g opacity="0.3" clip-path="url(#clip7_7758_462763)">
<mask id="mask48_7758_462763" style="mask-type:luminance" maskUnits="userSpaceOnUse" x="-4" y="0" width="446" height="45">
<path d="M-3.70001 0.214844H442V44.6148H-3.70001V0.214844Z" fill="white"/>
</mask>
<g mask="url(#mask48_7758_462763)">
<path d="M385.901 0.214844C383.601 0.514844 381.001 0.914844 378.401 1.81484C371.501 4.31484 366.601 9.41484 362.001 14.8148C361.501 15.4148 361.001 16.0148 360.501 16.5148C360.001 17.0148 360.001 17.6148 360.401 18.2148C361.001 19.0148 361.701 19.9148 362.401 20.7148C362.801 21.2148 363.401 21.2148 363.801 20.6148C366.301 17.3148 369.001 14.3148 372.001 11.5148C373.401 10.2148 374.901 8.91484 376.601 7.91484C378.301 6.91484 380.201 6.31484 382.201 5.81484C385.101 5.11484 387.801 5.21484 390.701 5.81484C392.901 6.31484 394.801 7.11484 396.601 8.21484C401.701 11.4148 405.801 15.8148 409.301 20.7148C409.701 21.2148 410.001 21.3148 410.401 20.9148C411.301 19.9148 412.101 19.0148 412.901 17.9148C413.101 17.7148 413.001 17.0148 412.801 16.8148C409.501 13.1148 406.401 9.31484 402.501 6.31484C400.501 4.81484 398.401 3.41484 396.201 2.41484C393.001 1.11484 389.701 0.314844 385.901 0.214844Z" fill="#D5D1ED"/>
</g>
<mask id="mask49_7758_462763" style="mask-type:luminance" maskUnits="userSpaceOnUse" x="-4" y="0" width="446" height="45">
<path d="M-3.70001 0.214844H442V44.6148H-3.70001V0.214844Z" fill="white"/>
</mask>
<g mask="url(#mask49_7758_462763)">
<path d="M439.5 44.5156H441.1C441.7 44.5156 442 44.1156 442 43.4156C441.9 42.5156 441.9 41.7156 442 40.8156C442 39.9156 441.8 39.6156 440.9 39.7156C438.8 39.9156 436.9 39.2156 435 38.5156C431.3 37.1156 428.2 34.8156 425.5 31.9156C423.1 29.4156 420.8 26.7156 418.5 24.2156C418 23.6156 417.6 23.6156 417.1 24.3156C416.6 25.0156 416.1 25.7156 415.5 26.3156C414.9 27.0156 414.9 27.6156 415.4 28.4156C418.4 32.0156 421.4 35.6156 425.1 38.5156C429.4 41.9156 434 44.3156 439.5 44.5156Z" fill="#D5D1ED"/>
</g>
<mask id="mask50_7758_462763" style="mask-type:luminance" maskUnits="userSpaceOnUse" x="-4" y="0" width="446" height="45">
<path d="M-3.70001 0.214844H442V44.6148H-3.70001V0.214844Z" fill="white"/>
</mask>
<g mask="url(#mask50_7758_462763)">
<path d="M385.4 22.6156V37.2156C385.4 38.1156 385.7 38.5156 386.6 38.5156C387.5 38.5156 387.9 38.1156 387.9 37.2156C387.9 28.0156 387.8 18.9156 387.8 9.71562V7.91562C387.8 7.01562 387.4 6.51562 386.6 6.51562C385.8 6.51562 385.4 7.01562 385.4 7.91562V22.6156Z" fill="#D5D1ED"/>
</g>
<mask id="mask51_7758_462763" style="mask-type:luminance" maskUnits="userSpaceOnUse" x="-4" y="0" width="446" height="45">
<path d="M-3.70001 0.214844H442V44.6148H-3.70001V0.214844Z" fill="white"/>
</mask>
<g mask="url(#mask51_7758_462763)">
<path d="M396.7 34.1166V10.9166C396.7 9.81661 396.2 9.21661 395.4 9.11661C394.8 9.01661 394.4 9.31661 394.4 9.91661C394.4 17.1166 394.5 24.4166 394.5 31.6166C394.5 32.7166 394.4 33.9166 394.3 35.0166C394.3 35.3166 394.4 35.8166 394.6 35.9166C394.8 36.0166 395.3 35.9166 395.6 35.7166C396.4 35.5166 396.8 34.9166 396.7 34.1166Z" fill="#D5D1ED"/>
</g>
<mask id="mask52_7758_462763" style="mask-type:luminance" maskUnits="userSpaceOnUse" x="-4" y="0" width="446" height="45">
<path d="M-3.70001 0.214844H442V44.6148H-3.70001V0.214844Z" fill="white"/>
</mask>
<g mask="url(#mask52_7758_462763)">
<path d="M376.501 22.7151V34.5151C376.501 35.4151 377.101 36.1151 378.001 36.1151C378.601 36.1151 378.701 35.7151 378.701 35.3151C378.601 31.0151 378.601 26.8151 378.601 22.5151V11.4151C378.601 11.0151 378.801 10.5151 378.701 10.1151C378.601 9.61514 378.501 9.11514 378.201 8.81514C377.901 8.51514 376.901 9.31514 376.801 9.91514C376.701 10.5151 376.701 11.1151 376.701 11.7151C376.501 15.3151 376.501 19.0151 376.501 22.7151Z" fill="#D5D1ED"/>
</g>
<mask id="mask53_7758_462763" style="mask-type:luminance" maskUnits="userSpaceOnUse" x="-4" y="0" width="446" height="45">
<path d="M-3.70001 0.214844H442V44.6148H-3.70001V0.214844Z" fill="white"/>
</mask>
<g mask="url(#mask53_7758_462763)">
<path d="M431.4 22.7149V34.4149C431.4 35.2149 431.7 35.7149 432.4 36.1149C433.1 36.4149 433.5 36.2149 433.5 35.4149C433.4 30.7149 433.4 26.0149 433.3 21.3149V11.8149C433.3 11.2149 433.5 10.5149 433.5 9.9149C433.5 9.6149 433.4 9.1149 433.2 9.0149C433 8.9149 432.5 8.9149 432.3 9.1149C431.6 9.5149 431.3 10.2149 431.3 10.9149C431.4 14.8149 431.4 18.7149 431.4 22.7149Z" fill="#D5D1ED"/>
</g>
<mask id="mask54_7758_462763" style="mask-type:luminance" maskUnits="userSpaceOnUse" x="-4" y="0" width="446" height="45">
<path d="M-3.70001 0.214844H442V44.6148H-3.70001V0.214844Z" fill="white"/>
</mask>
<g mask="url(#mask54_7758_462763)">
<path d="M424.801 27.8156C424.401 24.1156 424.401 20.5156 424.601 16.8156C424.601 16.6156 424.401 16.3156 424.301 16.0156C424.101 16.1156 423.801 16.2156 423.701 16.4156C422.601 17.5156 422.001 18.7156 422.201 20.3156C422.401 21.8156 422.301 23.4156 422.101 24.9156C422.001 26.3156 422.501 27.3156 423.401 28.2156C423.601 28.4156 424.101 28.7156 424.201 28.6156C424.601 28.5156 424.701 28.1156 424.801 27.8156Z" fill="#D5D1ED"/>
</g>
<mask id="mask55_7758_462763" style="mask-type:luminance" maskUnits="userSpaceOnUse" x="-4" y="0" width="446" height="45">
<path d="M-3.70001 0.214844H442V44.6148H-3.70001V0.214844Z" fill="white"/>
</mask>
<g mask="url(#mask55_7758_462763)">
<path d="M369.699 21.6141V16.8141C369.699 16.5141 369.499 16.2141 369.399 15.9141C369.099 16.1141 368.799 16.2141 368.599 16.4141C367.499 17.5141 367.399 19.0141 367.399 20.4141V25.7141C367.399 26.8141 367.799 27.7141 368.499 28.4141C368.699 28.6141 369.099 28.7141 369.399 28.8141C369.499 28.5141 369.699 28.2141 369.699 27.8141C369.599 25.7141 369.499 23.6141 369.499 21.5141C369.599 21.6141 369.699 21.6141 369.699 21.6141Z" fill="#D5D1ED"/>
</g>
<mask id="mask56_7758_462763" style="mask-type:luminance" maskUnits="userSpaceOnUse" x="-4" y="0" width="446" height="45">
<path d="M-3.70001 0.214844H442V44.6148H-3.70001V0.214844Z" fill="white"/>
</mask>
<g mask="url(#mask56_7758_462763)">
<path d="M405.699 23.0164V19.4164C405.699 18.2164 404.999 17.4164 404.399 16.5164C404.299 16.4164 403.899 16.3164 403.899 16.4164C403.699 16.6164 403.599 16.8164 403.599 17.1164V20.1164C403.599 22.7164 403.499 25.4164 403.499 28.0164C403.499 28.3164 403.699 28.5164 403.799 28.8164C404.099 28.7164 404.399 28.7164 404.499 28.5164C404.899 27.7164 405.399 26.9164 405.599 26.0164C405.799 24.9164 405.599 23.9164 405.699 23.0164Z" fill="#D5D1ED"/>
</g>
<mask id="mask57_7758_462763" style="mask-type:luminance" maskUnits="userSpaceOnUse" x="-4" y="0" width="446" height="45">
<path d="M-3.70001 0.214844H442V44.6148H-3.70001V0.214844Z" fill="white"/>
</mask>
<g mask="url(#mask57_7758_462763)">
<path d="M-3.70001 5.91501C-3 5.91501 -2.20001 5.61501 -1.5 5.41501C-0.200012 5.11501 1.10001 5.11501 2.39999 5.41501C3.60001 5.71501 4.89999 5.71501 6 6.11501C7.60001 6.71501 9.20001 7.31501 10.6 8.21501C15.1 11.015 18.8 14.715 22 18.915C23.9 21.415 25.9 23.715 27.9 26.115C30.7 29.415 33.4 32.715 36.3 35.815C39.6 39.315 43.6 42.015 48.2 43.515C50.4 44.215 52.7 44.515 55 44.515C58.9 44.615 62.6 43.915 66.1 42.115C70.8 39.715 74.6 36.415 78 32.515C81.6 28.315 84.9 24.015 88.4 19.815C91.6 15.915 95 12.215 99.1 9.21501C101.3 7.61501 103.7 6.31501 106.5 5.91501C107 5.81501 107.5 5.71501 108 5.51501C109.9 5.01501 111.8 4.91501 113.6 5.71501C113.7 5.81501 113.9 5.81501 114 5.81501C117.7 6.11501 120.8 7.91501 123.6 10.115C125.4 11.615 127.2 13.115 128.8 14.715C130.4 16.315 131.7 18.215 133.2 19.915C135.4 22.615 137.5 25.315 139.7 27.915C141.4 30.015 143 32.115 144.9 34.115C147.7 37.115 150.8 39.715 154.4 41.715C156.5 42.815 158.7 43.615 160.9 44.215C161.7 44.415 162.5 44.415 163.4 44.415C165.5 44.415 167.6 44.515 169.7 44.315C171.2 44.115 172.8 43.615 174.3 43.115C177.5 42.015 180.3 40.015 182.9 37.915C184.6 36.515 186.2 35.015 187.6 33.315C192.1 28.015 196.4 22.515 200.9 17.215C203.1 14.715 205.5 12.315 208.1 10.115C210.1 8.31501 212.5 7.01501 215 6.11501C215.4 5.91501 215.9 5.91501 216.3 5.81501C217.9 5.51501 219.5 5.21501 221.2 5.01501C221.5 5.01501 221.8 4.91501 222 5.01501C224.6 5.81501 227.4 5.91501 229.9 7.21501C233.8 9.31501 237 12.115 239.9 15.415C242.9 18.915 245.7 22.515 248.6 26.015C251.6 29.715 254.6 33.415 258.1 36.715C261.1 39.615 264.5 41.915 268.5 43.315C270.7 44.115 273 44.515 275.3 44.415C276.9 44.315 278.6 44.515 280.2 44.215C283 43.815 285.6 42.815 288.1 41.415C292.6 38.815 296.3 35.315 299.6 31.315C304 26.115 308.3 20.715 312.7 15.515C315.6 12.115 318.9 9.21501 322.9 7.11501C324.3 6.41501 325.8 5.71501 327.5 5.71501C327.9 5.71501 328.4 5.61501 328.8 5.41501C330.5 4.71501 332.2 4.81501 333.9 5.31501C334.3 5.41501 334.8 5.61501 335.2 5.61501C337.7 5.51501 339.7 6.71501 341.7 7.91501C343.8 9.21501 345.9 10.815 347.6 12.615C350.4 15.515 353 18.615 355.6 21.715C357.6 24.015 359.3 26.615 361.3 28.915C363.7 31.715 366.1 34.615 368.9 37.115C370.9 38.915 373.4 40.215 375.7 41.715C377.6 43.015 379.8 43.515 381.9 44.115C383.1 44.415 384.4 44.415 385.7 44.415C387.6 44.415 389.4 44.415 391.3 44.215C392.4 44.115 393.4 43.715 394.4 43.415C397.5 42.215 400.4 40.515 403 38.415C406.6 35.515 409.7 32.115 412.6 28.415C415.3 24.915 418.2 21.515 421 18.115C422.4 16.415 423.7 14.715 425.3 13.315C428.1 10.615 431.1 8.11501 434.8 6.61501C436.5 5.91501 438.7 5.51501 440.8 5.31501C441.6 5.31501 442 4.91501 442 4.11501C442 3.11501 442 2.11501 441.9 1.11501C441.9 0.415012 441.4 0.115012 440.5 0.215012C439 0.515012 437.5 0.715012 436.1 1.01501C432.1 1.91501 428.7 3.81501 425.5 6.31501C422.4 8.71501 419.7 11.515 417.2 14.615C413.9 18.615 410.6 22.515 407.4 26.615C404.8 29.915 401.8 32.715 398.6 35.315C395.3 38.015 391.5 39.515 387.3 39.815C384.4 40.015 381.6 39.415 379 38.215C373.5 35.715 369.5 31.615 365.8 27.015C363.2 23.815 360.7 20.515 358 17.415C355.8 14.815 353.6 12.115 351.2 9.61501C349 7.41501 346.6 5.31501 343.7 3.91501C342.1 3.11501 340.5 2.21501 338.8 1.71501C335.2 0.615012 331.6 -0.0849883 327.7 0.615012C323 1.51501 318.8 3.51501 315 6.31501C311.7 8.91501 308.7 11.915 306.2 15.315C304.8 17.215 303.2 19.115 301.7 20.915C299.6 23.515 297.5 26.115 295.4 28.615C293.1 31.315 290.6 33.815 287.6 35.815C285.3 37.415 282.9 38.515 280.2 39.215C276.9 40.015 273.6 39.915 270.4 38.815C266.6 37.615 263.6 35.315 260.7 32.615C257.4 29.615 254.8 26.015 252 22.615C248.9 18.915 245.9 15.015 242.7 11.415C241.2 9.71501 239.6 8.11501 237.8 6.71501C235.3 4.71501 232.6 3.21501 229.6 2.01501C227 0.915012 224.2 0.415012 221.4 0.215012C220.4 0.115012 219.3 0.215012 218.2 0.415012C212.3 1.31501 207.2 3.81501 202.9 7.91501C200.4 10.315 198 12.815 195.7 15.415C193.4 18.015 191.4 20.715 189.3 23.415C185.9 27.815 182.3 32.015 177.8 35.415C173.4 38.715 168.6 40.315 163.1 39.615C160.1 39.215 157.2 38.215 154.8 36.315C152.3 34.315 149.7 32.215 147.4 29.815C145.2 27.515 143.3 24.815 141.2 22.315C139.4 20.115 137.7 17.915 135.9 15.815C133.8 13.415 131.8 11.015 129.5 8.81501C126.7 6.11501 123.6 3.81501 120 2.31501C116 0.715012 111.8 -0.284988 107.5 0.515012C105.7 0.815012 103.9 1.41501 102.1 2.01501C97.7 3.41501 94.2 6.21501 90.9 9.31501C87.3 12.815 84.3 16.715 81.2 20.515C77.8 24.815 74.6 29.215 70.4 32.915C67.9 35.115 65.2 37.315 62 38.415C59.5 39.315 57 39.915 54.3 39.815C50 39.515 46.2 37.915 43 35.215C40.9 33.415 38.8 31.715 36.9 29.715C35.1 27.815 33.5 25.615 31.8 23.515C28.8 19.815 25.6 16.115 22.7 12.415C20.9 10.115 18.7 8.21501 16.4 6.41501C14.4 4.81501 12.1 3.41501 9.79999 2.41501C6.89999 1.11501 3.80002 0.315012 0.600006 0.215012" fill="#D5D1ED"/>
</g>
</g>
</g>
<defs>
<filter id="filter0_d_7758_462763" x="134" y="0.175781" width="64" height="52" filterUnits="userSpaceOnUse" color-interpolation-filters="sRGB">
<feFlood flood-opacity="0" result="BackgroundImageFix"/>
<feColorMatrix in="SourceAlpha" type="matrix" values="0 0 0 0 0 0 0 0 0 0 0 0 0 0 0 0 0 0 127 0" result="hardAlpha"/>
<feOffset dy="4"/>
<feGaussianBlur stdDeviation="2"/>
<feComposite in2="hardAlpha" operator="out"/>
<feColorMatrix type="matrix" values="0 0 0 0 0 0 0 0 0 0 0 0 0 0 0 0 0 0 0.25 0"/>
<feBlend mode="normal" in2="BackgroundImageFix" result="effect1_dropShadow_7758_462763"/>
<feBlend mode="normal" in="SourceGraphic" in2="effect1_dropShadow_7758_462763" result="shape"/>
</filter>
<clipPath id="clip0_7758_462763">
<rect width="442" height="44" fill="white" transform="translate(0 0.175781)"/>
</clipPath>
<clipPath id="clip1_7758_462763">
<rect width="82" height="44" fill="white" transform="translate(0 0.175781)"/>
</clipPath>
<clipPath id="clip2_7758_462763">
<rect width="56" height="44" fill="white" transform="matrix(-1 0 0 1 138 0.175781)"/>
</clipPath>
<clipPath id="clip3_7758_462763">
<rect width="56" height="44" fill="white" transform="translate(138 0.175781)"/>
</clipPath>
<clipPath id="clip4_7758_462763">
<rect width="56" height="44" fill="white" transform="matrix(-1 0 0 1 250 0.175781)"/>
</clipPath>
<clipPath id="clip5_7758_462763">
<rect width="55" height="44" fill="white" transform="translate(250 0.175781)"/>
</clipPath>
<clipPath id="clip6_7758_462763">
<rect width="55" height="44" fill="white" transform="matrix(-1 0 0 1 360 0.175781)"/>
</clipPath>
<clipPath id="clip7_7758_462763">
<rect width="82" height="44" fill="white" transform="matrix(-1 0 0 1 442 0.175781)"/>
</clipPath>
</defs>
</svg>
