<svg width="31" height="30" viewBox="0 0 31 30" fill="none" xmlns="http://www.w3.org/2000/svg">
<g clip-path="url(#clip0_7878_136298)">
<path d="M11.0337 15.1122C11.0337 17.4455 13.0222 19.3622 15.4429 19.3622C17.8637 19.3622 19.8521 17.3622 19.8521 15.1122C19.8521 12.8622 17.8637 10.9455 15.5294 10.8622C13.1086 10.8622 11.0337 12.7789 11.0337 15.1122ZM14.9242 7.86221C14.5784 6.86221 14.2325 5.77888 13.9732 4.69555C13.8003 3.86222 13.5409 2.94555 13.6273 2.02888C13.8003 0.195548 15.3565 -0.554452 16.9991 0.445548C18.8147 1.61221 19.6792 3.27888 19.6792 5.36222C19.6792 6.36222 19.5063 7.36221 19.5928 8.44555C19.8521 7.86221 20.1115 7.27888 20.3709 6.61222C20.5438 6.19555 20.6302 5.77888 20.8031 5.36222C21.3219 4.02888 22.3593 3.44555 23.4833 3.52888C24.6072 3.61221 25.6446 4.69555 25.8175 5.94555C26.0769 7.61221 25.7311 8.94555 24.6072 10.1122C24.002 10.7789 23.3968 11.4455 22.8781 12.1955C23.6562 11.6955 24.3478 11.1122 25.1259 10.7789C26.1634 10.3622 27.2873 9.86222 28.3247 9.77888C29.8809 9.69555 30.7455 11.0289 30.1403 12.4455C29.3622 14.3622 27.806 15.5289 25.7311 16.1122C24.953 16.2789 24.2614 16.4455 23.4833 16.8622C24.4343 16.8622 25.2988 16.7789 26.2498 16.8622C27.2008 16.9455 28.1518 16.9455 28.9299 17.1955C30.2268 17.6122 30.4861 18.6122 29.9674 19.8622C29.1028 21.7789 26.1634 22.9455 24.002 22.2789C22.9645 21.9455 21.9271 21.4455 20.7167 21.2789C21.2354 21.6955 21.8406 22.1122 22.3593 22.5289C22.8781 22.9455 23.3968 23.4455 23.8291 24.0289C24.3478 24.8622 24.3478 25.7789 23.7426 26.5289C23.1374 27.3622 22.2729 27.6955 21.2354 27.5289C19.5928 27.2789 18.4688 26.3622 17.6043 25.1122C17.172 24.3622 16.7397 23.6122 16.0481 22.9455C16.4804 24.1955 16.9126 25.3622 17.172 26.6122C17.5178 28.1122 17.0856 29.4455 16.221 29.8622C15.27 30.3622 13.8867 29.9455 12.7628 28.7789C11.7253 27.6122 11.1201 26.3622 11.2066 24.7789C11.2066 23.9455 11.2066 23.1955 11.0337 22.2789C10.8608 22.7789 10.6879 23.1955 10.515 23.6955C10.4285 24.0289 10.342 24.3622 10.2556 24.6122C9.6504 26.1122 8.69939 26.8622 7.40256 26.6955C6.19219 26.5289 5.15472 25.2789 4.98181 23.7789C4.89536 22.4455 5.24118 21.1955 6.19219 20.1955C6.71092 19.6122 7.3161 19.0289 7.66193 18.2789C7.14319 18.6122 6.53801 18.9455 6.01928 19.3622C4.98181 20.1122 3.85789 20.6955 2.47461 20.6122C0.831955 20.5289 0.0538573 19.3622 0.572589 17.9455C1.5236 15.9455 3.16625 14.7789 5.24118 14.2789C5.93282 14.1122 6.71092 13.9455 7.40256 13.5289C6.45155 13.5289 5.587 13.6122 4.63599 13.6122C3.85789 13.6122 2.99334 13.6955 2.21524 13.4455C0.399679 13.0289 -0.119053 11.6122 0.918411 10.1122C2.21524 8.27888 5.15472 7.52888 7.31611 8.36221C8.0942 8.69555 8.95876 9.02888 9.90977 9.19555C9.30458 8.61221 8.52648 8.11221 7.83484 7.61221C6.88383 6.86221 6.19219 5.94555 6.45155 4.69555C6.88383 3.02888 8.69939 2.36221 10.515 3.19555C12.3305 3.94555 13.1086 5.44555 13.9732 6.94555C14.2325 7.27888 14.4054 7.61221 14.6648 8.02888C14.7513 7.94555 14.8377 7.94555 14.9242 7.86221Z" fill="#FCEE22"/>
<path d="M11.0337 15.1122C11.0337 17.4455 13.0222 19.3622 15.4429 19.3622C17.8637 19.3622 19.8521 17.3622 19.8521 15.1122C19.8521 12.8622 17.8637 10.9455 15.5294 10.8622C13.1086 10.8622 11.0337 12.7789 11.0337 15.1122Z" fill="#FCEE22"/>
<path d="M19 15C19 12.7846 17.2154 11 15 11C12.7846 11 11 12.7846 11 15C11 17.2154 12.7846 19 15 19C17.2154 19 19 17.2154 19 15Z" fill="#AD5DA4"/>
</g>
<defs>
<clipPath id="clip0_7878_136298">
<rect width="30" height="30" fill="white" transform="translate(0.389648)"/>
</clipPath>
</defs>
</svg>
