<svg width="56" height="45" viewBox="0 0 56 45" fill="none" xmlns="http://www.w3.org/2000/svg">
<g opacity="0.3" clip-path="url(#clip0_8048_40586)">
<mask id="mask0_8048_40586" style="mask-type:luminance" maskUnits="userSpaceOnUse" x="-194" y="0" width="446" height="45">
<path d="M251.7 0.214844H-194V44.6148H251.7V0.214844Z" fill="white"/>
</mask>
<g mask="url(#mask0_8048_40586)">
<path d="M81.9006 5.11386C81.1006 5.31386 80.5006 5.41386 79.8006 5.61386C77.2006 6.01386 74.7006 6.71386 72.5006 8.11386C70.3006 9.51386 68.3006 11.1139 66.5006 12.9139C64.0006 15.4139 61.7006 18.1139 59.4006 20.7139C58.8006 21.4139 58.3006 21.4139 57.8006 20.6139C57.3006 19.9139 56.7006 19.2139 56.2006 18.5139C55.6006 17.6139 55.7006 17.3139 56.4006 16.5139C57.9006 14.9139 59.3006 13.1139 60.8006 11.5139C63.6006 8.51386 66.6006 5.71386 70.3006 3.71386C72.7006 2.41386 75.1006 1.31386 77.8006 0.913858C79.2006 0.713858 80.6006 0.213858 82.0006 0.313858C83.9006 0.313858 85.8006 0.613858 87.7006 1.01386C90.9006 1.81386 93.8006 3.11386 96.6006 5.01386C100.801 7.91386 104.101 11.8139 107.401 15.5139C109.101 17.4139 109.301 17.3139 107.401 19.5139C107.001 20.0139 106.601 20.5139 106.201 20.9139C105.901 21.2139 105.501 21.3139 105.201 20.8139C103.001 18.2139 100.901 15.6139 98.6006 13.1139C95.7006 10.0139 92.3006 7.51386 88.2006 6.21386C85.9006 5.61386 83.8006 5.41386 81.9006 5.11386Z" fill="#D5D1ED"/>
</g>
<mask id="mask1_8048_40586" style="mask-type:luminance" maskUnits="userSpaceOnUse" x="-194" y="0" width="446" height="45">
<path d="M251.7 0.214844H-194V44.6148H251.7V0.214844Z" fill="white"/>
</mask>
<g mask="url(#mask1_8048_40586)">
<path d="M26.0992 44.5141C24.0992 44.8141 21.4992 44.3141 18.9992 43.4141C16.4992 42.5141 14.0992 41.2141 11.8992 39.6141C7.49917 36.4141 4.09917 32.3141 0.499175 28.3141C0.0991746 27.8141 -0.000831455 27.3141 0.399169 26.8141C1.09917 26.0141 1.69918 25.1141 2.29918 24.3141C2.89918 23.6141 3.09917 23.6141 3.69917 24.3141C5.89917 26.9141 8.09917 29.5141 10.3992 31.9141C11.8992 33.4141 13.6992 34.5141 15.2992 35.9141C17.1992 37.6141 19.4992 38.3141 21.8992 39.0141C24.9992 40.0141 28.0992 40.0141 31.0992 39.1141C32.6992 38.7141 34.1992 38.2141 35.6992 37.5141C37.0992 36.8141 38.2992 35.7141 39.5992 34.8141C42.0992 33.0141 44.3992 30.9141 46.1992 28.4141C47.2992 26.9141 48.5992 25.5141 49.7992 24.1141C49.9992 23.9141 50.5992 23.9141 50.6992 24.0141C51.4992 24.9141 52.2992 25.8141 52.9992 26.8141C53.3992 27.3141 53.1992 27.9141 52.7992 28.4141C49.5992 32.1141 46.3992 35.8141 42.5992 38.9141C40.5992 40.5141 38.3992 41.7141 36.0992 42.7141C32.2992 44.6141 30.5992 44.5141 26.0992 44.5141Z" fill="#D5D1ED"/>
</g>
<mask id="mask2_8048_40586" style="mask-type:luminance" maskUnits="userSpaceOnUse" x="-194" y="0" width="446" height="45">
<path d="M251.7 0.214844H-194V44.6148H251.7V0.214844Z" fill="white"/>
</mask>
<g mask="url(#mask2_8048_40586)">
<path d="M27.9008 22.7133V37.3133C27.9008 38.2133 27.6008 38.6133 26.9008 38.6133C26.2008 38.6133 25.8008 38.1133 25.8008 37.3133C25.8008 29.9133 25.9008 22.6133 25.9008 15.2133C25.9008 13.0133 25.9008 10.7133 25.8008 8.51333V7.51333C25.9008 6.91333 26.2008 6.31333 26.8008 6.41333C27.2008 6.51333 27.5008 7.01333 27.7008 7.41333C27.8008 7.61333 27.8008 7.91333 27.8008 8.21333C27.8008 13.0133 27.8008 17.9133 27.9008 22.7133C27.8341 22.7133 27.8341 22.7133 27.9008 22.7133Z" fill="#D5D1ED"/>
</g>
<mask id="mask3_8048_40586" style="mask-type:luminance" maskUnits="userSpaceOnUse" x="-194" y="0" width="446" height="45">
<path d="M251.7 0.214844H-194V44.6148H251.7V0.214844Z" fill="white"/>
</mask>
<g mask="url(#mask3_8048_40586)">
<path d="M18.9004 23.3168V35.2168C18.9004 36.1168 18.6004 36.3168 17.8004 36.0168C16.7004 35.5168 16.4004 34.9168 16.4004 33.4168C16.5004 26.9168 16.5004 20.4168 16.5004 14.0168C16.5004 13.0168 16.4004 12.0168 16.4004 10.9168C16.4004 10.2168 17.2004 9.11676 17.9004 9.01676C18.6004 8.81676 18.9004 9.31676 18.9004 10.1168C18.9004 12.0168 18.8004 13.8168 18.8004 15.7168C18.9004 18.2168 18.9004 20.7168 18.9004 23.3168Z" fill="#D5D1ED"/>
</g>
<mask id="mask4_8048_40586" style="mask-type:luminance" maskUnits="userSpaceOnUse" x="-194" y="0" width="446" height="45">
<path d="M251.7 0.214844H-194V44.6148H251.7V0.214844Z" fill="white"/>
</mask>
<g mask="url(#mask4_8048_40586)">
<path d="M34.6 22.2148V9.71484C34.6 9.41484 34.8 9.01484 34.9 8.71484C35.2 8.81484 35.6 8.91484 35.9 9.11484C36.5 9.41484 36.8 10.0148 36.8 10.7148V29.3148C36.8 31.2148 36.8 33.0148 36.9 34.9148C36.9 35.5148 35.7 36.7148 35.1 36.5148C34.9 36.4148 34.6 36.0148 34.5 35.8148C34.5 31.2148 34.5 26.7148 34.6 22.2148Z" fill="#D5D1ED"/>
</g>
<mask id="mask5_8048_40586" style="mask-type:luminance" maskUnits="userSpaceOnUse" x="-194" y="0" width="446" height="45">
<path d="M251.7 0.214844H-194V44.6148H251.7V0.214844Z" fill="white"/>
</mask>
<g mask="url(#mask5_8048_40586)">
<path d="M45.9999 20.2164V25.9164C45.9999 27.1164 45.4999 28.0164 44.5999 28.7164C44.3999 28.9164 43.9999 29.0164 43.6999 28.9164C43.5999 28.9164 43.3999 28.4164 43.4999 28.1164C43.5999 24.9164 43.6999 21.6164 43.6999 18.4164C43.6999 17.8164 43.5999 17.3164 43.5999 16.7164C43.5999 16.4164 43.6999 16.1164 43.6999 15.8164C43.9999 15.9164 44.2999 15.9164 44.4999 16.1164C45.4999 17.0164 46.2999 18.0164 45.9999 19.5164C45.9999 19.7164 45.9999 20.0164 45.9999 20.2164Z" fill="#D5D1ED"/>
</g>
<mask id="mask6_8048_40586" style="mask-type:luminance" maskUnits="userSpaceOnUse" x="-194" y="0" width="446" height="45">
<path d="M251.7 0.214844H-194V44.6148H251.7V0.214844Z" fill="white"/>
</mask>
<g mask="url(#mask6_8048_40586)">
<path d="M9.7 20.4149C9.8 22.8149 9.89999 25.2149 9.89999 27.5149C9.89999 27.9149 9.70001 28.2149 9.60001 28.6149C9.20001 28.4149 8.8 28.3149 8.5 28.0149C7.7 27.3149 7.5 26.3149 7.5 25.3149V19.1149C7.5 17.9149 8.2 17.2149 8.8 16.4149C8.9 16.3149 9.29999 16.2149 9.39999 16.3149C9.59999 16.5149 9.8 16.8149 9.8 17.0149V20.4149H9.7Z" fill="#D5D1ED"/>
</g>
<mask id="mask7_8048_40586" style="mask-type:luminance" maskUnits="userSpaceOnUse" x="-194" y="0" width="446" height="45">
<path d="M251.7 0.214844H-194V44.6148H251.7V0.214844Z" fill="white"/>
</mask>
<g mask="url(#mask7_8048_40586)">
<path d="M251.7 5.91501C251 5.91501 250.2 5.61501 249.5 5.41501C248.2 5.11501 246.9 5.11501 245.6 5.41501C244.4 5.71501 243.1 5.71501 242 6.11501C240.4 6.71501 238.8 7.31501 237.4 8.21501C232.9 11.015 229.2 14.715 226 18.915C224.1 21.415 222.1 23.715 220.1 26.115C217.3 29.415 214.6 32.715 211.7 35.815C208.4 39.315 204.4 42.015 199.8 43.515C197.6 44.215 195.3 44.515 193 44.515C189.1 44.615 185.4 43.915 181.9 42.115C177.2 39.715 173.4 36.415 170 32.515C166.4 28.315 163.1 24.015 159.6 19.815C156.4 15.915 153 12.215 148.9 9.21501C146.7 7.61501 144.3 6.31501 141.5 5.91501C141 5.81501 140.5 5.71501 140 5.51501C138.1 5.01501 136.2 4.91501 134.4 5.71501C134.3 5.81501 134.1 5.81501 134 5.81501C130.3 6.11501 127.2 7.91501 124.4 10.115C122.6 11.615 120.8 13.115 119.2 14.715C117.6 16.315 116.3 18.215 114.8 19.915C112.6 22.615 110.5 25.315 108.3 27.915C106.6 30.015 105 32.115 103.1 34.115C100.3 37.115 97.2 39.715 93.6 41.715C91.5 42.815 89.3 43.615 87.1 44.215C86.3 44.415 85.5 44.415 84.6 44.415C82.5 44.415 80.4 44.515 78.3 44.315C76.8 44.115 75.2 43.615 73.7 43.115C70.5 42.015 67.7 40.015 65.1 37.915C63.4 36.515 61.8 35.015 60.4 33.315C55.9 28.015 51.6 22.515 47.1 17.215C44.9 14.715 42.5 12.315 39.9 10.115C37.9 8.31501 35.5 7.01501 33 6.11501C32.6 5.91501 32.1 5.91501 31.7 5.81501C30.1 5.51501 28.5 5.21501 26.8 5.01501C26.5 5.01501 26.2 4.91501 26 5.01501C23.4 5.81501 20.6 5.91501 18.1 7.21501C14.2 9.31501 11 12.115 8.10001 15.415C5.10001 18.915 2.29999 22.515 -0.600006 26.015C-3.60001 29.715 -6.60001 33.415 -10.1 36.715C-13.1 39.615 -16.5 41.915 -20.5 43.315C-22.7 44.115 -25 44.515 -27.3 44.415C-28.9 44.315 -30.6 44.515 -32.2 44.215C-35 43.815 -37.6 42.815 -40.1 41.415C-44.6 38.815 -48.3 35.315 -51.6 31.315C-56 26.115 -60.3 20.715 -64.7 15.515C-67.6 12.115 -70.9 9.21501 -74.9 7.11501C-76.3 6.41501 -77.8 5.71501 -79.5 5.71501C-79.9 5.71501 -80.4 5.61501 -80.8 5.41501C-82.5 4.71501 -84.2 4.81501 -85.9 5.31501C-86.3 5.41501 -86.8 5.61501 -87.2 5.61501C-89.7 5.51501 -91.7 6.71501 -93.7 7.91501C-95.8 9.21501 -97.9 10.815 -99.6 12.615C-102.4 15.515 -105 18.615 -107.6 21.715C-109.6 24.015 -111.3 26.615 -113.3 28.915C-115.7 31.715 -118.1 34.615 -120.9 37.115C-122.9 38.915 -125.4 40.215 -127.7 41.715C-129.6 43.015 -131.8 43.515 -133.9 44.115C-135.1 44.415 -136.4 44.415 -137.7 44.415C-139.6 44.415 -141.4 44.415 -143.3 44.215C-144.4 44.115 -145.4 43.715 -146.4 43.415C-149.5 42.215 -152.4 40.515 -155 38.415C-158.6 35.515 -161.7 32.115 -164.6 28.415C-167.3 24.915 -170.2 21.515 -173 18.115C-174.4 16.415 -175.7 14.715 -177.3 13.315C-180.1 10.615 -183.1 8.11501 -186.8 6.61501C-188.5 5.91501 -190.7 5.51501 -192.8 5.31501C-193.6 5.31501 -194 4.91501 -194 4.11501C-194 3.11501 -194 2.11501 -193.9 1.11501C-193.9 0.415012 -193.4 0.115012 -192.5 0.215012C-191 0.515012 -189.5 0.715012 -188.1 1.01501C-184.1 1.91501 -180.7 3.81501 -177.5 6.31501C-174.4 8.71501 -171.7 11.515 -169.2 14.615C-165.9 18.615 -162.6 22.515 -159.4 26.615C-156.8 29.915 -153.8 32.715 -150.6 35.315C-147.3 38.015 -143.5 39.515 -139.3 39.815C-136.4 40.015 -133.6 39.415 -131 38.215C-125.5 35.715 -121.5 31.615 -117.8 27.015C-115.2 23.815 -112.7 20.515 -110 17.415C-107.8 14.815 -105.6 12.115 -103.2 9.61501C-101 7.41501 -98.6 5.31501 -95.7 3.91501C-94.1 3.11501 -92.5 2.21501 -90.8 1.71501C-87.2 0.615012 -83.6 -0.0849883 -79.7 0.615012C-75 1.51501 -70.8 3.51501 -67 6.31501C-63.7 8.91501 -60.7 11.915 -58.2 15.315C-56.8 17.215 -55.2 19.115 -53.7 20.915C-51.6 23.515 -49.5 26.115 -47.4 28.615C-45.1 31.315 -42.6 33.815 -39.6 35.815C-37.3 37.415 -34.9 38.515 -32.2 39.215C-28.9 40.015 -25.6 39.915 -22.4 38.815C-18.6 37.615 -15.6 35.315 -12.7 32.615C-9.39999 29.615 -6.8 26.015 -4 22.615C-0.899994 18.915 2.10001 15.015 5.3 11.415C6.8 9.71501 8.39999 8.11501 10.2 6.71501C12.7 4.71501 15.4 3.21501 18.4 2.01501C21 0.915012 23.8 0.415012 26.6 0.215012C27.6 0.115012 28.7 0.215012 29.8 0.415012C35.7 1.31501 40.8 3.81501 45.1 7.91501C47.6 10.315 50 12.815 52.3 15.415C54.6 18.015 56.6 20.715 58.7 23.415C62.1 27.815 65.7 32.015 70.2 35.415C74.6 38.715 79.4 40.315 84.9 39.615C87.9 39.215 90.8 38.215 93.2 36.315C95.7 34.315 98.3 32.215 100.6 29.815C102.8 27.515 104.7 24.815 106.8 22.315C108.6 20.115 110.3 17.915 112.1 15.815C114.2 13.415 116.2 11.015 118.5 8.81501C121.3 6.11501 124.4 3.81501 128 2.31501C132 0.715012 136.2 -0.284988 140.5 0.515012C142.3 0.815012 144.1 1.41501 145.9 2.01501C150.3 3.41501 153.8 6.21501 157.1 9.31501C160.7 12.815 163.7 16.715 166.8 20.515C170.2 24.815 173.4 29.215 177.6 32.915C180.1 35.115 182.8 37.315 186 38.415C188.5 39.315 191 39.915 193.7 39.815C198 39.515 201.8 37.915 205 35.215C207.1 33.415 209.2 31.715 211.1 29.715C212.9 27.815 214.5 25.615 216.2 23.515C219.2 19.815 222.4 16.115 225.3 12.415C227.1 10.115 229.3 8.21501 231.6 6.41501C233.6 4.81501 235.9 3.41501 238.2 2.41501C241.1 1.11501 244.2 0.315012 247.4 0.215012" fill="#D5D1ED"/>
</g>
</g>
<defs>
<clipPath id="clip0_8048_40586">
<rect width="56" height="44" fill="white" transform="matrix(-1 0 0 1 56 0.175781)"/>
</clipPath>
</defs>
</svg>
