<svg width="30" height="30" viewBox="0 0 30 30" fill="none" xmlns="http://www.w3.org/2000/svg">
<path d="M0.389742 16.2002C0.382348 15.1206 0.811224 14.2702 1.74292 13.7009C1.92039 13.5899 1.95736 13.4864 1.92039 13.2794C1.52848 11.2681 1.15137 9.2568 0.752069 7.24552C0.663336 6.80925 0.73728 6.46911 1.07742 6.18812C1.40278 5.92192 1.74292 6.04023 2.07567 6.19552C4.57498 7.33426 7.08169 8.48039 9.581 9.61913C11.2152 10.366 12.8493 11.098 14.4761 11.8522C14.7201 11.9632 14.9124 11.9262 15.1342 11.8227C19.2381 9.95188 23.342 8.08849 27.4385 6.22509C27.8008 6.06242 28.1484 5.90713 28.5033 6.2103C28.8287 6.49869 28.8804 6.85362 28.7991 7.2751C28.3998 9.27159 28.0301 11.2755 27.6382 13.272C27.6012 13.4642 27.616 13.5899 27.8009 13.7009C28.9248 14.3811 29.3167 15.4311 29.1318 16.666C28.947 17.9526 28.2371 18.9065 26.9653 19.3132C26.5216 19.4537 26.3959 19.6681 26.322 20.0822C26.1001 21.3615 25.8413 22.6333 25.5899 23.9125C25.5234 24.2453 25.3533 24.4893 25.0427 24.652C21.7818 26.3897 18.5135 28.1274 15.2525 29.8724C14.9346 30.0425 14.6166 30.0425 14.2986 29.8724C11.0155 28.12 7.7324 26.3675 4.44188 24.615C4.11653 24.4375 3.99822 24.1492 3.93167 23.809C3.67286 22.4632 3.40667 21.1101 3.15525 19.7643C3.11089 19.5424 3.02955 19.4463 2.80032 19.3872C1.34362 18.9953 0.397137 17.7234 0.389742 16.2002ZM13.8919 27.7059C13.8993 27.5506 13.9141 27.4397 13.9141 27.3362C13.9141 22.833 13.9141 18.3298 13.9215 13.8266C13.9215 13.5234 13.8032 13.3977 13.5518 13.2868C10.0838 11.7191 6.61584 10.1367 3.15525 8.56173C3.03694 8.50997 2.91124 8.45821 2.75596 8.39905C2.74856 8.50997 2.73377 8.58391 2.74856 8.65046C3.02955 10.0924 3.31793 11.5343 3.58413 12.9836C3.63589 13.2498 3.7542 13.3385 3.99822 13.4125C5.31442 13.7896 6.09084 14.6991 6.32007 16.0079C6.54929 17.3019 6.16478 18.3889 4.98907 19.121C4.90034 19.1727 4.83379 19.365 4.85597 19.4685C5.06301 20.6294 5.30703 21.7829 5.50668 22.9365C5.55844 23.2175 5.69154 23.358 5.92816 23.4837C8.46445 24.8295 11.0007 26.1826 13.537 27.5358C13.6405 27.595 13.7515 27.6393 13.8919 27.7059ZM15.637 27.6837C15.7479 27.6541 15.8071 27.6467 15.8589 27.6171C18.5061 26.2122 21.1459 24.7999 23.7857 23.3801C23.8966 23.321 23.9927 23.1657 24.0149 23.0474C24.2515 21.8717 24.466 20.6886 24.71 19.5129C24.7544 19.2836 24.7026 19.1801 24.5177 19.0692C23.9779 18.7586 23.6008 18.2928 23.3716 17.716C22.6913 15.9857 23.7413 13.9005 25.5529 13.4125C25.8118 13.3385 25.9301 13.235 25.9818 12.9614C26.2037 11.7339 26.4477 10.5065 26.6843 9.27899C26.7361 9.00539 26.7878 8.72441 26.847 8.38426C26.6695 8.45081 26.5734 8.48039 26.4846 8.51736C22.9723 10.1146 19.4673 11.7118 15.955 13.2942C15.7036 13.4125 15.6296 13.553 15.6296 13.8266C15.637 18.315 15.637 22.8034 15.637 27.2918C15.637 27.4175 15.637 27.5358 15.637 27.6837Z" fill="#D5D1ED"/>
<path d="M21.5452 7.20116C21.5008 7.25292 21.4047 7.41559 21.2642 7.48214C19.2011 8.43602 17.1381 9.37512 15.0603 10.2994C14.8976 10.3734 14.6462 10.366 14.4835 10.292C12.4131 9.36772 10.35 8.42124 8.27959 7.48214C8.10951 7.40081 7.9912 7.32686 8.00599 7.11242C8.21304 4.28776 9.26305 1.94372 11.9324 0.657096C15.0825 -0.866155 19.0754 0.287375 20.7392 3.82191C21.2272 4.84973 21.4638 5.92932 21.5452 7.20116Z" fill="#D5D1ED"/>
</svg>
