<svg width="50" height="50" viewBox="0 0 50 50" fill="none" xmlns="http://www.w3.org/2000/svg">
<g clip-path="url(#clip0_5033_33840)">
<path d="M25.0003 1.11816L8.13036 8.13036L1.11816 25.0003L8.13036 41.8702L25.0003 48.8824L41.8702 41.8702L48.8824 25.0003L41.8702 8.13036L25.0003 1.11816Z" fill="white"/>
<path d="M25.0003 1.11816L8.13036 8.13036L1.11816 25.0003L8.13036 41.8702L25.0003 48.8824L41.8702 41.8702L48.8824 25.0003L41.8702 8.13036L25.0003 1.11816Z" stroke="#D6D1E8" stroke-width="2.024"/>
<path d="M7.92723 8.13036L0.915039 25.0003H48.6793L41.6671 8.13036L24.7972 1.11816L7.92723 8.13036Z" fill="#AD5DA4"/>
<path d="M48.6793 25.0003L41.6671 8.13036L24.7972 1.11816L7.92723 8.13036L0.915039 25.0003" stroke="#D6D1E8" stroke-width="2.024"/>
<path d="M13.415 30.4883H38.8215" stroke="#855AA5"/>
<path d="M15.9551 34.8574H36.2803" stroke="#855AA5"/>
<path d="M19.0039 39.126H33.2315" stroke="#855AA5"/>
</g>
<defs>
<clipPath id="clip0_5033_33840">
<rect width="50" height="50" fill="white"/>
</clipPath>
</defs>
</svg>
