<svg width="110" height="64" viewBox="0 0 110 64" fill="none" xmlns="http://www.w3.org/2000/svg">
<path d="M10.4034 21.4765L10.3611 21.5219L10.3227 21.5705L2.82268 31.0705L2.06872 32.0255L2.84767 32.9603L10.3477 41.9603L10.3592 41.9742L10.3711 41.9878L17.3711 49.9878L17.8193 50.5H18.5H87.5H88.1213L88.5607 50.0607L96.5464 42.075L106.032 33.0889L107.15 32.0291L106.061 30.9393L96.5607 21.4393L96.5436 21.4222L96.5259 21.4057L88.5259 13.9057L88.0932 13.5H87.5H18.5H17.8482L17.4034 13.9765L10.4034 21.4765Z" fill="white" stroke="#8858B5" stroke-width="3"/>
<rect x="54.7695" y="1.58579" width="42.6852" height="42.6852" transform="rotate(45 54.7695 1.58579)" fill="#8858B5" stroke="white" stroke-width="2"/>
</svg>
