<svg width="74" height="74" viewBox="0 0 74 74" fill="none" xmlns="http://www.w3.org/2000/svg">
<path d="M71.3401 23.4158C69.1672 17.1087 63.792 15.7326 57.7307 16.1913C58.1882 10.4575 57.1589 5.52644 51.6694 3.11825C45.8368 0.480705 41.1478 3.00357 36.9163 7.93463C33.371 2.88889 28.9108 0.710056 23.4213 2.77422C17.3599 4.95306 15.7588 9.99879 16.445 16.1913C10.6124 15.9619 5.46601 16.994 2.94998 22.8425C0.43396 28.8056 3.40744 33.278 7.7533 37.0623C2.2638 41.9933 0.891419 46.1216 2.83562 51.0527C4.77982 55.9838 8.66822 57.9332 15.9876 57.7039C17.9318 73.0704 24.4506 75.8227 37.3738 66.4193C40.576 71.0063 44.9218 73.1851 50.4114 71.3503C56.8158 69.1715 58.0738 63.7817 57.6163 57.4745C63.4489 58.3919 68.1379 57.0158 70.7683 51.7408C73.7418 45.6629 70.6539 41.0759 66.1937 36.7182C71.1114 33.278 73.1699 28.8056 71.3401 23.4158Z" fill="#FAA81A" stroke="#FFF200" stroke-width="3" stroke-miterlimit="10"/>
<path d="M33.8293 51.1489C33.4878 51.7181 32.9185 52.0596 32.1216 51.8319C31.3247 51.6042 31.2109 50.9212 31.2109 50.1243C29.7309 50.6935 28.1371 50.8073 26.6571 50.6935C25.4048 50.5796 24.2663 50.2381 23.2417 49.555C21.3064 48.3027 20.5095 45.912 21.3064 43.9766C21.6479 42.952 22.331 42.1551 23.1279 41.4721C24.0386 40.789 25.0632 40.1059 25.974 39.4229C26.0879 39.309 26.3155 39.1952 26.5432 39.0813C26.0879 38.6259 25.6325 38.2844 25.2909 37.9429C24.3802 36.9183 23.4694 36.0075 22.5587 34.9829C21.4202 33.5029 21.3064 31.7952 22.1033 29.9737C22.331 29.5184 22.6725 28.9491 22.9002 28.4938C23.3556 27.4691 23.4694 26.3307 23.014 25.3061C22.6725 24.2815 22.2171 23.3707 21.8756 22.46C21.7617 22.0046 21.6479 21.5492 21.6479 21.0938C21.5341 20.1831 21.9894 19.5 23.014 19.3862C24.494 19.1585 25.8602 19.3862 27.2263 20.0692C29.7309 21.3215 31.5524 23.2569 33.0324 25.5338C34.6262 27.8107 35.8785 30.2014 36.9031 32.706C36.9031 32.8199 37.017 32.9337 37.1308 33.2752C37.2446 33.0475 37.4723 32.8199 37.4723 32.706C37.7 31.5676 37.8139 30.4291 37.7 29.2907C37.5862 27.8107 36.7893 26.5584 35.537 25.7615C35.7647 25.4199 35.9923 25.0784 36.22 24.623C38.9523 26.4445 39.4077 29.1768 38.9523 32.2506C40.5461 29.6322 42.4815 27.6968 45.783 27.9245C45.783 28.3799 45.6692 28.8353 45.6692 29.2907C43.1646 29.063 41.6846 30.543 40.5461 32.3645C39.8631 33.5029 39.7492 33.7306 39.9769 34.186C40.2046 34.0721 40.3185 33.9583 40.5461 33.8445C43.62 32.0229 46.9215 30.6568 50.4506 29.9737C52.2722 29.6322 53.9798 29.5184 55.8013 29.9737C57.1675 30.3153 58.3059 30.8845 59.3305 31.7952C60.2413 32.706 60.2413 33.6168 59.2167 34.4137C58.6475 34.8691 57.9644 35.3244 57.2813 35.7798C56.9398 36.0075 56.5983 36.2352 56.2567 36.349C54.7767 37.0321 54.0937 38.2844 53.7521 39.8782C53.6383 40.789 53.2968 41.5859 52.9552 42.3828C52.6137 43.1797 51.9306 43.749 51.2476 44.0905C49.8814 44.7736 48.2876 45.0012 46.8076 45.2289C46.0107 45.3428 45.2138 45.3428 44.5307 45.4566C44.8722 46.5951 45.2138 47.6197 45.5553 48.7581C45.783 49.7827 45.8968 50.6935 45.783 51.7181C45.4415 54.5642 42.823 55.8165 40.66 55.5888C38.6108 55.3611 36.9031 54.3365 35.4231 52.8565C34.8539 52.2873 34.3985 51.7181 33.8293 51.1489Z" fill="white"/>
</svg>
