<svg width="76" height="74" viewBox="0 0 76 74" fill="none" xmlns="http://www.w3.org/2000/svg">
<path d="M73.7549 23.4894L73.7525 23.4829C72.5283 20.0588 70.3499 17.8908 67.5937 16.6875C65.388 15.7247 62.8823 15.4088 60.3194 15.4523C60.3769 13.1746 60.1333 10.9517 59.3186 8.9585C58.2768 6.40942 56.3508 4.35883 53.261 3.05069C50.0163 1.63877 46.9903 1.58271 44.1797 2.60509C41.9222 3.42625 39.886 4.9126 38.0155 6.77918C36.3903 4.89056 34.5432 3.44449 32.4476 2.61908C29.8286 1.58752 26.965 1.58279 23.9203 2.6837C20.5647 3.84843 18.3163 5.83711 17.0517 8.46019C16.0362 10.5665 15.7066 12.9743 15.8179 15.4989C13.4008 15.5143 11.0275 15.7957 8.90012 16.6406C6.21436 17.7072 4.00134 19.6409 2.58029 22.8239L2.58025 22.8239L2.57593 22.8337C1.15375 26.0817 1.26168 29.0289 2.40132 31.6684C3.2935 33.7348 4.78758 35.5438 6.5063 37.1525C4.35818 39.2068 2.86394 41.2372 2.09561 43.3698C1.16156 45.9624 1.36126 48.5325 2.44734 51.1869C3.53963 53.8564 5.23438 55.8185 7.73986 57.037C9.88675 58.0812 12.5263 58.5287 15.6906 58.5448C16.1933 61.7394 16.9403 64.4159 17.9884 66.5279C19.1864 68.942 20.8254 70.7066 23.0113 71.5723C25.1841 72.4327 27.6508 72.3066 30.3147 71.4462C32.6525 70.691 35.2314 69.3432 38.0595 67.4583C39.5965 69.2779 41.399 70.6958 43.4848 71.5179C46.015 72.5151 48.8333 72.5838 51.8712 71.6054L51.8786 71.603C55.4463 70.4334 57.7064 68.3384 58.9519 65.6063C59.9305 63.4597 60.2394 61.0145 60.1974 58.4984C62.602 58.6838 64.882 58.4691 66.9309 57.6823C69.5272 56.6853 71.6283 54.8162 73.1005 51.9712L73.1058 51.9609C74.7861 48.6512 74.7821 45.629 73.6587 42.8587C72.7826 40.6983 71.2523 38.7575 69.5021 36.967C71.3942 35.4388 72.8388 33.6824 73.6799 31.6831C74.7405 29.1616 74.7796 26.398 73.7549 23.4894Z" fill="#DFDCF1" stroke="#A082B6" stroke-width="3"/>
<path d="M34.8293 50.7123C34.4878 51.2608 33.9185 51.5899 33.1216 51.3705C32.3247 51.1511 32.2109 50.4929 32.2109 49.725C30.7309 50.2735 29.1371 50.3832 27.6571 50.2735C26.4048 50.1638 25.2663 49.8347 24.2417 49.1765C22.3064 47.9698 21.5095 45.6661 22.3064 43.8011C22.6479 42.8138 23.331 42.0459 24.1279 41.3877C25.0386 40.7295 26.0632 40.0713 26.974 39.4131C27.0879 39.3034 27.3155 39.1937 27.5432 39.084C27.0879 38.6452 26.6325 38.3161 26.2909 37.987C25.3802 36.9997 24.4694 36.1221 23.5587 35.1348C22.4202 33.7086 22.3064 32.0631 23.1033 30.3079C23.331 29.8691 23.6725 29.3206 23.9002 28.8818C24.3556 27.8945 24.4694 26.7975 24.014 25.8102C23.6725 24.8229 23.2171 23.9452 22.8756 23.0676C22.7617 22.6288 22.6479 22.19 22.6479 21.7512C22.5341 20.8736 22.9894 20.2154 24.014 20.1057C25.494 19.8863 26.8602 20.1057 28.2263 20.7639C30.7309 21.9706 32.5524 23.8355 34.0324 26.0296C35.6262 28.2236 36.8785 30.5273 37.9031 32.9407C37.9031 33.0504 38.017 33.1601 38.1308 33.4892C38.2446 33.2698 38.4723 33.0504 38.4723 32.9407C38.7 31.8437 38.8139 30.7467 38.7 29.6497C38.5862 28.2236 37.7893 27.0169 36.537 26.249C36.7647 25.9199 36.9923 25.5908 37.22 25.152C39.9523 26.9072 40.4077 29.54 39.9523 32.5019C41.5461 29.9788 43.4815 28.1139 46.783 28.3333C46.783 28.7721 46.6692 29.2109 46.6692 29.6497C44.1646 29.4303 42.6846 30.8564 41.5461 32.6116C40.8631 33.7086 40.7492 33.928 40.9769 34.3669C41.2046 34.2571 41.3185 34.1474 41.5461 34.0377C44.62 32.2825 47.9215 30.9661 51.4506 30.3079C53.2722 29.9788 54.9798 29.8691 56.8013 30.3079C58.1675 30.637 59.3059 31.1855 60.3305 32.0631C61.2413 32.9407 61.2413 33.8183 60.2167 34.5863C59.6475 35.0251 58.9644 35.4639 58.2813 35.9027C57.9398 36.1221 57.5983 36.3415 57.2567 36.4512C55.7767 37.1094 55.0937 38.3161 54.7521 39.8519C54.6383 40.7295 54.2968 41.4974 53.9552 42.2653C53.6137 43.0332 52.9306 43.5817 52.2476 43.9108C50.8814 44.569 49.2876 44.7884 47.8076 45.0079C47.0107 45.1176 46.2138 45.1176 45.5307 45.2273C45.8722 46.3243 46.2138 47.3116 46.5553 48.4086C46.783 49.3959 46.8968 50.2735 46.783 51.2608C46.4415 54.0033 43.823 55.21 41.66 54.9906C39.6108 54.7712 37.9031 53.7839 36.4231 52.3578C35.8539 51.8093 35.3985 51.2608 34.8293 50.7123Z" fill="#8858B5"/>
</svg>
