<svg width="66" height="66" viewBox="0 0 66 66" fill="none" xmlns="http://www.w3.org/2000/svg">
<path d="M11.4041 10.8629L11.0214 11.0214L10.8629 11.4041L2.07612 32.6173L1.91761 33L2.07612 33.3827L10.8629 54.5958L11.0214 54.9785L11.4041 55.137L32.6173 63.9239L33 64.0824L33.3827 63.9239L54.5958 55.137L54.9785 54.9785L55.137 54.5958L63.9239 33.3827L64.0824 33L63.9239 32.6173L55.137 11.4041L54.9785 11.0214L54.5958 10.8629L33.3827 2.07612L33 1.91761L32.6173 2.07612L11.4041 10.8629Z" fill="#A262A1" stroke="white" stroke-width="2"/>
<path d="M40.0711 20.573L45.7279 26.2299L25.9289 46.0289L20.2721 40.372L40.0711 20.573Z" fill="white"/>
<path d="M45.7279 40.372L40.0711 46.0289L20.2721 26.2299L25.9289 20.573L45.7279 40.372Z" fill="white"/>
</svg>
