<svg width="76" height="74" viewBox="0 0 76 74" fill="none" xmlns="http://www.w3.org/2000/svg">
<path d="M73.7549 23.4894L73.7525 23.4829C72.5283 20.0588 70.3499 17.8908 67.5937 16.6875C65.388 15.7247 62.8823 15.4088 60.3194 15.4523C60.3769 13.1746 60.1333 10.9517 59.3186 8.9585C58.2768 6.40942 56.3508 4.35883 53.261 3.05069C50.0163 1.63877 46.9903 1.58271 44.1797 2.60509C41.9222 3.42625 39.886 4.9126 38.0155 6.77918C36.3903 4.89056 34.5432 3.44449 32.4476 2.61908C29.8286 1.58752 26.965 1.58279 23.9203 2.6837C20.5647 3.84843 18.3163 5.83711 17.0517 8.46019C16.0362 10.5665 15.7066 12.9743 15.8179 15.4989C13.4008 15.5143 11.0275 15.7957 8.90012 16.6406C6.21436 17.7072 4.00134 19.6409 2.58029 22.8239L2.58025 22.8239L2.57593 22.8337C1.15375 26.0817 1.26168 29.0289 2.40132 31.6684C3.2935 33.7348 4.78758 35.5438 6.5063 37.1525C4.35818 39.2068 2.86394 41.2372 2.09561 43.3698C1.16156 45.9624 1.36126 48.5325 2.44734 51.1869C3.53963 53.8564 5.23438 55.8185 7.73986 57.037C9.88675 58.0812 12.5263 58.5287 15.6906 58.5448C16.1933 61.7394 16.9403 64.4159 17.9884 66.5279C19.1864 68.942 20.8254 70.7066 23.0113 71.5723C25.1841 72.4327 27.6508 72.3066 30.3147 71.4462C32.6525 70.691 35.2314 69.3432 38.0595 67.4583C39.5965 69.2779 41.399 70.6958 43.4848 71.5179C46.015 72.5151 48.8333 72.5838 51.8712 71.6054L51.8786 71.603C55.4463 70.4334 57.7064 68.3384 58.9519 65.6063C59.9305 63.4597 60.2394 61.0145 60.1974 58.4984C62.602 58.6838 64.882 58.4691 66.9309 57.6823C69.5272 56.6853 71.6283 54.8162 73.1005 51.9712L73.1058 51.9609C74.7861 48.6512 74.7821 45.629 73.6587 42.8587C72.7826 40.6983 71.2523 38.7575 69.5021 36.967C71.3942 35.4388 72.8388 33.6824 73.6799 31.6831C74.7405 29.1616 74.7796 26.398 73.7549 23.4894Z" fill="#DFDCF1" stroke="#A082B6" stroke-width="3"/>
<path fill-rule="evenodd" clip-rule="evenodd" d="M38.4888 19.7026C38.49 19.9033 38.4919 20.104 38.4938 20.3046V22.2563C38.4938 22.2643 38.4943 22.2725 38.4948 22.2807C38.4968 22.314 38.4988 22.3484 38.4689 22.3741C38.4378 22.4009 38.3444 22.4304 38.2697 22.4304C38.1235 22.433 37.9772 22.4317 37.831 22.4304H37.8309H37.8309C37.6846 22.429 37.5384 22.4277 37.3921 22.4304C37.1743 22.4357 37.0062 22.3741 37 22.2671C37 22.1934 37.0031 22.1198 37.0062 22.0462L37.0062 22.0461C37.0093 21.9725 37.0124 21.8989 37.0124 21.8253V19.7059L32.5274 19.7059C32.5067 19.7059 32.4854 19.7064 32.4639 19.707C32.3771 19.7091 32.2876 19.7113 32.2206 19.6791C32.1508 19.6455 32.0741 19.5449 32.0741 19.4644C32.0671 19.3067 32.0706 19.1491 32.0741 18.9914C32.0776 18.8337 32.0811 18.6761 32.0741 18.5184C32.0601 18.2836 32.2206 18.1024 32.4995 18.0957C32.6913 18.0957 32.8831 18.0991 33.0749 18.1024C33.2667 18.1058 33.4585 18.1091 33.6503 18.1091L37.4581 18.1091C37.5481 18.099 37.6525 18.0947 37.7718 18.0959C37.8593 18.0959 37.9468 18.1024 38.0343 18.1091L42.5357 18.1091C43.1146 18.1091 43.3796 18.3641 43.3657 18.9276C43.3657 19.0243 43.3478 19.1209 43.33 19.2175C43.3255 19.2416 43.3211 19.2658 43.3169 19.2899C43.268 19.612 43.0797 19.7126 42.738 19.7126C41.3216 19.6959 39.9052 19.6977 38.4888 19.7026ZM43.0986 28.8625H43.0985C41.8762 28.8737 40.6525 28.885 39.4323 28.8329C38.2276 28.7837 37.0287 28.6219 35.8357 28.4608L35.5053 28.4163C33.9596 28.2079 32.4209 27.9593 30.8891 27.7039C30.4666 27.6319 30.0497 27.5172 29.6334 27.4025L29.4826 27.3611C29.4339 27.3477 29.3643 27.1864 29.3921 27.1394C29.4757 26.9848 29.5801 26.8369 29.7054 26.7092C30.0396 26.3598 30.3738 26.017 30.7289 25.6877L30.7753 25.6442C30.9898 25.4431 31.2063 25.24 31.4531 25.0896L31.5966 25.0005C32.3079 24.5593 33.0214 24.1166 33.7716 23.7387C34.635 23.3086 35.5889 23.1205 36.5497 22.9659C37.6707 22.7844 38.7569 22.9323 39.85 23.1272C41.1103 23.3557 42.2452 23.8866 43.2826 24.5654C43.8979 24.9717 44.4504 25.4709 45.0018 25.9691C45.1617 26.1136 45.3215 26.258 45.4828 26.4001C45.8031 26.6824 46.1025 26.9848 46.374 27.3074C46.5985 27.5796 46.7897 27.8702 46.9829 28.164L46.9831 28.1643L46.9833 28.1646L46.9835 28.1649C47.0238 28.2262 47.0643 28.2876 47.1051 28.3491C47.2443 28.5708 47.1399 28.6851 46.8962 28.712C46.5237 28.7456 46.1495 28.7775 45.7752 28.8094L45.7747 28.8095C45.4007 28.8414 45.0266 28.8733 44.6542 28.9069C44.6503 28.9031 44.6486 28.893 44.6466 28.8812C44.6451 28.8721 44.6434 28.8619 44.6403 28.8531C44.127 28.8531 43.6131 28.8578 43.0989 28.8625H43.0988H43.0986ZM34.8462 33.7948L34.8464 33.7948L34.8466 33.7948L34.8469 33.7949C35.3897 33.8196 35.9309 33.8443 36.4699 33.8736C36.9026 33.8508 37.3326 33.8249 37.7602 33.7991L37.7602 33.7991L37.7603 33.7991L37.7603 33.7991L37.7604 33.7991C38.7227 33.7411 39.6727 33.6838 40.6127 33.6652C41.882 33.636 43.1258 33.424 44.3678 33.2122C44.8426 33.1313 45.3172 33.0504 45.7929 32.9797C46.4887 32.8764 47.1743 32.6897 47.8584 32.5035L47.8588 32.5034C47.9756 32.4716 48.0922 32.4398 48.2089 32.4085C48.9609 32.2001 49.0305 32.0859 48.8634 31.5281C48.8438 31.4618 48.8069 31.4022 48.7697 31.3422C48.7542 31.317 48.7385 31.2918 48.7241 31.266C48.6811 31.1809 48.6356 31.097 48.5902 31.0132C48.4815 30.8124 48.3731 30.6124 48.2994 30.399C48.2298 30.2041 48.1532 30.1705 47.9583 30.184C47.5222 30.2127 47.0861 30.2446 46.6498 30.2766C45.5537 30.357 44.4566 30.4374 43.3559 30.4662C41.9843 30.4998 40.6057 30.4394 39.2271 30.3789C38.1548 30.3318 37.0756 30.2445 36.0103 30.1235C34.952 30.0025 33.9076 29.8211 32.8632 29.6396C31.9332 29.4812 31.0033 29.3056 30.0733 29.1301C29.7012 29.0599 29.3292 28.9896 28.9572 28.9205C28.8458 28.9003 28.7274 28.86 28.6369 28.7928C28.3862 28.6046 28.2052 28.692 28.066 28.9138L28.0187 28.9902C27.8397 29.2797 27.6631 29.5654 27.5159 29.8681C27.133 30.6746 26.757 31.481 26.4088 32.3009C26.2487 32.684 26.2835 32.7512 26.7222 32.8319C27.0744 32.8975 27.4262 32.967 27.778 33.0366L27.7782 33.0366L27.7784 33.0367L27.7785 33.0367L27.7787 33.0367L27.7787 33.0367C28.7966 33.2381 29.8146 33.4394 30.8441 33.5442C32.1788 33.6731 33.517 33.7342 34.8462 33.7948H34.8462ZM30.6549 40.2085L31.3502 40.2387L31.8143 40.1916C33.1053 40.0606 34.3604 39.9332 35.6044 39.7951C37.335 39.6189 39.0262 39.24 40.7163 38.8614L40.7163 38.8614L40.8681 38.8274C41.5524 38.6749 42.2168 38.4419 42.8794 38.2094L42.8794 38.2094C43.0932 38.1344 43.3069 38.0594 43.5209 37.9873C44.2102 37.7588 44.8856 37.5101 45.561 37.2548C45.8529 37.142 46.142 37.0181 46.4319 36.8938C46.5914 36.8255 46.7511 36.757 46.9117 36.6902C46.9863 36.6577 47.0626 36.6276 47.1391 36.5974C47.2839 36.5402 47.4295 36.4827 47.5662 36.408C48.158 36.0719 48.7429 35.7292 49.3208 35.373C49.356 35.3516 49.3931 35.3308 49.4307 35.3098L49.4307 35.3098L49.4307 35.3097L49.4307 35.3097C49.6532 35.185 49.8926 35.0507 49.8569 34.7345C49.8415 34.5658 49.7919 34.4007 49.7418 34.2339L49.7418 34.2339C49.724 34.1748 49.7062 34.1155 49.6898 34.0558C49.5645 33.5988 49.467 33.5652 49.0075 33.7332C48.9202 33.7645 48.833 33.7964 48.7456 33.8283C48.3451 33.9749 47.943 34.1221 47.5314 34.2103C46.3129 34.459 45.0875 34.7009 43.8551 34.8891C42.6297 35.0773 41.3834 35.2453 40.144 35.3192C39.2489 35.3754 38.3479 35.3816 37.4468 35.3877H37.4468H37.4468H37.4467H37.4467H37.4467H37.4467C36.946 35.3912 36.4453 35.3946 35.9455 35.4066C33.7662 35.4604 31.6008 35.2453 29.4494 34.916C28.7449 34.8117 28.0458 34.6686 27.3454 34.5252L27.3454 34.5252L27.3453 34.5252L27.3453 34.5252L27.3453 34.5251L27.3452 34.5251L27.3452 34.5251C26.9173 34.4375 26.4889 34.3498 26.0586 34.2708C25.9611 34.2574 25.7592 34.338 25.7383 34.412C25.7048 34.5277 25.6703 34.6432 25.6358 34.7587L25.6358 34.7587C25.4842 35.2667 25.3329 35.7735 25.2648 36.2937C25.1459 37.1948 25.0879 38.1008 25.0302 39.0033L25.0302 39.0034C25.0203 39.1576 25.0104 39.3118 25.0003 39.4658C24.9933 39.5801 25.1325 39.7615 25.2439 39.8018C25.5364 39.9027 25.8497 39.99 26.1561 40.0035C27.6661 40.079 29.1762 40.1444 30.6549 40.2085ZM50.3719 37.6379L50.3718 37.6375L50.3718 37.6371L50.3717 37.6365L50.3717 37.6358L50.3716 37.6349L50.3715 37.6337C50.3453 37.3484 50.3178 37.0495 50.2904 36.7165C50.153 36.7911 50.0421 36.8478 49.9446 36.8977C49.884 36.9287 49.8286 36.957 49.7752 36.9854C49.6574 37.0564 49.541 37.1299 49.4244 37.2034C49.155 37.3734 48.8852 37.5436 48.5985 37.6843C48.0136 37.9733 47.4148 38.2287 46.816 38.4841C46.3851 38.6712 45.95 38.8463 45.514 39.0218L45.5133 39.0221C45.386 39.0734 45.2585 39.1246 45.1311 39.1763C45.05 39.2076 44.9697 39.2411 44.8894 39.2747L44.8893 39.2747L44.8892 39.2747L44.8892 39.2748L44.8891 39.2748L44.889 39.2748L44.8889 39.2748L44.8889 39.2749C44.728 39.3421 44.5671 39.4093 44.4 39.4585C43.5157 39.7072 42.6315 39.9559 41.7403 40.1844C40.7585 40.4397 39.7768 40.6884 38.7881 40.8967C37.9108 41.0782 37.0196 41.2328 36.1284 41.3336L35.8355 41.3662C34.3595 41.5304 32.8832 41.6948 31.4007 41.7704C30.2101 41.8309 29.0125 41.7704 27.8219 41.7032C27.3173 41.6782 26.8153 41.6068 26.3127 41.5353L26.3125 41.5353C26.0039 41.4914 25.6949 41.4475 25.385 41.4142C25.2875 41.4008 25.0717 41.5755 25.0856 41.6158C25.1008 41.6612 25.1154 41.7085 25.1301 41.7565C25.1962 41.9717 25.2661 42.1994 25.4198 42.3148C25.761 42.5769 26.1718 42.7583 26.5756 42.9331C26.8712 43.0648 27.1751 43.1825 27.4793 43.3004C27.7341 43.3991 27.989 43.4979 28.2397 43.6051C29.4581 44.1226 30.7114 44.5326 31.9995 44.835C32.2266 44.8904 32.4511 44.9527 32.6747 45.0148L32.6747 45.0148C33.0751 45.126 33.4729 45.2364 33.8794 45.3054C35.0213 45.4936 36.1632 45.6683 37.312 45.7759C39.6167 45.9909 41.9213 46.0649 44.212 45.7019C45.326 45.5272 46.4331 45.3121 47.5262 45.0366C48.1314 44.8832 48.7176 44.6677 49.3045 44.4521L49.3045 44.4521C49.5144 44.3749 49.7244 44.2978 49.9353 44.2234C50.0258 44.1965 50.1163 44.0823 50.1372 43.9882C50.2068 43.6992 50.2626 43.3968 50.2974 43.1011C50.4923 41.5016 50.5689 39.8954 50.4297 38.2824C50.4115 38.0694 50.3921 37.8577 50.3719 37.6379ZM49.6945 46.0979C49.6374 46.259 49.5838 46.414 49.5317 46.5647C49.4185 46.892 49.3124 47.1988 49.1932 47.5025C49.1514 47.6033 49.0331 47.6907 48.9356 47.7444L48.9355 47.7445L48.9354 47.7445C48.4551 48.02 47.9747 48.2956 47.4804 48.5375C46.9025 48.8197 46.3107 49.0818 45.7119 49.3171C45.322 49.4716 44.9042 49.5792 44.4934 49.68C44.0916 49.7837 43.6897 49.8786 43.2879 49.9735C42.9865 50.0447 42.6851 50.1158 42.3837 50.1907C41.1235 50.4999 39.8424 50.641 38.5404 50.6948C38.2811 50.7053 38.0229 50.7251 37.7649 50.745L37.7648 50.745C37.3647 50.7757 36.9651 50.8064 36.563 50.8023C35.9306 50.7968 35.2983 50.7508 34.6659 50.7048C34.5254 50.6946 34.3849 50.6844 34.2444 50.6746C34.11 50.6652 33.9754 50.6565 33.8406 50.6479L33.8403 50.6479L33.84 50.6478L33.8397 50.6478L33.8393 50.6478L33.8391 50.6478L33.8389 50.6478H33.8389C33.3039 50.6134 32.7671 50.579 32.2392 50.4932C31.3479 50.352 30.4637 50.1907 29.5933 49.969C28.7926 49.7673 28.0059 49.4985 27.24 49.2028C27.0311 49.1222 26.8361 48.8668 26.7456 48.6517C26.4894 48.0765 26.2688 47.4865 26.0491 46.8986C26.0121 46.7996 25.9751 46.7007 25.938 46.6019C25.9066 46.5225 25.8951 46.4345 25.8836 46.3464C25.8746 46.278 25.8657 46.2096 25.8474 46.1449C25.7743 45.8627 25.7012 45.5821 25.6281 45.3015L25.6278 45.3005L25.6278 45.3003L25.6277 45.3001L25.6277 45.2999L25.6276 45.2997C25.5547 45.0197 25.4817 44.7397 25.4088 44.4581C25.3879 44.3842 25.374 44.3102 25.4227 44.1489C25.4623 44.1664 25.5022 44.1839 25.5423 44.2015L25.543 44.2018L25.5431 44.2018L25.5431 44.2019C25.6723 44.2585 25.8037 44.316 25.931 44.3774C26.0122 44.4178 26.0919 44.4611 26.1716 44.5044C26.331 44.591 26.4903 44.6776 26.6621 44.7404C26.8075 44.7975 26.9529 44.8551 27.0984 44.9127C27.7402 45.1669 28.3836 45.4218 29.0363 45.6409C29.851 45.9164 30.6795 46.1517 31.5081 46.3667C32.2879 46.5683 33.0747 46.7565 33.8684 46.8842L34.0176 46.9082C35.2217 47.1021 36.4322 47.2971 37.6491 47.3681C39.1948 47.4622 40.7545 47.4689 42.3002 47.4286C43.3933 47.4017 44.4934 47.274 45.5796 47.1262C46.243 47.0365 46.8937 46.8615 47.5378 46.6882L47.5379 46.6882L47.6336 46.6624C48.0473 46.5535 48.4514 46.4201 48.8547 46.287C49.0486 46.223 49.2424 46.159 49.4369 46.0979C49.4708 46.0897 49.5072 46.0915 49.5618 46.0941C49.597 46.0958 49.6399 46.0979 49.6945 46.0979ZM47.8768 50.4727L47.8769 50.4726L47.877 50.4724C47.9286 50.3739 47.9801 50.2756 48.0336 50.1785C48.0294 50.1724 48.0246 50.1656 48.0193 50.1583C48.0071 50.1414 47.9925 50.1212 47.9779 50.0978C47.9421 50.1065 47.9063 50.1137 47.8706 50.1209L47.8705 50.121C47.7955 50.1361 47.7215 50.1511 47.6507 50.1785C47.5881 50.2053 47.5289 50.2389 47.4697 50.2725L47.4697 50.2725C47.4105 50.3061 47.3513 50.3398 47.2886 50.3666C46.8848 50.5346 46.481 50.7027 46.0702 50.8371C45.2973 51.0857 44.5175 51.3344 43.7307 51.5293C43.0762 51.6906 42.4009 51.8048 41.7255 51.8922C41.4032 51.9338 41.081 51.9775 40.7587 52.0212L40.7569 52.0214H40.7569H40.7568C39.6729 52.1684 38.5881 52.3155 37.4992 52.3828C35.48 52.5038 33.4817 52.2954 31.4904 51.946C31.3256 51.9164 31.1606 51.8882 30.9956 51.86L30.9954 51.86L30.9952 51.86C30.1848 51.7215 29.376 51.5833 28.6009 51.2874C28.5259 51.2557 28.4383 51.2545 28.3296 51.253C28.2768 51.2522 28.219 51.2514 28.1553 51.247C28.1893 51.3198 28.2166 51.386 28.2415 51.4465C28.2879 51.5592 28.3261 51.6522 28.385 51.7309C28.6427 52.0535 28.9072 52.3761 29.1857 52.6785C29.3124 52.8161 29.4376 52.9546 29.5627 53.0931L29.5628 53.0931L29.5629 53.0933C29.9879 53.5636 30.4113 54.0322 30.8846 54.4527C31.553 55.0442 32.2702 55.5818 33.1057 55.9649C33.2291 56.0219 33.3511 56.0806 33.473 56.1392L33.4732 56.1393L33.4736 56.1395L33.4737 56.1395C33.8399 56.3156 34.2041 56.4908 34.5957 56.6168C35.4661 56.899 36.3364 57.141 37.2624 57.1006C37.2997 57.1006 37.3356 57.106 37.3713 57.1113L37.3714 57.1113C37.4157 57.1179 37.4599 57.1245 37.5061 57.1208C37.7367 57.1082 37.9694 57.1054 38.202 57.1027C38.7137 57.0966 39.225 57.0906 39.7133 56.9797C40.3164 56.8465 40.8933 56.6155 41.4687 56.385L41.4689 56.385C41.6773 56.3015 41.8854 56.2182 42.0945 56.1396C42.3382 56.0522 42.5889 55.9581 42.7977 55.817C43.1609 55.5716 43.5086 55.3076 43.8552 55.0444L43.856 55.0438C43.9743 54.954 44.0925 54.8642 44.2111 54.7753C44.3037 54.7054 44.3987 54.6371 44.4937 54.5688C44.7275 54.4007 44.9621 54.2319 45.165 54.0361C45.4635 53.7479 45.7363 53.4385 46.0074 53.131L46.0074 53.131C46.1094 53.0153 46.2111 52.8999 46.3139 52.786C46.348 52.7484 46.3787 52.7041 46.4109 52.6578L46.4354 52.6226L46.4531 52.5979C46.5806 52.4183 46.7108 52.2395 46.8411 52.0607L46.8414 52.0605C47.0669 51.751 47.2927 51.4412 47.5045 51.1261C47.6442 50.9167 47.7607 50.6945 47.8768 50.4728L47.8768 50.4727Z" fill="#8858B5"/>
</svg>
