<svg width="76" height="77" viewBox="0 0 76 77" fill="none" xmlns="http://www.w3.org/2000/svg">
<path d="M73.7605 24.2344L73.7583 24.228C72.5431 20.7007 70.3768 18.4531 67.6125 17.2008C65.4 16.1985 62.8864 15.87 60.318 15.9153C60.3808 13.5404 60.1408 11.228 59.3258 9.15879C58.2932 6.53695 56.3779 4.41005 53.2797 3.04878C50.0264 1.5797 46.9857 1.51999 44.1627 2.58565C41.9091 3.43638 39.8793 4.97163 38.0169 6.89615C36.3992 4.95007 34.5584 3.45602 32.4654 2.60051C29.8352 1.52539 26.9575 1.52123 23.9036 2.66713C20.5367 3.87995 18.2973 5.94548 17.0425 8.64642C16.0273 10.8316 15.7019 13.334 15.8205 15.9636C13.3981 15.9794 11.0169 16.2718 8.88219 17.1517C6.18738 18.2623 3.98381 20.2689 2.57208 23.5505L2.57205 23.5505L2.56796 23.5601C1.15613 26.9063 1.26455 29.9328 2.39352 32.6464C3.29107 34.8037 4.80432 36.6944 6.54804 38.3778C4.36776 40.5297 2.85976 42.6484 2.08978 44.8663C1.16566 47.5283 1.3611 50.1669 2.44017 52.9037C3.52448 55.6538 5.21001 57.6865 7.72004 58.9533C9.87163 60.0393 12.5166 60.5047 15.6834 60.5222C16.185 63.8482 16.9316 66.6288 17.9788 68.8187C19.1688 71.3072 20.8007 73.1374 22.9934 74.0385C25.1793 74.9368 27.6602 74.8035 30.3303 73.9085C32.6648 73.1259 35.2366 71.7322 38.054 69.786C39.5844 71.6626 41.3819 73.1293 43.467 73.9821C46.0075 75.0212 48.8393 75.0923 51.8869 74.0737L51.8945 74.0712C55.4747 72.8531 57.725 70.6768 58.9604 67.8646C59.9387 65.6375 60.2438 63.0957 60.1964 60.4741C62.606 60.6666 64.8929 60.4432 66.9484 59.624C69.5532 58.586 71.6471 56.6459 73.1107 53.7109L73.1157 53.7007C74.7846 50.2893 74.7782 47.1862 73.6657 44.3393C72.7842 42.0834 71.2337 40.0545 69.4582 38.1787C71.3816 36.5808 72.8427 34.746 73.6873 32.6624C74.7379 30.0707 74.7779 27.2314 73.7605 24.2344Z" fill="#FAA81A" stroke="#FFF200" stroke-width="3"/>
<path fill-rule="evenodd" clip-rule="evenodd" d="M38.4888 19.9684C38.49 20.1766 38.4919 20.3849 38.4938 20.5931V22.6186C38.4938 22.6269 38.4943 22.6353 38.4948 22.6439C38.4968 22.6785 38.4988 22.7141 38.4689 22.7408C38.4378 22.7686 38.3444 22.7992 38.2697 22.7992C38.1234 22.802 37.9772 22.8006 37.8309 22.7992H37.8309C37.6846 22.7978 37.5384 22.7964 37.3921 22.7992C37.1743 22.8047 37.0062 22.7408 37 22.6297C37 22.5533 37.0031 22.4769 37.0062 22.4005C37.0093 22.3241 37.0124 22.2477 37.0124 22.1713V19.9718L32.5274 19.9718C32.5067 19.9718 32.4854 19.9724 32.4639 19.9729C32.3771 19.9752 32.2876 19.9775 32.2206 19.944C32.1508 19.9092 32.0741 19.8047 32.0741 19.7212C32.0671 19.5575 32.0706 19.3939 32.0741 19.2303C32.0776 19.0667 32.0811 18.9031 32.0741 18.7394C32.0601 18.4957 32.2206 18.3077 32.4995 18.3008C32.6913 18.3008 32.8831 18.3043 33.0749 18.3077C33.2667 18.3112 33.4585 18.3147 33.6503 18.3147L37.4581 18.3147C37.5481 18.3042 37.6525 18.2997 37.7718 18.301C37.8593 18.301 37.9468 18.3078 38.0343 18.3147L42.5357 18.3147C43.1146 18.3147 43.3796 18.5793 43.3657 19.1641C43.3657 19.2644 43.3478 19.3647 43.33 19.4649C43.3255 19.49 43.3211 19.5151 43.3169 19.5401C43.268 19.8743 43.0797 19.9788 42.738 19.9788C41.3216 19.9615 39.9052 19.9633 38.4888 19.9684ZM44.6403 29.4645C44.1269 29.4645 43.6128 29.4694 43.0985 29.4743C41.8762 29.4859 40.6525 29.4976 39.4323 29.4436C38.2276 29.3925 37.0288 29.2245 35.8358 29.0574L35.8358 29.0574L35.5053 29.0112C33.9596 28.795 32.4209 28.5369 30.8891 28.2719C30.4666 28.1972 30.0497 28.0781 29.6334 27.9592L29.6334 27.9592L29.6334 27.9592L29.6334 27.9592L29.4826 27.9162C29.4339 27.9022 29.3643 27.7349 29.3921 27.686C29.4757 27.5256 29.5801 27.3722 29.7054 27.2397C30.0396 26.877 30.3738 26.5213 30.7289 26.1796L30.7753 26.1344C30.9898 25.9257 31.2063 25.715 31.4531 25.5588L31.5967 25.4664C32.3079 25.0085 33.0214 24.5491 33.7716 24.157C34.635 23.7106 35.5889 23.5153 36.5497 23.3549C37.6707 23.1666 38.7569 23.3201 39.85 23.5223C41.1103 23.7594 42.2452 24.3104 43.2826 25.0148C43.8979 25.4365 44.4504 25.9546 45.0018 26.4716C45.1617 26.6216 45.3215 26.7714 45.4828 26.9189C45.8031 27.2118 46.1025 27.5256 46.374 27.8604C46.5985 28.1429 46.7897 28.4445 46.9829 28.7494L46.9832 28.7498L46.9835 28.7502C47.0238 28.8139 47.0642 28.8777 47.1051 28.9414C47.2443 29.1716 47.1399 29.2902 46.8962 29.3181C46.5238 29.3529 46.1497 29.386 45.7756 29.4192L45.7755 29.4192L45.7754 29.4192L45.7753 29.4192C45.401 29.4523 45.0268 29.4854 44.6542 29.5203C44.6503 29.5164 44.6486 29.5059 44.6466 29.4937C44.6451 29.4842 44.6434 29.4737 44.6403 29.4645ZM34.8462 34.5927C35.3892 34.6184 35.9307 34.644 36.4699 34.6744C36.9025 34.6508 37.3325 34.6239 37.76 34.5971L37.7601 34.5971L37.7602 34.5971L37.7603 34.5971L37.7604 34.5971C38.7227 34.5369 39.6727 34.4775 40.6127 34.4582C41.882 34.4279 43.1257 34.2078 44.3677 33.9881L44.3678 33.9881L44.3678 33.9881L44.3678 33.9881L44.3678 33.9881L44.3678 33.9881C44.8427 33.904 45.3172 33.8201 45.7929 33.7468C46.4887 33.6396 47.1743 33.4458 47.8584 33.2525C47.9753 33.2195 48.0921 33.1865 48.2089 33.1539C48.9609 32.9377 49.0305 32.8192 48.8634 32.2403C48.8438 32.1715 48.8069 32.1096 48.7697 32.0474C48.7542 32.0213 48.7385 31.9951 48.7241 31.9683C48.6811 31.88 48.6356 31.7929 48.5902 31.7059C48.4815 31.4976 48.3731 31.29 48.2994 31.0686C48.2298 30.8663 48.1532 30.8315 47.9583 30.8454C47.5222 30.8752 47.0861 30.9084 46.6498 30.9416C45.5537 31.0249 44.4566 31.1084 43.3559 31.1383C41.9843 31.1732 40.6057 31.1104 39.2271 31.0477C38.1548 30.9989 37.0756 30.9082 36.0103 30.7826C34.952 30.6571 33.9076 30.4688 32.8632 30.2805C31.9332 30.1161 31.0032 29.9339 30.0732 29.7517C29.7012 29.6788 29.3292 29.606 28.9572 29.5342C28.8458 29.5133 28.7274 29.4715 28.6369 29.4017C28.3862 29.2064 28.2052 29.2971 28.066 29.5272L28.0187 29.6066C27.8397 29.907 27.6631 30.2035 27.5159 30.5176C27.133 31.3545 26.757 32.1915 26.4088 33.0424C26.2487 33.4399 26.2835 33.5096 26.7222 33.5933C27.0746 33.6614 27.4265 33.7337 27.7785 33.8059L27.7787 33.8059C28.7966 34.0149 29.8145 34.2238 30.8441 34.3326C32.1787 34.4663 33.5168 34.5297 34.846 34.5927H34.8461H34.8461H34.8461L34.8462 34.5927ZM30.6559 41.2499L31.3502 41.2812L31.8143 41.2323L31.8144 41.2322L31.8147 41.2322C33.1056 41.0963 34.3605 40.9641 35.6044 40.8208C37.335 40.638 39.0262 40.2448 40.7162 39.8518L40.7163 39.8518L40.8681 39.8165C41.5524 39.6583 42.2168 39.4164 42.8794 39.1752C43.0932 39.0974 43.3069 39.0196 43.5209 38.9447C44.2102 38.7076 44.8856 38.4495 45.561 38.1845C45.8529 38.0675 46.142 37.9389 46.4319 37.8099C46.5914 37.739 46.7511 37.668 46.9117 37.5987C46.9863 37.5649 47.0626 37.5337 47.1391 37.5023C47.2839 37.443 47.4295 37.3833 47.5662 37.3057C48.158 36.957 48.7429 36.6013 49.3208 36.2317C49.356 36.2095 49.3931 36.1879 49.4307 36.166C49.6532 36.0366 49.8926 35.8973 49.8569 35.5691C49.8415 35.394 49.7919 35.2227 49.7418 35.0496L49.7417 35.0494L49.7417 35.0493C49.724 34.988 49.7062 34.9266 49.6898 34.8647C49.5645 34.3904 49.467 34.3556 49.0075 34.5299C48.9202 34.5624 48.833 34.5955 48.7456 34.6287C48.3451 34.7808 47.943 34.9335 47.5314 35.0251C46.3129 35.2831 45.0875 35.5342 43.8551 35.7295C42.6297 35.9248 41.3834 36.0992 40.144 36.1759C39.2488 36.2342 38.3479 36.2406 37.4468 36.247H37.4468H37.4467H37.4467H37.4467H37.4467H37.4466C36.946 36.2505 36.4453 36.2541 35.9455 36.2665C33.7662 36.3223 31.6008 36.0992 29.4494 35.7574C28.745 35.6492 28.0459 35.5007 27.3456 35.3519L27.3456 35.3518L27.3455 35.3518L27.3455 35.3518L27.3455 35.3518L27.3454 35.3518L27.3454 35.3518L27.3454 35.3518L27.3453 35.3518L27.3453 35.3518L27.3453 35.3518L27.3453 35.3518L27.3452 35.3518C26.9173 35.2609 26.489 35.1699 26.0586 35.0879C25.9611 35.0739 25.7592 35.1576 25.7383 35.2343C25.7048 35.3544 25.6703 35.4743 25.6358 35.5941L25.6358 35.5942C25.4842 36.1213 25.3329 36.6473 25.2648 37.1872C25.1459 38.1223 25.0879 39.0625 25.0302 39.9991L25.0302 39.9992C25.0203 40.1593 25.0104 40.3193 25.0003 40.4791C24.9933 40.5977 25.1325 40.786 25.2439 40.8278C25.5364 40.9324 25.8497 41.0231 26.1561 41.037C27.6665 41.1154 29.1769 41.1834 30.6558 41.2499H30.6559ZM50.3719 38.5811L50.3718 38.5807L50.3718 38.5802L50.3718 38.5798C50.3455 38.2829 50.3179 37.9718 50.2904 37.625C50.153 37.7024 50.0421 37.7613 49.9446 37.813C49.884 37.8451 49.8286 37.8746 49.7752 37.904C49.6574 37.9777 49.541 38.0539 49.4244 38.1302L49.4244 38.1303L49.4244 38.1303L49.4243 38.1303L49.4243 38.1303L49.4243 38.1303L49.4242 38.1304C49.1549 38.3067 48.8852 38.4833 48.5985 38.6293C48.0136 38.9292 47.4148 39.1942 46.816 39.4593C46.3852 39.6535 45.9503 39.8351 45.5144 40.0172L45.5141 40.0173C45.3865 40.0706 45.2588 40.1239 45.1311 40.1776C45.0499 40.2102 44.9694 40.245 44.889 40.2799L44.8889 40.2799C44.728 40.3497 44.5671 40.4194 44.4 40.4706L44.3998 40.4706C43.5156 40.7287 42.6314 40.9867 41.7403 41.2238C40.7585 41.4888 39.7768 41.7469 38.7881 41.9631C37.9108 42.1514 37.0196 42.3118 36.1284 42.4164L35.8353 42.4503L35.8353 42.4503C34.3594 42.6207 32.8831 42.7913 31.4007 42.8698C30.2101 42.9325 29.0125 42.8698 27.8219 42.8C27.3173 42.7741 26.8153 42.7 26.3127 42.6258L26.3126 42.6258L26.3126 42.6258L26.3125 42.6258L26.3125 42.6258L26.3124 42.6258L26.3124 42.6258C26.0038 42.5802 25.6949 42.5346 25.385 42.5001C25.2875 42.4862 25.0717 42.6675 25.0856 42.7094C25.1008 42.7564 25.1154 42.8055 25.1301 42.8553L25.1301 42.8554C25.1962 43.0786 25.2661 43.3149 25.4198 43.4347C25.761 43.7067 26.1718 43.895 26.5756 44.0763C26.8712 44.213 27.1751 44.3352 27.4793 44.4576L27.4794 44.4576C27.7341 44.56 27.989 44.6625 28.2397 44.7738C29.4581 45.3108 30.7114 45.7363 31.9995 46.0501C32.2265 46.1076 32.4509 46.1722 32.6744 46.2366L32.6745 46.2367L32.6746 46.2367L32.6746 46.2367L32.6747 46.2367L32.6747 46.2367L32.6747 46.2367C33.0751 46.3521 33.4729 46.4667 33.8794 46.5383C35.0213 46.7336 36.1632 46.9149 37.312 47.0265C39.6167 47.2497 41.9213 47.3264 44.212 46.9498C45.326 46.7685 46.4331 46.5453 47.5262 46.2593C48.1314 46.1001 48.7176 45.8765 49.3045 45.6527L49.3045 45.6527L49.3046 45.6527L49.3046 45.6527L49.3047 45.6526L49.3047 45.6526L49.3048 45.6526C49.5146 45.5726 49.7245 45.4926 49.9353 45.4154C50.0258 45.3875 50.1163 45.269 50.1372 45.1713C50.2068 44.8714 50.2626 44.5576 50.2974 44.2507C50.4923 42.5908 50.5689 40.9239 50.4297 39.25C50.4115 39.029 50.3921 38.8093 50.3719 38.5811ZM49.6945 47.3605C49.6374 47.5276 49.5838 47.6885 49.5317 47.8449L49.5317 47.8449L49.5316 47.8451C49.4185 48.1847 49.3124 48.503 49.1932 48.8181C49.1514 48.9227 49.0331 49.0134 48.9356 49.0692L48.9355 49.0692C48.4551 49.3552 47.9747 49.6411 47.4804 49.8922C46.9025 50.1851 46.3107 50.4571 45.7119 50.7012C45.322 50.8616 44.9042 50.9732 44.4934 51.0778C44.0916 51.1854 43.6898 51.2839 43.2879 51.3824C42.9865 51.4563 42.6851 51.5302 42.3837 51.6079C41.1235 51.9287 39.8424 52.0752 38.5404 52.131C38.2811 52.1419 38.023 52.1625 37.7651 52.1831H37.765H37.7649H37.7649H37.7648H37.7648C37.3647 52.215 36.9651 52.2468 36.563 52.2426C35.9306 52.2369 35.2982 52.1891 34.6658 52.1414C34.5253 52.1308 34.3849 52.1202 34.2444 52.1101C34.1097 52.1002 33.9747 52.0912 33.8396 52.0823L33.8395 52.0822L33.8394 52.0822L33.8394 52.0822L33.8393 52.0822L33.8392 52.0822C33.304 52.0466 32.7672 52.0108 32.2392 51.9217C31.3479 51.7753 30.4637 51.6079 29.5933 51.3777C28.7926 51.1685 28.0059 50.8895 27.24 50.5827C27.0311 50.499 26.8361 50.2339 26.7456 50.0108C26.4894 49.4138 26.2688 48.8016 26.0491 48.1915L26.0491 48.1914C26.0121 48.0887 25.9751 47.9861 25.938 47.8836C25.9066 47.8011 25.8951 47.7098 25.8836 47.6184C25.8746 47.5474 25.8657 47.4764 25.8474 47.4093C25.7743 47.1164 25.7012 46.8252 25.6281 46.534L25.6281 46.5339L25.6281 46.5338L25.628 46.5336L25.628 46.5335L25.628 46.5335C25.5549 46.2425 25.4819 45.9515 25.4088 45.6587C25.3879 45.582 25.374 45.5053 25.4227 45.3379C25.4625 45.3561 25.5027 45.3744 25.543 45.3928L25.5431 45.3928L25.5435 45.393L25.5438 45.3931L25.5441 45.3932C25.673 45.4518 25.804 45.5114 25.931 45.575C26.0122 45.6169 26.0919 45.6618 26.1716 45.7068C26.331 45.7967 26.4903 45.8865 26.6621 45.9516C26.8075 46.0109 26.9529 46.0707 27.0984 46.1305C27.7402 46.3943 28.3836 46.6588 29.0363 46.8862C29.851 47.1722 30.6795 47.4163 31.5081 47.6394C32.2879 47.8487 33.0747 48.044 33.8684 48.1765L34.0176 48.2014C35.2217 48.4026 36.4322 48.605 37.6491 48.6786C39.1948 48.7763 40.7545 48.7833 42.3002 48.7414C43.3933 48.7135 44.4934 48.581 45.5796 48.4276C46.243 48.3345 46.8937 48.1529 47.5379 47.973L47.6336 47.9463C48.0473 47.8333 48.4515 47.6949 48.8547 47.5567C49.0487 47.4903 49.2424 47.4239 49.4369 47.3605C49.4708 47.352 49.5072 47.3538 49.5618 47.3566C49.597 47.3583 49.6399 47.3605 49.6945 47.3605ZM47.8768 51.9008C47.9285 51.7985 47.9801 51.6963 48.0336 51.5954C48.0294 51.5891 48.0246 51.5821 48.0193 51.5745C48.0071 51.557 47.9925 51.536 47.9779 51.5117C47.9421 51.5207 47.9062 51.5282 47.8705 51.5357C47.7955 51.5515 47.7215 51.567 47.6507 51.5954C47.588 51.6233 47.5288 51.6582 47.4697 51.6931C47.4105 51.7279 47.3513 51.7628 47.2886 51.7907C46.8848 51.9651 46.481 52.1394 46.0702 52.2789C45.2973 52.537 44.5175 52.795 43.7307 52.9973C43.0762 53.1647 42.4009 53.2832 41.7255 53.3739C41.4027 53.4171 41.08 53.4625 40.7571 53.508L40.757 53.508L40.7569 53.508L40.7568 53.508C39.6729 53.6605 38.5881 53.8132 37.4992 53.883C35.48 54.0086 33.4817 53.7924 31.4904 53.4297C31.3257 53.399 31.1608 53.3698 30.996 53.3406L30.9956 53.3405L30.9952 53.3404C30.1848 53.1967 29.376 53.0533 28.6009 52.7462C28.5259 52.7133 28.4383 52.7121 28.3296 52.7105H28.3294C28.2767 52.7097 28.219 52.7089 28.1553 52.7043C28.1893 52.7798 28.2166 52.8485 28.2415 52.9113C28.2879 53.0283 28.3261 53.1248 28.385 53.2065C28.6427 53.5413 28.9072 53.876 29.1857 54.1899C29.3125 54.3327 29.4378 54.4766 29.5629 54.6203C29.9879 55.1084 30.4113 55.5947 30.8846 56.0311C31.553 56.6449 32.2702 57.2029 33.1057 57.6004C33.2293 57.6597 33.3515 57.7207 33.4736 57.7816L33.4736 57.7816C33.8398 57.9644 34.2041 58.1461 34.5957 58.2769C35.4661 58.5698 36.3364 58.8209 37.2624 58.7791C37.2997 58.7791 37.3356 58.7846 37.3713 58.7901L37.3714 58.7902C37.4157 58.797 37.4599 58.8039 37.5061 58.8C37.7367 58.7869 37.9693 58.7841 38.2018 58.7812H38.2019H38.202C38.7137 58.7749 39.225 58.7686 39.7133 58.6535C40.3164 58.5153 40.8933 58.2756 41.4687 58.0365L41.4687 58.0364L41.4687 58.0364L41.4688 58.0364L41.4689 58.0364C41.6772 57.9498 41.8854 57.8633 42.0945 57.7817C42.3382 57.6911 42.5889 57.5934 42.7977 57.447C43.1608 57.1924 43.5085 56.9184 43.8551 56.6453L43.8552 56.6452C43.9738 56.5517 44.0922 56.4584 44.2111 56.3659C44.3037 56.2933 44.3987 56.2225 44.4937 56.1516C44.7275 55.9771 44.9621 55.802 45.165 55.5987C45.4636 55.2997 45.7363 54.9786 46.0074 54.6594L46.0079 54.6589C46.1097 54.539 46.2113 54.4195 46.3139 54.3015C46.348 54.2624 46.3787 54.2165 46.4108 54.1685C46.4246 54.148 46.4385 54.1271 46.4531 54.1062C46.5806 53.9197 46.711 53.7342 46.8413 53.5485C47.0669 53.2273 47.2927 52.9059 47.5045 52.5788C47.6443 52.3616 47.7607 52.1309 47.8768 51.9008Z" fill="white"/>
</svg>
