<svg width="16" height="16" viewBox="0 0 16 16" fill="none" xmlns="http://www.w3.org/2000/svg">
<g clip-path="url(#clip0_6600_24451)">
<path d="M5.58922 0.734375L1.59961 4.72399V10.4092L5.58922 14.3988H11.2744L15.3139 10.4092" stroke="#564A8D" stroke-width="2"/>
<path d="M13.4686 1.23429C13.4187 1.28416 13.4187 1.28416 13.3689 1.33403C11.5735 3.12935 9.82808 4.87481 8.03276 6.67013C7.98289 6.72 7.98289 6.76987 7.98289 6.81974C7.98289 7.2187 7.98289 7.66753 7.98289 8.06649C7.98289 8.11636 7.98289 8.16623 7.98289 8.16623C8.03276 8.16623 8.08263 8.16623 8.08263 8.16623C8.48159 8.16623 8.88055 8.16623 9.27951 8.16623C9.37925 8.16623 9.42912 8.11636 9.47899 8.06649C11.2743 6.27117 13.0198 4.52571 14.8151 2.73039C14.865 2.68052 14.865 2.68052 14.865 2.68052C14.4161 2.18182 13.9174 1.73299 13.4686 1.23429ZM16.2115 2.78026C16.1616 2.92987 16.012 3.07948 15.9122 3.17922C13.9673 5.12416 12.0224 7.06909 10.0774 9.01403C9.92782 9.16364 9.77821 9.26338 9.52886 9.26338C8.83068 9.26338 8.1325 9.26338 7.48418 9.26338C7.13509 9.26338 6.88574 9.0639 6.88574 8.66494V6.57039C6.88574 6.37091 6.93561 6.2213 7.08522 6.12156C9.08003 4.12675 11.025 2.13195 13.0198 0.187013C13.2691 -0.0623377 13.5683 -0.0623377 13.8177 0.187013C14.5159 0.885195 15.2639 1.58338 15.9621 2.33143C16.0618 2.43117 16.1117 2.53091 16.1616 2.63065V2.78026H16.2115Z" fill="#564A8D"/>
</g>
<defs>
<clipPath id="clip0_6600_24451">
<rect width="16" height="16" fill="white"/>
</clipPath>
</defs>
</svg>
