<svg width="20" height="20" viewBox="0 0 20 20" fill="none" xmlns="http://www.w3.org/2000/svg">
<path fill-rule="evenodd" clip-rule="evenodd" d="M10.594 19.4902L10.582 19.4921L10.511 19.5242L10.491 19.5278L10.477 19.5242L10.406 19.4912C10.3953 19.4887 10.3873 19.4905 10.382 19.4967L10.378 19.5058L10.361 19.8982L10.366 19.9166L10.376 19.9285L10.48 19.9963L10.495 20L10.507 19.9963L10.611 19.9285L10.623 19.9138L10.627 19.8982L10.61 19.5067C10.6073 19.497 10.602 19.4915 10.594 19.4902ZM10.858 19.3866L10.844 19.3885L10.66 19.4737L10.65 19.4829L10.647 19.493L10.665 19.8872L10.67 19.8982L10.678 19.9056L10.879 19.9899C10.8917 19.993 10.9013 19.9905 10.908 19.9826L10.912 19.9697L10.878 19.4068C10.8747 19.3952 10.868 19.3885 10.858 19.3866ZM10.143 19.3885C10.1386 19.386 10.1333 19.3852 10.1283 19.3862C10.1233 19.3873 10.1189 19.39 10.116 19.394L10.11 19.4068L10.076 19.9697C10.0767 19.9807 10.0823 19.9881 10.093 19.9917L10.108 19.9899L10.309 19.9046L10.319 19.8973L10.322 19.8872L10.34 19.493L10.337 19.482L10.327 19.4728L10.143 19.3885Z" fill="#FFF200"/>
<path fill-rule="evenodd" clip-rule="evenodd" d="M10 0C4.477 0 0 4.1047 0 9.16842C0 14.2321 4.477 18.3368 10 18.3368C15.523 18.3368 20 14.2321 20 9.16842C20 4.1047 15.523 0 10 0ZM6.5 6.87632C6.5 6.45491 6.59053 6.03763 6.76642 5.64831C6.94231 5.25898 7.20012 4.90523 7.52513 4.60725C7.85013 4.30927 8.23597 4.0729 8.66061 3.91164C9.08525 3.75037 9.54037 3.66737 10 3.66737C10.4596 3.66737 10.9148 3.75037 11.3394 3.91164C11.764 4.0729 12.1499 4.30927 12.4749 4.60725C12.7999 4.90523 13.0577 5.25898 13.2336 5.64831C13.4095 6.03763 13.5 6.45491 13.5 6.87632C13.5 7.72738 13.1313 8.54359 12.4749 9.14539C11.8185 9.74718 10.9283 10.0853 10 10.0853C9.07174 10.0853 8.1815 9.74718 7.52513 9.14539C6.86875 8.54359 6.5 7.72738 6.5 6.87632ZM16.258 13.738C15.5092 14.601 14.5575 15.298 13.4739 15.7768C12.3904 16.2556 11.2029 16.5039 10 16.5032C8.79715 16.5039 7.60965 16.2556 6.52607 15.7768C5.44249 15.298 4.49081 14.601 3.742 13.738C5.363 12.6717 7.575 11.919 10 11.919C12.425 11.919 14.637 12.6717 16.258 13.738Z" fill="#FFF200"/>
</svg>
