<svg width="76" height="76" viewBox="0 0 76 76" fill="none" xmlns="http://www.w3.org/2000/svg">
<path d="M73.7605 23.9336L73.7583 23.9273C72.5431 20.3999 70.3768 18.1523 67.6125 16.9C65.4 15.8977 62.8864 15.5692 60.318 15.6145C60.3808 13.2396 60.1408 10.9273 59.3258 8.85801C58.2932 6.23617 56.3779 4.10927 53.2797 2.748C50.0264 1.27892 46.9857 1.21921 44.1627 2.28487C41.9091 3.1356 39.8793 4.67085 38.0169 6.59537C36.3992 4.64929 34.5584 3.15524 32.4654 2.29973C29.8352 1.22461 26.9575 1.22045 23.9036 2.36634C20.5367 3.57917 18.2973 5.6447 17.0425 8.34564C16.0273 10.5308 15.7019 13.0333 15.8205 15.6628C13.3981 15.6786 11.0169 15.971 8.88219 16.8509C6.18738 17.9616 3.98381 19.9681 2.57208 23.2497L2.57205 23.2497L2.56796 23.2594C1.15613 26.6055 1.26455 29.6321 2.39352 32.3456C3.29107 34.503 4.80432 36.3936 6.54804 38.077C4.36776 40.2289 2.85976 42.3476 2.08978 44.5655C1.16566 47.2275 1.3611 49.8661 2.44017 52.6029C3.52448 55.353 5.21001 57.3857 7.72004 58.6525C9.87163 59.7385 12.5166 60.204 15.6834 60.2214C16.185 63.5474 16.9316 66.328 17.9788 68.5179C19.1688 71.0065 20.8007 72.8367 22.9934 73.7377C25.1793 74.636 27.6602 74.5027 30.3303 73.6077C32.6648 72.8252 35.2366 71.4315 38.054 69.4852C39.5844 71.3618 41.3819 72.8285 43.467 73.6813C46.0075 74.7204 48.8393 74.7916 51.8869 73.773L51.8945 73.7704C55.4747 72.5524 57.725 70.376 58.9604 67.5638C59.9387 65.3367 60.2438 62.7949 60.1964 60.1734C62.606 60.3658 64.8929 60.1424 66.9484 59.3233C69.5532 58.2852 71.6471 56.3451 73.1107 53.4101L73.1157 53.3999C74.7846 49.9885 74.7782 46.8854 73.6657 44.0385C72.7842 41.7826 71.2337 39.7537 69.4582 37.878C71.3816 36.2801 72.8427 34.4452 73.6873 32.3616C74.7379 29.77 74.7779 26.9306 73.7605 23.9336Z" fill="#FAA81A" stroke="#FFF200" stroke-width="3"/>
<path fill-rule="evenodd" clip-rule="evenodd" d="M46.5696 39.391C46.5696 38.8881 46.5696 38.5065 46.5696 38.125C46.9859 38.1683 47.3934 38.229 47.801 38.2377C48.2172 38.2551 48.5641 38.099 48.7202 37.6654C48.8849 37.2145 48.8676 36.7549 48.4774 36.4774C47.9744 36.1218 47.3847 35.8704 46.7431 35.5235C46.7864 35.2027 46.8384 34.7344 46.9338 34.2748C46.9512 34.1968 47.1593 34.1361 47.2894 34.1187C48.8156 33.9626 50.203 33.4683 51.4691 32.5925C56.2558 29.2713 56.1951 22.0045 51.3477 18.7787C51.0788 18.5966 50.9574 18.4231 50.9748 18.085C51.0095 17.4693 50.9921 16.8449 50.9835 16.2206C50.9748 15.6916 50.6453 15.3187 50.1597 15.3014C49.6914 15.284 49.3012 15.6482 49.2752 16.1772C49.2491 16.6802 49.2665 17.1831 49.2665 17.7468C48.0178 17.3652 46.7864 17.2265 45.4857 17.4346C45.4857 17.0183 45.4943 16.6541 45.4857 16.2813C45.477 15.6829 45.1301 15.2927 44.6185 15.3014C44.1069 15.31 43.7774 15.7003 43.7774 16.2986C43.7774 16.7322 43.7947 17.1658 43.76 17.5993C43.7514 17.7294 43.63 17.9115 43.5086 17.9636C41.8696 18.6399 40.6469 19.7846 39.5977 21.1981C38.1755 23.0971 37.5512 25.265 37.2997 27.5457C37.0742 29.5921 37.0395 31.6647 36.9268 33.7198C36.9181 33.9106 36.9355 34.1014 36.8921 34.2835C36.6927 34.9945 36.9788 35.4628 37.5078 35.9224C39.1901 37.3706 41.1586 38.2204 43.2831 38.7407C44.3497 39.0008 45.425 39.1742 46.5696 39.391ZM44.9654 23.4613C45.0954 23.0711 45.1562 22.7069 45.3209 22.4034C45.5897 21.9091 46.058 21.9004 46.3962 22.3427C46.8124 22.8977 46.8124 23.9816 46.3962 24.5453C46.11 24.9268 45.6504 24.9615 45.399 24.554C45.1908 24.2244 45.1041 23.8255 44.9654 23.4613ZM50.5846 23.4874C50.7407 23.0798 50.836 22.6722 51.0528 22.334C51.2696 21.9785 51.6945 22.0132 51.972 22.3254C52.4576 22.863 52.4663 24.077 51.998 24.632C51.6859 24.9962 51.2783 25.0049 51.0268 24.5886C50.836 24.2678 50.7407 23.8862 50.5846 23.4874Z" fill="white"/>
<path fill-rule="evenodd" clip-rule="evenodd" d="M35.7049 39.1055C35.0372 40.4062 34.1614 41.5075 32.9994 42.3833C33.537 43.5106 34.2394 44.4905 35.0893 45.3663C36.8756 47.2134 39.0435 48.4794 41.4108 49.4246C41.8097 49.5807 42.1826 49.8062 42.5728 49.9883C43.0931 50.2398 43.6134 50.3525 44.1164 49.9536C44.5846 49.5807 44.654 49.1645 44.3158 48.6702C44.1597 48.4448 43.9603 48.254 43.7782 48.0459C44.2551 47.2828 44.7234 46.5197 45.1917 45.7739C45.5645 45.8346 45.9548 45.9387 46.3536 45.956C46.7872 45.982 47.0907 45.7392 47.2642 45.349C47.4376 44.9501 47.4203 44.5425 47.1167 44.2217C46.9086 44.0049 46.6658 43.7968 46.4057 43.6754C46.0848 43.5193 45.9548 43.3632 46.1195 43.025C46.1715 42.9123 46.1715 42.7822 46.1976 42.6174C42.3647 42.444 38.8094 41.5422 35.7049 39.1055Z" fill="white"/>
<path fill-rule="evenodd" clip-rule="evenodd" d="M29.1241 53.5522C29.4883 54.9223 29.9306 55.3906 30.7197 55.2865C31.3354 55.2085 31.5001 54.8703 31.5521 53.5522C32.506 53.4222 33.4599 53.2747 34.4138 53.162C34.5092 53.1533 34.6652 53.2487 34.7346 53.3441C34.9341 53.6043 35.0815 53.9164 35.3069 54.1506C35.6798 54.5321 36.2608 54.5668 36.7031 54.3067C37.0499 54.0985 37.1713 53.7083 37.0499 53.1533C37.0066 52.9539 36.9632 52.7631 36.9025 52.5377C37.5009 52.3122 38.0818 52.0867 38.7929 51.8179C34.5178 50.5952 31.5782 47.9937 29.8265 44.1175C28.7079 44.291 27.6326 44.4644 26.5486 44.6118C26.2365 44.6552 25.9156 44.6725 25.5948 44.6639C25.2219 44.6465 25.1438 44.7939 25.1612 45.1495C25.2913 47.8637 26.1758 50.3351 27.5632 52.6417C27.9361 53.2314 28.2396 53.8644 29.1241 53.5522Z" fill="white"/>
<path fill-rule="evenodd" clip-rule="evenodd" d="M24.0695 53.2822C22.5347 50.5506 22.1531 47.6543 22.0751 44.6973C19.9592 44.5499 17.1323 45.9113 17.0022 48.9377C16.9588 49.9696 17.3838 50.8194 18.1729 51.4785C19.2481 52.3803 20.5576 52.7359 21.9016 52.97C22.5867 53.0914 23.2718 53.1694 24.0695 53.2822Z" fill="white"/>
</svg>
