<svg width="76" height="74" viewBox="0 0 76 74" fill="none" xmlns="http://www.w3.org/2000/svg">
<path d="M73.7549 23.4894L73.7525 23.4829C72.5283 20.0588 70.3499 17.8908 67.5937 16.6875C65.388 15.7247 62.8823 15.4088 60.3194 15.4523C60.3769 13.1746 60.1333 10.9517 59.3186 8.9585C58.2768 6.40942 56.3508 4.35883 53.261 3.05069C50.0163 1.63877 46.9903 1.58271 44.1797 2.60509C41.9222 3.42625 39.886 4.9126 38.0155 6.77918C36.3903 4.89056 34.5432 3.44449 32.4476 2.61908C29.8286 1.58752 26.965 1.58279 23.9203 2.6837C20.5647 3.84843 18.3163 5.83711 17.0517 8.46019C16.0362 10.5665 15.7066 12.9743 15.8179 15.4989C13.4008 15.5143 11.0275 15.7957 8.90012 16.6406C6.21436 17.7072 4.00134 19.6409 2.58029 22.8239L2.58025 22.8239L2.57593 22.8337C1.15375 26.0817 1.26168 29.0289 2.40132 31.6684C3.2935 33.7348 4.78758 35.5438 6.5063 37.1525C4.35818 39.2068 2.86394 41.2372 2.09561 43.3698C1.16156 45.9624 1.36126 48.5325 2.44734 51.1869C3.53963 53.8564 5.23438 55.8185 7.73986 57.037C9.88675 58.0812 12.5263 58.5287 15.6906 58.5448C16.1933 61.7394 16.9403 64.4159 17.9884 66.5279C19.1864 68.942 20.8254 70.7066 23.0113 71.5723C25.1841 72.4327 27.6508 72.3066 30.3147 71.4462C32.6525 70.691 35.2314 69.3432 38.0595 67.4583C39.5965 69.2779 41.399 70.6958 43.4848 71.5179C46.015 72.5151 48.8333 72.5838 51.8712 71.6054L51.8786 71.603C55.4463 70.4334 57.7064 68.3384 58.9519 65.6063C59.9305 63.4597 60.2394 61.0145 60.1974 58.4984C62.602 58.6838 64.882 58.4691 66.9309 57.6823C69.5272 56.6853 71.6283 54.8162 73.1005 51.9712L73.1058 51.9609C74.7861 48.6512 74.7821 45.629 73.6587 42.8587C72.7826 40.6983 71.2523 38.7575 69.5021 36.967C71.3942 35.4388 72.8388 33.6824 73.6799 31.6831C74.7405 29.1616 74.7796 26.398 73.7549 23.4894Z" fill="#DFDCF1" stroke="#A082B6" stroke-width="3"/>
<path fill-rule="evenodd" clip-rule="evenodd" d="M46.5696 38.4185C46.5696 37.9338 46.5696 37.5662 46.5696 37.1985C46.9859 37.2403 47.3934 37.2988 47.801 37.3071C48.2172 37.3239 48.5641 37.1734 48.7202 36.7556C48.8849 36.3211 48.8676 35.8783 48.4774 35.6109C47.9744 35.2683 47.3847 35.026 46.7431 34.6917C46.7864 34.3826 46.8384 33.9313 46.9338 33.4885C46.9512 33.4133 47.1593 33.3548 47.2894 33.3381C48.8156 33.1877 50.203 32.7114 51.4691 31.8674C56.2558 28.6671 56.1951 21.6648 51.3477 18.5564C51.0788 18.3809 50.9574 18.2138 50.9748 17.8879C51.0095 17.2946 50.9921 16.693 50.9835 16.0914C50.9748 15.5817 50.6453 15.2224 50.1597 15.2057C49.6914 15.1889 49.3012 15.5399 49.2752 16.0496C49.2491 16.5342 49.2665 17.0189 49.2665 17.562C48.0178 17.1944 46.7864 17.0607 45.4857 17.2612C45.4857 16.8601 45.4943 16.5092 45.4857 16.1499C45.477 15.5733 45.1301 15.1973 44.6185 15.2057C44.1069 15.214 43.7774 15.59 43.7774 16.1666C43.7774 16.5844 43.7947 17.0022 43.76 17.42C43.7514 17.5453 43.63 17.7208 43.5086 17.7709C41.8696 18.4227 40.6469 19.5257 39.5977 20.8877C38.1755 22.7177 37.5512 24.8066 37.2997 27.0043C37.0742 28.9763 37.0395 30.9733 36.9268 32.9537C36.9181 33.1375 36.9355 33.3214 36.8921 33.4968C36.6927 34.182 36.9788 34.6332 37.5078 35.0761C39.1901 36.4715 41.1586 37.2904 43.2831 37.7918C44.3497 38.0425 45.425 38.2096 46.5696 38.4185ZM44.9654 23.0686C45.0954 22.6926 45.1562 22.3416 45.3209 22.0492C45.5897 21.5729 46.058 21.5645 46.3962 21.9907C46.8124 22.5255 46.8124 23.57 46.3962 24.1131C46.11 24.4808 45.6504 24.5142 45.399 24.1214C45.1908 23.8039 45.1041 23.4196 44.9654 23.0686ZM50.5846 23.0937C50.7407 22.7009 50.836 22.3082 51.0528 21.9823C51.2696 21.6397 51.6945 21.6732 51.972 21.974C52.4576 22.492 52.4663 23.6619 51.998 24.1967C51.6859 24.5476 51.2783 24.556 51.0268 24.1549C50.836 23.8457 50.7407 23.478 50.5846 23.0937Z" fill="#8858B5"/>
<path fill-rule="evenodd" clip-rule="evenodd" d="M35.7049 38.1433C35.0372 39.3967 34.1614 40.4579 32.9994 41.3018C33.537 42.3881 34.2394 43.3323 35.0893 44.1763C36.8756 45.9561 39.0435 47.1761 41.4108 48.0869C41.8097 48.2373 42.1826 48.4545 42.5728 48.63C43.0931 48.8723 43.6134 48.981 44.1164 48.5966C44.5846 48.2373 44.654 47.8362 44.3158 47.3599C44.1597 47.1427 43.9603 46.9588 43.7782 46.7583C44.2551 46.023 44.7234 45.2876 45.1917 44.569C45.5645 44.6275 45.9548 44.7278 46.3536 44.7445C46.7872 44.7696 47.0907 44.5356 47.2642 44.1596C47.4376 43.7752 47.4203 43.3825 47.1167 43.0733C46.9086 42.8644 46.6658 42.6639 46.4057 42.5469C46.0848 42.3965 45.9548 42.2461 46.1195 41.9202C46.1715 41.8116 46.1715 41.6862 46.1976 41.5275C42.3647 41.3603 38.8094 40.4913 35.7049 38.1433Z" fill="#8858B5"/>
<path fill-rule="evenodd" clip-rule="evenodd" d="M29.1241 52.0642C29.4883 53.3845 29.9306 53.8357 30.7197 53.7354C31.3354 53.6602 31.5001 53.3343 31.5521 52.0642C32.506 51.9389 33.4599 51.7968 34.4138 51.6882C34.5092 51.6799 34.6652 51.7718 34.7346 51.8637C34.9341 52.1144 35.0815 52.4152 35.3069 52.6408C35.6798 53.0085 36.2608 53.0419 36.7031 52.7912C37.0499 52.5907 37.1713 52.2146 37.0499 51.6799C37.0066 51.4877 36.9632 51.3038 36.9025 51.0866C37.5009 50.8693 38.0818 50.6521 38.7929 50.393C34.5178 49.2148 31.5782 46.7081 29.8265 42.973C28.7079 43.1401 27.6326 43.3072 26.5486 43.4492C26.2365 43.491 25.9156 43.5077 25.5948 43.4994C25.2219 43.4827 25.1438 43.6247 25.1612 43.9673C25.2913 46.5827 26.1758 48.9642 27.5632 51.1869C27.9361 51.7551 28.2396 52.365 29.1241 52.0642Z" fill="#8858B5"/>
<path fill-rule="evenodd" clip-rule="evenodd" d="M24.0695 51.804C22.5347 49.1719 22.1531 46.381 22.0751 43.5316C19.9592 43.3896 17.1323 44.7014 17.0022 47.6177C16.9588 48.612 17.3838 49.4309 18.1729 50.066C19.2481 50.935 20.5576 51.2776 21.9017 51.5032C22.5867 51.6202 23.2718 51.6954 24.0695 51.804Z" fill="#8858B5"/>
</svg>
