<svg width="48" height="46" viewBox="0 0 48 46" fill="none" xmlns="http://www.w3.org/2000/svg">
<g clip-path="url(#clip0_5121_34793)">
<path d="M24.2 1L8.6 7.4L2 22.8L8.4 38.2L23.9 44.4L39.5 37.9L46.1 22.5L39.8 7.2L24.2 1Z" fill="#D5D1ED"/>
<path d="M24.3523 0.800049L8.75234 7.20005L2.15234 22.6L8.55234 38L24.0523 44.2001L39.6523 37.7001L46.2523 22.3L39.9523 7.00005L24.3523 0.800049Z" stroke="white" stroke-width="2"/>
<path d="M17.3228 16.3461C17.9003 16.3461 18.4778 16.3576 19.0496 16.3403C19.3499 16.3345 19.552 16.4445 19.7022 16.7107C20.2161 17.6253 20.7532 18.5224 21.2615 19.437C21.3712 19.6338 21.4982 19.6916 21.7119 19.6916C22.7572 19.6801 23.8083 19.6916 24.8537 19.6801C25.1597 19.6743 25.3561 19.79 25.5063 20.0563C26.0203 20.9708 26.5573 21.868 27.0656 22.7825C27.1753 22.9793 27.2966 23.0372 27.516 23.0372C28.5556 23.0256 29.5893 23.0372 30.6289 23.0256C30.9234 23.0198 31.1082 23.1356 31.2526 23.3903C31.8359 24.4148 32.4308 25.4393 33.0314 26.458C33.1815 26.7127 33.1873 26.9269 33.0372 27.1815C32.4365 28.2118 31.8417 29.2421 31.2526 30.2782C31.1025 30.5445 30.9003 30.6544 30.6 30.6486C29.5547 30.6429 28.5036 30.6486 27.4583 30.6429C27.2677 30.6429 27.1695 30.7007 27.0771 30.8628C26.5631 31.7773 26.0318 32.6745 25.5178 33.589C25.3561 33.8727 25.154 34 24.8248 34C23.6524 33.9884 22.48 33.9884 21.3077 34C21.0131 34 20.8225 33.89 20.6782 33.6353C20.1526 32.7092 19.6097 31.7889 19.09 30.857C18.9976 30.6892 18.8936 30.6371 18.703 30.6371C17.6577 30.6486 16.6066 30.6371 15.5613 30.6429C15.2495 30.6486 15.0415 30.5329 14.8856 30.2551C14.3081 29.2363 13.7248 28.2176 13.1299 27.2105C12.9682 26.9384 12.9625 26.7069 13.1242 26.4349C13.6555 25.5319 14.1695 24.6174 14.7008 23.7202C14.799 23.5466 14.8048 23.4192 14.7008 23.2514C14.1637 22.3426 13.6497 21.4165 13.1126 20.5078C12.9625 20.2531 12.9625 20.0331 13.1126 19.7842C13.719 18.7713 14.3196 17.7352 14.9029 16.6992C15.0473 16.4387 15.2437 16.3403 15.5324 16.3403C16.1331 16.3519 16.7279 16.3461 17.3228 16.3461ZM23.0864 33.0681C23.5542 33.0681 24.0278 33.0623 24.4956 33.0739C24.6746 33.0797 24.7728 33.016 24.8594 32.8597C25.3214 32.0378 25.795 31.2275 26.2686 30.4171C26.3552 30.2666 26.3668 30.1567 26.2744 30.0062C25.7892 29.19 25.3157 28.3681 24.8537 27.5404C24.7613 27.3725 24.6573 27.3147 24.4725 27.3204C23.5427 27.332 22.6129 27.3262 21.6773 27.3204C21.504 27.3204 21.4001 27.361 21.3134 27.523C20.8456 28.3507 20.3721 29.1727 19.8927 29.9946C19.8061 30.1451 19.7946 30.2608 19.887 30.4171C20.3663 31.2275 20.8399 32.0436 21.3019 32.8597C21.3943 33.0218 21.4925 33.0913 21.6831 33.0855C22.1451 33.0623 22.6186 33.0681 23.0864 33.0681ZM17.2997 29.7168C17.779 29.7168 18.2583 29.7283 18.7377 29.7052C18.8474 29.6994 18.9918 29.6184 19.0438 29.5257C19.5347 28.7038 20.0082 27.8645 20.4934 27.0368C20.5742 26.8979 20.58 26.7879 20.4934 26.6432C20.0082 25.8155 19.5289 24.9878 19.0553 24.1485C18.9745 24.0038 18.8821 23.9517 18.7146 23.9517C17.7617 23.9575 16.8145 23.9575 15.8616 23.9517C15.6941 23.9517 15.6075 24.0038 15.5267 24.1485C15.0646 24.982 14.5853 25.8039 14.1291 26.6374C14.0713 26.7416 14.0655 26.9211 14.1233 27.0195C14.5853 27.8645 15.0589 28.698 15.5498 29.5257C15.6017 29.6184 15.7519 29.6994 15.8616 29.6994C16.341 29.7283 16.8203 29.7168 17.2997 29.7168ZM28.8617 23.9633C28.3939 23.9633 27.9203 23.9691 27.4525 23.9575C27.2908 23.9517 27.1984 23.998 27.1118 24.1427C26.644 24.982 26.1646 25.8097 25.6737 26.6374C25.5929 26.7821 25.5871 26.8805 25.668 27.0253C26.1473 27.8472 26.6266 28.6691 27.0887 29.4968C27.1811 29.6647 27.285 29.7225 27.4756 29.7168C28.3996 29.7052 29.3179 29.7052 30.2419 29.7168C30.4267 29.7168 30.5365 29.6704 30.6289 29.5026C31.0909 28.6807 31.5587 27.8703 32.038 27.0542C32.1247 26.9037 32.142 26.7995 32.0496 26.6374C31.5587 25.8097 31.0793 24.9762 30.6116 24.1427C30.5249 23.9922 30.4325 23.9517 30.2708 23.9517C29.7972 23.9691 29.3295 23.9633 28.8617 23.9633ZM17.2939 23.043C17.7732 23.043 18.2526 23.0546 18.7319 23.0372C18.8416 23.0314 18.986 22.9504 19.038 22.8636C19.5404 22.0243 20.0256 21.1734 20.5049 20.3225C20.5511 20.2415 20.5569 20.0968 20.5107 20.0216C20.0313 19.1649 19.5462 18.3198 19.0438 17.4748C18.9918 17.3879 18.8532 17.3127 18.755 17.3127C17.7848 17.3011 16.8145 17.3011 15.8443 17.3127C15.7403 17.3127 15.5902 17.3995 15.5382 17.4921C15.0589 18.3083 14.5853 19.1475 14.1233 19.9868C14.0713 20.0794 14.0771 20.2531 14.1291 20.3457C14.5911 21.185 15.0762 22.0185 15.544 22.8578C15.6306 23.0083 15.7288 23.0488 15.8905 23.043C16.3525 23.0372 16.8261 23.043 17.2939 23.043ZM23.0922 20.6583C22.6013 20.6583 22.1104 20.6467 21.6253 20.6641C21.5271 20.6698 21.3827 20.7393 21.3365 20.8261C20.8399 21.6596 20.3605 22.4989 19.887 23.344C19.8408 23.4308 19.835 23.5929 19.887 23.6797C20.3548 24.5132 20.8341 25.3467 21.3308 26.1686C21.3885 26.2612 21.5329 26.348 21.6426 26.348C22.6129 26.3596 23.5831 26.3596 24.5533 26.348C24.6515 26.348 24.7901 26.267 24.8363 26.1802C25.333 25.3467 25.8123 24.5074 26.2859 23.6623C26.3321 23.5755 26.3321 23.4192 26.2859 23.3382C25.8181 22.4989 25.3388 21.6654 24.8479 20.8435C24.7959 20.7509 24.6457 20.6698 24.5418 20.6641C24.0509 20.6467 23.5716 20.6583 23.0922 20.6583Z" fill="#855AA5"/>
<path d="M24.4147 19.0442C23.8892 19.0442 23.3579 19.0384 22.8323 19.0442C22.5435 19.05 22.3472 18.9458 22.197 18.6911C21.6599 17.7477 21.1171 16.81 20.5684 15.8723C20.424 15.6292 20.4183 15.415 20.5626 15.1719C21.1113 14.2342 21.6542 13.2966 22.1913 12.3531C22.3299 12.11 22.5089 12 22.7919 12C23.8776 12.0116 24.9634 12.0116 26.0433 12C26.3263 12 26.5111 12.1042 26.6497 12.3473C27.1926 13.3081 27.7355 14.269 28.2841 15.224C28.4112 15.4498 28.4112 15.6465 28.2841 15.8723C27.7355 16.8158 27.1868 17.765 26.644 18.7201C26.5169 18.9458 26.3321 19.0442 26.078 19.0442C25.5236 19.0384 24.9691 19.0442 24.4147 19.0442ZM24.432 12.9319C24.022 12.9319 23.6062 12.9435 23.1961 12.9261C23.0113 12.9203 22.9016 12.9666 22.8092 13.1403C22.3992 13.8696 21.9718 14.5873 21.5675 15.3166C21.5098 15.415 21.5098 15.6002 21.5618 15.6986C21.966 16.4395 22.3876 17.1688 22.8208 17.8981C22.8785 17.9965 23.0344 18.0892 23.1499 18.0892C23.9931 18.1065 24.8363 18.1065 25.6795 18.0892C25.795 18.0892 25.9452 17.9908 26.0087 17.8924C26.4418 17.1688 26.8634 16.4395 27.2735 15.6986C27.3254 15.6002 27.3197 15.415 27.2677 15.3166C26.8576 14.5757 26.4245 13.8522 26.0087 13.1171C25.9278 12.9724 25.8297 12.9203 25.6679 12.9261C25.2579 12.9377 24.8479 12.9319 24.432 12.9319Z" fill="#855AA5"/>
<path d="M30.7633 16.855C31.0983 16.855 31.4332 16.8607 31.774 16.855C31.9992 16.8492 32.1609 16.9418 32.2707 17.1328C32.6287 17.7579 33.0041 18.3715 33.3391 19.0082C33.4084 19.1413 33.4084 19.3844 33.3391 19.5175C32.9983 20.16 32.6345 20.7967 32.2476 21.416C32.1667 21.5434 31.9588 21.6591 31.8029 21.6649C31.0925 21.6881 30.3822 21.6765 29.6718 21.6765C29.4466 21.6765 29.2964 21.5723 29.1867 21.3755C28.8459 20.7736 28.4994 20.1774 28.1529 19.5754C28.0259 19.3612 28.0259 19.1644 28.1529 18.9503C28.4994 18.3599 28.8402 17.7695 29.1751 17.1791C29.308 16.9418 29.4928 16.8376 29.7642 16.855C30.0934 16.8665 30.4284 16.855 30.7633 16.855ZM30.6132 20.733C31.595 20.733 31.5545 20.7041 32.0281 20.0385C32.4208 19.4886 32.3746 19.0776 32.0339 18.5104C31.7162 17.9837 31.4044 17.7984 30.7864 17.7869C30.0934 17.7695 29.7411 17.9952 29.4119 18.5914C29.1174 19.1239 29.1174 19.4886 29.4235 20.0037C29.7411 20.5536 30.0472 20.9298 30.6132 20.733Z" fill="#855AA5"/>
<path d="M34.9438 14.1021C35.1459 14.7562 34.7763 15.0572 34.2623 15.3698C33.731 15.6997 33.3209 15.7113 32.8012 15.3582C32.01 14.8199 32.085 15.0514 32.085 14.0732C32.085 13.1587 31.9811 13.3092 32.7838 12.8403C33.6155 12.3599 33.4133 12.3773 34.2796 12.823C34.834 13.1066 35.1228 13.4654 34.9438 14.1021ZM33.0091 14.0674C33.0091 14.3395 33.2805 14.6578 33.5231 14.6636C33.7541 14.6752 34.0486 14.3453 34.0486 14.079C34.0486 13.807 33.7599 13.4944 33.5231 13.5002C33.2863 13.5118 33.0091 13.8127 33.0091 14.0674Z" fill="#855AA5"/>
<path d="M17.3228 16.3461C17.9003 16.3461 18.4778 16.3576 19.0496 16.3403C19.3499 16.3345 19.552 16.4445 19.7022 16.7107C20.2161 17.6253 20.7532 18.5224 21.2615 19.437C21.3712 19.6338 21.4982 19.6916 21.7119 19.6916C22.7572 19.6801 23.8083 19.6916 24.8537 19.6801C25.1597 19.6743 25.3561 19.79 25.5063 20.0563C26.0203 20.9708 26.5573 21.868 27.0656 22.7825C27.1753 22.9793 27.2966 23.0372 27.516 23.0372C28.5556 23.0256 29.5893 23.0372 30.6289 23.0256C30.9234 23.0198 31.1082 23.1356 31.2526 23.3903C31.8359 24.4148 32.4308 25.4393 33.0314 26.458C33.1815 26.7127 33.1873 26.9269 33.0372 27.1815C32.4365 28.2118 31.8417 29.2421 31.2526 30.2782C31.1025 30.5445 30.9003 30.6544 30.6 30.6486C29.5547 30.6429 28.5036 30.6486 27.4583 30.6429C27.2677 30.6429 27.1695 30.7007 27.0771 30.8628C26.5631 31.7773 26.0318 32.6745 25.5178 33.589C25.3561 33.8727 25.154 34 24.8248 34C23.6524 33.9884 22.48 33.9884 21.3077 34C21.0131 34 20.8225 33.89 20.6782 33.6353C20.1526 32.7092 19.6097 31.7889 19.09 30.857C18.9976 30.6892 18.8936 30.6371 18.703 30.6371C17.6577 30.6486 16.6066 30.6371 15.5613 30.6429C15.2495 30.6486 15.0415 30.5329 14.8856 30.2551C14.3081 29.2363 13.7248 28.2176 13.1299 27.2105C12.9682 26.9384 12.9625 26.7069 13.1242 26.4349C13.6555 25.5319 14.1695 24.6174 14.7008 23.7202C14.799 23.5466 14.8048 23.4192 14.7008 23.2514C14.1637 22.3426 13.6497 21.4165 13.1126 20.5078C12.9625 20.2531 12.9625 20.0331 13.1126 19.7842C13.719 18.7713 14.3196 17.7352 14.9029 16.6992C15.0473 16.4387 15.2437 16.3403 15.5324 16.3403C16.1331 16.3519 16.7279 16.3461 17.3228 16.3461ZM23.0864 33.0681C23.5542 33.0681 24.0278 33.0623 24.4956 33.0739C24.6746 33.0797 24.7728 33.016 24.8594 32.8597C25.3214 32.0378 25.795 31.2275 26.2686 30.4171C26.3552 30.2666 26.3668 30.1567 26.2744 30.0062C25.7892 29.19 25.3157 28.3681 24.8537 27.5404C24.7613 27.3725 24.6573 27.3147 24.4725 27.3204C23.5427 27.332 22.6129 27.3262 21.6773 27.3204C21.504 27.3204 21.4001 27.361 21.3134 27.523C20.8456 28.3507 20.3721 29.1727 19.8927 29.9946C19.8061 30.1451 19.7946 30.2608 19.887 30.4171C20.3663 31.2275 20.8399 32.0436 21.3019 32.8597C21.3943 33.0218 21.4925 33.0913 21.6831 33.0855C22.1451 33.0623 22.6186 33.0681 23.0864 33.0681ZM17.2997 29.7168C17.779 29.7168 18.2583 29.7283 18.7377 29.7052C18.8474 29.6994 18.9918 29.6184 19.0438 29.5257C19.5347 28.7038 20.0082 27.8645 20.4934 27.0368C20.5742 26.8979 20.58 26.7879 20.4934 26.6432C20.0082 25.8155 19.5289 24.9878 19.0553 24.1485C18.9745 24.0038 18.8821 23.9517 18.7146 23.9517C17.7617 23.9575 16.8145 23.9575 15.8616 23.9517C15.6941 23.9517 15.6075 24.0038 15.5267 24.1485C15.0646 24.982 14.5853 25.8039 14.1291 26.6374C14.0713 26.7416 14.0655 26.9211 14.1233 27.0195C14.5853 27.8645 15.0589 28.698 15.5498 29.5257C15.6017 29.6184 15.7519 29.6994 15.8616 29.6994C16.341 29.7283 16.8203 29.7168 17.2997 29.7168ZM28.8617 23.9633C28.3939 23.9633 27.9203 23.9691 27.4525 23.9575C27.2908 23.9517 27.1984 23.998 27.1118 24.1427C26.644 24.982 26.1646 25.8097 25.6737 26.6374C25.5929 26.7821 25.5871 26.8805 25.668 27.0253C26.1473 27.8472 26.6266 28.6691 27.0887 29.4968C27.1811 29.6647 27.285 29.7225 27.4756 29.7168C28.3996 29.7052 29.3179 29.7052 30.2419 29.7168C30.4267 29.7168 30.5365 29.6704 30.6289 29.5026C31.0909 28.6807 31.5587 27.8703 32.038 27.0542C32.1247 26.9037 32.142 26.7995 32.0496 26.6374C31.5587 25.8097 31.0793 24.9762 30.6116 24.1427C30.5249 23.9922 30.4325 23.9517 30.2708 23.9517C29.7972 23.9691 29.3295 23.9633 28.8617 23.9633ZM17.2939 23.043C17.7732 23.043 18.2526 23.0546 18.7319 23.0372C18.8416 23.0314 18.986 22.9504 19.038 22.8636C19.5404 22.0243 20.0256 21.1734 20.5049 20.3225C20.5511 20.2415 20.5569 20.0968 20.5107 20.0216C20.0313 19.1649 19.5462 18.3198 19.0438 17.4748C18.9918 17.3879 18.8532 17.3127 18.755 17.3127C17.7848 17.3011 16.8145 17.3011 15.8443 17.3127C15.7403 17.3127 15.5902 17.3995 15.5382 17.4921C15.0589 18.3083 14.5853 19.1475 14.1233 19.9868C14.0713 20.0794 14.0771 20.2531 14.1291 20.3457C14.5911 21.185 15.0762 22.0185 15.544 22.8578C15.6306 23.0083 15.7288 23.0488 15.8905 23.043C16.3525 23.0372 16.8261 23.043 17.2939 23.043ZM23.0922 20.6583C22.6013 20.6583 22.1104 20.6467 21.6253 20.6641C21.5271 20.6698 21.3827 20.7393 21.3365 20.8261C20.8399 21.6596 20.3605 22.4989 19.887 23.344C19.8408 23.4308 19.835 23.5929 19.887 23.6797C20.3548 24.5132 20.8341 25.3467 21.3308 26.1686C21.3885 26.2612 21.5329 26.348 21.6426 26.348C22.6129 26.3596 23.5831 26.3596 24.5533 26.348C24.6515 26.348 24.7901 26.267 24.8363 26.1802C25.333 25.3467 25.8123 24.5074 26.2859 23.6623C26.3321 23.5755 26.3321 23.4192 26.2859 23.3382C25.8181 22.4989 25.3388 21.6654 24.8479 20.8435C24.7959 20.7509 24.6457 20.6698 24.5418 20.6641C24.0509 20.6467 23.5716 20.6583 23.0922 20.6583Z" stroke="#855AA5"/>
<path d="M24.4147 19.0442C23.8892 19.0442 23.3579 19.0384 22.8323 19.0442C22.5435 19.05 22.3472 18.9458 22.197 18.6911C21.6599 17.7477 21.1171 16.81 20.5684 15.8723C20.424 15.6292 20.4183 15.415 20.5626 15.1719C21.1113 14.2342 21.6542 13.2966 22.1913 12.3531C22.3299 12.11 22.5089 12 22.7919 12C23.8776 12.0116 24.9634 12.0116 26.0433 12C26.3263 12 26.5111 12.1042 26.6497 12.3473C27.1926 13.3081 27.7355 14.269 28.2841 15.224C28.4112 15.4498 28.4112 15.6465 28.2841 15.8723C27.7355 16.8158 27.1868 17.765 26.644 18.7201C26.5169 18.9458 26.3321 19.0442 26.078 19.0442C25.5236 19.0384 24.9691 19.0442 24.4147 19.0442ZM24.432 12.9319C24.022 12.9319 23.6062 12.9435 23.1961 12.9261C23.0113 12.9203 22.9016 12.9666 22.8092 13.1403C22.3992 13.8696 21.9718 14.5873 21.5675 15.3166C21.5098 15.415 21.5098 15.6002 21.5618 15.6986C21.966 16.4395 22.3876 17.1688 22.8208 17.8981C22.8785 17.9965 23.0344 18.0892 23.1499 18.0892C23.9931 18.1065 24.8363 18.1065 25.6795 18.0892C25.795 18.0892 25.9452 17.9908 26.0087 17.8924C26.4418 17.1688 26.8634 16.4395 27.2735 15.6986C27.3254 15.6002 27.3197 15.415 27.2677 15.3166C26.8576 14.5757 26.4245 13.8522 26.0087 13.1171C25.9278 12.9724 25.8297 12.9203 25.6679 12.9261C25.2579 12.9377 24.8479 12.9319 24.432 12.9319Z" stroke="#855AA5"/>
<path d="M30.7633 16.855C31.0983 16.855 31.4332 16.8607 31.774 16.855C31.9992 16.8492 32.1609 16.9418 32.2707 17.1328C32.6287 17.7579 33.0041 18.3715 33.3391 19.0082C33.4084 19.1413 33.4084 19.3844 33.3391 19.5175C32.9983 20.16 32.6345 20.7967 32.2476 21.416C32.1667 21.5434 31.9588 21.6591 31.8029 21.6649C31.0925 21.6881 30.3822 21.6765 29.6718 21.6765C29.4466 21.6765 29.2964 21.5723 29.1867 21.3755C28.8459 20.7736 28.4994 20.1774 28.1529 19.5754C28.0259 19.3612 28.0259 19.1644 28.1529 18.9503C28.4994 18.3599 28.8402 17.7695 29.1751 17.1791C29.308 16.9418 29.4928 16.8376 29.7642 16.855C30.0934 16.8665 30.4284 16.855 30.7633 16.855ZM30.6132 20.733C31.595 20.733 31.5545 20.7041 32.0281 20.0385C32.4208 19.4886 32.3746 19.0776 32.0339 18.5104C31.7162 17.9837 31.4044 17.7984 30.7864 17.7869C30.0934 17.7695 29.7411 17.9952 29.4119 18.5914C29.1174 19.1239 29.1174 19.4886 29.4235 20.0037C29.7411 20.5536 30.0472 20.9298 30.6132 20.733Z" stroke="#855AA5"/>
<path d="M34.9438 14.1021C35.1459 14.7562 34.7763 15.0572 34.2623 15.3698C33.731 15.6997 33.3209 15.7113 32.8012 15.3582C32.01 14.8199 32.085 15.0514 32.085 14.0732C32.085 13.1587 31.9811 13.3092 32.7838 12.8403C33.6155 12.3599 33.4133 12.3773 34.2796 12.823C34.834 13.1066 35.1228 13.4654 34.9438 14.1021ZM33.0091 14.0674C33.0091 14.3395 33.2805 14.6578 33.5231 14.6636C33.7541 14.6752 34.0486 14.3453 34.0486 14.079C34.0486 13.807 33.7599 13.4944 33.5231 13.5002C33.2863 13.5118 33.0091 13.8127 33.0091 14.0674Z" stroke="#855AA5"/>
</g>
<defs>
<clipPath id="clip0_5121_34793">
<rect width="46.3" height="45.6" fill="white" transform="translate(0.851562)"/>
</clipPath>
</defs>
</svg>
