<svg width="68" height="69" viewBox="0 0 68 69" fill="none" xmlns="http://www.w3.org/2000/svg">
<g clip-path="url(#clip0_5071_47204)">
<path d="M33.9984 48.6442C41.5403 48.6442 47.5984 42.6298 47.5984 35.1424C47.5984 27.6551 41.5403 21.6406 33.9984 21.6406C26.4566 21.6406 20.3984 27.6551 20.3984 35.1424C20.3984 42.6298 26.4566 48.6442 33.9984 48.6442Z" fill="#FFA800"/>
<path d="M33.9984 48.6442C41.5095 48.6442 47.5984 42.5993 47.5984 35.1424C47.5984 27.6856 41.5095 21.6406 33.9984 21.6406C26.4874 21.6406 20.3984 27.6856 20.3984 35.1424C20.3984 42.5993 26.4874 48.6442 33.9984 48.6442Z" stroke="white" stroke-width="3"/>
<path d="M47.6 35.3894C47.3527 42.3858 41.6655 48.2775 34 48.4002C26.2109 48.2775 20.4 42.6313 20.4 34.8984C20.2764 28.0248 25.84 20.9057 35.1127 21.3966C41.5418 21.8876 47.8473 27.4111 47.6 35.3894ZM68 43.4905C67.8764 42.9995 67.7527 42.6313 67.5055 42.2631C66.3927 40.5446 65.1564 38.949 63.4255 37.7215C61.6945 36.3714 59.84 35.6349 57.6145 35.8804C56.6255 36.0031 55.5127 35.7576 54.4 35.6349C54.1527 35.6349 53.9055 35.5122 53.7818 35.3894C55.3891 34.5302 56.9964 33.9165 58.48 33.0573C60.4582 31.9526 61.9418 30.2342 63.3018 28.5158C63.4255 28.2703 63.4255 27.902 63.5491 27.6566C63.3018 27.7793 63.0545 27.7793 62.8073 27.902C61.2 28.5158 59.7164 29.1295 58.1091 29.6205C57.7382 29.7432 57.12 29.6205 56.7491 29.375C55.3891 28.6385 54.0291 27.7793 52.7927 27.0428C53.1636 26.1836 53.6582 25.2017 54.1527 24.097C54.7709 22.7468 55.2655 21.3966 56.2545 20.2919C57.7382 18.4508 59.84 17.9598 62.0655 17.5916C62.6836 17.4688 63.3018 17.3461 64.2909 17.2233C63.6727 16.8551 63.4255 16.4869 63.0545 16.4869C61.3236 16.2414 59.5927 15.8732 57.7382 15.8732C54.6473 15.8732 52.0509 17.1006 50.1964 19.5555C49.7018 20.2919 48.96 20.7829 47.8473 21.0284C50.1964 16.1187 50.8145 10.3497 49.2073 8.75403C49.0836 8.99952 48.96 9.24501 48.8364 9.49049C48.3418 10.7179 47.9709 11.9454 47.3527 13.1728C46.9818 14.032 46.3636 14.6457 45.3745 14.7685C44.5091 14.8912 43.6436 15.1367 42.7782 15.3822C42.2836 15.5049 41.7891 15.7504 41.5418 15.8732C41.0473 14.7685 40.6764 13.6638 40.3055 12.6818C39.8109 11.3317 39.1927 9.98147 39.0691 8.50855C39.0691 6.17642 40.4291 4.08977 42.0364 2.12587C42.2836 1.88039 42.4073 1.51216 42.5309 1.14392C42.4073 1.02118 42.2836 1.02118 42.2836 0.898438C41.4182 1.38941 40.6764 1.75764 39.8109 2.37136C39.1927 2.73959 38.5745 3.35331 38.08 3.84429C36.5964 5.19447 35.2364 6.66739 34.8655 8.63129C34.4945 10.3497 34.6182 12.1909 34.3709 14.032C34.3709 14.4002 34.2473 14.8912 34.1236 15.2594C32.7636 10.9634 28.3127 5.43995 26.3345 5.5627C26.9527 6.91288 27.5709 8.3858 28.0655 9.85873C28.3127 10.5952 28.4364 11.5771 28.0655 12.1909C27.4473 13.541 26.4582 14.8912 25.7164 15.9959C24.6036 15.5049 23.3673 14.8912 22.1309 14.4002C20.2764 13.7865 18.6691 12.6818 17.68 10.9634C16.6909 9.36775 16.32 7.64934 16.1964 5.80818C16.1964 5.5627 16.0727 5.31721 15.9491 4.94898C15.5782 5.31721 15.3309 5.5627 15.2073 5.93093C14.3418 7.89483 14.4655 9.98147 14.5891 12.0681C14.7127 13.6638 15.0836 15.2594 16.1964 16.4869C17.0618 17.4688 18.0509 18.328 18.9164 19.1872C19.2873 19.5555 19.5345 20.1692 19.9055 20.5374C18.2982 20.1692 17.0618 19.4327 15.5782 19.1872C13.2291 18.819 10.7564 18.819 8.40727 18.6963C8.28364 18.6963 8.16 18.6963 8.16 18.6963C8.03636 18.819 7.78909 18.9418 7.66545 19.0645C7.78909 19.1872 7.91273 19.4327 8.03636 19.5555C8.77818 19.801 9.52 19.9237 10.1382 20.2919C11.4982 20.9057 13.2291 21.3966 13.6 23.115C13.8473 23.9742 13.9709 24.8335 14.2182 25.8154C14.3418 26.3064 14.5891 26.6746 14.7127 27.0428C13.4764 27.5338 12.3636 27.902 11.1273 28.393C9.64364 29.0067 8.28364 29.6205 6.55273 29.4977C4.08 29.375 2.22545 28.0248 0.370909 26.6746L0 27.902C1.11273 29.6205 2.34909 30.9706 3.95636 32.3208C5.68727 33.671 7.54182 34.5302 9.76727 34.2847C10.6327 34.162 11.6218 34.2847 12.4873 34.2847C12.9818 34.2847 13.3527 34.5302 13.8473 34.653C8.77818 36.6168 4.57455 39.9309 3.95636 42.5085C4.08 42.5085 4.20364 42.5085 4.32727 42.3858C5.68727 41.7721 7.17091 41.1584 8.53091 40.6674C9.39636 40.4219 10.1382 40.2992 11.0036 40.9129C12.24 41.6493 13.4764 42.3858 14.5891 42.9995C14.0945 44.227 13.3527 45.4544 12.8582 46.8046C11.8691 49.6277 9.89091 51.4688 6.92364 52.0826C5.81091 52.328 4.69818 52.5735 3.58545 52.6963C3.58545 52.819 3.58545 52.819 3.46182 52.9418C3.83273 53.1872 4.32727 53.5555 4.69818 53.5555C6.55273 53.801 8.40727 53.9237 10.2618 53.9237C12.8582 53.9237 14.96 52.9418 16.5673 50.9779C17.3091 50.1187 18.2982 49.5049 19.2873 48.523C19.2873 49.014 19.4109 49.1367 19.2873 49.2594C18.9164 50.3641 18.4218 51.3461 18.0509 52.4508C17.0618 55.0284 16.9382 57.7288 17.3091 60.4291C17.3091 60.6746 17.68 60.9201 17.9273 61.4111C18.1745 61.0428 18.1745 60.7974 18.2982 60.6746C18.7927 59.4472 19.1636 58.097 19.7818 56.8696C20.2764 55.8876 21.1418 55.3966 22.2545 55.1511C23.2436 54.9057 24.1091 54.6602 25.0982 54.4147C25.3455 54.2919 25.7164 54.2919 25.84 54.1692C26.3345 55.3966 26.7055 56.5013 27.2 57.606C27.5709 58.8335 28.1891 60.0609 28.3127 61.2883C28.56 63.9887 27.0764 66.0753 25.5927 68.0392C25.4691 68.2847 25.2218 68.5302 25.0982 68.7757C25.0982 68.8984 25.2218 68.8984 25.2218 69.0212C25.5927 68.8984 25.9636 68.8984 26.3345 68.6529C28.0655 67.7937 29.4255 66.5663 30.6618 65.2161C31.7745 63.8659 32.8873 62.6385 33.0109 60.7974C33.1345 59.3244 33.1345 57.7288 33.2582 56.2558C33.2582 55.7649 33.5055 55.2739 33.5055 54.7829C35.36 59.6927 39.0691 64.4797 41.2945 64.6024C40.8 63.2522 40.1818 61.902 39.6873 60.4291C39.3164 59.3244 39.3164 58.3425 40.0582 57.2378C40.8 56.2558 41.2945 55.0284 41.9127 53.9237C42.2836 54.1692 42.7782 54.4147 43.2727 54.6602C44.5091 55.2739 45.8691 55.6421 47.1055 56.2558C49.5782 57.4833 50.5673 59.6927 51.1855 62.1475C51.4327 63.1295 51.4327 63.9887 51.5564 64.9706C51.68 64.9706 51.8036 64.9706 51.8036 64.9706C51.9273 64.8479 52.0509 64.7252 52.1745 64.4797C53.1636 62.7612 52.9164 60.9201 53.04 59.0789C53.1636 55.8876 51.9273 53.4327 49.4545 51.3461C48.7127 50.7324 47.9709 50.1187 47.7236 48.8912C51.1855 50.7324 54.6473 51.3461 58.3564 51.1006C58.8509 51.1006 59.4691 50.8551 59.9636 50.7324C59.9636 50.6096 59.9636 50.4869 59.9636 50.3641C59.7164 50.2414 59.4691 49.9959 59.2218 49.8732C57.9855 49.3822 56.8727 49.014 55.6364 48.523C54.6473 48.1548 54.2764 47.2955 53.9055 46.4363C53.5345 45.3316 53.2873 44.227 53.04 43.1223C53.04 42.8768 53.2873 42.3858 53.4109 42.3858C55.0182 42.3858 56.2545 41.4039 57.6145 40.7901C58.48 40.4219 59.4691 40.1764 60.4582 40.1764C62.8073 40.1764 64.9091 41.2811 66.64 42.754C67.0109 42.9995 67.3818 43.245 67.7527 43.4905C67.8764 43.6132 67.8764 43.6132 68 43.4905Z" fill="#FFF200"/>
</g>
<defs>
<clipPath id="clip0_5071_47204">
<rect width="68" height="68" fill="white" transform="translate(0 0.898438)"/>
</clipPath>
</defs>
</svg>
