<svg width="48" height="46" viewBox="0 0 48 46" fill="none" xmlns="http://www.w3.org/2000/svg">
<g clip-path="url(#clip0_5121_34786)">
<path d="M24.1531 1.1001L8.55312 7.6001L1.95312 23.0001L8.25313 38.3001L23.8531 44.5001L39.4531 38.0001L46.0531 22.6001L39.6531 7.3001L24.1531 1.1001Z" fill="#D5D1ED"/>
<path d="M24.1531 1.1001L8.55312 7.6001L1.95312 23.0001L8.25313 38.3001L23.8531 44.5001L39.4531 38.0001L46.0531 22.6001L39.6531 7.3001L24.1531 1.1001Z" stroke="white" stroke-width="2"/>
<path fill-rule="evenodd" clip-rule="evenodd" d="M13.125 14C12.8266 14 12.5405 14.1185 12.3295 14.3295C12.1185 14.5405 12 14.8266 12 15.125V17.375C12 17.6734 12.1185 17.9595 12.3295 18.1705C12.5405 18.3815 12.8266 18.5 13.125 18.5C13.4234 18.5 13.7095 18.3815 13.9205 18.1705C14.1315 17.9595 14.25 17.6734 14.25 17.375V16.25H18.375V29.75H17.625C17.3266 29.75 17.0405 29.8685 16.8295 30.0795C16.6185 30.2905 16.5 30.5766 16.5 30.875C16.5 31.1734 16.6185 31.4595 16.8295 31.6705C17.0405 31.8815 17.3266 32 17.625 32H21.375C21.6734 32 21.9595 31.8815 22.1705 31.6705C22.3815 31.4595 22.5 31.1734 22.5 30.875C22.5 30.5766 22.3815 30.2905 22.1705 30.0795C21.9595 29.8685 21.6734 29.75 21.375 29.75H20.625V16.25H24.75V17.375C24.75 17.6734 24.8685 17.9595 25.0795 18.1705C25.2905 18.3815 25.5766 18.5 25.875 18.5C26.1734 18.5 26.4595 18.3815 26.6705 18.1705C26.8815 17.9595 27 17.6734 27 17.375V15.125C27 14.8266 26.8815 14.5405 26.6705 14.3295C26.4595 14.1185 26.1734 14 25.875 14H13.125ZM24 22.625C24 22.3266 24.1185 22.0405 24.3295 21.8295C24.5405 21.6185 24.8266 21.5 25.125 21.5H34.875C35.1734 21.5 35.4595 21.6185 35.6705 21.8295C35.8815 22.0405 36 22.3266 36 22.625C36 22.9234 35.8815 23.2095 35.6705 23.4205C35.4595 23.6315 35.1734 23.75 34.875 23.75H25.125C24.8266 23.75 24.5405 23.6315 24.3295 23.4205C24.1185 23.2095 24 22.9234 24 22.625ZM24 27.875C24 27.5766 24.1185 27.2905 24.3295 27.0795C24.5405 26.8685 24.8266 26.75 25.125 26.75H34.875C35.1734 26.75 35.4595 26.8685 35.6705 27.0795C35.8815 27.2905 36 27.5766 36 27.875C36 28.1734 35.8815 28.4595 35.6705 28.6705C35.4595 28.8815 35.1734 29 34.875 29H25.125C24.8266 29 24.5405 28.8815 24.3295 28.6705C24.1185 28.4595 24 28.1734 24 27.875Z" fill="#855AA5"/>
</g>
<defs>
<clipPath id="clip0_5121_34786">
<rect width="46.3" height="45.6" fill="white" transform="translate(0.851562)"/>
</clipPath>
</defs>
</svg>
