<svg width="48" height="46" viewBox="0 0 48 46" fill="none" xmlns="http://www.w3.org/2000/svg">
<g clip-path="url(#clip0_5121_34760)">
<path d="M24.1531 1.1001L8.55312 7.6001L1.95312 23.0001L8.25313 38.3001L23.8531 44.5001L39.4531 38.0001L46.0531 22.6001L39.6531 7.3001L24.1531 1.1001Z" fill="#D5D1ED" stroke="white" stroke-width="2"/>
<path d="M34.2427 32.245C34.2779 32.245 34.3069 32.245 34.3375 32.245C34.7698 32.245 35.2037 32.245 35.6361 32.245C35.9325 32.245 36.1311 32.4422 36.1311 32.7372C36.1311 33.3303 36.1311 33.9248 36.1311 34.5179C36.1311 34.8098 35.9279 35.0101 35.6346 35.0101C27.8779 35.0101 20.1228 35.0101 12.3661 35.0101C12.0728 35.0101 11.8711 34.8083 11.8711 34.5148C11.8711 33.9233 11.8711 33.3333 11.8711 32.7418C11.8711 32.4407 12.0682 32.2435 12.3676 32.2435C12.8 32.2435 13.2339 32.2435 13.6663 32.2435C13.6938 32.2435 13.7213 32.2435 13.7564 32.2435C13.7564 28.1701 13.7564 24.1013 13.7564 20.0203C13.7289 20.0203 13.6999 20.0203 13.6708 20.0203C13.2308 20.0203 12.7893 20.0218 12.3493 20.0203C12.1018 20.0188 11.9139 19.8613 11.8772 19.6168C11.8482 19.4227 11.9276 19.2698 12.085 19.1552C12.4929 18.8586 12.8993 18.5621 13.3072 18.2656C16.1199 16.2174 18.9341 14.1693 21.7468 12.1211C22.3946 11.6488 23.0439 11.1765 23.6917 10.7058C23.9026 10.5529 24.0981 10.5529 24.3105 10.7073C26.5457 12.3351 28.7808 13.9614 31.016 15.5892C32.6462 16.7753 34.2764 17.963 35.905 19.1491C36.18 19.3493 36.2075 19.6993 35.9661 19.9087C35.8714 19.9913 35.7599 20.0233 35.6346 20.0233C35.1992 20.0218 34.7637 20.0233 34.3283 20.0233C34.3008 20.0233 34.2733 20.0233 34.2412 20.0233C34.2427 24.0967 34.2427 28.164 34.2427 32.245ZM23.5252 32.242C23.5252 31.0926 23.5252 29.9493 23.5252 28.7999C23.4977 28.7983 23.4763 28.7953 23.4534 28.7953C23.0791 28.7815 22.7155 28.7158 22.3625 28.5889C21.2854 28.2007 20.4635 27.4991 19.8707 26.5285C19.6079 26.0975 19.3864 25.642 19.3344 25.1285C19.2886 24.6745 19.3986 24.2588 19.7164 23.9225C20.1212 23.493 20.6269 23.3891 21.1861 23.5174C21.5482 23.6015 21.8767 23.7727 22.196 23.9607C22.2235 23.976 22.251 23.9913 22.2754 24.0066C22.3335 23.817 22.3824 23.6351 22.445 23.4578C22.5611 23.1307 22.6971 22.8113 22.9416 22.5545C23.3464 22.1311 23.8323 21.966 24.4052 22.1326C24.7963 22.2458 25.0774 22.5071 25.2837 22.8495C25.4838 23.1812 25.603 23.5465 25.6993 23.921C25.7069 23.9485 25.7145 23.976 25.7206 23.9989C25.9208 23.8965 26.1102 23.7926 26.3058 23.7009C26.6358 23.545 26.9796 23.438 27.3523 23.4746C27.8764 23.5251 28.269 23.7773 28.5119 24.2465C28.732 24.673 28.7274 25.1223 28.5776 25.5671C28.2369 26.582 27.6228 27.3967 26.7504 28.0158C26.1393 28.4498 25.4655 28.725 24.7138 28.7861C24.6359 28.7922 24.558 28.7968 24.4831 28.8029C24.4831 29.9554 24.4831 31.0987 24.4831 32.2435C27.4242 32.2435 30.3591 32.2435 33.2955 32.2435C33.2955 28.1686 33.2955 24.0998 33.2955 20.0325C27.0972 20.0325 20.9065 20.0325 14.7128 20.0325C14.7128 24.1074 14.7128 28.1762 14.7128 32.245C17.6523 32.242 20.5872 32.242 23.5252 32.242ZM13.7946 19.0772C20.6056 19.0772 27.3967 19.0772 34.2061 19.0772C34.1771 19.0558 34.1633 19.0451 34.1496 19.036C32.5316 17.8575 30.9152 16.6806 29.2972 15.5021C27.554 14.2335 25.8108 12.9648 24.0691 11.6932C24.0171 11.6549 23.9851 11.6534 23.9316 11.6932C23.6092 11.9331 23.2823 12.1685 22.9568 12.4054C20.216 14.4016 17.4736 16.3993 14.7296 18.3955C14.4241 18.6187 14.117 18.8418 13.7946 19.0772ZM35.1839 34.0655C35.1839 33.7689 35.1839 33.4785 35.1839 33.1896C27.7251 33.1896 20.2725 33.1896 12.8199 33.1896C12.8199 33.4846 12.8199 33.7735 12.8199 34.0655C20.2756 34.0655 27.7267 34.0655 35.1839 34.0655ZM24.0156 27.6764C24.1455 27.493 24.2769 27.3279 24.3853 27.1476C24.6924 26.6371 24.8483 26.0761 24.8926 25.4846C24.9461 24.7739 24.8422 24.0876 24.5335 23.4426C24.4785 23.3279 24.396 23.2209 24.3044 23.1338C24.1256 22.9641 23.8919 22.9703 23.7024 23.1277C23.5909 23.2209 23.513 23.3401 23.4534 23.4716C23.1616 24.1166 23.0592 24.7937 23.1127 25.4968C23.1555 26.0547 23.3021 26.582 23.5726 27.0742C23.6887 27.2836 23.8277 27.4793 24.0156 27.6764ZM25.1431 27.7574C25.1951 27.7406 25.2577 27.7269 25.3158 27.7039C26.4846 27.2637 27.2622 26.4399 27.6793 25.2706C27.7236 25.1483 27.7312 25.0047 27.7267 24.8732C27.7175 24.621 27.5387 24.4299 27.2912 24.4131C27.1675 24.4055 27.0361 24.4269 26.9184 24.4666C26.5502 24.5935 26.2172 24.7876 25.9101 25.0276C25.8658 25.0627 25.8475 25.0964 25.8475 25.1544C25.8475 25.7796 25.7451 26.3864 25.5113 26.9672C25.4044 27.2362 25.2684 27.4915 25.1431 27.7574ZM22.8805 27.7636C22.8713 27.7406 22.8682 27.7315 22.8637 27.7223C22.3748 26.9275 22.1593 26.0562 22.1532 25.1285C22.1532 25.1009 22.1349 25.0627 22.112 25.0475C21.9347 24.9236 21.7606 24.7953 21.5742 24.6883C21.3603 24.566 21.1388 24.4559 20.8913 24.4131C20.5536 24.3551 20.2969 24.5583 20.271 24.8977C20.2557 25.0918 20.3122 25.2706 20.384 25.4449C20.8301 26.5224 21.5834 27.2882 22.6834 27.6994C22.743 27.7238 22.8056 27.7391 22.8805 27.7636Z" fill="#855AA5" stroke="#855AA5"/>
</g>
<defs>
<clipPath id="clip0_5121_34760">
<rect width="46.3" height="45.6" fill="white" transform="translate(0.851562)"/>
</clipPath>
</defs>
</svg>
