<svg width="32" height="31" viewBox="0 0 32 31" fill="none" xmlns="http://www.w3.org/2000/svg">
<path d="M20.4474 8.20636C21.8151 8.20636 22.9092 7.11224 22.9092 5.74459C22.9092 4.37695 21.8151 3.28283 20.4474 3.19165C19.0798 3.19165 17.9857 4.28577 17.8945 5.65342C17.8945 7.02106 18.9886 8.20636 20.4474 8.20636ZM25.0974 14.9534C26.4651 14.9534 27.5592 13.8593 27.5592 12.4917C27.5592 11.124 26.4651 10.0299 25.0974 10.0299C23.7298 10.0299 22.6357 11.124 22.6357 12.4917C22.6357 13.8593 23.7298 14.9534 25.0974 14.9534ZM8.77683 5.92695C8.77683 7.29459 9.87094 8.38871 11.2386 8.38871C12.6062 8.38871 13.7004 7.29459 13.7004 5.92695C13.7004 4.5593 12.6062 3.46518 11.2386 3.46518C9.87094 3.46518 8.77683 4.5593 8.77683 5.92695ZM5.31212 14.4064C6.67977 14.4064 7.77389 13.3122 7.77389 11.9446C7.77389 10.5769 6.67977 9.48283 5.31212 9.48283C3.94447 9.48283 2.85036 10.5769 2.85036 11.9446C2.85036 13.3122 3.94447 14.4064 5.31212 14.4064ZM21.268 21.8828C20.6298 21.8828 19.9004 21.8828 19.2621 21.974C18.7151 21.974 18.168 22.1564 17.7121 22.4299C16.9827 22.8858 16.618 23.524 16.618 24.3446C16.618 24.6181 16.7092 24.8917 16.8004 25.1652C17.0739 25.6211 17.3474 26.0769 17.6209 26.624C17.8033 26.8975 17.9857 27.2622 18.0768 27.6269C18.2592 28.2652 18.0768 28.8122 17.7121 29.3593C16.9827 30.3622 15.9798 30.9093 14.7945 31.0005C13.7004 31.0917 12.6062 30.9093 11.6033 30.6358C9.87094 30.0887 8.22977 29.2681 6.67977 28.3564C5.768 27.8093 4.94742 27.1711 4.218 26.4417C3.57977 25.8034 3.03271 25.1652 2.57683 24.4358C1.39153 22.6122 0.570945 20.5152 0.297416 18.3269C-0.158467 15.2269 0.206239 12.3093 1.48271 9.48283C2.668 6.74753 4.49153 4.5593 6.9533 2.91812C9.05036 1.55048 11.3298 0.729887 13.8827 0.365181C16.7092 0.000475124 19.4445 0.274004 22.1798 1.36812C25.0974 2.55342 27.468 4.37695 29.1092 7.11224C30.1121 8.66224 30.7504 10.3034 31.0239 12.1269C31.2974 13.6769 31.2062 15.1358 30.7504 16.5946C30.1121 18.5093 28.8357 19.9681 27.1033 20.9711C26.2827 21.4269 25.3709 21.8828 24.368 22.0652C23.8209 22.1564 23.1827 22.1564 22.5445 22.2475C21.9974 21.8828 21.6327 21.8828 21.268 21.8828Z" fill="#D6D1E8"/>
</svg>
