<svg width="32" height="31" viewBox="0 0 32 31" fill="none" xmlns="http://www.w3.org/2000/svg">
<path d="M10 2.07129L2 10.0713V21.4713L10 29.4713H21.4L29.5 21.4713" stroke="#DFDCEE" stroke-width="2.5"/>
<path d="M25.8016 3.07168C25.7016 3.17168 25.7016 3.17168 25.6016 3.27168C22.0016 6.87168 18.5016 10.3717 14.9016 13.9717C14.8016 14.0717 14.8016 14.1717 14.8016 14.2717C14.8016 15.0717 14.8016 15.9717 14.8016 16.7717C14.8016 16.8717 14.8016 16.9717 14.8016 16.9717C14.9016 16.9717 15.0016 16.9717 15.0016 16.9717C15.8016 16.9717 16.6016 16.9717 17.4016 16.9717C17.6016 16.9717 17.7016 16.8717 17.8016 16.7717C21.4016 13.1717 24.9016 9.67168 28.5016 6.07168C28.6016 5.97168 28.6016 5.97168 28.6016 5.97168C27.7016 4.97168 26.7016 4.07168 25.8016 3.07168ZM31.3016 6.17168C31.2016 6.47168 30.9016 6.77168 30.7016 6.97168C26.8016 10.8717 22.9016 14.7717 19.0016 18.6717C18.7016 18.9717 18.4016 19.1717 17.9016 19.1717C16.5016 19.1717 15.1016 19.1717 13.8016 19.1717C13.1016 19.1717 12.6016 18.7717 12.6016 17.9717V13.7717C12.6016 13.3717 12.7016 13.0717 13.0016 12.8717C17.0016 8.87168 20.9016 4.87168 24.9016 0.97168C25.4016 0.47168 26.0016 0.47168 26.5016 0.97168C27.9016 2.37168 29.4016 3.77168 30.8016 5.27168C31.0016 5.47168 31.1016 5.67168 31.2016 5.87168V6.17168H31.3016Z" fill="#DEDAED"/>
</svg>
