<svg width="36" height="34" viewBox="0 0 36 34" fill="none" xmlns="http://www.w3.org/2000/svg">
<path d="M13.5914 14.4153C12.2709 16.8632 13.1539 20.0962 15.5448 21.386C17.8849 22.6483 21.0154 21.7148 22.3868 19.2944C23.7581 16.874 22.8751 13.641 20.5123 12.2992C18.1214 11.0094 14.9399 11.9154 13.5914 14.4153ZM28.4176 22.4805C31.3446 25.9421 30.3779 29.9255 27.7522 31.8709C24.6421 34.2274 21.4054 33.2882 18.2507 29.0314C15.5065 33.2663 12.7267 34.5235 9.46565 32.8988C6.20458 31.2741 5.59877 28.2578 7.59583 23.2165C5.034 23.5827 2.79185 23.1128 1.18907 20.9707C0.27721 19.7392 -0.0818886 18.3352 0.0836802 16.8108C0.464188 13.1836 3.225 11.1093 7.69033 11.2321C6.02604 9.32572 5.38299 7.23066 6.10514 4.79626C6.53039 3.27749 7.53799 2.14011 8.89637 1.32643C12.115 -0.500858 15.1886 0.619246 17.8011 4.7853C18.7549 2.40859 20.2013 0.701109 22.7176 0.175859C24.1846 -0.108602 25.6583 0.0812742 26.9248 0.898931C30.0681 2.86355 30.5441 5.87703 28.2806 10.4384C30.6389 9.96239 32.7004 10.4021 34.3472 12.0973C35.4959 13.2549 35.9849 14.6616 35.9438 16.3204C35.8966 20.0602 33.2884 22.2168 28.4176 22.4805Z" fill="#D6D1E8"/>
</svg>
