<svg width="25" height="26" viewBox="0 0 25 26" fill="none" xmlns="http://www.w3.org/2000/svg">
<path d="M22.3717 22.353C22.4068 22.353 22.4358 22.353 22.4664 22.353C22.8987 22.353 23.3326 22.353 23.765 22.353C24.0614 22.353 24.26 22.5501 24.26 22.8451C24.26 23.4382 24.26 24.0328 24.26 24.6258C24.26 24.9177 24.0568 25.118 23.7635 25.118C16.0068 25.118 8.25168 25.118 0.495009 25.118C0.20167 25.118 0 24.9162 0 24.6227C0 24.0312 0 23.4412 0 22.8497C0 22.5486 0.197087 22.3514 0.496537 22.3514C0.928906 22.3514 1.3628 22.3514 1.79517 22.3514C1.82267 22.3514 1.85017 22.3514 1.88531 22.3514C1.88531 18.278 1.88531 14.2092 1.88531 10.1282C1.85781 10.1282 1.82878 10.1282 1.79975 10.1282C1.35975 10.1282 0.918211 10.1297 0.478203 10.1282C0.230699 10.1267 0.0427786 9.96924 0.00611122 9.72468C-0.0229171 9.53057 0.0565288 9.37772 0.213893 9.26308C0.621817 8.96656 1.02821 8.67004 1.43614 8.37351C4.24883 6.32535 7.06304 4.27719 9.87573 2.22903C10.5235 1.75673 11.1728 1.28444 11.8206 0.813664C12.0315 0.660816 12.227 0.660816 12.4394 0.815193C14.6746 2.44302 16.9097 4.06932 19.1449 5.69715C20.7751 6.88325 22.4053 8.07087 24.0339 9.25697C24.3089 9.4572 24.3364 9.80722 24.095 10.0166C24.0003 10.0992 23.8888 10.1313 23.7635 10.1313C23.3281 10.1297 22.8926 10.1313 22.4572 10.1313C22.4297 10.1313 22.4022 10.1313 22.3701 10.1313C22.3717 14.2046 22.3717 18.2719 22.3717 22.353ZM11.6541 22.3499C11.6541 21.2005 11.6541 20.0572 11.6541 18.9078C11.6266 18.9062 11.6052 18.9032 11.5823 18.9032C11.208 18.8894 10.8444 18.8237 10.4914 18.6968C9.41434 18.3086 8.59238 17.607 7.99959 16.6365C7.73681 16.2054 7.51527 15.7499 7.46333 15.2364C7.41749 14.7824 7.5275 14.3667 7.84528 14.0304C8.25015 13.6009 8.75585 13.497 9.31503 13.6254C9.67712 13.7094 10.0056 13.8806 10.3249 14.0686C10.3524 14.0839 10.3799 14.0992 10.4044 14.1145C10.4624 13.9249 10.5113 13.743 10.5739 13.5657C10.6901 13.2387 10.826 12.9192 11.0705 12.6624C11.4753 12.239 11.9612 12.074 12.5341 12.2406C12.9252 12.3537 13.2063 12.615 13.4126 12.9574C13.6127 13.2891 13.7319 13.6544 13.8282 14.0289C13.8358 14.0564 13.8434 14.0839 13.8496 14.1068C14.0497 14.0044 14.2391 13.9005 14.4347 13.8088C14.7647 13.6529 15.1085 13.5459 15.4813 13.5826C16.0053 13.633 16.3979 13.8852 16.6409 14.3544C16.8609 14.7809 16.8563 15.2303 16.7066 15.675C16.3659 16.69 15.7517 17.5046 14.8793 18.1237C14.2682 18.5578 13.5944 18.8329 12.8427 18.894C12.7648 18.9001 12.6869 18.9047 12.612 18.9108C12.612 20.0633 12.612 21.2066 12.612 22.3514C15.5531 22.3514 18.488 22.3514 21.4244 22.3514C21.4244 18.2765 21.4244 14.2077 21.4244 10.1404C15.2261 10.1404 9.03544 10.1404 2.84172 10.1404C2.84172 14.2153 2.84172 18.2842 2.84172 22.353C5.78122 22.3499 8.71613 22.3499 11.6541 22.3499ZM1.92351 9.18513C8.73446 9.18513 15.5256 9.18513 22.335 9.18513C22.306 9.16373 22.2922 9.15303 22.2785 9.14386C20.6605 7.96541 19.0441 6.78848 17.4261 5.61002C15.6829 4.34139 13.9397 3.07275 12.198 1.80106C12.1461 1.76285 12.114 1.76132 12.0605 1.80106C11.7381 2.04103 11.4112 2.27642 11.0858 2.51333C8.34487 4.50952 5.60246 6.50724 2.85852 8.50343C2.55296 8.72659 2.24587 8.94975 1.92351 9.18513ZM23.3128 24.1734C23.3128 23.8769 23.3128 23.5864 23.3128 23.2976C15.854 23.2976 8.4014 23.2976 0.948767 23.2976C0.948767 23.5926 0.948767 23.8814 0.948767 24.1734C8.40446 24.1734 15.8556 24.1734 23.3128 24.1734ZM12.1445 17.7843C12.2744 17.6009 12.4058 17.4358 12.5143 17.2555C12.8213 16.745 12.9772 16.184 13.0215 15.5925C13.075 14.8818 12.9711 14.1955 12.6625 13.5505C12.6074 13.4358 12.5249 13.3288 12.4333 13.2417C12.2545 13.072 12.0208 13.0782 11.8313 13.2356C11.7198 13.3288 11.6419 13.4481 11.5823 13.5795C11.2905 14.2245 11.1881 14.9016 11.2416 15.6047C11.2844 16.1626 11.431 16.69 11.7015 17.1821C11.8176 17.3915 11.9566 17.5872 12.1445 17.7843ZM13.272 17.8654C13.324 17.8485 13.3866 17.8348 13.4447 17.8119C14.6135 17.3717 15.3911 16.5478 15.8082 15.3785C15.8525 15.2562 15.8601 15.1126 15.8556 14.9811C15.8464 14.7289 15.6676 14.5379 15.4201 14.521C15.2964 14.5134 15.165 14.5348 15.0474 14.5745C14.6792 14.7014 14.3461 14.8955 14.039 15.1355C13.9947 15.1706 13.9764 15.2043 13.9764 15.2624C13.9764 15.8875 13.874 16.4943 13.6402 17.0751C13.5333 17.3441 13.3973 17.5994 13.272 17.8654ZM11.0094 17.8715C11.0002 17.8485 10.9971 17.8394 10.9926 17.8302C10.5037 17.0354 10.2882 16.1642 10.2821 15.2364C10.2821 15.2089 10.2638 15.1706 10.2409 15.1554C10.0637 15.0316 9.88948 14.9032 9.70309 14.7962C9.4892 14.6739 9.26767 14.5638 9.02016 14.521C8.68252 14.463 8.42585 14.6662 8.39987 15.0056C8.3846 15.1997 8.44112 15.3785 8.51293 15.5528C8.95905 16.6303 9.71226 17.3961 10.8123 17.8073C10.8719 17.8317 10.9345 17.847 11.0094 17.8715Z" fill="#D5D1ED"/>
</svg>
