<svg width="30" height="31" viewBox="0 0 30 31" fill="none" xmlns="http://www.w3.org/2000/svg">
<path d="M9.30078 2.04785L1.30078 10.0479V21.4479L9.30078 29.4479H20.7008L28.8008 21.4479" stroke="#DFDCEE" stroke-width="2.5"/>
<path d="M24.2023 2.74769C24.0023 2.74769 23.9023 2.74769 23.7023 2.74769C23.5023 2.74769 23.4023 2.54769 23.4023 2.34769C23.4023 1.84769 23.5023 1.34769 23.5023 0.947692C23.5023 0.747692 23.8023 0.547692 24.0023 0.647692C24.2023 0.647692 24.4023 0.847692 24.4023 1.04769C24.4023 1.54769 24.3023 1.94769 24.3023 2.44769C24.4023 2.44769 24.3023 2.54769 24.2023 2.74769Z" fill="#D6D1E8"/>
<path d="M27.5 7.24727C27.5 7.04727 27.5 6.94727 27.5 6.74727C27.5 6.54727 27.7 6.44727 27.9 6.44727C28.4 6.44727 28.8 6.54727 29.3 6.54727C29.5 6.54727 29.7 6.74727 29.7 7.04727C29.7 7.24727 29.5 7.44727 29.2 7.44727C28.7 7.44727 28.3 7.34727 27.8 7.34727C27.7 7.44727 27.6 7.34727 27.5 7.24727Z" fill="#D6D1E8"/>
<path d="M27.7003 3.74779C27.5003 3.84779 27.4003 4.04779 27.2003 4.14779C27.0003 4.34779 26.7003 4.34779 26.6003 4.14779C26.4003 3.94779 26.4003 3.64779 26.7003 3.54779C27.0003 3.24779 27.4003 2.94779 27.7003 2.74779C27.9003 2.54779 28.2003 2.54779 28.3003 2.84779C28.5003 3.04779 28.4003 3.24779 28.2003 3.44779C28.0003 3.44779 27.8003 3.64779 27.7003 3.74779Z" fill="#D6D1E8"/>
<path d="M20.7003 2.54788C20.8003 2.74788 21.0003 2.84788 21.1003 3.04788C21.3003 3.24788 21.2003 3.54788 21.0003 3.64788C20.8003 3.84788 20.5003 3.74788 20.4003 3.54788C20.1003 3.24788 19.8003 2.84788 19.6003 2.54788C19.4003 2.34788 19.4003 2.04788 19.7003 1.94788C19.9003 1.74788 20.2003 1.84788 20.3003 2.04788C20.4003 2.14788 20.6003 2.34788 20.7003 2.54788Z" fill="#D6D1E8"/>
<path d="M26.3996 10.7481C26.2996 10.5481 26.0996 10.4481 25.9996 10.2481C25.7996 10.0481 25.8996 9.74808 26.0996 9.64808C26.2996 9.44808 26.5996 9.54808 26.6996 9.74808C26.9996 10.0481 27.2996 10.4481 27.4996 10.7481C27.6996 10.9481 27.5996 11.2481 27.4996 11.3481C27.2996 11.5481 26.9996 11.5481 26.8996 11.2481C26.6996 11.0481 26.5996 10.9481 26.3996 10.7481Z" fill="#D6D1E8"/>
<path d="M23 9.44727C24.4 9.44727 25.5 8.34727 25.5 6.94727C25.5 5.54727 24.4 4.44727 23 4.44727C21.6 4.44727 20.5 5.54727 20.5 6.94727C20.5 8.24727 21.6 9.44727 23 9.44727Z" fill="#D6D1E8"/>
<path d="M17.2016 13.3473C17.0016 13.5473 16.7016 13.8473 16.4016 14.1473C17.0016 14.6473 17.5016 15.0473 18.0016 15.5473C18.6016 16.1473 18.7016 16.8473 18.1016 17.3473C17.5016 17.9473 16.9016 17.9473 16.2016 17.2473C15.1016 16.1473 14.0016 15.0473 13.0016 14.0473C12.8016 13.8473 12.7016 13.7473 12.4016 13.5473C11.5016 14.7473 10.6016 15.9473 9.80156 17.1473C9.20156 17.9473 8.50156 18.1473 7.80156 17.6473C7.20156 17.1473 7.20156 16.4473 7.80156 15.6473C8.90156 14.1473 10.0016 12.6473 11.1016 11.1473C11.8016 10.2473 12.5016 10.1473 13.4016 10.9473C13.8016 11.3473 14.2016 11.8473 14.9016 12.5473C15.4016 11.9473 15.8016 11.3473 16.2016 10.8473C16.9016 10.1473 17.5016 10.1473 18.2016 10.8473C20.2016 12.8473 22.2016 14.8473 24.2016 16.8473C24.8016 17.5473 24.9016 18.2473 24.3016 18.7473C23.8016 19.2473 23.1016 19.2473 22.4016 18.5473C20.6016 16.7473 18.9016 15.1473 17.2016 13.3473Z" fill="#D7D1E8"/>
</svg>
