<svg width="27" height="28" viewBox="0 0 27 28" fill="none" xmlns="http://www.w3.org/2000/svg">
<path d="M5.30539 6.02787C6.01419 6.02787 6.723 6.04206 7.42471 6.02077C7.79329 6.01368 8.04137 6.14849 8.22566 6.47488C8.85649 7.59597 9.51568 8.69577 10.1394 9.81686C10.2741 10.0581 10.43 10.1291 10.6923 10.1291C11.9752 10.1149 13.2652 10.1291 14.5482 10.1149C14.9238 10.1078 15.1648 10.2497 15.3491 10.5761C15.98 11.6972 16.6391 12.797 17.2629 13.918C17.3976 14.1593 17.5464 14.2302 17.8158 14.2302C19.0916 14.2161 20.3604 14.2302 21.6362 14.2161C21.9977 14.209 22.2245 14.3509 22.4017 14.6631C23.1176 15.919 23.8477 17.1749 24.5848 18.4237C24.7691 18.7359 24.7762 18.9984 24.5919 19.3106C23.8548 20.5736 23.1247 21.8366 22.4017 23.1067C22.2174 23.4331 21.9693 23.5679 21.6008 23.5608C20.3178 23.5537 19.0278 23.5608 17.7449 23.5537C17.511 23.5537 17.3905 23.6247 17.2771 23.8233C16.6462 24.9444 15.9941 26.0442 15.3633 27.1653C15.1648 27.513 14.9168 27.6691 14.5127 27.6691C13.0739 27.6549 11.635 27.6549 10.1961 27.6691C9.83464 27.6691 9.60074 27.5343 9.42353 27.2221C8.77852 26.0868 8.11225 24.9586 7.47433 23.8162C7.36092 23.6105 7.23333 23.5466 6.99943 23.5466C5.7165 23.5608 4.42647 23.5466 3.14354 23.5537C2.76079 23.5608 2.50562 23.4189 2.31424 23.0783C1.60544 21.8295 0.889548 20.5807 0.159481 19.3461C-0.0389842 19.0126 -0.0460722 18.7288 0.152393 18.3953C0.804491 17.2884 1.43533 16.1673 2.08742 15.0675C2.20792 14.8546 2.21501 14.6985 2.08742 14.4928C1.42824 13.3788 0.797403 12.2435 0.138217 11.1295C-0.0460722 10.8173 -0.0460722 10.5477 0.138217 10.2426C0.88246 9.00088 1.61961 7.73078 2.33551 6.46069C2.51271 6.1414 2.7537 6.02077 3.1081 6.02077C3.84526 6.03496 4.57532 6.02787 5.30539 6.02787ZM12.3792 26.5267C12.9534 26.5267 13.5346 26.5196 14.1087 26.5338C14.3285 26.5409 14.4489 26.4629 14.5553 26.2713C15.1223 25.2637 15.7035 24.2704 16.2847 23.277C16.3911 23.0925 16.4052 22.9577 16.2918 22.7732C15.6964 21.7727 15.1152 20.7652 14.5482 19.7505C14.4348 19.5448 14.3072 19.4738 14.0804 19.4809C12.9392 19.4951 11.798 19.488 10.6498 19.4809C10.4371 19.4809 10.3095 19.5306 10.2032 19.7292C9.62909 20.7439 9.04787 21.7515 8.45956 22.759C8.35324 22.9435 8.33907 23.0854 8.45247 23.277C9.04078 24.2704 9.622 25.2708 10.189 26.2713C10.3025 26.47 10.4229 26.5551 10.6569 26.548C11.2239 26.5196 11.8051 26.5267 12.3792 26.5267ZM5.27704 22.4184C5.86534 22.4184 6.45365 22.4326 7.04196 22.4042C7.17663 22.3971 7.35383 22.2978 7.41762 22.1843C8.02011 21.1767 8.60132 20.1479 9.19672 19.1332C9.29595 18.9629 9.30304 18.8281 9.19672 18.6507C8.60132 17.6361 8.01302 16.6214 7.4318 15.5926C7.33257 15.4152 7.21916 15.3513 7.01361 15.3513C5.84408 15.3584 4.68164 15.3584 3.51212 15.3513C3.30657 15.3513 3.20025 15.4152 3.10101 15.5926C2.53397 16.6143 1.94566 17.6219 1.38571 18.6436C1.31483 18.7714 1.30774 18.9913 1.37862 19.1119C1.94566 20.1479 2.52688 21.1696 3.12936 22.1843C3.19316 22.2978 3.37745 22.3971 3.51212 22.3971C4.10043 22.4326 4.68873 22.4184 5.27704 22.4184ZM19.4673 15.3655C18.8931 15.3655 18.3119 15.3726 17.7378 15.3584C17.5393 15.3513 17.4259 15.4081 17.3196 15.5855C16.7455 16.6143 16.1572 17.629 15.5547 18.6436C15.4554 18.821 15.4484 18.9416 15.5476 19.119C16.1359 20.1266 16.7242 21.1342 17.2912 22.1488C17.4047 22.3546 17.5322 22.4255 17.7661 22.4184C18.9002 22.4042 20.0272 22.4042 21.1613 22.4184C21.3881 22.4184 21.5228 22.3617 21.6362 22.1559C22.2033 21.1483 22.7774 20.155 23.3657 19.1545C23.472 18.97 23.4933 18.8423 23.3799 18.6436C22.7774 17.629 22.1891 16.6072 21.6149 15.5855C21.5086 15.401 21.3952 15.3513 21.1968 15.3513C20.6155 15.3726 20.0414 15.3655 19.4673 15.3655ZM5.26995 14.2373C5.85826 14.2373 6.44656 14.2515 7.03487 14.2302C7.16954 14.2232 7.34674 14.1238 7.41053 14.0174C8.02719 12.9885 8.62259 11.9455 9.21089 10.9025C9.2676 10.8031 9.27469 10.6257 9.21798 10.5335C8.62967 9.48337 8.03428 8.44743 7.41762 7.41149C7.35383 7.30506 7.18372 7.21281 7.06322 7.21281C5.87243 7.19862 4.68164 7.19862 3.49085 7.21281C3.36327 7.21281 3.17898 7.31925 3.11519 7.43277C2.52688 8.43324 1.94566 9.46208 1.37862 10.4909C1.31483 10.6045 1.32192 10.8173 1.38571 10.9308C1.95275 11.9597 2.54815 12.9814 3.12228 14.0103C3.2286 14.1948 3.34909 14.2444 3.54756 14.2373C4.1146 14.2302 4.69582 14.2373 5.26995 14.2373ZM12.3863 11.314C11.7838 11.314 11.1814 11.2998 10.586 11.3211C10.4655 11.3282 10.2883 11.4133 10.2316 11.5198C9.622 12.5415 9.03369 13.5704 8.45247 14.6063C8.39577 14.7127 8.38868 14.9114 8.45247 15.0178C9.02661 16.0396 9.61491 17.0613 10.2245 18.0689C10.2954 18.1824 10.4726 18.2889 10.6072 18.2889C11.798 18.3031 12.9888 18.3031 14.1796 18.2889C14.3001 18.2889 14.4702 18.1895 14.5269 18.0831C15.1365 17.0613 15.7248 16.0325 16.306 14.9966C16.3627 14.8901 16.3627 14.6985 16.306 14.5992C15.7319 13.5704 15.1436 12.5486 14.5411 11.5411C14.4773 11.4275 14.293 11.3282 14.1654 11.3211C13.5629 11.2998 12.9746 11.314 12.3863 11.314Z" fill="#D5D1ED"/>
<path d="M14.0095 9.33442C13.3645 9.33442 12.7124 9.32733 12.0673 9.33442C11.7129 9.34152 11.472 9.2138 11.2877 8.9016C10.6285 7.74503 9.9622 6.59557 9.28884 5.4461C9.11164 5.14809 9.10455 4.88555 9.28175 4.58754C9.95512 3.43808 10.6214 2.28861 11.2806 1.13204C11.4507 0.834033 11.6704 0.699219 12.0177 0.699219C13.3503 0.71341 14.6828 0.71341 16.0083 0.699219C16.3556 0.699219 16.5824 0.826937 16.7525 1.12495C17.4188 2.3028 18.0851 3.48065 18.7584 4.6514C18.9144 4.92813 18.9144 5.16937 18.7584 5.4461C18.0851 6.60266 17.4117 7.76632 16.7454 8.93707C16.5895 9.2138 16.3627 9.33442 16.0508 9.33442C15.3704 9.32733 14.6899 9.33442 14.0095 9.33442ZM14.0307 1.84159C13.5275 1.84159 13.0171 1.85578 12.5139 1.8345C12.2871 1.8274 12.1524 1.88416 12.039 2.09703C11.5357 2.99106 11.0112 3.8709 10.5151 4.76493C10.4442 4.88555 10.4442 5.11261 10.508 5.23323C11.0041 6.14145 11.5216 7.03549 12.0532 7.92952C12.1241 8.05014 12.3154 8.16367 12.4572 8.16367C13.492 8.18495 14.5269 8.18495 15.5617 8.16367C15.7035 8.16367 15.8878 8.04304 15.9658 7.92242C16.4974 7.03549 17.0148 6.14145 17.518 5.23323C17.5818 5.11261 17.5747 4.88555 17.511 4.76493C17.0077 3.85671 16.4761 2.96977 15.9658 2.06865C15.8665 1.89126 15.746 1.8274 15.5476 1.8345C15.0443 1.84869 14.5411 1.84159 14.0307 1.84159Z" fill="#D5D1ED"/>
<path d="M21.8012 6.65267C22.2123 6.65267 22.6234 6.65976 23.0416 6.65267C23.318 6.64557 23.5165 6.7591 23.6512 6.99325C24.0906 7.75956 24.5514 8.51168 24.9625 9.29219C25.0475 9.45538 25.0475 9.75339 24.9625 9.91659C24.5443 10.7042 24.0977 11.4847 23.6228 12.2439C23.5236 12.4 23.2684 12.5419 23.0771 12.549C22.2052 12.5774 21.3334 12.5632 20.4616 12.5632C20.1851 12.5632 20.0009 12.4355 19.8662 12.1942C19.448 11.4563 19.0227 10.7255 18.5974 9.98754C18.4415 9.72501 18.4415 9.48376 18.5974 9.22123C19.0227 8.49749 19.4409 7.77375 19.852 7.05001C20.015 6.7591 20.2418 6.63138 20.575 6.65267C20.979 6.66686 21.3901 6.65267 21.8012 6.65267ZM21.6169 11.4066C22.8219 11.4066 22.7723 11.3712 23.3535 10.5552C23.8355 9.88111 23.7788 9.37733 23.3606 8.68197C22.9707 8.03629 22.588 7.80923 21.8296 7.79504C20.979 7.77375 20.5466 8.05048 20.1426 8.78131C19.7811 9.4341 19.7811 9.88111 20.1568 10.5126C20.5466 11.1867 20.9223 11.6479 21.6169 11.4066Z" fill="#D5D1ED"/>
<path d="M26.9319 3.27713C27.18 4.07892 26.7264 4.44789 26.0956 4.83104C25.4435 5.23549 24.9402 5.24968 24.3023 4.81685C23.3312 4.15697 23.4234 4.44079 23.4234 3.24166C23.4234 2.12057 23.2958 2.30505 24.281 1.73032C25.3017 1.14139 25.0536 1.16268 26.1168 1.70903C26.7973 2.05671 27.1517 2.49663 26.9319 3.27713ZM24.5575 3.23456C24.5575 3.56805 24.8906 3.9583 25.1883 3.96539C25.4718 3.97959 25.8333 3.57514 25.8333 3.24875C25.8333 2.91526 25.4789 2.53211 25.1883 2.5392C24.8977 2.55339 24.5575 2.92236 24.5575 3.23456Z" fill="#D5D1ED"/>
</svg>
