<svg width="39" height="39" viewBox="0 0 39 39" fill="none" xmlns="http://www.w3.org/2000/svg">
<path d="M19.1 26.6821C23.3145 26.6821 26.7 23.321 26.7 19.1369C26.7 14.9528 23.3145 11.5918 19.1 11.5918C14.8855 11.5918 11.5 14.9528 11.5 19.1369C11.5 23.321 14.8855 26.6821 19.1 26.6821Z" fill="#8559A6"/>
<path d="M19.1 26.6821C23.2974 26.6821 26.7 23.304 26.7 19.1369C26.7 14.9699 23.2974 11.5918 19.1 11.5918C14.9026 11.5918 11.5 14.9699 11.5 19.1369C11.5 23.304 14.9026 26.6821 19.1 26.6821Z" stroke="white" stroke-width="3"/>
<path d="M26.7016 19.2744C26.5634 23.1841 23.3852 26.4765 19.1016 26.5451C14.7488 26.4765 11.5016 23.3213 11.5016 19C11.4325 15.1588 14.5416 11.1805 19.7234 11.4549C23.3161 11.7292 26.8397 14.8159 26.7016 19.2744ZM38.1016 23.8014C38.0325 23.5271 37.9634 23.3213 37.8252 23.1155C37.2034 22.1552 36.5125 21.2635 35.5452 20.5776C34.5779 19.8231 33.5416 19.4116 32.2979 19.5487C31.7452 19.6173 31.1234 19.4801 30.5016 19.4116C30.3634 19.4116 30.2252 19.343 30.1561 19.2744C31.0543 18.7942 31.9525 18.4513 32.7816 17.9711C33.887 17.3538 34.7161 16.3935 35.4761 15.4332C35.5452 15.296 35.5452 15.0903 35.6143 14.9531C35.4761 15.0217 35.3379 15.0217 35.1997 15.0903C34.3016 15.4332 33.4725 15.7762 32.5743 16.0505C32.367 16.1191 32.0216 16.0505 31.8143 15.9134C31.0543 15.5018 30.2943 15.0217 29.6034 14.6101C29.8107 14.13 30.087 13.5812 30.3634 12.9639C30.7088 12.2094 30.9852 11.4549 31.5379 10.8375C32.367 9.80866 33.5416 9.5343 34.7852 9.32852C35.1307 9.25993 35.4761 9.19134 36.0288 9.12274C35.6834 8.91697 35.5452 8.71119 35.3379 8.71119C34.3707 8.57401 33.4034 8.36823 32.367 8.36823C30.6397 8.36823 29.1888 9.05415 28.1525 10.426C27.8761 10.8375 27.4616 11.1119 26.8397 11.2491C28.1525 8.50541 28.4979 5.28159 27.5997 4.38989C27.5307 4.52708 27.4616 4.66426 27.3925 4.80144C27.1161 5.48736 26.9088 6.17329 26.5634 6.85921C26.3561 7.33935 26.0107 7.68231 25.4579 7.7509C24.9743 7.81949 24.4907 7.95668 24.007 8.09386C23.7307 8.16246 23.4543 8.29964 23.3161 8.36823C23.0397 7.7509 22.8325 7.13357 22.6252 6.58484C22.3488 5.83033 22.0034 5.07581 21.9343 4.25271C21.9343 2.94946 22.6943 1.78339 23.5925 0.685921C23.7307 0.548736 23.7997 0.34296 23.8688 0.137184C23.7997 0.0685921 23.7307 0.0685921 23.7307 0C23.247 0.274368 22.8325 0.480144 22.3488 0.823105C22.0034 1.02888 21.6579 1.37184 21.3816 1.64621C20.5525 2.40072 19.7925 3.22383 19.5852 4.3213C19.3779 5.28159 19.447 6.31047 19.3088 7.33935C19.3088 7.54513 19.2397 7.81949 19.1707 8.02527C18.4107 5.62455 15.9234 2.53791 14.8179 2.6065C15.1634 3.36101 15.5088 4.18412 15.7852 5.00722C15.9234 5.41877 15.9925 5.96751 15.7852 6.31047C15.4397 7.06498 14.887 7.81949 14.4725 8.43682C13.8507 8.16246 13.1597 7.81949 12.4688 7.54513C11.4325 7.20217 10.5343 6.58484 9.98156 5.62455C9.42883 4.73285 9.22156 3.77256 9.15247 2.74368C9.15247 2.6065 9.08338 2.46931 9.01429 2.26354C8.80702 2.46931 8.66884 2.6065 8.59974 2.81227C8.11611 3.90975 8.1852 5.07581 8.25429 6.24188C8.32338 7.13357 8.53065 8.02527 9.15247 8.71119C9.63611 9.25993 10.1888 9.74007 10.6725 10.2202C10.8797 10.426 11.0179 10.769 11.2252 10.9747C10.327 10.769 9.63611 10.3574 8.80702 10.2202C7.49429 10.0144 6.11247 10.0144 4.79974 9.94585C4.73065 9.94585 4.66156 9.94585 4.66156 9.94585C4.59247 10.0144 4.45429 10.083 4.3852 10.1516C4.45429 10.2202 4.52338 10.3574 4.59247 10.426C5.00702 10.5632 5.42156 10.6318 5.76702 10.8375C6.52702 11.1805 7.49429 11.4549 7.70156 12.4152C7.83974 12.8953 7.90884 13.3755 8.04702 13.9242C8.11611 14.1986 8.25429 14.4043 8.32338 14.6101C7.63247 14.8845 7.01065 15.0903 6.31974 15.3646C5.49065 15.7076 4.73065 16.0505 3.76338 15.9819C2.38156 15.9134 1.3452 15.1588 0.308835 14.4043L0.101562 15.0903C0.723381 16.0505 1.41429 16.8051 2.31247 17.5596C3.27974 18.3141 4.31611 18.7942 5.55974 18.657C6.04338 18.5884 6.59611 18.657 7.07974 18.657C7.35611 18.657 7.56338 18.7942 7.83974 18.8628C5.00702 19.9603 2.65793 21.8123 2.31247 23.2527C2.38156 23.2527 2.45065 23.2527 2.51974 23.1841C3.27974 22.8412 4.10884 22.4982 4.86884 22.2238C5.35247 22.0866 5.76702 22.018 6.25065 22.361C6.94156 22.7726 7.63247 23.1841 8.25429 23.5271C7.97793 24.213 7.56338 24.8989 7.28702 25.6534C6.73429 27.231 5.62884 28.2599 3.97065 28.6029C3.34884 28.7401 2.72702 28.8773 2.1052 28.9459C2.1052 29.0144 2.1052 29.0144 2.03611 29.083C2.24338 29.2202 2.51974 29.426 2.72702 29.426C3.76338 29.5632 4.79974 29.6318 5.83611 29.6318C7.28702 29.6318 8.46156 29.083 9.35974 27.9856C9.77429 27.5054 10.327 27.1625 10.8797 26.6137C10.8797 26.8881 10.9488 26.9567 10.8797 27.0253C10.6725 27.6426 10.3961 28.1913 10.1888 28.8087C9.63611 30.2491 9.56702 31.7581 9.77429 33.2671C9.77429 33.4043 9.98156 33.5415 10.1197 33.8159C10.2579 33.6101 10.2579 33.4729 10.327 33.4043C10.6034 32.7184 10.8107 31.9639 11.1561 31.278C11.4325 30.7292 11.9161 30.4549 12.5379 30.3177C13.0907 30.1805 13.5743 30.0433 14.127 29.9061C14.2652 29.8375 14.4725 29.8375 14.5416 29.769C14.8179 30.4549 15.0252 31.0722 15.3016 31.6895C15.5088 32.3755 15.8543 33.0614 15.9234 33.7473C16.0616 35.2563 15.2325 36.4224 14.4034 37.5199C14.3343 37.657 14.1961 37.7942 14.127 37.9314C14.127 38 14.1961 38 14.1961 38.0686C14.4034 38 14.6107 38 14.8179 37.8628C15.7852 37.3827 16.5452 36.6968 17.2361 35.9422C17.8579 35.1877 18.4797 34.5018 18.5488 33.4729C18.6179 32.6498 18.6179 31.7581 18.687 30.935C18.687 30.6607 18.8252 30.3863 18.8252 30.1119C19.8616 32.8556 21.9343 35.5307 23.1779 35.5993C22.9016 34.8448 22.5561 34.0903 22.2797 33.2671C22.0725 32.6498 22.0725 32.1011 22.487 31.4838C22.9016 30.935 23.1779 30.2491 23.5234 29.6318C23.7307 29.769 24.007 29.9061 24.2834 30.0433C24.9743 30.3863 25.7343 30.5921 26.4252 30.935C27.807 31.6209 28.3597 32.8556 28.7052 34.2274C28.8434 34.7762 28.8434 35.2563 28.9125 35.8051C28.9816 35.8051 29.0507 35.8051 29.0507 35.8051C29.1197 35.7365 29.1888 35.6679 29.2579 35.5307C29.8107 34.5704 29.6725 33.5415 29.7416 32.5126C29.8107 30.7292 29.1197 29.3574 27.7379 28.1913C27.3234 27.8484 26.9088 27.5054 26.7707 26.8195C28.7052 27.8484 30.6397 28.1913 32.7125 28.0542C32.9888 28.0542 33.3343 27.917 33.6107 27.8484C33.6107 27.7798 33.6107 27.7112 33.6107 27.6426C33.4725 27.574 33.3343 27.4368 33.1961 27.3682C32.5052 27.0939 31.8834 26.8881 31.1925 26.6137C30.6397 26.4079 30.4325 25.9278 30.2252 25.4477C30.0179 24.8303 29.8797 24.213 29.7416 23.5957C29.7416 23.4585 29.8797 23.1841 29.9488 23.1841C30.847 23.1841 31.5379 22.6354 32.2979 22.2924C32.7816 22.0866 33.3343 21.9495 33.887 21.9495C35.1997 21.9495 36.3743 22.5668 37.3416 23.3899C37.5488 23.5271 37.7561 23.6643 37.9634 23.8014C38.0325 23.87 38.0325 23.87 38.1016 23.8014Z" fill="#D6D1E8"/>
</svg>
