<svg width="90" height="90" viewBox="0 0 90 90" fill="none" xmlns="http://www.w3.org/2000/svg">
<path d="M14.5944 14.5944L45 2L75.4055 14.5944L88 45L75.4055 75.4055L45 88L14.5944 75.4055L2 45L14.5944 14.5944Z" fill="#675C98" stroke="#DFDCF1" stroke-width="3"/>
<path d="M42.67 49.51V55H25.84V50.65L33.43 43.63C34.09 43.01 34.53 42.48 34.75 42.04C34.97 41.6 35.08 41.17 35.08 40.75C35.08 40.23 34.9 39.83 34.54 39.55C34.2 39.25 33.7 39.1 33.04 39.1C32.4 39.1 31.8 39.27 31.24 39.61C30.68 39.95 30.25 40.43 29.95 41.05L24.61 38.38C25.41 36.88 26.58 35.7 28.12 34.84C29.66 33.96 31.52 33.52 33.7 33.52C35.36 33.52 36.83 33.79 38.11 34.33C39.39 34.87 40.39 35.64 41.11 36.64C41.83 37.64 42.19 38.79 42.19 40.09C42.19 41.25 41.94 42.34 41.44 43.36C40.96 44.36 40.01 45.5 38.59 46.78L35.59 49.51H42.67ZM53.632 55.48C51.772 55.48 50.122 55.05 48.682 54.19C47.262 53.31 46.142 52.05 45.322 50.41C44.522 48.75 44.122 46.78 44.122 44.5C44.122 42.22 44.522 40.26 45.322 38.62C46.142 36.96 47.262 35.7 48.682 34.84C50.122 33.96 51.772 33.52 53.632 33.52C55.492 33.52 57.132 33.96 58.552 34.84C59.992 35.7 61.112 36.96 61.912 38.62C62.732 40.26 63.142 42.22 63.142 44.5C63.142 46.78 62.732 48.75 61.912 50.41C61.112 52.05 59.992 53.31 58.552 54.19C57.132 55.05 55.492 55.48 53.632 55.48ZM53.632 49.81C55.232 49.81 56.032 48.04 56.032 44.5C56.032 40.96 55.232 39.19 53.632 39.19C52.032 39.19 51.232 40.96 51.232 44.5C51.232 48.04 52.032 49.81 53.632 49.81Z" fill="white"/>
</svg>
