<svg width="90" height="90" viewBox="0 0 90 90" fill="none" xmlns="http://www.w3.org/2000/svg">
<path d="M14.5944 14.5944L45 2L75.4055 14.5944L88 45L75.4055 75.4055L45 88L14.5944 75.4055L2 45L14.5944 14.5944Z" fill="#675C98" stroke="#DFDCF1" stroke-width="3"/>
<g clip-path="url(#clip0_5041_34889)">
<mask id="mask0_5041_34889" style="mask-type:luminance" maskUnits="userSpaceOnUse" x="32" y="26" width="26" height="39">
<path d="M57.7946 26.4414H32.043V64.9413H57.7946V26.4414Z" fill="white"/>
</mask>
<g mask="url(#mask0_5041_34889)">
<path d="M40.7429 42.4924C40.9749 42.4924 41.0909 42.3761 41.2069 42.1435C41.3229 41.9108 41.3229 41.7945 41.2069 41.5619C41.2069 41.4456 41.0909 41.4456 40.9749 41.3293C40.1629 40.3988 39.2349 39.3519 38.3069 38.4214C37.6109 37.6072 36.9149 37.0256 36.2189 36.2115C36.1029 36.0951 35.8709 35.9788 35.6389 36.0951C35.5229 36.0951 35.4069 36.2115 35.2909 36.4441C35.2909 36.6767 35.2909 36.793 35.5229 37.0256C36.1029 37.6072 36.6829 38.1888 37.1469 38.7704C38.1909 39.9335 39.2349 41.2129 40.3949 42.3761C40.5109 42.3761 40.6269 42.4924 40.7429 42.4924ZM46.3108 37.4909C46.3108 37.8398 46.4268 37.9562 46.6588 38.0725C46.8908 38.0725 47.1228 37.9562 47.2388 37.7235C48.2828 35.3973 49.5587 33.4199 51.2987 31.5589C51.5307 31.3263 51.5307 30.9773 51.2987 30.7447C51.0667 30.5121 50.8347 30.5121 50.6027 30.861C48.8628 32.722 47.3548 34.932 46.3108 37.2583C46.3108 37.3746 46.3108 37.3746 46.3108 37.4909ZM43.9908 44.935C44.3388 42.6087 44.9188 40.3988 45.7308 38.3051C45.3828 38.0725 45.0348 37.8398 44.8028 37.4909C43.6428 36.4441 43.2948 35.1646 43.5268 33.5362C43.7588 31.9078 44.5708 30.7447 45.7308 29.5816C47.4708 27.7205 49.6747 26.6737 52.1107 26.4411C53.7347 26.3248 55.2427 26.4411 56.8667 26.79C57.0986 26.9063 57.3306 27.0226 57.3306 27.2553C57.7946 29.2326 57.9106 31.0936 57.5626 33.071C57.2146 35.3973 56.1707 37.3746 54.4307 39.003C53.6187 39.8172 52.6907 40.5151 51.5307 40.864C50.2547 41.2129 49.0948 41.3293 47.9348 40.6314C47.4708 40.2824 47.0068 39.9335 46.6588 39.4682C46.6588 39.3519 46.5428 39.3519 46.4268 39.2356C46.3108 39.7009 46.0788 40.1661 45.9628 40.6314C45.3828 42.4924 45.0348 44.3534 44.8028 46.3308C44.6868 47.8428 44.5708 49.3549 44.6868 50.867C44.6868 51.0996 44.6868 51.216 44.6868 51.4486C44.6868 51.7975 44.4548 52.0301 44.2228 52.0301C43.8748 52.0301 43.6428 51.7975 43.6428 51.4486C43.5268 49.9365 43.5268 48.4244 43.6428 46.9123C43.6428 46.6797 43.6428 46.4471 43.5268 46.3308C42.8308 45.4003 42.2508 44.5861 41.5548 43.6555C41.5548 43.6555 41.4388 43.5392 41.4388 43.4229C41.3229 43.6555 41.2069 43.7719 41.0909 43.8882C40.1629 45.0513 39.0029 45.2839 37.6109 45.0513C36.3349 44.7024 35.2909 44.0045 34.3629 42.9577C32.971 41.4456 32.275 39.5846 32.043 37.4909C32.043 36.2115 32.043 34.932 32.391 33.6525C32.391 33.4199 32.507 33.3036 32.739 33.3036C34.0149 32.9547 35.2909 32.8383 36.5669 32.9547C38.0749 33.071 39.3509 33.5362 40.6269 34.3504C41.9028 35.1646 42.9468 36.2115 43.5268 37.7235C43.9908 38.7704 44.1068 39.9335 43.6428 40.9803C43.4108 41.5619 42.9468 42.0271 42.4828 42.3761C42.3668 42.4924 42.2508 42.4924 42.2508 42.6087C42.8308 43.4229 43.4108 44.1208 43.9908 44.935Z" fill="#D6D1E8"/>
</g>
<mask id="mask1_5041_34889" style="mask-type:luminance" maskUnits="userSpaceOnUse" x="32" y="26" width="26" height="39">
<path d="M57.7946 26.4414H32.043V64.9413H57.7946V26.4414Z" fill="white"/>
</mask>
<g mask="url(#mask1_5041_34889)">
<path d="M36.4531 62.2661C36.4531 61.8009 36.4531 61.3356 36.4531 60.8704C36.4531 60.4051 36.6851 60.0562 37.1491 59.9399C38.1931 59.8236 39.3531 59.5909 40.3971 59.4746C40.6291 59.4746 40.7451 59.4746 40.9771 59.5909C41.5571 59.9399 42.0211 60.2888 42.601 60.7541C42.949 60.9867 43.065 61.5683 42.833 61.9172C42.2531 62.8477 41.6731 63.6619 41.0931 64.4761C40.8611 64.7087 40.6291 64.9414 40.2811 64.8251C39.2371 64.7087 38.1931 64.5924 37.1491 64.4761C36.6851 64.4761 36.4531 64.1272 36.4531 63.6619C36.4531 63.4293 36.4531 63.1967 36.4531 62.964C36.4531 62.7314 36.4531 62.4988 36.4531 62.2661Z" fill="#D6D1E8"/>
</g>
<mask id="mask2_5041_34889" style="mask-type:luminance" maskUnits="userSpaceOnUse" x="32" y="26" width="26" height="39">
<path d="M57.7946 26.4414H32.043V64.9413H57.7946V26.4414Z" fill="white"/>
</mask>
<g mask="url(#mask2_5041_34889)">
<path d="M51.8805 59.4746C52.1125 59.4746 52.3445 59.5909 52.5765 59.7072C52.9244 60.0562 53.2724 60.4051 53.5044 60.7541C53.8524 61.103 53.8524 61.6846 53.5044 62.0335C53.1564 62.3825 52.8084 62.7314 52.4605 63.0803C52.3445 63.1967 52.2285 63.1967 52.1125 63.313C50.9525 63.7782 49.6765 64.2435 48.5165 64.7087C48.1685 64.8251 47.9365 64.8251 47.5885 64.5924C47.1245 64.2435 46.6605 63.8945 46.1965 63.5456C45.7325 63.1967 45.6165 62.6151 46.0805 62.1498C46.6605 61.4519 47.1245 60.8704 47.7045 60.2888C47.8205 60.0562 48.0525 60.0562 48.2845 59.9399C49.3285 59.8236 50.3725 59.7072 51.4165 59.5909C51.5325 59.4746 51.6485 59.4746 51.8805 59.4746Z" fill="#D6D1E8"/>
</g>
<mask id="mask3_5041_34889" style="mask-type:luminance" maskUnits="userSpaceOnUse" x="32" y="26" width="26" height="39">
<path d="M57.7946 26.4414H32.043V64.9413H57.7946V26.4414Z" fill="white"/>
</mask>
<g mask="url(#mask3_5041_34889)">
<path d="M40.743 56.1011C40.743 55.9847 40.743 55.7521 40.743 55.6358C40.743 55.1705 41.091 54.8216 41.555 54.8216C42.4829 54.7053 43.4109 54.589 44.3389 54.4727C44.5709 54.4727 44.8029 54.4727 45.0349 54.7053C45.6149 55.2869 46.3109 55.7521 46.8909 56.3337C47.2389 56.5663 47.3549 56.9152 47.2389 57.3805C47.1229 57.6131 47.1229 57.8458 47.0069 58.0784C46.8909 58.5436 46.4269 58.7763 45.9629 58.66C44.8029 58.4273 43.7589 58.0784 42.5989 57.7294C42.2509 57.6131 41.9029 57.4968 41.555 57.4968C40.859 57.3805 40.743 57.0316 40.743 56.3337C40.627 56.2174 40.743 56.1011 40.743 56.1011Z" fill="#D6D1E8"/>
</g>
<mask id="mask4_5041_34889" style="mask-type:luminance" maskUnits="userSpaceOnUse" x="32" y="26" width="26" height="39">
<path d="M57.7946 26.4414H32.043V64.9413H57.7946V26.4414Z" fill="white"/>
</mask>
<g mask="url(#mask4_5041_34889)">
<path d="M37.6114 56.2182C37.1474 56.2182 36.6834 56.2182 36.2194 56.2182C35.5234 56.2182 35.0594 55.5203 35.4074 54.9387C35.9874 53.8919 36.4514 52.8451 37.0314 51.7983C37.1474 51.4493 37.4954 51.333 37.8434 51.333C38.4234 51.4493 39.1194 51.4493 39.6993 51.5656C40.1633 51.682 40.5113 52.0309 40.3953 52.6125C40.2793 53.543 40.0473 54.4735 39.9313 55.404C39.8153 55.9856 39.5833 56.2182 39.0034 56.2182C38.5394 56.2182 38.0754 56.2182 37.6114 56.2182Z" fill="#D6D1E8"/>
</g>
<mask id="mask5_5041_34889" style="mask-type:luminance" maskUnits="userSpaceOnUse" x="32" y="26" width="26" height="39">
<path d="M57.7946 26.4414H32.043V64.9413H57.7946V26.4414Z" fill="white"/>
</mask>
<g mask="url(#mask5_5041_34889)">
<path d="M52.9224 54.2404C52.9224 54.473 52.9224 54.7056 52.9224 54.9383C52.9224 55.2872 52.8064 55.5198 52.5744 55.7525C51.9944 56.1014 51.5304 56.4503 50.9504 56.7993C50.6024 57.0319 50.2544 57.0319 50.0224 56.7993C49.6744 56.5667 49.2104 56.334 48.8624 55.9851C48.6304 55.7525 48.3984 55.5198 48.3984 55.1709C48.3984 54.822 48.3984 54.473 48.3984 54.1241C48.3984 53.6588 48.6304 53.4262 48.9784 53.3099C49.9064 53.0772 50.9504 52.7283 51.8784 52.4957C52.4584 52.3794 52.9224 52.7283 52.9224 53.4262C52.9224 53.7751 52.9224 54.0078 52.9224 54.2404Z" fill="#D6D1E8"/>
</g>
</g>
<defs>
<clipPath id="clip0_5041_34889">
<rect width="25.7517" height="38.4999" fill="white" transform="translate(32.043 26.4414)"/>
</clipPath>
</defs>
</svg>
