<svg width="68" height="68" viewBox="0 0 68 68" fill="none" xmlns="http://www.w3.org/2000/svg">
<path d="M11.3726 11.3726L34 2L56.6274 11.3726L66 34L56.6274 56.6274L34 66L11.3726 56.6274L2 34L11.3726 11.3726Z" fill="#B66CB2" stroke="#FFF200" stroke-width="3"/>
<g clip-path="url(#clip0_6490_12590)">
<mask id="mask0_6490_12590" style="mask-type:luminance" maskUnits="userSpaceOnUse" x="22" y="18" width="23" height="33">
<path d="M44.8543 20.291L24.5273 18.7305L22.204 48.994L42.5309 50.5546L44.8543 20.291Z" fill="white"/>
</mask>
<g mask="url(#mask0_6490_12590)">
<path d="M30.4233 31.8752C30.6064 31.8893 30.705 31.8049 30.8106 31.629C30.9162 31.4532 30.9232 31.3618 30.8457 31.1719C30.8527 31.0805 30.7611 31.0734 30.6766 30.975C30.0918 30.1943 29.4225 29.3152 28.7461 28.5275C28.2459 27.8453 27.7316 27.346 27.2314 26.6638C27.1468 26.5654 26.9707 26.4599 26.7806 26.5372C26.689 26.5302 26.5904 26.6146 26.4848 26.7904C26.4708 26.9733 26.4638 27.0647 26.6329 27.2617C27.0556 27.754 27.4783 28.2463 27.8094 28.7315C28.5633 29.7091 29.3102 30.7781 30.1556 31.7627C30.2472 31.7697 30.3317 31.8682 30.4233 31.8752ZM35.1201 28.2811C35.0991 28.5554 35.1836 28.6539 35.3597 28.7593C35.5428 28.7734 35.733 28.696 35.8386 28.5202C36.803 26.7548 37.9295 25.2778 39.4153 23.9204C39.6124 23.7516 39.6335 23.4773 39.4644 23.2804C39.2953 23.0835 39.1122 23.0694 38.908 23.3296C37.4223 24.6871 36.0986 26.3329 35.1341 28.0982C35.1271 28.1897 35.1271 28.1897 35.1201 28.2811ZM32.8396 33.9921C33.2547 32.1846 33.8459 30.4825 34.6132 28.886C34.3525 28.682 34.0919 28.4781 33.9298 28.1897C33.0773 27.2966 32.8799 26.2697 33.1613 25.0038C33.4426 23.7378 34.1538 22.8727 35.1396 22.0287C36.6253 20.6712 38.4282 19.9819 40.3651 19.9466C41.654 19.9536 42.8373 20.1364 44.0981 20.5091C44.2742 20.6146 44.4503 20.7201 44.4363 20.903C44.6832 22.4854 44.6624 23.9553 44.2684 25.4886C43.8534 27.2961 42.91 28.7872 41.4383 29.9618C40.7482 30.5526 39.9736 31.0449 39.0369 31.2489C38.0086 31.4459 37.086 31.467 36.2125 30.8481C35.8673 30.5457 35.5221 30.2433 35.2755 29.8565C35.2825 29.7651 35.1909 29.7581 35.1064 29.6596C34.9867 30.0183 34.7755 30.37 34.6559 30.7286C34.0858 32.1564 33.6988 33.5982 33.3963 35.1385C33.2135 36.32 33.0307 37.5016 33.031 38.6972C33.017 38.8801 33.01 38.9715 32.9959 39.1544C32.9749 39.4287 32.7777 39.5975 32.5946 39.5834C32.3199 39.5623 32.1508 39.3654 32.1719 39.0911C32.1716 37.8955 32.2628 36.7069 32.4456 35.5253C32.4597 35.3425 32.4737 35.1596 32.3891 35.0611C31.8959 34.2875 31.4872 33.6124 30.994 32.8387C30.994 32.8387 30.9095 32.7403 30.9165 32.6488C30.8109 32.8247 30.7123 32.9091 30.6137 32.9935C29.811 33.8515 28.8814 33.9641 27.7967 33.6969C26.8105 33.3453 26.0286 32.7334 25.3592 31.8543C24.3517 30.5814 23.9147 29.0763 23.8579 27.4165C23.9351 26.4108 24.0123 25.405 24.3642 24.4204C24.3783 24.2375 24.4768 24.1531 24.66 24.1672C25.6882 23.9702 26.7024 23.9561 27.7026 24.1248C28.8859 24.3077 29.865 24.7507 30.8231 25.468C31.7811 26.1854 32.542 27.0715 32.9086 28.2953C33.2116 29.1463 33.233 30.0676 32.8036 30.8623C32.5854 31.3054 32.191 31.6431 31.8037 31.8892C31.7052 31.9736 31.6136 31.9666 31.6066 32.058C32.0152 32.7332 32.4309 33.3169 32.8396 33.9921Z" fill="#D6D1E8"/>
</g>
<mask id="mask1_6490_12590" style="mask-type:luminance" maskUnits="userSpaceOnUse" x="22" y="18" width="23" height="33">
<path d="M44.8543 20.291L24.5273 18.7305L22.204 48.994L42.5309 50.5546L44.8543 20.291Z" fill="white"/>
</mask>
<g mask="url(#mask1_6490_12590)">
<path d="M25.8472 47.1582C25.8752 46.7925 25.9033 46.4268 25.9314 46.061C25.9595 45.6953 26.1637 45.4351 26.5369 45.3718C27.368 45.3436 28.2977 45.231 29.1288 45.2029C29.3119 45.2169 29.4034 45.224 29.5796 45.3294C30.0163 45.6389 30.3615 45.9413 30.7912 46.3422C31.0519 46.5461 31.1084 47.0103 30.9042 47.2705C30.3902 47.9668 29.8833 48.5717 29.3763 49.1766C29.1791 49.3454 28.982 49.5142 28.7143 49.4016C27.8973 49.247 27.0802 49.0923 26.2632 48.9376C25.8969 48.9094 25.7349 48.6211 25.7629 48.2554C25.777 48.0725 25.791 47.8897 25.8051 47.7068C25.8191 47.5239 25.8331 47.3411 25.8472 47.1582Z" fill="#D6D1E8"/>
</g>
<mask id="mask2_6490_12590" style="mask-type:luminance" maskUnits="userSpaceOnUse" x="22" y="18" width="23" height="33">
<path d="M44.8543 20.291L24.5273 18.7305L22.204 48.994L42.5309 50.5546L44.8543 20.291Z" fill="white"/>
</mask>
<g mask="url(#mask2_6490_12590)">
<path d="M38.1902 45.8987C38.3733 45.9127 38.5494 46.0182 38.7255 46.1237C38.9792 46.4191 39.2328 46.7145 39.3949 47.0028C39.6485 47.2982 39.6134 47.7553 39.3177 48.0085C39.0219 48.2618 38.7262 48.515 38.4304 48.7682C38.3318 48.8526 38.2403 48.8455 38.1417 48.9299C37.198 49.2254 36.1627 49.5138 35.219 49.8092C34.9373 49.8795 34.7542 49.8655 34.4935 49.6615C34.1483 49.3591 33.8031 49.0567 33.458 48.7543C33.1128 48.4519 33.0563 47.9877 33.4506 47.6501C33.9505 47.1367 34.3519 46.7076 34.8448 46.2856C34.9504 46.1098 35.1335 46.1238 35.3237 46.0465C36.1548 46.0183 36.9858 45.9901 37.8169 45.962C37.9155 45.8776 38.0071 45.8846 38.1902 45.8987Z" fill="#D6D1E8"/>
</g>
<mask id="mask3_6490_12590" style="mask-type:luminance" maskUnits="userSpaceOnUse" x="22" y="18" width="23" height="33">
<path d="M44.8543 20.291L24.5273 18.7305L22.204 48.994L42.5309 50.5546L44.8543 20.291Z" fill="white"/>
</mask>
<g mask="url(#mask3_6490_12590)">
<path d="M29.6026 42.5722C29.6096 42.4808 29.6236 42.2979 29.6307 42.2065C29.6587 41.8408 29.9545 41.5876 30.3207 41.6157C31.0603 41.5805 31.7998 41.5453 32.5393 41.5101C32.7224 41.5242 32.9055 41.5382 33.0746 41.7351C33.4974 42.2274 34.0187 42.6353 34.4414 43.1276C34.702 43.3316 34.7725 43.6129 34.6529 43.9716C34.5473 44.1474 34.5332 44.3303 34.4276 44.5061C34.308 44.8648 33.9277 45.0196 33.5685 44.9C32.6669 44.6469 31.8639 44.3093 30.9693 43.9647C30.7016 43.8522 30.434 43.7397 30.1593 43.7186C29.6169 43.585 29.5464 43.3037 29.5885 42.7551C29.504 42.6566 29.6026 42.5722 29.6026 42.5722Z" fill="#D6D1E8"/>
</g>
<mask id="mask4_6490_12590" style="mask-type:luminance" maskUnits="userSpaceOnUse" x="22" y="18" width="23" height="33">
<path d="M44.8543 20.291L24.5273 18.7305L22.204 48.994L42.5309 50.5546L44.8543 20.291Z" fill="white"/>
</mask>
<g mask="url(#mask4_6490_12590)">
<path d="M27.1242 42.474C26.758 42.4459 26.3917 42.4178 26.0255 42.3896C25.4761 42.3475 25.152 41.7708 25.4618 41.3347C25.9827 40.547 26.4122 39.7522 26.9332 38.9645C27.0458 38.6972 27.3275 38.6269 27.6022 38.648C28.053 38.7745 28.6023 38.8167 29.0531 38.9433C29.4124 39.0628 29.666 39.3582 29.5393 39.8083C29.3916 40.5328 29.1523 41.2501 29.0046 41.9746C28.878 42.4247 28.6808 42.5935 28.223 42.5583C27.8567 42.5302 27.4905 42.5021 27.1242 42.474Z" fill="#D6D1E8"/>
</g>
<mask id="mask5_6490_12590" style="mask-type:luminance" maskUnits="userSpaceOnUse" x="22" y="18" width="23" height="33">
<path d="M44.8543 20.291L24.5273 18.7305L22.204 48.994L42.5309 50.5546L44.8543 20.291Z" fill="white"/>
</mask>
<g mask="url(#mask5_6490_12590)">
<path d="M39.3315 41.8475C39.3175 42.0304 39.3034 42.2132 39.2894 42.3961C39.2683 42.6704 39.1627 42.8462 38.9656 43.015C38.4867 43.2542 38.0994 43.5003 37.6205 43.7395C37.3318 43.9013 37.0571 43.8802 36.888 43.6832C36.6274 43.4793 36.2752 43.2683 36.0215 42.9729C35.8524 42.776 35.6834 42.5791 35.7044 42.3048C35.7255 42.0305 35.7465 41.7562 35.7676 41.4819C35.7957 41.1162 35.9928 40.9474 36.2745 40.8771C37.0211 40.7504 37.8662 40.5394 38.6127 40.4128C39.0776 40.3565 39.4228 40.6589 39.3807 41.2075C39.3596 41.4818 39.3456 41.6646 39.3315 41.8475Z" fill="#D6D1E8"/>
</g>
</g>
<defs>
<clipPath id="clip0_6490_12590">
<rect width="20.3867" height="30.3526" fill="white" transform="translate(24.5273 18.7305) rotate(4.39)"/>
</clipPath>
</defs>
</svg>
