<svg width="50" height="50" viewBox="0 0 50 50" fill="none" xmlns="http://www.w3.org/2000/svg">
<path d="M25 0L42.6777 7.32233L50 25L42.6777 42.6777L25 50L7.32233 42.6777L0 25L7.32233 7.32233L25 0Z" fill="#8757B5"/>
<path d="M8.0877 8.0877L25 1.08239L41.9123 8.0877L48.9176 25L41.9123 41.9123L25 48.9176L8.0877 41.9123L1.08239 25L8.0877 8.0877Z" stroke="white" stroke-opacity="0.1" stroke-width="2"/>
<path d="M25.3223 34V28.8571H28.6083L24.5008 23.7143L20.3934 28.8571H23.6793V34H19.5719V33.9571C19.4339 33.9657 19.3025 34 19.1612 34C17.5271 34 15.96 33.3227 14.8046 32.1171C13.6491 30.9115 13 29.2764 13 27.5714C13 24.2731 15.3905 21.5851 18.458 21.2166C18.7269 19.7496 19.4773 18.4264 20.5802 17.4743C21.6831 16.5222 23.0694 16.0009 24.5008 16C25.9324 16.0008 27.319 16.5221 28.4221 17.4741C29.5253 18.4262 30.2761 19.7495 30.5453 21.2166C33.6128 21.5851 36 24.2731 36 27.5714C36 29.2764 35.3509 30.9115 34.1954 32.1171C33.04 33.3227 31.4729 34 29.8388 34C29.7008 34 29.5678 33.9657 29.4281 33.9571V34H25.3223Z" fill="#FFF200"/>
</svg>
