<svg width="26" height="23" viewBox="0 0 26 23" fill="none" xmlns="http://www.w3.org/2000/svg">
<g clip-path="url(#clip0_12934_176927)">
<path d="M7.35021 16.5949C9.45482 13.0366 11.8508 9.67229 14.6354 6.59916C16.1248 4.94937 17.8409 3.62307 19.7188 2.42616C21.1111 1.52039 22.6005 0.80872 24.0576 0C24.0899 0.0323488 24.1223 0.0323488 24.1223 0.0646976C23.4747 0.517581 22.8272 1.00281 22.1796 1.4557C22.212 1.52039 22.2767 1.58509 22.3091 1.64979C22.5034 1.55274 22.6977 1.42335 22.9243 1.35865C23.4424 1.16456 23.9928 1.00281 24.5109 0.841069C25.0289 0.679325 25.547 0.485232 26.0327 0.355837C24.7699 2.55556 22.6653 4.01125 20.6902 5.59634C20.0102 6.11392 19.5569 6.79325 19.1684 7.60197C18.5856 8.73418 17.6466 9.70464 16.8371 10.7075C14.4411 13.6835 12.2394 16.8537 10.4262 20.218C10.0053 20.9944 9.42244 21.7384 8.74249 22.3207C7.51211 23.3558 5.76366 23.1941 4.66279 21.8354C3.43241 20.2504 2.36391 18.5359 1.29542 16.8537C0.874498 16.1744 0.518334 15.4304 0.259305 14.6864C0.0650335 14.1688 -0.0321022 13.5865 0.000276379 13.0366C0.0974121 11.4191 1.55445 10.6104 2.91435 11.5162C3.49716 11.9044 3.91808 12.519 4.30663 13.1336" fill="#8858B5"/>
</g>
<defs>
<clipPath id="clip0_12934_176927">
<rect width="26" height="23" fill="white"/>
</clipPath>
</defs>
</svg>
