<svg width="56" height="40" viewBox="0 0 56 40" fill="none" xmlns="http://www.w3.org/2000/svg">
<g clip-path="url(#clip0_4857_24667)">
<mask id="mask0_4857_24667" style="mask-type:luminance" maskUnits="userSpaceOnUse" x="0" y="0" width="56" height="40">
<path d="M56 0H0V40H56V0Z" fill="white"/>
</mask>
<g mask="url(#mask0_4857_24667)">
<path d="M48.4 6.70084C48.3 6.50084 48.2 6.50084 48.1 6.40084C46.9 5.30084 45.7 4.20084 44.5 3.10084C44.3 2.90084 44.3 2.70084 44.5 2.50084C45.2 1.80084 45.9 1.00084 46.6 0.200842C46.7 0.000841677 46.8 0.000841677 47 0.100842C49.9 2.80084 52.8 5.50084 55.8 8.20084C56 8.40084 56 8.60084 55.8 8.80084C53.1 11.7008 50.4 14.6008 47.8 17.5008C47.6 17.8008 47.4 17.8008 47.2 17.5008C46.5 16.8008 45.7 16.1008 45 15.5008C44.9 15.4008 44.8 15.3008 44.7 15.2008C46.1 13.7008 47.5 12.2008 49 10.6008C48.8 10.6008 48.7 10.6008 48.5 10.6008C46.9 10.6008 45.4 10.6008 43.8 10.6008C41.7 10.6008 39.6 10.8008 37.6 11.4008C34.8 12.2008 32.7 14.0008 31.4 16.6008C30.6 18.2008 30 20.0008 29.3 21.6008C28.6 23.4008 27.9 25.1008 26.9 26.8008C26.4 27.6008 25.9 28.2008 25.2 28.8008C24.7 29.3008 24.3 29.8008 23.7 30.1008C22.7 30.7008 21.8 31.3008 20.7 31.7008C17.4 32.9008 14 33.2008 10.6 33.2008C9.7 33.2008 8.8 33.2008 8 33.2008C7.9 33.2008 7.8 33.2008 7.6 33.2008C7.7 33.4008 7.8 33.4008 7.8 33.5008C9 34.6008 10.2 35.7008 11.5 36.9008C11.7 37.1008 11.7 37.2008 11.5 37.5008C10.8 38.2008 10.1 39.0008 9.4 39.7008C9.3 40.0008 9.2 40.0008 9 39.8008C6.1 37.1008 3.2 34.5008 0.3 31.8008C-0.1 31.5008 -0.1 31.4008 0.3 31.1008C0.9 30.5008 1.5 29.9008 2 29.2008C2.7 28.5008 3.3 27.7008 4 27.0008C5.4 25.5008 6.8 24.0008 8.2 22.5008C8.4 22.3008 8.5 22.2008 8.8 22.5008C9.5 23.2008 10.3 23.9008 11.1 24.6008C11.3 24.8008 11.3 24.9008 11.1 25.1008C10.4 25.9008 9.7 26.7008 8.9 27.5008C8.5 28.0008 8 28.5008 7.5 29.0008C7.4 29.1008 7.4 29.2008 7.3 29.3008C7.5 29.3008 7.7 29.4008 7.9 29.4008C8.6 29.4008 9.3 29.4008 10 29.4008C11 29.4008 11.9 29.4008 12.9 29.4008C13.5 29.4008 14.2 29.3008 14.8 29.3008C15.5 29.2008 16.2 29.1008 16.9 29.0008C18.7 28.7008 20.3 28.1008 21.8 27.0008C23.3 25.9008 24.3 24.4008 25 22.8008C25.8 20.9008 26.5 19.0008 27.2 17.2008C28.1 14.9008 29.2 12.8008 31 11.1008C32.6 9.50084 34.5 8.50084 36.7 7.80084C39.2 7.10084 41.7 6.80084 44.2 6.80084C45.5 6.80084 46.8 6.80084 48.1 6.80084C48 6.70084 48.1 6.70084 48.4 6.70084Z" fill="#D6D1E8"/>
</g>
<mask id="mask1_4857_24667" style="mask-type:luminance" maskUnits="userSpaceOnUse" x="0" y="0" width="56" height="40">
<path d="M56 0H0V40H56V0Z" fill="white"/>
</mask>
<g mask="url(#mask1_4857_24667)">
<path d="M48.8996 29.4C48.5996 29 48.2996 28.7 47.9996 28.4C47.5996 27.9 47.0996 27.5 46.5996 27C45.9996 26.4 45.3996 25.7 44.7996 25C44.5996 24.8 44.5996 24.7 44.7996 24.5C45.5996 23.8 46.2996 23.1 47.0996 22.4C47.2996 22.2 47.3996 22.2 47.5996 22.4C48.5996 23.4 49.4996 24.5 50.4996 25.5C50.8996 26 51.2996 26.4 51.6996 26.9C52.9996 28.3 54.2996 29.8 55.5996 31.2C55.7996 31.4 55.7996 31.6 55.5996 31.8C52.6996 34.5 49.7996 37.2 46.8996 39.9C46.6996 40.1 46.4996 40.1 46.2996 39.9C45.5996 39.1 44.8996 38.4 44.1996 37.6C43.9996 37.4 43.9996 37.3 44.1996 37C45.3996 35.9 46.5996 34.8 47.7996 33.7C47.8996 33.6 47.9996 33.5 47.9996 33.3C47.8996 33.3 47.6996 33.3 47.5996 33.3C45.8996 33.3 44.0996 33.3 42.3996 33.3C40.2996 33.2 38.1996 32.9 36.1996 32.3C33.6996 31.5 31.4996 30.2 29.7996 28.2C29.4996 27.8 29.0996 27.4 28.7996 26.9C28.6996 26.8 28.6996 26.6 28.7996 26.5C29.3996 25.2 29.8996 24 30.4996 22.7C30.4996 22.6 30.5996 22.5 30.6996 22.3C30.8996 22.8 31.1996 23.2 31.3996 23.7C31.8996 24.7 32.5996 25.7 33.3996 26.5C33.7996 26.9 34.2996 27.1 34.6996 27.5C35.9996 28.4 37.4996 28.8 38.9996 29.1C40.1996 29.3 41.3996 29.4 42.5996 29.5C43.3996 29.6 44.1996 29.5 45.0996 29.5C46.0996 29.5 47.1996 29.5 48.1996 29.5C48.5996 29.4 48.6996 29.4 48.8996 29.4Z" fill="#D6D1E8"/>
</g>
<mask id="mask2_4857_24667" style="mask-type:luminance" maskUnits="userSpaceOnUse" x="0" y="0" width="56" height="40">
<path d="M56 0H0V40H56V0Z" fill="white"/>
</mask>
<g mask="url(#mask2_4857_24667)">
<path d="M7.7998 6.69922C8.0998 6.69922 8.3998 6.69922 8.6998 6.69922C10.3998 6.69922 12.1998 6.69922 13.8998 6.79922C16.3998 6.89922 18.8998 7.29922 21.2998 8.29922C23.6998 9.29922 25.5998 10.8992 26.9998 13.0992C27.0998 13.2992 27.0998 13.3992 26.9998 13.5992C26.3998 14.7992 25.8998 16.0992 25.2998 17.2992C25.1998 17.3992 25.1998 17.4992 25.0998 17.6992C24.7998 17.0992 24.4998 16.4992 24.1998 15.9992C22.8998 13.4992 20.7998 11.9992 18.0998 11.2992C16.1998 10.7992 14.1998 10.5992 12.1998 10.4992C10.5998 10.4992 8.9998 10.4992 7.3998 10.4992C7.2998 10.4992 7.1998 10.4992 7.0998 10.4992C7.1998 10.5992 7.2998 10.7992 7.3998 10.7992C8.5998 12.0992 9.7998 13.4992 11.0998 14.7992C11.2998 15.0992 11.2998 15.1992 11.0998 15.3992C10.2998 16.0992 9.39981 16.8992 8.5998 17.6992C8.4998 17.5992 8.39981 17.4992 8.2998 17.3992C5.5998 14.4992 2.8998 11.5992 0.199805 8.69922C-0.00019531 8.59922 -0.00019531 8.49922 0.199805 8.19922C3.0998 5.49922 6.0998 2.79922 8.9998 0.0992188C9.1998 -0.100781 9.2998 -0.100781 9.4998 0.0992188C10.1998 0.899219 10.8998 1.59922 11.5998 2.39922C11.7998 2.59922 11.7998 2.79922 11.5998 2.99922C10.3998 4.09922 9.1998 5.19922 7.9998 6.29922C7.8998 6.39922 7.7998 6.49922 7.7998 6.69922Z" fill="#D6D1E8"/>
</g>
</g>
<defs>
<clipPath id="clip0_4857_24667">
<rect width="56" height="40" fill="white"/>
</clipPath>
</defs>
</svg>
