<svg width="36" height="37" viewBox="0 0 36 37" fill="none" xmlns="http://www.w3.org/2000/svg">
<g clip-path="url(#clip0_4857_24681)">
<path d="M24.7 18.7996C24.7 15.0996 21.7 12.0996 18.1 12.0996C14.4 12.0996 11.5 15.0996 11.5 18.7996C11.5 22.4996 14.5 25.4996 18.1 25.4996C21.7 25.4996 24.7 22.4996 24.7 18.7996Z" fill="#AD5DA4"/>
<path d="M12.5999 18.4998C12.5999 21.2998 14.9999 23.7998 17.7999 23.7998C20.5999 23.7998 23.0999 21.3998 23.0999 18.5998C23.0999 15.7998 20.6999 13.4998 17.9999 13.3998C15.0999 13.2998 12.5999 15.6998 12.5999 18.4998ZM17.1999 9.69981C16.7999 8.39981 16.3999 7.19981 16.0999 5.89981C15.8999 4.79981 15.5999 3.69981 15.6999 2.69981C15.8999 0.399808 17.7999 -0.500192 19.6999 0.799808C21.8999 2.19981 22.8999 4.29981 22.8999 6.79981C22.8999 7.99981 22.6999 9.19981 22.7999 10.5998C23.0999 9.89981 23.3999 9.09981 23.6999 8.39981C23.8999 7.89981 23.9999 7.39981 24.1999 6.89981C24.7999 5.09981 25.9999 4.29981 27.2999 4.49981C28.5999 4.59981 29.7999 5.99981 30.0999 7.49981C30.3999 9.39981 29.9999 10.9998 28.6999 12.3998C27.9999 13.1998 27.1999 13.9998 26.6999 14.9998C27.5999 14.3998 28.3999 13.6998 29.3999 13.1998C30.5999 12.5998 31.8999 12.0998 33.1999 11.9998C35.0999 11.8998 36.0999 13.4998 35.3999 15.2998C34.4999 17.6998 32.5999 19.0998 30.1999 19.7998C29.2999 20.0998 28.3999 20.2998 27.5999 20.6998C28.6999 20.6998 29.7999 20.5998 30.8999 20.6998C31.9999 20.7998 33.0999 20.7998 34.0999 21.0998C35.5999 21.6998 35.9999 22.8998 35.2999 24.2998C34.1999 26.5998 30.7999 28.0998 28.1999 27.2998C26.8999 26.8998 25.6999 26.2998 24.2999 25.9998C24.9999 26.4998 25.5999 26.9998 26.2999 27.5998C26.8999 28.1998 27.5999 28.6998 27.9999 29.3998C28.5999 30.3998 28.5999 31.4998 27.8999 32.4998C27.1999 33.5998 26.0999 33.9998 24.8999 33.7998C22.9999 33.4998 21.5999 32.3998 20.5999 30.7998C19.9999 29.8998 19.4999 28.9998 18.7999 28.1998C19.2999 29.6998 19.7999 31.1998 20.1999 32.7998C20.6999 34.5998 20.0999 36.2998 18.9999 36.7998C17.7999 37.3998 16.1999 36.8998 14.8999 35.3998C13.6999 33.9998 12.8999 32.3998 12.9999 30.4998C12.9999 29.4998 12.9999 28.4998 12.7999 27.3998C12.5999 27.9998 12.3999 28.4998 12.1999 29.0998C12.0999 29.4998 11.9999 29.8998 11.8999 30.1998C11.1999 32.0998 9.99994 32.9998 8.49994 32.7998C6.99994 32.5998 5.79994 30.9998 5.59994 29.2998C5.39994 27.5998 5.89994 26.0998 6.99994 24.8998C7.59994 24.1998 8.29994 23.4998 8.69994 22.4998C8.09994 22.8998 7.39994 23.3998 6.79994 23.7998C5.49994 24.6998 4.19994 25.4998 2.49994 25.3998C0.599944 25.2998 -0.400056 23.8998 0.299944 22.0998C1.19994 19.5998 3.19994 18.1998 5.69994 17.4998C6.49994 17.2998 7.39994 17.0998 8.19994 16.4998C7.09994 16.5998 5.99994 16.5998 4.89994 16.6998C3.89994 16.6998 2.89994 16.7998 1.99994 16.5998C-0.200056 16.0998 -0.800056 14.2998 0.499944 12.3998C2.09994 10.1998 5.49994 9.19981 8.09994 10.2998C9.09994 10.6998 9.99994 11.0998 11.1999 11.2998C10.3999 10.6998 9.49994 9.99981 8.69994 9.39981C7.49994 8.49981 6.69994 7.29981 7.09994 5.79981C7.59994 3.79981 9.69994 2.99981 11.8999 3.89981C13.9999 4.79981 14.9999 6.69981 15.9999 8.59981C16.1999 8.99981 16.4999 9.49981 16.6999 9.89981C16.9999 9.79981 17.0999 9.69981 17.1999 9.69981Z" fill="#BEC0CB"/>
</g>
<defs>
<clipPath id="clip0_4857_24681">
<rect width="35.6" height="36.9" fill="white" transform="translate(0 0.0996094)"/>
</clipPath>
</defs>
</svg>
