<svg width="44" height="44" viewBox="0 0 44 44" fill="none" xmlns="http://www.w3.org/2000/svg">
<mask id="path-1-inside-1_4857_24659" fill="white">
<path fill-rule="evenodd" clip-rule="evenodd" d="M28.8218 9.71912C28.2128 6.21404 25.2339 3.71159 21.6874 3.66602C21.5168 3.69001 21.3453 3.71014 21.1738 3.73028C20.8122 3.77273 20.4505 3.8152 20.0964 3.89389C15.3277 4.9421 12.9619 10.4649 15.481 14.637C15.5514 14.753 15.6343 14.8152 15.7627 14.8442C17.739 15.3123 19.6738 15.9214 21.5672 16.6547C21.6418 16.6837 21.7454 16.6879 21.8199 16.6589C23.7216 15.9214 25.6606 15.3165 27.641 14.8359C27.7405 14.8152 27.8523 14.7323 27.9021 14.6453C28.8053 13.1165 29.1284 11.4717 28.8218 9.71912ZM4.53548 36.4299V27.9074C4.6624 27.8859 4.78853 27.8678 4.91354 27.8499L4.9136 27.8499L4.91367 27.8499L4.91375 27.8499L4.91379 27.8499C5.19677 27.8093 5.47393 27.7696 5.74113 27.692C7.24094 27.257 8.26844 25.8773 8.28501 24.3195C8.28547 24.2581 8.28618 24.1967 8.28689 24.1352L8.2869 24.1349L8.2869 24.1346C8.29263 23.6403 8.29839 23.1439 8.17315 22.654C7.79612 21.1956 6.54904 20.1225 5.04923 19.9899C4.92665 19.9777 4.80633 19.97 4.67823 19.9617L4.67814 19.9617L4.67794 19.9617C4.63295 19.9588 4.58699 19.9559 4.53963 19.9527V14.5127C4.67248 14.5127 4.80494 14.5112 4.93713 14.5096H4.93718C5.2337 14.5061 5.52885 14.5025 5.824 14.5169C6.18876 14.5356 6.55411 14.5516 6.91958 14.5677L6.91979 14.5677C7.93241 14.6122 8.94595 14.6567 9.95055 14.7572C13.6794 15.1342 17.2963 16.0043 20.8055 17.3259C21.0284 17.4113 21.1392 17.4538 21.1943 17.5343C21.2488 17.6141 21.2488 17.7311 21.2488 17.964V39.9847V40.3327C16.0327 37.4698 10.4684 36.173 4.53548 36.4299ZM38.8688 14.5292V19.9277C38.7604 19.943 38.6519 19.956 38.5439 19.9688L38.5438 19.9689C38.3013 19.9978 38.0611 20.0265 37.8289 20.081C36.3001 20.4331 35.1607 21.8377 35.1193 23.4079L35.1175 23.4781C35.1012 24.093 35.0849 24.7111 35.2685 25.3137C35.7325 26.8177 37.0914 27.841 38.67 27.8576C38.7209 27.8576 38.7691 27.8604 38.826 27.8637L38.8261 27.8637L38.8647 27.8659V36.4339C32.94 36.1812 27.38 37.4738 22.1638 40.3284C22.1621 40.2922 22.1598 40.2586 22.1576 40.2268C22.1543 40.1786 22.1513 40.1347 22.1513 40.0923C22.1513 32.6429 22.1513 25.1936 22.1472 17.7443C22.1472 17.5537 22.2052 17.475 22.3792 17.4087C25.1344 16.3605 27.96 15.5898 30.8685 15.1092C33.4538 14.6825 36.0515 14.4795 38.67 14.525C38.7321 14.5168 38.7901 14.5209 38.8688 14.5292ZM2.78268 23.9009C2.78268 23.7414 2.77843 23.5812 2.77418 23.4209C2.76451 23.0564 2.75483 22.6916 2.79511 22.3348C2.88212 21.5186 3.64031 20.8805 4.46479 20.8598C5.79059 20.8267 6.81809 21.4647 7.22411 22.6041C7.31526 22.8609 7.38155 23.1385 7.38155 23.4078C7.38155 23.4907 7.38225 23.5741 7.38295 23.6577V23.6577C7.38676 24.1134 7.39064 24.5765 7.28212 25.0071C6.95895 26.2997 5.67459 27.2029 4.14577 26.9088C3.32543 26.7513 2.76611 26.0263 2.75368 25.1852C2.74816 24.901 2.75 24.6168 2.75184 24.3314C2.75276 24.1883 2.75368 24.0448 2.75368 23.9009H2.78268ZM40.6309 24.3891C40.6267 24.2305 40.6224 24.0717 40.6224 23.9134H40.6473C40.6473 23.7684 40.6482 23.6234 40.6491 23.4784C40.651 23.1884 40.6528 22.8983 40.6473 22.6083C40.6307 21.7714 40.0548 21.0547 39.2345 20.9014C37.9128 20.6528 36.7155 21.3198 36.2266 22.4757C35.891 23.2671 35.92 24.1081 36.094 24.916C36.3799 26.2377 37.5524 27.0332 38.961 26.9545C39.8062 26.9089 40.5147 26.2999 40.61 25.4629C40.6503 25.1091 40.6406 24.7493 40.6309 24.3891Z"/>
</mask>
<path d="M21.6874 3.66602L21.7131 1.66618L21.5602 1.66422L21.4089 1.6855L21.6874 3.66602ZM28.8218 9.71912L26.8514 10.0615L26.8517 10.0638L28.8218 9.71912ZM21.1738 3.73028L20.9406 1.74392L21.1738 3.73028ZM20.0964 3.89389L20.5258 5.84726L20.5303 5.84626L20.0964 3.89389ZM15.481 14.637L13.7688 15.6707L13.7714 15.675L15.481 14.637ZM15.7627 14.8442L16.2237 12.898L16.2135 12.8956L16.2032 12.8933L15.7627 14.8442ZM21.5672 16.6547L22.2921 14.7907L22.2895 14.7897L21.5672 16.6547ZM21.8199 16.6589L21.0968 14.7942L21.095 14.7948L21.8199 16.6589ZM27.641 14.8359L27.2331 12.8779L27.2011 12.8846L27.1694 12.8923L27.641 14.8359ZM27.9021 14.6453L26.1801 13.628L26.1727 13.6405L26.1656 13.653L27.9021 14.6453ZM4.53548 27.9074L4.20028 25.9357L2.53548 26.2188V27.9074H4.53548ZM4.53548 36.4299H2.53548V38.5183L4.62199 38.428L4.53548 36.4299ZM4.91354 27.8499L4.72165 25.8591L4.67559 25.8636L4.62979 25.8701L4.91354 27.8499ZM4.9136 27.8499L5.10548 29.8407L5.16778 29.8347L5.22958 29.8248L4.9136 27.8499ZM4.91367 27.8499L4.62579 25.8707L4.61172 25.8727L4.59769 25.875L4.91367 27.8499ZM4.91375 27.8499L4.62924 25.8702L4.62587 25.8707L4.91375 27.8499ZM4.91379 27.8499L4.63009 25.8701L4.62928 25.8702L4.91379 27.8499ZM5.74113 27.692L5.18399 25.7712L5.18352 25.7713L5.74113 27.692ZM8.28501 24.3195L10.2849 24.3408L10.285 24.3344L8.28501 24.3195ZM8.28689 24.1352L10.2868 24.1584L10.2868 24.1552L8.28689 24.1352ZM8.2869 24.1346L6.28703 24.1114L6.287 24.1146L8.2869 24.1346ZM8.17315 22.654L10.1108 22.1586L10.1095 22.1534L8.17315 22.654ZM5.04923 19.9899L4.85022 21.98L4.86166 21.9812L4.87312 21.9822L5.04923 19.9899ZM4.67823 19.9617L4.80633 17.9658L4.80446 17.9657L4.67823 19.9617ZM4.67814 19.9617L4.80437 17.9657L4.79733 17.9653L4.67814 19.9617ZM4.67794 19.9617L4.54986 21.9576L4.55875 21.9582L4.67794 19.9617ZM4.53963 19.9527H2.53963V21.8209L4.40357 21.948L4.53963 19.9527ZM4.53963 14.5127V12.5127H2.53963V14.5127H4.53963ZM4.93713 14.5096V12.5096H4.92523L4.91334 12.5097L4.93713 14.5096ZM4.93718 14.5096V16.5096H4.94907L4.96097 16.5094L4.93718 14.5096ZM5.824 14.5169L5.92627 12.5195L5.92097 12.5192L5.824 14.5169ZM6.91958 14.5677L6.83177 16.5657L6.83574 16.5659L6.91958 14.5677ZM6.91979 14.5677L7.00759 12.5696L7.00363 12.5694L6.91979 14.5677ZM9.95055 14.7572L10.1517 12.7673L10.1496 12.7671L9.95055 14.7572ZM20.8055 17.3259L21.5212 15.4583L21.5104 15.4543L20.8055 17.3259ZM21.1943 17.5343L19.5436 18.6636L19.5436 18.6636L21.1943 17.5343ZM21.2488 40.3327L20.2866 42.086L23.2488 43.7118V40.3327H21.2488ZM38.8688 19.9277L39.1484 21.908L40.8688 21.6652V19.9277H38.8688ZM38.8688 14.5292H40.8688V12.7287L39.0782 12.5402L38.8688 14.5292ZM38.5439 19.9688L38.3067 17.9829L38.2958 17.9843L38.5439 19.9688ZM38.5438 19.9689L38.781 21.9548L38.7919 21.9534L38.5438 19.9689ZM37.8289 20.081L38.2779 22.03L38.2857 22.0281L37.8289 20.081ZM35.1193 23.4079L33.12 23.3552L33.12 23.3554L35.1193 23.4079ZM35.1175 23.4781L37.1168 23.5309L37.1168 23.5306L35.1175 23.4781ZM35.2685 25.3137L33.3553 25.8966L33.3574 25.9034L35.2685 25.3137ZM38.67 27.8576L38.649 29.8575L38.6595 29.8576H38.67V27.8576ZM38.826 27.8637L38.9685 25.8688L38.955 25.8678L38.9415 25.867L38.826 27.8637ZM38.8261 27.8637L38.6836 29.8586L38.6979 29.8596L38.7122 29.8605L38.8261 27.8637ZM38.8647 27.8659H40.8647V25.9767L38.9786 25.8691L38.8647 27.8659ZM38.8647 36.4339L38.7795 38.4321L40.8647 38.521V36.4339H38.8647ZM22.1638 40.3284L20.1658 40.4192L20.3113 43.6221L23.1239 42.0829L22.1638 40.3284ZM22.1576 40.2268L20.1623 40.3634L20.1623 40.3635L22.1576 40.2268ZM22.1472 17.7443H20.1472V17.7454L22.1472 17.7443ZM22.3792 17.4087L21.668 15.5394L21.6672 15.5397L22.3792 17.4087ZM30.8685 15.1092L30.5427 13.1359L30.5424 13.136L30.8685 15.1092ZM38.67 14.525L38.6352 16.5247L38.7854 16.5274L38.9343 16.5075L38.67 14.525ZM2.77418 23.4209L4.77348 23.3679L2.77418 23.4209ZM2.78268 23.9009V25.9009H4.78268V23.9009H2.78268ZM2.79511 22.3348L4.78253 22.5591L4.78385 22.5468L2.79511 22.3348ZM4.46479 20.8598L4.41481 18.8604L4.41456 18.8604L4.46479 20.8598ZM7.22411 22.6041L9.10897 21.9352L9.10806 21.9327L7.22411 22.6041ZM7.38295 23.6577H9.38295V23.6493L9.38288 23.6409L7.38295 23.6577ZM7.38295 23.6577H5.38295V23.6661L5.38302 23.6745L7.38295 23.6577ZM7.28212 25.0071L5.34276 24.5183L5.34183 24.522L7.28212 25.0071ZM4.14577 26.9088L4.52366 24.9448L4.52273 24.9446L4.14577 26.9088ZM2.75368 25.1852L4.75349 25.1557L4.75331 25.1464L2.75368 25.1852ZM2.75184 24.3314L0.751877 24.3185L2.75184 24.3314ZM2.75368 23.9009V21.9009H0.753683V23.9009H2.75368ZM40.6224 23.9134V21.9134H38.6224V23.9134H40.6224ZM40.6309 24.3891L42.6302 24.3354V24.3354L40.6309 24.3891ZM40.6473 23.9134V25.9134H42.6473V23.9134H40.6473ZM40.6491 23.4784L38.6492 23.4657V23.4657L40.6491 23.4784ZM40.6473 22.6083L42.6469 22.5702L42.6469 22.5687L40.6473 22.6083ZM39.2345 20.9014L38.8648 22.8669L38.8671 22.8673L39.2345 20.9014ZM36.2266 22.4757L38.0678 23.2566L38.0686 23.2548L36.2266 22.4757ZM36.094 24.916L34.1388 25.3372L34.1392 25.3389L36.094 24.916ZM38.961 26.9545L38.8533 24.9574L38.8494 24.9576L38.961 26.9545ZM40.61 25.4629L42.5971 25.6892L42.5972 25.6891L40.61 25.4629ZM21.6617 5.66585C24.2582 5.69922 26.4093 7.51744 26.8514 10.0615L30.7923 9.37673C30.0163 4.91063 26.2096 1.72396 21.7131 1.66618L21.6617 5.66585ZM21.407 5.71663C21.5747 5.69694 21.7689 5.67423 21.9659 5.64653L21.4089 1.6855C21.2646 1.70578 21.1159 1.72334 20.9406 1.74392L21.407 5.71663ZM20.5303 5.84626C20.7682 5.79338 21.0281 5.76112 21.407 5.71663L20.9406 1.74392C20.5963 1.78435 20.1328 1.83702 19.6625 1.94151L20.5303 5.84626ZM17.1931 13.6033C15.3814 10.6026 17.0954 6.60128 20.5258 5.84725L19.667 1.94052C13.5599 3.28292 10.5425 10.3271 13.7688 15.6707L17.1931 13.6033ZM16.2032 12.8933C16.3572 12.9281 16.5718 13.0045 16.7883 13.1645C17.0004 13.3211 17.1259 13.4926 17.1905 13.5991L13.7714 15.675C14.1043 16.2233 14.6294 16.6386 15.3222 16.795L16.2032 12.8933ZM22.2895 14.7897C20.3159 14.0253 18.2938 13.3884 16.2237 12.898L15.3017 16.7903C17.1841 17.2362 19.0317 17.8175 20.8449 18.5197L22.2895 14.7897ZM21.095 14.7948C21.3594 14.692 21.5886 14.6755 21.7401 14.6791C21.8961 14.6827 22.0851 14.7102 22.2921 14.7907L20.8423 18.5187C21.3193 18.7042 21.9439 18.7566 22.5449 18.5229L21.095 14.7948ZM27.1694 12.8923C25.1056 13.3931 23.0825 14.0241 21.0968 14.7942L22.5431 18.5235C24.3608 17.8186 26.2157 17.2398 28.1127 16.7795L27.1694 12.8923ZM26.1656 13.653C26.3103 13.3997 26.4836 13.2435 26.6075 13.1526C26.731 13.0621 26.9377 12.9395 27.2331 12.8779L28.0489 16.7938C28.4438 16.7116 28.7562 16.5372 28.9729 16.3783C29.19 16.219 29.4441 15.9779 29.6385 15.6376L26.1656 13.653ZM26.8517 10.0638C27.073 11.3286 26.8509 12.4925 26.1801 13.628L29.624 15.6626C30.7596 13.7404 31.1838 11.6147 30.7919 9.37447L26.8517 10.0638ZM2.53548 27.9074V36.4299H6.53548V27.9074H2.53548ZM4.62979 25.8701C4.50892 25.8874 4.3571 25.9091 4.20028 25.9357L4.87068 29.8792C4.9677 29.8627 5.06814 29.8482 5.19728 29.8297L4.62979 25.8701ZM4.72171 25.8591L4.72165 25.8591L5.10542 29.8407L5.10548 29.8407L4.72171 25.8591ZM4.59769 25.875L4.59761 25.875L5.22958 29.8248L5.22965 29.8248L4.59769 25.875ZM4.62587 25.8707L4.62579 25.8707L5.20155 29.829L5.20163 29.829L4.62587 25.8707ZM4.62928 25.8702L4.62924 25.8702L5.19825 29.8295L5.19829 29.8295L4.62928 25.8702ZM5.18352 25.7713C5.07415 25.8031 4.93795 25.826 4.63009 25.8701L5.19748 29.8296C5.45559 29.7926 5.87371 29.7361 6.29875 29.6127L5.18352 25.7713ZM6.28512 24.2982C6.27776 24.9909 5.82043 25.5866 5.18399 25.7712L6.29828 29.6128C8.66146 28.9274 10.2591 26.7637 10.2849 24.3408L6.28512 24.2982ZM6.28703 24.112C6.28632 24.1728 6.28556 24.2384 6.28507 24.3046L10.285 24.3344C10.2854 24.2778 10.286 24.2205 10.2868 24.1584L6.28703 24.112ZM6.287 24.1149L6.28699 24.1152L10.2868 24.1552L10.2868 24.1549L6.287 24.1149ZM6.287 24.1146L6.287 24.1149L10.2868 24.1549L10.2868 24.1546L6.287 24.1146ZM6.23546 23.1493C6.28489 23.3427 6.29325 23.575 6.28703 24.1114L10.2868 24.1578C10.292 23.7056 10.3119 22.9451 10.1108 22.1586L6.23546 23.1493ZM4.87312 21.9822C5.51541 22.0389 6.06809 22.5019 6.23681 23.1546L10.1095 22.1534C9.52416 19.8893 7.58268 18.2061 5.22534 17.9977L4.87312 21.9822ZM4.55012 21.9576C4.68414 21.9662 4.76893 21.9719 4.85022 21.98L5.24824 17.9999C5.08436 17.9835 4.92853 17.9737 4.80633 17.9658L4.55012 21.9576ZM4.55191 21.9577L4.552 21.9577L4.80446 17.9657L4.80437 17.9657L4.55191 21.9577ZM4.55875 21.9582L4.55895 21.9582L4.79733 17.9653L4.79713 17.9653L4.55875 21.9582ZM4.40357 21.948C4.45552 21.9516 4.50536 21.9548 4.54986 21.9576L4.80603 17.9658C4.76053 17.9629 4.71845 17.9602 4.67568 17.9573L4.40357 21.948ZM2.53963 14.5127V19.9527H6.53963V14.5127H2.53963ZM4.91334 12.5097C4.7792 12.5113 4.65861 12.5127 4.53963 12.5127V16.5127C4.68635 16.5127 4.83068 16.511 4.96092 16.5094L4.91334 12.5097ZM4.93718 12.5096H4.93713V16.5096H4.93718V12.5096ZM5.92097 12.5192C5.55541 12.5015 5.1998 12.5063 4.91339 12.5097L4.96097 16.5094C5.2676 16.5058 5.50229 16.5036 5.72702 16.5145L5.92097 12.5192ZM7.00739 12.5696C6.64071 12.5535 6.2826 12.5377 5.92627 12.5195L5.72172 16.5143C6.09493 16.5334 6.46752 16.5497 6.83177 16.5657L7.00739 12.5696ZM7.00363 12.5694L7.00342 12.5694L6.83574 16.5659L6.83594 16.5659L7.00363 12.5694ZM10.1496 12.7671C9.08016 12.6602 8.01072 12.6137 7.00759 12.5696L6.83198 16.5657C7.8541 16.6107 8.81175 16.6533 9.75154 16.7472L10.1496 12.7671ZM21.5104 15.4543C17.8463 14.0742 14.0603 13.1625 10.1517 12.7673L9.74935 16.747C13.2984 17.1059 16.7463 17.9343 20.1006 19.1976L21.5104 15.4543ZM22.845 16.4051C22.5413 15.9612 22.1546 15.7422 21.9603 15.6446C21.7878 15.558 21.5938 15.4861 21.5212 15.4583L20.0899 19.1935C20.1508 19.2168 20.1803 19.2282 20.2018 19.2369C20.2238 19.2458 20.2038 19.2386 20.1653 19.2192C20.0959 19.1844 19.7921 19.0269 19.5436 18.6636L22.845 16.4051ZM23.2488 17.964C23.2488 17.8888 23.2512 17.6839 23.2321 17.4932C23.2107 17.2779 23.1451 16.8437 22.845 16.4051L19.5436 18.6636C19.2981 18.3047 19.2598 17.9689 19.2519 17.8903C19.2476 17.847 19.2479 17.8251 19.2484 17.8477C19.2488 17.8698 19.2488 17.9002 19.2488 17.964H23.2488ZM23.2488 39.9847V17.964H19.2488V39.9847H23.2488ZM23.2488 40.3327V39.9847H19.2488V40.3327H23.2488ZM4.62199 38.428C10.1897 38.1869 15.3911 39.3991 20.2866 42.086L22.2111 38.5794C16.6742 35.5405 10.7472 34.159 4.44897 34.4317L4.62199 38.428ZM40.8688 19.9277V14.5292H36.8688V19.9277H40.8688ZM38.781 21.9547C38.8856 21.9423 39.0152 21.9268 39.1484 21.908L38.5893 17.9473C38.5055 17.9591 38.4182 17.9697 38.3067 17.983L38.781 21.9547ZM38.7919 21.9534L38.7919 21.9534L38.2958 17.9843L38.2958 17.9843L38.7919 21.9534ZM38.2857 22.0281C38.3906 22.0035 38.5184 21.9861 38.781 21.9547L38.3066 17.983C38.0841 18.0095 37.7317 18.0495 37.3722 18.1338L38.2857 22.0281ZM37.1186 23.4607C37.1362 22.7937 37.6458 22.1755 38.2779 22.0299L37.38 18.132C34.9544 18.6908 33.1853 20.8817 33.12 23.3552L37.1186 23.4607ZM37.1168 23.5306L37.1186 23.4604L33.12 23.3554L33.1182 23.4256L37.1168 23.5306ZM37.1817 24.7309C37.1081 24.4895 37.0991 24.1989 37.1168 23.5309L33.1182 23.4252C33.1033 23.9871 33.0616 24.9326 33.3553 25.8966L37.1817 24.7309ZM38.691 25.8577C37.9889 25.8504 37.3892 25.4036 37.1796 24.7241L33.3574 25.9034C34.0758 28.2318 36.194 29.8317 38.649 29.8575L38.691 25.8577ZM38.9415 25.867C38.8944 25.8643 38.7884 25.8576 38.67 25.8576V29.8576C38.6587 29.8576 38.6534 29.8573 38.6591 29.8575C38.6622 29.8577 38.6674 29.8579 38.6762 29.8584C38.6854 29.8589 38.6956 29.8595 38.7105 29.8604L38.9415 25.867ZM38.9686 25.8688L38.9685 25.8688L38.6835 29.8586L38.6836 29.8586L38.9686 25.8688ZM38.9786 25.8691L38.9399 25.8669L38.7122 29.8605L38.7508 29.8627L38.9786 25.8691ZM40.8647 36.4339V27.8659H36.8647V36.4339H40.8647ZM23.1239 42.0829C28.0201 39.4034 33.2186 38.1949 38.7795 38.4321L38.9499 34.4357C32.6614 34.1675 26.7398 35.5442 21.2036 38.574L23.1239 42.0829ZM20.1623 40.3635C20.1635 40.3802 20.1642 40.3905 20.1648 40.4003C20.1653 40.4094 20.1656 40.4152 20.1658 40.4192L24.1617 40.2376C24.1589 40.1752 24.155 40.1197 24.153 40.0901L20.1623 40.3635ZM20.1513 40.0923C20.1513 40.2156 20.16 40.3301 20.1623 40.3634L24.153 40.0902C24.1521 40.0774 24.1516 40.0696 24.1511 40.0626C24.1507 40.0561 24.1505 40.0535 24.1505 40.0532C24.1505 40.053 24.1507 40.0566 24.1509 40.0629C24.1511 40.0693 24.1513 40.0794 24.1513 40.0923H20.1513ZM20.1472 17.7454C20.1513 25.1941 20.1513 32.6428 20.1513 40.0923H24.1513C24.1513 32.643 24.1513 25.1931 24.1472 17.7431L20.1472 17.7454ZM21.6672 15.5397C21.4417 15.6256 20.9366 15.8442 20.5595 16.3829C20.1787 16.9268 20.1472 17.4826 20.1472 17.7443H24.1472C24.1472 17.8153 24.1447 18.2364 23.8364 18.6768C23.5318 19.1119 23.1427 19.258 23.0912 19.2776L21.6672 15.5397ZM30.5424 13.136C27.499 13.6389 24.5445 14.445 21.668 15.5394L23.0904 19.2779C25.7242 18.2759 28.421 17.5408 31.1945 17.0825L30.5424 13.136ZM38.7048 12.5253C35.9591 12.4776 33.2406 12.6906 30.5427 13.1359L31.1942 17.0825C33.667 16.6744 36.1439 16.4814 38.6352 16.5247L38.7048 12.5253ZM39.0782 12.5402C38.9887 12.5308 38.7238 12.5002 38.4056 12.5426L38.9343 16.5075C38.8358 16.5206 38.7536 16.5216 38.6987 16.5199C38.6544 16.5184 38.6285 16.5149 38.6595 16.5182L39.0782 12.5402ZM0.774884 23.474C0.779257 23.6388 0.782685 23.7724 0.782685 23.9009H4.78268C4.78268 23.7104 4.77761 23.5236 4.77348 23.3679L0.774884 23.474ZM0.807741 22.1104C0.749172 22.6291 0.765879 23.1346 0.774884 23.474L4.77348 23.3679C4.76314 22.9782 4.76048 22.7541 4.78249 22.5591L0.807741 22.1104ZM4.41456 18.8604C2.69042 18.9038 1.01035 20.2094 0.806381 22.1228L4.78385 22.5468C4.76723 22.7027 4.69396 22.7836 4.66639 22.8076C4.64154 22.8293 4.59717 22.8571 4.51503 22.8592L4.41456 18.8604ZM9.10806 21.9327C8.36879 19.8582 6.46854 18.8091 4.41481 18.8604L4.51478 22.8592C5.11265 22.8442 5.26738 23.0712 5.34017 23.2754L9.10806 21.9327ZM9.38155 23.4078C9.38155 22.8288 9.24303 22.3131 9.10897 21.9352L5.33926 23.2729C5.3607 23.3333 5.37255 23.3778 5.37849 23.4065C5.38458 23.4359 5.38155 23.4348 5.38155 23.4078H9.38155ZM9.38288 23.6409C9.38217 23.5559 9.38155 23.4809 9.38155 23.4078H5.38155C5.38155 23.5005 5.38233 23.5922 5.38302 23.6744L9.38288 23.6409ZM9.38295 23.6577V23.6577H5.38295V23.6577H9.38295ZM9.22147 25.4958C9.40376 24.7726 9.38626 24.0449 9.38288 23.641L5.38302 23.6745C5.38726 24.1819 5.37751 24.3804 5.34276 24.5183L9.22147 25.4958ZM3.76788 28.8727C6.33058 29.3658 8.63948 27.8238 9.2224 25.4921L5.34183 24.522C5.306 24.6653 5.21837 24.7857 5.09457 24.8642C4.98019 24.9368 4.79667 24.9973 4.52366 24.9448L3.76788 28.8727ZM0.753901 25.2148C0.779046 26.9162 1.93392 28.5208 3.76881 28.8729L4.52273 24.9446C4.60153 24.9597 4.67049 25.0063 4.71082 25.0569C4.74747 25.1029 4.75325 25.141 4.75346 25.1557L0.753901 25.2148ZM0.751877 24.3185C0.750066 24.5996 0.747956 24.9097 0.75406 25.2241L4.75331 25.1464C4.74837 24.8924 4.74993 24.6341 4.75179 24.3443L0.751877 24.3185ZM0.753683 23.9009C0.753683 24.0373 0.752806 24.1743 0.751877 24.3185L4.75179 24.3443C4.75271 24.2022 4.75368 24.0523 4.75368 23.9009H0.753683ZM2.78268 21.9009H2.75368V25.9009H2.78268V21.9009ZM38.6224 23.9134C38.6224 24.1031 38.6275 24.2887 38.6317 24.4427L42.6302 24.3354C42.6258 24.1723 42.6224 24.0404 42.6224 23.9134H38.6224ZM40.6473 21.9134H40.6224V25.9134H40.6473V21.9134ZM38.6492 23.4657C38.6482 23.6097 38.6473 23.761 38.6473 23.9134H42.6473C42.6473 23.7758 42.6481 23.6371 42.6491 23.4911L38.6492 23.4657ZM38.6476 22.6464C38.6526 22.9068 38.651 23.1714 38.6492 23.4657L42.6491 23.4911C42.6509 23.2053 42.653 22.8899 42.6469 22.5702L38.6476 22.6464ZM38.8671 22.8673C38.7966 22.8541 38.7344 22.8137 38.6961 22.7671C38.6602 22.7233 38.6483 22.679 38.6477 22.6479L42.6469 22.5687C42.6126 20.8389 41.4069 19.2727 39.6018 18.9354L38.8671 22.8673ZM38.0686 23.2548C38.1875 22.9737 38.4586 22.7905 38.8648 22.8669L39.6042 18.9358C37.367 18.515 35.2434 19.6659 34.3845 21.6967L38.0686 23.2548ZM38.0491 24.4949C37.9212 23.9008 37.955 23.5228 38.0678 23.2566L34.3853 21.6949C33.827 23.0114 33.9188 24.3155 34.1388 25.3372L38.0491 24.4949ZM38.8494 24.9576C38.5508 24.9743 38.3586 24.8957 38.2551 24.8231C38.1616 24.7576 38.0852 24.6617 38.0488 24.4932L34.1392 25.3389C34.6614 27.7533 36.8222 29.0771 39.0726 28.9514L38.8494 24.9576ZM38.6228 25.2367C38.6338 25.1405 38.6836 25.0591 38.7362 25.0122C38.7838 24.9698 38.8278 24.9587 38.8533 24.9574L39.0687 28.9516C40.7901 28.8587 42.3806 27.5908 42.5971 25.6892L38.6228 25.2367ZM38.6317 24.4427C38.642 24.8279 38.6445 25.0461 38.6228 25.2368L42.5972 25.6891C42.656 25.1722 42.6392 24.6708 42.6302 24.3354L38.6317 24.4427Z" fill="#D5D1ED" mask="url(#path-1-inside-1_4857_24659)"/>
</svg>
