<svg width="75" height="75" viewBox="0 0 75 75" fill="none" xmlns="http://www.w3.org/2000/svg">
<path d="M72.5566 23.0405C70.3142 16.5494 64.7672 15.1331 58.5122 15.6052C58.9842 9.70417 57.9221 4.62929 52.2571 2.15086C46.238 -0.563608 41.3992 2.03284 37.0324 7.10772C33.3738 1.91482 28.771 -0.327567 23.106 1.7968C16.8509 4.03919 15.1986 9.23209 15.9068 15.6052C9.88772 15.3692 4.5768 16.4313 1.98035 22.4504C-0.6161 28.5874 2.45243 33.1902 6.93721 37.0849C1.27223 42.1598 -0.144018 46.4085 1.86233 51.4834C3.86868 56.5583 7.88137 58.5646 15.4347 58.3286C17.441 74.1433 24.1682 76.9758 37.5045 67.2982C40.8091 72.019 45.2939 74.2614 50.9588 72.373C57.568 70.1307 58.8662 64.5837 58.3941 58.0926C64.4132 59.0367 69.252 57.6205 71.9665 52.1915C75.035 45.9365 71.8485 41.2156 67.2457 36.7309C72.3206 33.1902 74.4449 28.5874 72.5566 23.0405Z" fill="#AE5CAA"/>
<path d="M72.5566 23.0405C70.3142 16.5494 64.7672 15.1331 58.5122 15.6052C58.9842 9.70417 57.9221 4.62929 52.2571 2.15086C46.238 -0.563608 41.3992 2.03284 37.0324 7.10772C33.3738 1.91482 28.771 -0.327567 23.106 1.7968C16.8509 4.03919 15.1986 9.23209 15.9068 15.6052C9.88772 15.3692 4.5768 16.4313 1.98035 22.4504C-0.6161 28.5874 2.45243 33.1902 6.93721 37.0849C1.27223 42.1598 -0.144018 46.4085 1.86233 51.4834C3.86868 56.5583 7.88137 58.5646 15.4347 58.3286C17.441 74.1433 24.1682 76.9758 37.5045 67.2982C40.8091 72.019 45.2939 74.2614 50.9588 72.373C57.568 70.1307 58.8662 64.5837 58.3941 58.0926C64.4132 59.0367 69.252 57.6205 71.9665 52.1915C75.035 45.9365 71.8485 41.2156 67.2457 36.7309C72.3206 33.1902 74.4449 28.5874 72.5566 23.0405Z" stroke="#FFF200" stroke-width="2" stroke-miterlimit="10"/>
</svg>
