<svg width="72" height="72" viewBox="0 0 72 72" fill="none" xmlns="http://www.w3.org/2000/svg">
<g clip-path="url(#clip0_945_44889)">
<path d="M36 0.818359L61.4558 11.1229L72 36.0002L61.4558 60.8775L36 71.182L10.5442 60.8775L0 36.0002L10.5442 11.1229L36 0.818359Z" fill="#FFF500"/>
<path d="M31.8557 39.76C31.8557 38.16 32.2077 36.848 32.9117 35.824C33.6157 34.768 34.6397 33.616 35.9837 32.368C36.9117 31.504 37.5997 30.784 38.0477 30.208C38.4957 29.6 38.7197 28.96 38.7197 28.288C38.7197 27.36 38.3197 26.624 37.5197 26.08C36.7517 25.504 35.7437 25.216 34.4957 25.216C33.2157 25.216 32.0477 25.52 30.9917 26.128C29.9677 26.736 29.1357 27.584 28.4957 28.672L21.3437 24.832C22.6557 22.592 24.5117 20.848 26.9117 19.6C29.3117 18.352 32.2077 17.728 35.5997 17.728C39.4077 17.728 42.4637 18.528 44.7677 20.128C47.1037 21.696 48.2717 23.904 48.2717 26.752C48.2717 28.064 48.0477 29.232 47.5997 30.256C47.1517 31.248 46.6077 32.096 45.9677 32.8C45.3597 33.472 44.5597 34.24 43.5677 35.104C42.4797 36.032 41.6797 36.832 41.1677 37.504C40.6557 38.144 40.3997 38.896 40.3997 39.76H31.8557ZM36.1277 52.432C34.5597 52.432 33.2637 51.952 32.2397 50.992C31.2157 50 30.7037 48.8 30.7037 47.392C30.7037 45.952 31.1997 44.768 32.1917 43.84C33.2157 42.912 34.5277 42.448 36.1277 42.448C37.7277 42.448 39.0397 42.912 40.0637 43.84C41.0877 44.768 41.5997 45.952 41.5997 47.392C41.5997 48.8 41.0877 50 40.0637 50.992C39.0397 51.952 37.7277 52.432 36.1277 52.432Z" fill="#5E3D84"/>
</g>
<defs>
<clipPath id="clip0_945_44889">
<rect width="72" height="72" rx="32" fill="white"/>
</clipPath>
</defs>
</svg>
