<svg width="54" height="54" viewBox="0 0 54 54" fill="none" xmlns="http://www.w3.org/2000/svg">
<g clip-path="url(#clip0_945_43597)">
<path d="M8.67348 8.67348L27 1.08239L45.3265 8.67348L52.9176 27L45.3265 45.3265L27 52.9176L8.67348 45.3265L1.08239 27L8.67348 8.67348Z" fill="#8757B5" stroke="white" stroke-width="2"/>
<path d="M24.2371 30.5841C24.2371 29.5175 24.4718 28.6428 24.9411 27.9601C25.4105 27.2561 26.0931 26.4881 26.9891 25.6561C27.6078 25.0801 28.0665 24.6001 28.3651 24.2161C28.6638 23.8108 28.8131 23.3841 28.8131 22.9361C28.8131 22.3175 28.5465 21.8268 28.0131 21.4641C27.5011 21.0801 26.8291 20.8881 25.9971 20.8881C25.1438 20.8881 24.3651 21.0908 23.6611 21.4961C22.9785 21.9015 22.4238 22.4668 21.9971 23.1921L17.2291 20.6321C18.1038 19.1388 19.3411 17.9761 20.9411 17.1441C22.5411 16.3121 24.4718 15.8961 26.7331 15.8961C29.2718 15.8961 31.3091 16.4295 32.8451 17.4961C34.4025 18.5415 35.1811 20.0135 35.1811 21.9121C35.1811 22.7868 35.0318 23.5655 34.7331 24.2481C34.4345 24.9095 34.0718 25.4748 33.6451 25.9441C33.2398 26.3921 32.7065 26.9041 32.0451 27.4801C31.3198 28.0988 30.7865 28.6321 30.4451 29.0801C30.1038 29.5068 29.9331 30.0081 29.9331 30.5841H24.2371ZM27.0851 39.0321C26.0398 39.0321 25.1758 38.7121 24.4931 38.0721C23.8105 37.4108 23.4691 36.6108 23.4691 35.6721C23.4691 34.7121 23.7998 33.9228 24.4611 33.3041C25.1438 32.6855 26.0185 32.3761 27.0851 32.3761C28.1518 32.3761 29.0265 32.6855 29.7091 33.3041C30.3918 33.9228 30.7331 34.7121 30.7331 35.6721C30.7331 36.6108 30.3918 37.4108 29.7091 38.0721C29.0265 38.7121 28.1518 39.0321 27.0851 39.0321Z" fill="white"/>
</g>
<defs>
<clipPath id="clip0_945_43597">
<rect width="54" height="54" rx="27" fill="white"/>
</clipPath>
</defs>
</svg>
