<svg width="74" height="74" viewBox="0 0 74 74" fill="none" xmlns="http://www.w3.org/2000/svg">
<path d="M72.2994 22.7452C70.0954 16.348 64.6435 14.9522 58.4956 15.4174C58.9596 9.60175 57.9156 4.60025 52.3477 2.15766C46.4318 -0.517562 41.6758 2.04134 37.3839 7.04284C33.7879 1.92503 29.264 -0.284934 23.696 1.80872C17.5481 4.01868 15.9241 9.13649 16.6201 15.4174C10.7042 15.1848 5.48427 16.2316 2.93231 22.1637C0.380338 28.212 3.3963 32.7482 7.80424 36.5866C2.23631 41.5881 0.844332 45.7754 2.81631 50.7769C4.78828 55.7784 8.73223 57.7557 16.1561 57.5231C18.1281 73.1092 24.74 75.9007 37.8479 66.363C41.0958 71.0155 45.5038 73.2255 51.0717 71.3645C57.5676 69.1545 58.8436 63.6877 58.3796 57.2905C64.2955 58.221 69.0515 56.8252 71.7194 51.4748C74.7354 45.3101 71.6034 40.6576 67.0795 36.2376C72.0674 32.7482 74.1554 28.212 72.2994 22.7452Z" fill="#AE5CAA"/>
<path d="M72.2994 22.7452C70.0954 16.348 64.6435 14.9522 58.4956 15.4174C58.9596 9.60175 57.9156 4.60025 52.3477 2.15766C46.4318 -0.517562 41.6758 2.04134 37.3839 7.04284C33.7879 1.92503 29.264 -0.284934 23.696 1.80872C17.5481 4.01868 15.9241 9.13649 16.6201 15.4174C10.7042 15.1848 5.48427 16.2316 2.93231 22.1637C0.380338 28.212 3.3963 32.7482 7.80424 36.5866C2.23631 41.5881 0.844332 45.7754 2.81631 50.7769C4.78828 55.7784 8.73223 57.7557 16.1561 57.5231C18.1281 73.1092 24.74 75.9007 37.8479 66.363C41.0958 71.0155 45.5038 73.2255 51.0717 71.3645C57.5676 69.1545 58.8436 63.6877 58.3796 57.2905C64.2955 58.221 69.0515 56.8252 71.7194 51.4748C74.7354 45.3101 71.6034 40.6576 67.0795 36.2376C72.0674 32.7482 74.1554 28.212 72.2994 22.7452Z" stroke="#FFF200" stroke-width="2" stroke-miterlimit="10"/>
<g clip-path="url(#clip0_4857_1886)">
<mask id="mask0_4857_1886" style="mask-type:luminance" maskUnits="userSpaceOnUse" x="24" y="18" width="26" height="39">
<path d="M49.7946 18.4434H24.043V56.9433H49.7946V18.4434Z" fill="white"/>
</mask>
<g mask="url(#mask0_4857_1886)">
<path d="M32.7429 34.4953C32.9749 34.4953 33.0909 34.379 33.2069 34.1464C33.3229 33.9138 33.3229 33.7975 33.2069 33.5648C33.2069 33.4485 33.0909 33.4485 32.9749 33.3322C32.1629 32.4017 31.2349 31.3549 30.3069 30.4243C29.6109 29.6101 28.9149 29.0286 28.2189 28.2144C28.1029 28.0981 27.8709 27.9818 27.6389 28.0981C27.5229 28.0981 27.4069 28.2144 27.2909 28.447C27.2909 28.6796 27.2909 28.796 27.5229 29.0286C28.1029 29.6101 28.6829 30.1917 29.1469 30.7733C30.1909 31.9364 31.2349 33.2159 32.3949 34.379C32.5109 34.379 32.6269 34.4953 32.7429 34.4953ZM38.3108 29.4938C38.3108 29.8428 38.4268 29.9591 38.6588 30.0754C38.8908 30.0754 39.1228 29.9591 39.2388 29.7265C40.2828 27.4002 41.5587 25.4228 43.2987 23.5618C43.5307 23.3292 43.5307 22.9803 43.2987 22.7476C43.0667 22.515 42.8347 22.515 42.6027 22.8639C40.8628 24.725 39.3548 26.9349 38.3108 29.2612C38.3108 29.3775 38.3108 29.3775 38.3108 29.4938ZM35.9908 36.9379C36.3388 34.6116 36.9188 32.4017 37.7308 30.308C37.3828 30.0754 37.0348 29.8428 36.8028 29.4938C35.6428 28.447 35.2948 27.1676 35.5268 25.5392C35.7588 23.9108 36.5708 22.7476 37.7308 21.5845C39.4708 19.7235 41.6747 18.6766 44.1107 18.444C45.7347 18.3277 47.2427 18.444 48.8667 18.793C49.0986 18.9093 49.3306 19.0256 49.3306 19.2582C49.7946 21.2355 49.9106 23.0966 49.5626 25.0739C49.2146 27.4002 48.1707 29.3775 46.4307 31.0059C45.6187 31.8201 44.6907 32.518 43.5307 32.8669C42.2547 33.2159 41.0948 33.3322 39.9348 32.6343C39.4708 32.2854 39.0068 31.9364 38.6588 31.4712C38.6588 31.3549 38.5428 31.3549 38.4268 31.2385C38.3108 31.7038 38.0788 32.1691 37.9628 32.6343C37.3828 34.4953 37.0348 36.3564 36.8028 38.3337C36.6868 39.8458 36.5708 41.3579 36.6868 42.8699C36.6868 43.1026 36.6868 43.2189 36.6868 43.4515C36.6868 43.8004 36.4548 44.0331 36.2228 44.0331C35.8748 44.0331 35.6428 43.8004 35.6428 43.4515C35.5268 41.9394 35.5268 40.4273 35.6428 38.9153C35.6428 38.6826 35.6428 38.45 35.5268 38.3337C34.8308 37.4032 34.2508 36.589 33.5548 35.6585C33.5548 35.6585 33.4388 35.5422 33.4388 35.4258C33.3229 35.6585 33.2069 35.7748 33.0909 35.8911C32.1629 37.0542 31.0029 37.2869 29.6109 37.0542C28.3349 36.7053 27.2909 36.0074 26.3629 34.9606C24.971 33.4485 24.275 31.5875 24.043 29.4938C24.043 28.2144 24.043 26.9349 24.391 25.6555C24.391 25.4228 24.507 25.3065 24.739 25.3065C26.0149 24.9576 27.2909 24.8413 28.5669 24.9576C30.0749 25.0739 31.3509 25.5392 32.6269 26.3534C33.9028 27.1676 34.9468 28.2144 35.5268 29.7265C35.9908 30.7733 36.1068 31.9364 35.6428 32.9833C35.4108 33.5648 34.9468 34.0301 34.4828 34.379C34.3668 34.4953 34.2508 34.4953 34.2508 34.6116C34.8308 35.4258 35.4108 36.1237 35.9908 36.9379Z" fill="#D6D1E8"/>
</g>
<mask id="mask1_4857_1886" style="mask-type:luminance" maskUnits="userSpaceOnUse" x="24" y="18" width="26" height="39">
<path d="M49.7946 18.4434H24.043V56.9433H49.7946V18.4434Z" fill="white"/>
</mask>
<g mask="url(#mask1_4857_1886)">
<path d="M28.4512 54.2681C28.4512 53.8028 28.4512 53.3376 28.4512 52.8723C28.4512 52.4071 28.6832 52.0581 29.1472 51.9418C30.1911 51.8255 31.3511 51.5929 32.3951 51.4766C32.6271 51.4766 32.7431 51.4766 32.9751 51.5929C33.5551 51.9418 34.0191 52.2908 34.5991 52.756C34.9471 52.9886 35.0631 53.5702 34.8311 53.9192C34.2511 54.8497 33.6711 55.6639 33.0911 56.4781C32.8591 56.7107 32.6271 56.9433 32.2791 56.827C31.2351 56.7107 30.1911 56.5944 29.1472 56.4781C28.6832 56.4781 28.4512 56.1291 28.4512 55.6639C28.4512 55.4312 28.4512 55.1986 28.4512 54.966C28.4512 54.7334 28.4512 54.5007 28.4512 54.2681Z" fill="#D6D1E8"/>
</g>
<mask id="mask2_4857_1886" style="mask-type:luminance" maskUnits="userSpaceOnUse" x="24" y="18" width="26" height="39">
<path d="M49.7946 18.4434H24.043V56.9433H49.7946V18.4434Z" fill="white"/>
</mask>
<g mask="url(#mask2_4857_1886)">
<path d="M43.8785 51.4766C44.1105 51.4766 44.3425 51.5929 44.5745 51.7092C44.9225 52.0581 45.2705 52.4071 45.5025 52.756C45.8505 53.105 45.8505 53.6865 45.5025 54.0355C45.1545 54.3844 44.8065 54.7334 44.4585 55.0823C44.3425 55.1986 44.2265 55.1986 44.1105 55.3149C42.9505 55.7802 41.6745 56.2454 40.5146 56.7107C40.1666 56.827 39.9346 56.827 39.5866 56.5944C39.1226 56.2454 38.6586 55.8965 38.1946 55.5476C37.7306 55.1986 37.6146 54.617 38.0786 54.1518C38.6586 53.4539 39.1226 52.8723 39.7026 52.2908C39.8186 52.0581 40.0506 52.0581 40.2826 51.9418C41.3265 51.8255 42.3705 51.7092 43.4145 51.5929C43.5305 51.4766 43.6465 51.4766 43.8785 51.4766Z" fill="#D6D1E8"/>
</g>
<mask id="mask3_4857_1886" style="mask-type:luminance" maskUnits="userSpaceOnUse" x="24" y="18" width="26" height="39">
<path d="M49.7946 18.4434H24.043V56.9433H49.7946V18.4434Z" fill="white"/>
</mask>
<g mask="url(#mask3_4857_1886)">
<path d="M32.743 48.103C32.743 47.9867 32.743 47.7541 32.743 47.6377C32.743 47.1725 33.091 46.8236 33.555 46.8236C34.4829 46.7072 35.4109 46.5909 36.3389 46.4746C36.5709 46.4746 36.8029 46.4746 37.0349 46.7072C37.6149 47.2888 38.3109 47.7541 38.8909 48.3356C39.2389 48.5683 39.3549 48.9172 39.2389 49.3825C39.1229 49.6151 39.1229 49.8477 39.0069 50.0803C38.8909 50.5456 38.4269 50.7782 37.9629 50.6619C36.8029 50.4293 35.7589 50.0803 34.5989 49.7314C34.2509 49.6151 33.9029 49.4988 33.555 49.4988C32.859 49.3825 32.743 49.0335 32.743 48.3356C32.627 48.2193 32.743 48.103 32.743 48.103Z" fill="#D6D1E8"/>
</g>
<mask id="mask4_4857_1886" style="mask-type:luminance" maskUnits="userSpaceOnUse" x="24" y="18" width="26" height="39">
<path d="M49.7946 18.4434H24.043V56.9433H49.7946V18.4434Z" fill="white"/>
</mask>
<g mask="url(#mask4_4857_1886)">
<path d="M29.6114 48.2192C29.1474 48.2192 28.6834 48.2192 28.2194 48.2192C27.5234 48.2192 27.0594 47.5213 27.4074 46.9397C27.9874 45.8929 28.4514 44.8461 29.0314 43.7992C29.1474 43.4503 29.4954 43.334 29.8434 43.334C30.4234 43.4503 31.1194 43.4503 31.6993 43.5666C32.1633 43.6829 32.5113 44.0319 32.3953 44.6134C32.2793 45.5439 32.0473 46.4745 31.9313 47.405C31.8153 47.9865 31.5833 48.2192 31.0034 48.2192C30.5394 48.2192 30.0754 48.2192 29.6114 48.2192Z" fill="#D6D1E8"/>
</g>
<mask id="mask5_4857_1886" style="mask-type:luminance" maskUnits="userSpaceOnUse" x="24" y="18" width="26" height="39">
<path d="M49.7946 18.4434H24.043V56.9433H49.7946V18.4434Z" fill="white"/>
</mask>
<g mask="url(#mask5_4857_1886)">
<path d="M44.9224 46.2433C44.9224 46.4759 44.9224 46.7086 44.9224 46.9412C44.9224 47.2901 44.8064 47.5228 44.5744 47.7554C43.9944 48.1043 43.5304 48.4533 42.9504 48.8022C42.6024 49.0348 42.2544 49.0348 42.0224 48.8022C41.6744 48.5696 41.2104 48.337 40.8624 47.988C40.6304 47.7554 40.3984 47.5228 40.3984 47.1738C40.3984 46.8249 40.3984 46.4759 40.3984 46.127C40.3984 45.6617 40.6304 45.4291 40.9784 45.3128C41.9064 45.0802 42.9504 44.7312 43.8784 44.4986C44.4584 44.3823 44.9224 44.7312 44.9224 45.4291C44.9224 45.7781 44.9224 46.0107 44.9224 46.2433Z" fill="#D6D1E8"/>
</g>
</g>
<defs>
<clipPath id="clip0_4857_1886">
<rect width="25.7517" height="38.4999" fill="white" transform="translate(24.043 18.4434)"/>
</clipPath>
</defs>
</svg>
