<svg width="200" height="51" viewBox="0 0 200 51" fill="none" xmlns="http://www.w3.org/2000/svg">
<g clip-path="url(#clip0_5784_17003)">
<path d="M198.478 25.4999L190.596 8.94727H160.413H138.201H122.347H120.198H105.151L100.314 17.8946L96.0152 8.94727H65.8315H43.5297H27.6766H25.527H10.5696L1.52344 25.4999L10.5696 41.9631H25.527H27.6766H43.5297H65.8315H96.0152L100.314 33.0157L105.151 41.9631H120.198H122.347H138.201H160.413H190.596L198.478 25.4999Z" fill="white"/>
<path d="M198.478 25.4999L190.596 8.94727H160.413H138.201H122.347H120.198H105.151L100.314 17.8946L96.0152 8.94727H65.8315H43.5297H27.6766H25.527H10.5696L1.52344 25.4999L10.5696 41.9631H25.527H27.6766H43.5297H65.8315H96.0152L100.314 33.0157L105.151 41.9631H120.198H122.347H138.201H160.413H190.596L198.478 25.4999Z" stroke="#EAE8F6" stroke-width="3"/>
<path d="M30.7219 19.8633V25.7685C30.7219 26.3949 30.6324 26.9317 30.3637 27.2001C30.095 27.558 29.7367 27.6475 29.2889 27.6475C28.8411 27.6475 28.4828 27.4685 28.2141 27.2001C27.9454 26.8422 27.8558 26.3949 27.8558 25.7685V19.8633H24.6315V25.7685C24.6315 26.3949 24.5419 26.9317 24.2732 27.2001C24.0045 27.558 23.6463 27.6475 23.1984 27.6475C22.7506 27.6475 22.3923 27.4685 22.1236 27.2001C21.8549 26.8422 21.7654 26.3949 21.7654 25.7685V19.8633H18.541V25.9475C18.541 27.4685 18.8993 28.5422 19.7949 29.3475C20.601 30.1528 21.7654 30.6001 23.288 30.6001C24.5419 30.6001 25.5271 30.2422 26.2437 29.6159C27.0497 30.2422 27.9454 30.6001 29.1993 30.6001C30.7219 30.6001 31.8863 30.2422 32.6924 29.3475C33.4985 28.5422 33.9463 27.3791 33.9463 25.9475V19.8633H30.7219ZM39.2307 26.3054H43.5298V23.8001H39.2307V26.3054ZM39.4098 22.5475H44.0672V19.8633H36.275V30.3317H44.2463V27.6475H39.4098V22.5475ZM46.7542 30.3317H54.3673V27.558H50.0681V19.8633H46.8437L46.7542 30.3317ZM56.4273 30.3317H64.0403V27.558H59.7412V19.8633H56.4273V30.3317Z" fill="#8858B5"/>
<path d="M130.14 30.5106H133.633L131.573 27.2896C132.2 26.9317 132.648 26.4843 132.917 25.9475C133.275 25.4106 133.364 24.6949 133.364 23.9791C133.364 23.1738 133.185 22.458 132.827 21.9212C132.469 21.2949 132.021 20.8475 131.304 20.5791C130.678 20.2212 129.871 20.1317 128.976 20.1317H124.318V30.6001H127.543V28.0054H128.438L130.14 30.5106ZM130.14 23.9791C130.14 24.4264 130.051 24.6949 129.782 24.8738C129.603 25.0528 129.244 25.2317 128.797 25.2317H127.632V22.7264H128.797C129.244 22.7264 129.603 22.8159 129.782 23.0843C130.051 23.3528 130.14 23.6212 130.14 23.9791ZM141.694 22.7264V20.0422H135.514V22.7264H136.947V27.8264H135.514V30.5106H141.694V27.8264H140.261V22.7264H141.694ZM149.486 30.5106V22.7264H152.352V19.9528H143.485V22.7264H146.351V30.4212L149.486 30.5106ZM160.145 20.1317V23.8001H157.189V20.1317H153.965V30.6001H157.189V26.7528H160.145V30.6001H163.369V20.1317H160.145ZM177.699 19.8633C177.072 19.8633 176.446 19.9528 175.998 20.2212C175.46 20.4896 175.102 20.758 174.744 21.2949C174.117 20.4001 173.221 19.8633 171.967 19.8633C170.803 19.8633 169.907 20.3106 169.28 21.1159V20.0422H166.145V30.5106H169.37V24.337C169.37 23.8001 169.459 23.3528 169.728 23.0843C169.997 22.8159 170.266 22.637 170.713 22.637C171.072 22.637 171.43 22.7264 171.609 23.0843C171.878 23.3528 171.967 23.8001 171.967 24.2475V30.5106H175.192V24.4264C175.192 23.8896 175.281 23.4422 175.639 23.1738C175.908 22.9054 176.266 22.7264 176.714 22.7264C177.162 22.7264 177.52 22.8159 177.699 23.1738C177.968 23.4422 178.058 23.8896 178.058 24.337V30.6001H181.282V24.158C181.282 22.7264 180.924 21.7422 180.297 20.937C179.759 20.2212 178.864 19.8633 177.699 19.8633Z" fill="#8858B5"/>
<path d="M97.0008 31.9423C100.583 30.4212 102.196 26.4844 100.763 22.816C99.2399 19.1475 95.1199 17.4475 91.4477 19.0581C87.6859 20.6686 86.1633 24.6949 87.8651 28.3633C89.3877 31.9423 93.3286 33.4633 97.0008 31.9423ZM94.1346 6.53175C96.9112 3.3107 99.9564 1.70017 103.808 3.40017C107.39 5.0107 108.017 8.23175 107.749 11.9002C111.779 11.5423 115.272 12.437 116.705 16.5528C117.959 20.1318 116.526 22.9949 113.302 25.2318C116.257 28.0054 118.228 31.0475 116.347 34.9844C114.645 38.3844 111.6 39.3686 107.749 38.7423C108.107 42.8581 107.211 46.3475 103.091 47.7791C99.5086 49.0318 96.6425 47.6002 94.4929 44.5581C85.9842 50.7318 81.685 48.9423 80.4311 38.9212C75.5946 39.1002 73.1763 37.8475 71.8328 34.537C70.5789 31.4054 71.4746 28.6318 75.0572 25.4107C72.2806 22.9054 70.3102 20.0423 71.9224 16.1054C73.5346 12.2581 76.9381 11.6318 80.6998 11.7212C80.1624 7.69491 81.3268 4.38438 85.2677 2.95281C88.8503 1.87912 91.7164 3.22123 94.1346 6.53175Z" stroke="#AE5CAA" stroke-width="6" stroke-miterlimit="10"/>
<path d="M116.616 16.6426C115.182 12.5268 111.689 11.6321 107.659 11.99C107.928 8.23207 107.301 5.01102 103.718 3.48997C99.8668 1.78997 96.8215 3.40049 94.045 6.62155C91.7163 3.31102 88.7606 1.96891 85.178 3.22155C81.2371 4.65312 80.1623 7.96365 80.6101 11.99C76.8484 11.9005 73.4449 12.5268 71.8327 16.2847C70.131 20.2215 72.1014 23.0847 74.9675 25.59C71.3849 28.811 70.4892 31.4952 71.7432 34.7163C73.0866 37.9373 75.5049 39.19 80.3414 39.1005C81.5954 49.1215 85.8945 50.911 94.4033 44.7373C96.4633 47.7794 99.3294 49.1215 102.912 47.9584C107.122 46.5268 107.928 43.0373 107.569 38.9215C111.421 39.5479 114.466 38.5636 116.168 35.1636C118.138 31.2268 116.078 28.1847 113.122 25.411C116.436 23.0847 117.869 20.2215 116.616 16.6426Z" fill="#564A8D"/>
<path d="M89.8357 27.6479C89.2983 28.0058 88.761 28.1848 88.0444 28.1848C87.2383 28.1848 86.7009 27.9164 86.2531 27.469C85.8053 26.9321 85.5366 26.2164 85.5366 25.2321C85.5366 24.2479 85.8053 23.5321 86.3427 22.9058C86.8801 22.369 87.5966 22.1006 88.4923 22.1006C89.4775 22.1006 90.4627 22.5479 91.1792 23.4427L93.7766 21.1164C93.1497 20.4006 92.3436 19.7743 91.4479 19.4164C90.5523 19.0585 89.4775 18.79 88.3131 18.79C86.9696 18.79 85.8053 19.0585 84.8201 19.5953C83.8348 20.1321 83.0288 20.8479 82.4018 21.9216C81.7748 22.9058 81.5957 23.9795 81.5957 25.2321C81.5957 26.4848 81.8644 27.5585 82.4018 28.5427C82.9392 29.4374 83.6557 30.1532 84.6409 30.6006C85.5366 31.0479 86.6114 31.3164 87.6862 31.3164C89.0297 31.3164 90.1044 30.9585 90.9105 30.3321V31.0479H93.5079V24.7848H90.0149L89.8357 27.6479ZM101.748 31.3164C103.002 31.3164 104.166 31.0479 105.241 30.5111C106.226 29.9742 107.032 29.2585 107.659 28.2742C108.286 27.3795 108.555 26.2164 108.555 25.0532C108.555 23.89 108.286 22.7269 107.659 21.8321C107.032 20.9374 106.226 20.1321 105.241 19.5953C104.256 19.0585 103.002 18.79 101.748 18.79C100.494 18.79 99.3297 19.0585 98.2549 19.5953C97.2697 20.1321 96.4636 20.8479 95.8366 21.8321C95.2097 22.7269 94.941 23.89 94.941 25.0532C94.941 26.2164 95.2097 27.3795 95.8366 28.2742C96.4636 29.169 97.2697 29.9742 98.2549 30.5111C99.3297 31.0479 100.494 31.3164 101.748 31.3164ZM101.748 28.0953C101.211 28.0953 100.763 28.0058 100.404 27.7374C99.9567 27.469 99.688 27.1111 99.4193 26.6637C99.1506 26.2164 99.061 25.6795 99.061 25.1427C99.061 24.5164 99.1506 23.9795 99.4193 23.6216C99.688 23.1742 99.9567 22.8164 100.404 22.5479C100.852 22.2795 101.211 22.19 101.748 22.19C102.285 22.19 102.733 22.2795 103.091 22.5479C103.539 22.8164 103.808 23.1742 104.077 23.6216C104.345 24.069 104.435 24.6058 104.435 25.1427C104.435 25.769 104.345 26.3058 104.077 26.6637C103.808 27.1111 103.539 27.469 103.091 27.7374C102.733 27.9164 102.285 28.0953 101.748 28.0953Z" fill="white"/>
</g>
<defs>
<clipPath id="clip0_5784_17003">
<rect width="200" height="51" fill="white"/>
</clipPath>
</defs>
</svg>
