<svg width="47" height="46" viewBox="0 0 47 46" fill="none" xmlns="http://www.w3.org/2000/svg">
<path d="M8.003 7.50048L23.5 1.08142L38.9981 7.50093L45.4176 22.999L38.9981 38.4971L23.5 44.9166L8.00081 38.4967L1.58239 23.0899L8.003 7.50048Z" fill="#8858B5" stroke="white" stroke-width="2"/>
<path d="M20.7577 25.4877C23.2634 21.309 26.1159 17.3583 29.4311 13.7495C31.2043 11.8121 33.2473 10.2546 35.4831 8.84908C37.1407 7.78542 38.9139 6.94969 40.6486 6C40.6871 6.03799 40.7257 6.03799 40.7257 6.07598C39.9547 6.6078 39.1837 7.17762 38.4128 7.70945C38.4513 7.78542 38.5284 7.8614 38.567 7.93737C38.7983 7.82341 39.0295 7.67146 39.2994 7.59548C39.9162 7.36756 40.5715 7.17762 41.1882 6.98768C41.805 6.79774 42.4218 6.56982 43 6.41786C41.4966 9.00103 38.991 10.7105 36.6396 12.5719C35.83 13.1797 35.2904 13.9774 34.8278 14.9271C34.1339 16.2567 33.016 17.3963 32.0523 18.5739C29.1998 22.0688 26.5785 25.7916 24.4198 29.7423C23.9187 30.654 23.2248 31.5277 22.4153 32.2115C20.9505 33.4271 18.8689 33.2372 17.5582 31.6417C16.0934 29.7803 14.8213 27.7669 13.5492 25.7916C13.0481 24.9938 12.6241 24.1201 12.3157 23.2464C12.0844 22.6386 11.9688 21.9548 12.0073 21.309C12.1229 19.4097 13.8576 18.46 15.4766 19.5236C16.1705 19.9795 16.6716 20.7012 17.1342 21.423" fill="#FAA81A"/>
</svg>
