<svg width="66" height="65" viewBox="0 0 66 65" fill="none" xmlns="http://www.w3.org/2000/svg">
<path d="M11.4041 10.5621L11.0214 10.7207L10.8629 11.1033L2.07612 32.3165L1.91761 32.6992L2.07612 33.0819L10.8629 54.2951L11.0214 54.6777L11.4041 54.8363L32.6173 63.6231L33 63.7816L33.3827 63.6231L54.5958 54.8363L54.9785 54.6777L55.137 54.2951L63.9239 33.0819L64.0824 32.6992L63.9239 32.3165L55.137 11.1033L54.9785 10.7207L54.5958 10.5621L33.3827 1.77534L33 1.61683L32.6173 1.77534L11.4041 10.5621Z" fill="#8858B5" stroke="white" stroke-width="2"/>
<path d="M40.0711 20.2722L45.7279 25.9291L25.9289 45.7281L20.2721 40.0712L40.0711 20.2722Z" fill="white"/>
<path d="M45.7279 40.0712L40.0711 45.7281L20.2721 25.9291L25.9289 20.2722L45.7279 40.0712Z" fill="white"/>
</svg>
