<svg width="180" height="179" viewBox="0 0 180 179" fill="none" xmlns="http://www.w3.org/2000/svg">
<g clip-path="url(#clip0_945_46401)">
<path d="M7.1999 53.0996L6.0999 54.9996L3.8999 55.4996L5.3999 57.0996L5.0999 59.3996L7.1999 58.4996L9.1999 59.3996L8.9999 57.0996L10.4999 55.4996L8.2999 54.9996L7.1999 53.0996Z" fill="#FFF200"/>
<path d="M7.1999 53.0996L6.0999 54.9996L3.8999 55.4996L5.3999 57.0996L5.0999 59.3996L7.1999 58.4996L9.1999 59.3996L8.9999 57.0996L10.4999 55.4996L8.2999 54.9996L7.1999 53.0996Z" stroke="white" stroke-width="4"/>
<path d="M171.9 53.0996L170.8 54.9996L168.6 55.4996L170.1 57.0996L169.8 59.3996L171.9 58.4996L173.9 59.3996L173.7 57.0996L175.2 55.4996L173 54.9996L171.9 53.0996Z" fill="#FFF200"/>
<path d="M171.9 53.0996L170.8 54.9996L168.6 55.4996L170.1 57.0996L169.8 59.3996L171.9 58.4996L173.9 59.3996L173.7 57.0996L175.2 55.4996L173 54.9996L171.9 53.0996Z" stroke="white" stroke-width="4"/>
<path d="M123.6 4.09961L122.5 5.99961L120.3 6.49961L121.8 8.09961L121.5 10.3996L123.6 9.39961L125.6 10.3996L125.4 8.09961L126.9 6.49961L124.7 5.99961L123.6 4.09961Z" fill="#FFF200"/>
<path d="M123.6 4.09961L122.5 5.99961L120.3 6.49961L121.8 8.09961L121.5 10.3996L123.6 9.39961L125.6 10.3996L125.4 8.09961L126.9 6.49961L124.7 5.99961L123.6 4.09961Z" stroke="white" stroke-width="4"/>
<path d="M55.6999 4.09961L54.5999 5.99961L52.3999 6.49961L53.8999 8.09961L53.5999 10.3996L55.6999 9.39961L57.6999 10.3996L57.4999 8.09961L58.9999 6.49961L56.7999 5.99961L55.6999 4.09961Z" fill="#FFF200"/>
<path d="M55.6999 4.09961L54.5999 5.99961L52.3999 6.49961L53.8999 8.09961L53.5999 10.3996L55.6999 9.39961L57.6999 10.3996L57.4999 8.09961L58.9999 6.49961L56.7999 5.99961L55.6999 4.09961Z" stroke="white" stroke-width="4"/>
<path d="M7.8 122.3L6.7 124.2L4.5 124.7L6 126.3L5.8 128.6L7.8 127.6L9.9 128.6L9.6 126.3L11.1 124.7L8.9 124.2L7.8 122.3Z" fill="#FFF200"/>
<path d="M7.8 122.3L6.7 124.2L4.5 124.7L6 126.3L5.8 128.6L7.8 127.6L9.9 128.6L9.6 126.3L11.1 124.7L8.9 124.2L7.8 122.3Z" stroke="white" stroke-width="4"/>
<path d="M172.5 122.3L171.4 124.2L169.2 124.7L170.7 126.3L170.5 128.6L172.5 127.6L174.6 128.6L174.3 126.3L175.9 124.7L173.7 124.2L172.5 122.3Z" fill="#FFF200"/>
<path d="M172.5 122.3L171.4 124.2L169.2 124.7L170.7 126.3L170.5 128.6L172.5 127.6L174.6 128.6L174.3 126.3L175.9 124.7L173.7 124.2L172.5 122.3Z" stroke="white" stroke-width="4"/>
<path d="M123.6 169.1L122.5 171.1L120.3 171.5L121.8 173.2L121.5 175.4L123.6 174.5L125.6 175.4L125.4 173.2L126.9 171.5L124.7 171.1L123.6 169.1Z" fill="#FFF200"/>
<path d="M123.6 169.1L122.5 171.1L120.3 171.5L121.8 173.2L121.5 175.4L123.6 174.5L125.6 175.4L125.4 173.2L126.9 171.5L124.7 171.1L123.6 169.1Z" stroke="white" stroke-width="4"/>
<path d="M55.6999 169.1L54.5999 171.1L52.3999 171.5L53.8999 173.2L53.5999 175.4L55.6999 174.5L57.6999 175.4L57.4999 173.2L58.9999 171.5L56.7999 171.1L55.6999 169.1Z" fill="#FFF200"/>
<path d="M55.6999 169.1L54.5999 171.1L52.3999 171.5L53.8999 173.2L53.5999 175.4L55.6999 174.5L57.6999 175.4L57.4999 173.2L58.9999 171.5L56.7999 171.1L55.6999 169.1Z" stroke="white" stroke-width="4"/>
<path d="M88.3999 14.2002L37.5 35.3002L16.7 86.9002L38.0999 138.7L89.3 160.4L140.2 139.3L161 87.8002L139.6 36.0002L88.3999 14.2002Z" fill="#855AA5"/>
<path d="M88.3999 14.2002L37.5 35.3002L16.7 86.9002L38.0999 138.7L89.3 160.4L140.2 139.3L161 87.8002L139.6 36.0002L88.3999 14.2002Z" stroke="white" stroke-width="2"/>
<path d="M88.9001 33L50.3 48.9L34.3 87.4L50.3 125.8L88.8001 141.7L127.3 125.7L143.3 87.3L127.4 48.8L88.9001 33Z" fill="#855AA5"/>
<path d="M88.9001 33L50.3 48.9L34.3 87.4L50.3 125.8L88.8001 141.7L127.3 125.7L143.3 87.3L127.4 48.8L88.9001 33Z" stroke="white" stroke-width="2"/>
<path d="M63.3001 61.6996L52.6001 87.3996L63.2001 113L88.8001 123.6L114.4 112.9L125 87.2996L114.4 61.6996L88.9001 51.0996L63.3001 61.6996Z" fill="#855AA5"/>
<path d="M63.3001 61.6996L52.6001 87.3996L63.2001 113L88.8001 123.6L114.4 112.9L125 87.2996L114.4 61.6996L88.9001 51.0996L63.3001 61.6996Z" stroke="white" stroke-width="2"/>
<path d="M75.8001 73.2996L70.1001 86.8996L75.7001 100.5L89.3001 106.1L102.9 100.5L108.6 86.8996L103 73.1996L89.4001 67.5996L75.8001 73.2996Z" fill="#FAA819"/>
<path d="M75.8001 73.2996L70.1001 86.8996L75.7001 100.5L89.3001 106.1L102.9 100.5L108.6 86.8996L103 73.1996L89.4001 67.5996L75.8001 73.2996Z" stroke="#FFF200" stroke-width="2"/>
<path d="M89.2 4.59961V64.9996" stroke="white" stroke-width="2"/>
<path d="M89.2 108.1V168.4" stroke="white" stroke-width="2"/>
<path d="M170.6 87H110.3" stroke="white" stroke-width="2"/>
<path d="M67.1 87H6.80005" stroke="white" stroke-width="2"/>
<path d="M32.8 31L71.5 69.6" stroke="white" stroke-width="2"/>
<path d="M106 104.1L144.7 142.8" stroke="white" stroke-width="2"/>
<path d="M144.1 31.9004L105.4 70.6004" stroke="white" stroke-width="2"/>
<path d="M70.9 105.1L32.2 143.7" stroke="white" stroke-width="2"/>
</g>
<defs>
<clipPath id="clip0_945_46401">
<rect width="179.7" height="178.7" fill="white"/>
</clipPath>
</defs>
</svg>
