<svg width="56" height="56" viewBox="0 0 56 56" fill="none" xmlns="http://www.w3.org/2000/svg">
<path d="M6.60128 35.7605L6.60128 36.3819L7.04062 36.8212L18.4976 48.2782L18.9369 48.7175L19.5582 48.7175L35.7608 48.7175L36.3821 48.7175L36.8214 48.2781L48.2784 36.8212L48.7177 36.3819L48.7177 35.7606L48.7177 19.558L48.7177 18.9367L48.2784 18.4973L36.8214 7.04038L36.3821 6.60104L35.7608 6.60104L19.5582 6.60107L18.9369 6.60107L18.4976 7.04041L7.04062 18.4973L6.60128 18.9367L6.60128 19.558L6.60128 35.7605Z" fill="#FFA800" stroke="#FFF200" stroke-width="3"/>
<path d="M26.0958 29.7147C26.0958 28.9947 26.2542 28.4043 26.571 27.9435C26.8878 27.4683 27.3486 26.9499 27.9534 26.3883C28.371 25.9995 28.6806 25.6755 28.8822 25.4163C29.0838 25.1427 29.1846 24.8547 29.1846 24.5523C29.1846 24.1347 29.0046 23.8035 28.6446 23.5587C28.299 23.2995 27.8454 23.1699 27.2838 23.1699C26.7078 23.1699 26.1822 23.3067 25.707 23.5803C25.2462 23.8539 24.8718 24.2355 24.5838 24.7251L21.3654 22.9971C21.9558 21.9891 22.791 21.2043 23.871 20.6427C24.951 20.0811 26.2542 19.8003 27.7806 19.8003C29.4942 19.8003 30.8694 20.1603 31.9062 20.8803C32.9574 21.5859 33.483 22.5795 33.483 23.8611C33.483 24.4515 33.3822 24.9771 33.1806 25.4379C32.979 25.8843 32.7342 26.2659 32.4462 26.5827C32.1726 26.8851 31.8126 27.2307 31.3662 27.6195C30.8766 28.0371 30.5166 28.3971 30.2862 28.6995C30.0558 28.9875 29.9406 29.3259 29.9406 29.7147L26.0958 29.7147ZM28.0182 35.4171C27.3126 35.4171 26.7294 35.2011 26.2686 34.7691C25.8078 34.3227 25.5774 33.7827 25.5774 33.1491C25.5774 32.5011 25.8006 31.9683 26.247 31.5507C26.7078 31.1331 27.2982 30.9243 28.0182 30.9243C28.7382 30.9243 29.3286 31.1331 29.7894 31.5507C30.2502 31.9683 30.4806 32.5011 30.4806 33.1491C30.4806 33.7827 30.2502 34.3227 29.7894 34.7691C29.3286 35.2011 28.7382 35.4171 28.0182 35.4171Z" fill="white"/>
</svg>
