<svg width="64" height="63" viewBox="0 0 64 63" fill="none" xmlns="http://www.w3.org/2000/svg">
<path d="M10.7868 10.486L32 1.69922L53.2132 10.486L62 31.6992L53.2132 52.9124L32 61.6992L10.7868 52.9124L2 31.6992L10.7868 10.486Z" fill="#FAA81A" stroke="white" stroke-width="2" stroke-miterlimit="10"/>
<path d="M28.21 34.6592C28.21 33.7192 28.42 32.9392 28.84 32.3192C29.26 31.6792 29.86 30.9892 30.64 30.2492C31.14 29.7692 31.5 29.3792 31.72 29.0792C31.96 28.7792 32.08 28.4592 32.08 28.1192C32.08 27.6792 31.89 27.3392 31.51 27.0992C31.13 26.8392 30.65 26.7092 30.07 26.7092C29.43 26.7092 28.83 26.8992 28.27 27.2792C27.71 27.6392 27.27 28.1292 26.95 28.7492L21.61 26.0792C22.41 24.5592 23.59 23.3692 25.15 22.5092C26.73 21.6492 28.67 21.2192 30.97 21.2192C33.41 21.2192 35.39 21.7192 36.91 22.7192C38.43 23.7192 39.19 25.1292 39.19 26.9492C39.19 27.7892 39.04 28.5292 38.74 29.1692C38.46 29.7892 38.12 30.3192 37.72 30.7592C37.32 31.1792 36.81 31.6492 36.19 32.1692C35.55 32.7292 35.09 33.1792 34.81 33.5192C34.53 33.8592 34.39 34.2392 34.39 34.6592H28.21ZM31.3 42.9992C30.14 42.9992 29.19 42.6492 28.45 41.9492C27.71 41.2492 27.34 40.3992 27.34 39.3992C27.34 38.3792 27.71 37.5392 28.45 36.8792C29.19 36.1992 30.14 35.8592 31.3 35.8592C32.46 35.8592 33.41 36.1992 34.15 36.8792C34.89 37.5392 35.26 38.3792 35.26 39.3992C35.26 40.3992 34.89 41.2492 34.15 41.9492C33.41 42.6492 32.46 42.9992 31.3 42.9992Z" fill="white"/>
</svg>
