<svg width="74" height="74" viewBox="0 0 74 74" fill="none" xmlns="http://www.w3.org/2000/svg">
<path d="M71.3401 23.4158C69.1672 17.1087 63.792 15.7326 57.7307 16.1913C58.1882 10.4575 57.1589 5.52644 51.6694 3.11825C45.8368 0.480705 41.1478 3.00357 36.9163 7.93463C33.371 2.88889 28.9108 0.710056 23.4213 2.77422C17.3599 4.95306 15.7588 9.99879 16.445 16.1913C10.6124 15.9619 5.46601 16.994 2.94998 22.8425C0.43396 28.8056 3.40744 33.278 7.7533 37.0623C2.2638 41.9933 0.891419 46.1216 2.83562 51.0527C4.77982 55.9838 8.66822 57.9332 15.9876 57.7039C17.9318 73.0704 24.4506 75.8227 37.3738 66.4193C40.576 71.0063 44.9218 73.1851 50.4114 71.3503C56.8158 69.1715 58.0738 63.7817 57.6163 57.4745C63.4489 58.3919 68.1379 57.0158 70.7683 51.7408C73.7418 45.6629 70.6539 41.0759 66.1937 36.7182C71.1114 33.278 73.1699 28.8056 71.3401 23.4158Z" fill="#FAA81A" stroke="#FFF200" stroke-width="3" stroke-miterlimit="10"/>
</svg>
