<svg width="50" height="50" viewBox="0 0 50 50" fill="none" xmlns="http://www.w3.org/2000/svg">
<g clip-path="url(#clip0_5059_36231)">
<path d="M24.9993 1.11816L8.12938 8.13036L1.11719 25.0003L8.12938 41.8702L24.9993 48.8824L41.8692 41.8702L48.8814 25.0003L41.8692 8.13036L24.9993 1.11816Z" fill="white"/>
<path d="M24.9993 1.11816L8.12938 8.13036L1.11719 25.0003L8.12938 41.8702L24.9993 48.8824L41.8692 41.8702L48.8814 25.0003L41.8692 8.13036L24.9993 1.11816Z" stroke="#D6D1E8" stroke-width="2.024"/>
<path d="M7.92626 8.13036L0.914062 25.0003H48.6783L41.6661 8.13036L24.7962 1.11816L7.92626 8.13036Z" fill="#AD5DA4"/>
<path d="M48.6783 25.0003L41.6661 8.13036L24.7962 1.11816L7.92626 8.13036L0.914062 25.0003" stroke="#D6D1E8" stroke-width="2.024"/>
<path d="M13.4141 30.4883H38.8206" stroke="#855AA5"/>
<path d="M15.9551 34.8574H36.2803" stroke="#855AA5"/>
<path d="M19.0039 39.126H33.2315" stroke="#855AA5"/>
</g>
<defs>
<clipPath id="clip0_5059_36231">
<rect width="50" height="50" fill="white"/>
</clipPath>
</defs>
</svg>
