<svg width="54" height="42" viewBox="0 0 54 42" fill="none" xmlns="http://www.w3.org/2000/svg">
<path d="M7.41574 10.6742L7.40661 10.6916L7.39794 10.7092L2.65444 20.3371L2.32044 21.015L2.6665 21.6869L7.40602 30.8884L11.8027 39.6715L12.2175 40.5H13.144H41.6033H42.5603L42.9636 39.6321L47.0462 30.8454L47.0481 30.8414L51.3584 21.6361L51.6498 21.0139L51.369 20.3869L47.0567 10.7589L47.0466 10.7365L47.0359 10.7144L42.9514 2.3423L42.5405 1.5H41.6033H13.144H12.2379L11.8163 2.30211L7.41574 10.6742Z" fill="#564A8D" stroke="#D5D1ED" stroke-width="3"/>
<rect x="21.3438" y="12.5156" width="20" height="4" rx="2" transform="rotate(45 21.3438 12.5156)" fill="#D5D1ED"/>
<rect width="20" height="4" rx="2" transform="matrix(-0.707107 0.707107 0.707107 0.707107 32.6562 12.5156)" fill="#D5D1ED"/>
</svg>
