<svg width="40" height="41" viewBox="0 0 40 41" fill="none" xmlns="http://www.w3.org/2000/svg">
<path d="M27.7805 20.7279C27.7805 16.6279 24.4376 13.3251 20.2877 13.3251C16.1379 13.3251 12.7949 16.6279 12.7949 20.7279C12.7949 24.8279 16.1379 28.1306 20.2877 28.1306C24.4376 28.1306 27.7805 24.8279 27.7805 20.7279Z" fill="#AD5DA4"/>
<path d="M14.1784 20.5C14.1784 23.6889 16.8297 26.3084 20.0573 26.3084C23.285 26.3084 25.9363 23.575 25.9363 20.5C25.9363 17.425 23.285 14.8056 20.1726 14.6917C16.9449 14.6917 14.1784 17.3112 14.1784 20.5ZM19.3657 10.5917C18.9046 9.22504 18.4435 7.74448 18.0977 6.26393C17.8671 5.12504 17.5213 3.87226 17.6366 2.61948C17.8671 0.113929 19.9421 -0.911071 22.1323 0.455596C24.553 2.05004 25.7058 4.32782 25.7058 7.17504C25.7058 8.54171 25.4752 9.90837 25.5905 11.3889C25.9363 10.5917 26.2821 9.79449 26.6279 8.88337C26.8585 8.31393 26.9738 7.74448 27.2043 7.17504C27.896 5.35282 29.2792 4.5556 30.7778 4.66948C32.2764 4.78337 33.6596 6.26393 33.8902 7.97226C34.236 10.25 33.7749 12.0723 32.2764 13.6667C31.4694 14.5778 30.6625 15.4889 29.9709 16.5139C31.0083 15.8306 31.9305 15.0334 32.968 14.5778C34.3513 14.0084 35.8498 13.325 37.2331 13.2112C39.3081 13.0973 40.4608 14.9195 39.6539 16.8556C38.6164 19.475 36.5415 21.0695 33.7749 21.8667C32.7375 22.0945 31.8153 22.3223 30.7778 22.8917C32.0458 22.8917 33.1985 22.7778 34.4666 22.8917C35.7346 23.0056 37.0026 23.0056 38.04 23.3473C39.7692 23.9167 40.115 25.2834 39.4233 26.9917C38.2706 29.6112 34.3513 31.2056 31.4694 30.2945C30.0862 29.8389 28.7029 29.1556 27.089 28.9278C27.7807 29.4973 28.5876 30.0667 29.2792 30.6362C29.9709 31.2056 30.6625 31.8889 31.2389 32.6862C31.9305 33.825 31.9305 35.0778 31.1236 36.1028C30.3167 37.2417 29.164 37.6973 27.7807 37.4695C25.5905 37.1278 24.0919 35.875 22.9392 34.1667C22.3628 33.1417 21.7864 32.1167 20.8643 31.2056C21.4406 32.9139 22.017 34.5084 22.3628 36.2167C22.8239 38.2667 22.2475 40.0889 21.0948 40.6584C19.8268 41.3417 17.9824 40.7723 16.4839 39.1778C15.1006 37.5834 14.2936 35.875 14.4089 33.7112C14.4089 32.5723 14.4089 31.5473 14.1784 30.2945C13.9478 30.9778 13.7173 31.5473 13.4867 32.2306C13.3715 32.6861 13.2562 33.1417 13.1409 33.4834C12.334 35.5334 11.066 36.5584 9.33688 36.3306C7.72304 36.1028 6.33976 34.3945 6.10921 32.3445C5.99394 30.5223 6.45503 28.8139 7.72304 27.4473C8.41469 26.65 9.2216 25.8528 9.6827 24.8278C8.99106 25.2834 8.18414 25.7389 7.4925 26.3084C6.10921 27.3334 4.61065 28.1306 2.76627 28.0167C0.576071 27.9028 -0.461393 26.3084 0.230249 24.3723C1.49826 21.6389 3.68846 20.0445 6.45503 19.3612C7.37722 19.1334 8.41469 18.9056 9.33688 18.3362C8.06887 18.3362 6.91613 18.45 5.64812 18.45C4.61065 18.45 3.45791 18.5639 2.42045 18.2223C-0.000298173 17.6528 -0.691941 15.7167 0.691344 13.6667C2.42045 11.1612 6.33976 10.1362 9.2216 11.275C10.2591 11.7306 11.4118 12.1862 12.6798 12.4139C11.8729 11.6167 10.8354 10.9334 9.91325 10.25C8.64524 9.22504 7.72304 7.97226 8.06887 6.26393C8.64523 3.98615 11.066 3.07504 13.4867 4.21393C15.9075 5.23893 16.9449 7.28893 18.0977 9.33893C18.4435 9.79448 18.6741 10.25 19.0199 10.8195C19.1351 10.7056 19.2504 10.7056 19.3657 10.5917Z" fill="#BEC0CB"/>
</svg>
