<svg width="33" height="32" viewBox="0 0 33 32" fill="none" xmlns="http://www.w3.org/2000/svg">
<path d="M2.60288 0H2.81081V9.22523H2.60288L0 4.54054L2.60288 0Z" fill="#AF5CAA"/>
<mask id="path-2-inside-1_473_32320" fill="white">
<path d="M2.66669 0H30.0541V9.22523H2.66669V0Z"/>
</mask>
<path d="M2.66669 0H30.0541V9.22523H2.66669V0Z" fill="#AF5CAA"/>
<path d="M30.0541 8.22523H2.66669V10.2252H30.0541V8.22523Z" fill="#A29CC0" mask="url(#path-2-inside-1_473_32320)"/>
<path d="M30.288 9.22523L30.0541 9.22523L30.0541 3.78135e-07L30.288 3.45838e-07L32.7928 4.61261L30.288 9.22523Z" fill="#AF5CAA"/>
<path d="M2.60288 11.3874H2.81081V20.6126H2.60288L0 15.9279L2.60288 11.3874Z" fill="#AF5CAA"/>
<mask id="path-6-inside-2_473_32320" fill="white">
<path d="M2.66669 11.3874H30.0541V20.6126H2.66669V11.3874Z"/>
</mask>
<path d="M2.66669 11.3874H30.0541V20.6126H2.66669V11.3874Z" fill="#AF5CAA"/>
<path d="M30.0541 19.6126H2.66669V21.6126H30.0541V19.6126Z" fill="#B76EF9" mask="url(#path-6-inside-2_473_32320)"/>
<path d="M30.288 20.6126L30.0541 20.6126L30.0541 11.3874L30.288 11.3874L32.7928 16L30.288 20.6126Z" fill="#AF5CAA"/>
<path d="M2.60288 22.7748H2.81081V32H2.60288L0 27.3153L2.60288 22.7748Z" fill="#AF5CAA"/>
<mask id="path-10-inside-3_473_32320" fill="white">
<path d="M2.66669 22.7748H30.0541V32H2.66669V22.7748Z"/>
</mask>
<path d="M2.66669 22.7748H30.0541V32H2.66669V22.7748Z" fill="#AF5CAA"/>
<path d="M30.0541 31H2.66669V33H30.0541V31Z" fill="#B76EF9" mask="url(#path-10-inside-3_473_32320)"/>
<path d="M30.288 32L30.0541 32L30.0541 22.7748L30.288 22.7748L32.7928 27.3874L30.288 32Z" fill="#AF5CAA"/>
</svg>
