<?xml version="1.0" encoding="utf-8"?>
<!-- Generator: Adobe Illustrator 28.0.0, SVG Export Plug-In . SVG Version: 6.00 Build 0)  -->
<svg version="1.1" id="Layer_1" xmlns="http://www.w3.org/2000/svg" xmlns:xlink="http://www.w3.org/1999/xlink" x="0px" y="0px"
	 viewBox="0 0 453.2 129.6" style="enable-background:new 0 0 453.2 129.6;" xml:space="preserve">
<style type="text/css">
	.st0{opacity:0.33;}
	.st1{fill:#FFFFFF;}
	.st2{fill:none;stroke:#AD5DA4;stroke-width:1.642;}
	.st3{fill:#AD5DA4;}
	.st4{fill:none;stroke:#FFF9AE;stroke-width:2.574;}
	.st5{fill:#B79AC9;}
</style>
<g>
	<g>
		<g class="st0">
			<g>
				<polygon class="st1" points="215.8,0 169.6,20.3 149.5,66.6 167.2,111.9 212.3,129.6 258.5,109.3 278.6,63 260.9,17.7 				"/>
			</g>
		</g>
	</g>
	<polygon points="430.7,30.8 212.8,30.8 228.2,66.5 212.8,102.2 430.7,102.2 452.2,66.5 	"/>
	<polygon class="st2" points="430.7,30.8 212.8,30.8 228.2,66.5 212.8,102.2 430.7,102.2 452.2,66.5 	"/>
	<polygon points="193.8,30.8 19.2,30.8 0.9,66.5 19.2,102.2 193.8,102.2 213.3,66.5 	"/>
	<polygon class="st2" points="193.8,30.8 19.2,30.8 0.9,66.5 19.2,102.2 193.8,102.2 213.3,66.5 	"/>
	<polygon class="st3" points="180.5,32.2 166.6,65.8 180.5,99.3 214,113.2 247.6,99.3 261.5,65.8 247.6,32.2 214,18.3 	"/>
	<polygon class="st4" points="178.1,31.3 164.2,64.8 163.8,65.8 164.2,66.8 178.1,100.3 178.5,101.3 179.5,101.7 213.1,115.6 
		214,116 215,115.6 248.6,101.7 249.6,101.3 250,100.3 263.9,66.8 264.3,65.8 263.9,64.8 250,31.3 249.6,30.3 248.6,29.9 215,16 
		214,15.6 213.1,16 179.5,29.9 178.5,30.3 	"/>
	<g>
		<path class="st4" d="M182.5,34.2c-4.4,10.5-8.7,21.1-13.1,31.6c4.4,10.5,8.7,21,13.1,31.6c10.5,4.4,21,8.7,31.6,13.1
			c10.5-4.4,21.1-8.7,31.6-13.1c4.4-10.5,8.7-21,13.1-31.6c-4.4-10.5-8.7-21.1-13.1-31.6c-10.5-4.4-21-8.7-31.6-13.1
			C203.5,25.5,193,29.9,182.5,34.2z"/>
		<path class="st5" d="M134.4,79.7h18.8v-6.8h-10.7V53.8h-8V79.7z M110.5,79.7h18.8v-6.8h-10.7V53.8h-8V79.7z M92.4,60.4h11.5v-6.6
			H84.6v25.9h19.8v-6.6H92.4V60.4z M91.9,69.7h10.6v-6.3H91.9V69.7z M70.8,53.8v14.7c0,1.6-0.3,2.8-0.9,3.5
			c-0.6,0.8-1.5,1.2-2.7,1.2c-1.2,0-2.1-0.4-2.7-1.2c-0.6-0.8-0.9-2-0.9-3.5V53.8h-8v14.7c0,1.6-0.3,2.8-0.8,3.5
			c-0.6,0.8-1.5,1.2-2.7,1.2c-1.2,0-2.1-0.4-2.7-1.2c-0.6-0.8-0.9-2-0.9-3.5V53.8h-8v15c0,3.7,1,6.5,3.1,8.5c2.1,2,4.9,3,8.6,3
			c3.1,0,5.5-0.8,7.4-2.4c1.9,1.6,4.3,2.4,7.4,2.4c3.7,0,6.6-1,8.6-3c2.1-2,3.1-4.8,3.1-8.5v-15H70.8z"/>
		<path class="st5" d="M406.7,53.8c-1.6,0-3,0.3-4.3,0.9c-1.3,0.6-2.3,1.4-3.2,2.6c-1.5-2.3-3.7-3.5-6.8-3.5c-2.9,0-5.1,1.1-6.6,3.2
			v-2.6h-7.8v25.9h8V65.1c0-1.4,0.3-2.4,0.9-3.2c0.6-0.7,1.4-1.1,2.4-1.1c1,0,1.8,0.3,2.3,1c0.6,0.7,0.8,1.7,0.8,2.9v15.5h8V65.1
			c0-1.4,0.3-2.4,1-3.2c0.6-0.7,1.5-1.1,2.6-1.1c1.1,0,1.9,0.3,2.5,1c0.6,0.7,0.9,1.7,0.9,2.9v15.5h8V64.5c0-3.5-0.8-6.1-2.4-8
			C411.7,54.7,409.5,53.8,406.7,53.8 M363.2,54.4v9.2h-7.4v-9.2h-8v25.9h8v-9.5h7.4v9.5h8V54.4H363.2z M336.7,80.3V61.1h7v-6.8h-22
			v6.8h7v19.1H336.7z M317.4,60.9v-6.6h-15.2v6.6h3.6v12.7h-3.6v6.6h15.2v-6.6h-3.6V60.9H317.4z M288.8,64.1c0,1-0.3,1.7-0.8,2.2
			c-0.5,0.5-1.4,0.8-2.4,0.8h-2.9v-6.1h2.9c1.1,0,1.9,0.3,2.4,0.8C288.6,62.4,288.8,63.2,288.8,64.1 M288.9,80.3h8.6l-5-8
			c1.5-0.8,2.6-1.9,3.3-3.3c0.8-1.4,1.2-3,1.2-4.8c0-2-0.4-3.7-1.3-5.2s-2.1-2.6-3.8-3.4c-1.6-0.8-3.5-1.2-5.7-1.2h-11.5v25.9h8
			v-6.5h2.2L288.9,80.3z"/>
		<path class="st1" d="M231.1,72.1c-1.2,0-2.3-0.3-3.2-0.9c-1-0.6-1.7-1.4-2.3-2.5c-0.6-1.1-0.8-2.3-0.8-3.7s0.3-2.7,0.8-3.7
			c0.6-1.1,1.3-1.9,2.3-2.5c1-0.6,2-0.9,3.2-0.9c1.2,0,2.3,0.3,3.2,0.9c1,0.6,1.7,1.4,2.3,2.5c0.6,1.1,0.8,2.3,0.8,3.7
			s-0.3,2.7-0.8,3.7c-0.6,1.1-1.3,1.9-2.3,2.5C233.4,71.8,232.3,72.1,231.1,72.1 M231.1,79.8c3,0,5.8-0.6,8.2-1.9
			c2.4-1.3,4.3-3,5.7-5.3c1.4-2.2,2.1-4.8,2.1-7.6c0-2.8-0.7-5.4-2.1-7.6c-1.4-2.2-3.3-4-5.7-5.3c-2.4-1.3-5.2-1.9-8.2-1.9
			c-3,0-5.8,0.6-8.2,1.9c-2.4,1.3-4.3,3-5.7,5.3c-1.4,2.2-2.1,4.8-2.1,7.6c0,2.8,0.7,5.4,2.1,7.6c1.4,2.2,3.3,4,5.7,5.3
			C225.3,79.2,228.1,79.8,231.1,79.8 M202.9,71c-1.2,0.8-2.6,1.2-4.2,1.2c-1.8,0-3.2-0.6-4.3-1.7c-1.1-1.2-1.7-2.9-1.7-5.2
			c0-2.3,0.6-4.1,1.8-5.4c1.2-1.3,2.9-1.9,5-1.9c2.4,0,4.6,1,6.3,3.1l6.1-5.4c-1.5-1.8-3.3-3.1-5.5-4.1c-2.2-0.9-4.7-1.4-7.5-1.4
			c-3.1,0-5.9,0.6-8.3,1.9c-2.4,1.3-4.3,3-5.7,5.4s-2,4.9-2,7.9c0,3,0.6,5.6,1.9,7.8c1.3,2.2,3,3.8,5.2,4.9c2.2,1.1,4.6,1.7,7.2,1.7
			c3.2,0,5.7-0.8,7.6-2.4v1.7h6.2V64.2h-8.3V71z"/>
	</g>
</g>
</svg>
