<svg width="166" height="50" viewBox="0 0 166 50" fill="none" xmlns="http://www.w3.org/2000/svg">
<path d="M7 28.2992L18.2 3.19922" stroke="#AD5DA4" stroke-width="14.894"/>
<path d="M7 21L18.2 46.1" stroke="#AD5DA4" stroke-width="14.894"/>
<path d="M159.2 28.2992L148 3.19922" stroke="#AD5DA4" stroke-width="14.894"/>
<path d="M159.2 21L148 46.1" stroke="#AD5DA4" stroke-width="14.894"/>
<path d="M63.2992 18.8008C62.2992 18.8008 61.2992 19.0008 60.3992 19.3008C59.4992 19.6008 58.6992 20.1008 57.9992 20.8008V19.1008H51.1992V36.5008H58.3992V28.3008C58.3992 27.1008 58.5992 26.2008 59.0992 25.6008C59.5992 25.0008 60.2992 24.8008 61.0992 24.8008C62.4992 24.8008 63.1992 25.8008 63.1992 27.8008V36.5008H70.3992V26.6008C70.3992 24.0008 69.6992 22.0008 68.3992 20.7008C67.0992 19.5008 65.3992 18.8008 63.2992 18.8008Z" fill="white"/>
<path d="M86.5004 18.8008C85.5004 18.8008 84.5004 19.0008 83.6004 19.3008C82.7004 19.6008 81.9004 20.1008 81.2004 20.8008V19.1008H74.4004V36.5008H81.6004V28.3008C81.6004 27.1008 81.8004 26.2008 82.3004 25.6008C82.8004 25.0008 83.5004 24.8008 84.3004 24.8008C85.7004 24.8008 86.4004 25.8008 86.4004 27.8008V36.5008H93.6004V26.6008C93.6004 24.0008 92.9004 22.0008 91.6004 20.7008C90.3004 19.5008 88.6004 18.8008 86.5004 18.8008Z" fill="white"/>
<path d="M106 23.7008C106.6 23.7008 107.2 23.9008 107.6 24.2008C108.1 24.5008 108.4 25.0008 108.6 25.5008L103 26.6008C103.1 25.6008 103.4 24.9008 103.9 24.4008C104.5 24.0008 105.2 23.7008 106 23.7008ZM106.8 31.5008C105.2 31.5008 104.1 31.0008 103.6 30.0008L115.5 27.7008C115.5 25.8008 115.1 24.2008 114.2 22.9008C113.3 21.6008 112.2 20.5008 110.8 19.8008C109.4 19.1008 107.8 18.8008 106.1 18.8008C104.2 18.8008 102.5 19.2008 101 19.9008C99.4996 20.7008 98.2996 21.7008 97.3996 23.1008C96.4996 24.5008 96.0996 26.0008 96.0996 27.8008C96.0996 29.5008 96.4996 31.1008 97.3996 32.4008C98.2996 33.8008 99.4996 34.9008 101.1 35.6008C102.7 36.4008 104.5 36.8008 106.6 36.8008C109.9 36.8008 112.5 35.9008 114.2 34.0008L110.4 30.2008C109.8 30.7008 109.2 31.0008 108.7 31.2008C108.2 31.5008 107.5 31.5008 106.8 31.5008Z" fill="white"/>
<path d="M125.499 20.9992V19.0992H118.699V36.4992H125.899V28.7992C125.899 26.2992 127.099 24.9992 129.599 24.9992C130.099 24.9992 130.599 24.9992 131.199 25.0992V18.6992C128.599 18.7992 126.699 19.5992 125.499 20.9992Z" fill="white"/>
<path d="M45.9995 18.1008C45.6995 18.0008 45.3995 17.9008 44.9995 17.9008H44.8995C44.3995 17.8008 43.7995 17.6008 43.2995 17.5008C43.1995 17.3008 43.1995 17.1008 43.1995 16.9008C43.1995 16.5008 43.0995 16.2008 43.0995 15.8008C42.9995 15.8008 42.8995 15.8008 42.7995 15.8008C42.6995 16.3008 42.6995 16.8008 42.5995 17.4008C42.2995 17.3008 42.0995 17.3008 41.7995 17.2008C41.2995 17.0008 40.7995 16.7008 40.3995 16.6008C39.3995 16.2008 38.7995 17.0008 38.8995 18.3008V18.4008C38.8995 18.4008 38.8995 18.4008 38.8995 18.5008C38.8995 18.7008 38.8995 18.9008 38.8995 19.0008C38.8995 22.2008 38.8995 24.4008 38.8995 27.6008C38.8995 30.8008 38.8995 32.1008 38.8995 35.3008C38.8995 36.3008 39.6995 37.1008 40.5995 37.0008C41.9995 37.0008 43.3995 37.0008 44.7995 37.0008C45.7995 37.0008 46.4995 36.3008 46.4995 35.3008C46.4995 30.2008 46.4995 27.3008 46.4995 22.7008C46.4995 22.5008 46.5995 22.4008 46.5995 22.1008C46.5995 21.5008 46.6995 20.9008 46.8995 20.4008C47.0995 19.2008 46.8995 18.4008 45.9995 18.1008Z" fill="white"/>
<path d="M41.8005 2.5C42.4005 4.1 41.8005 5.5 40.9005 6.8C40.4005 7.6 39.8005 8.4 39.3005 9.3C38.4005 11.1 39.1005 12.6 40.8005 13.9C42.2005 13.2 43.4005 12.4 43.9005 11.3C44.4005 10.1 44.1005 9 43.5005 7.9C45.4005 9.5 46.2005 11.7 44.3005 14.2C44.4005 14.2 44.5005 14.1 44.5005 14.1C45.8005 13.3 46.5005 12.3 46.8005 11.1C47.4005 8.7 46.4005 6.5 44.5005 4.6C43.8005 3.8 42.6005 2.9 41.8005 2.5Z" fill="white"/>
</svg>
