<svg width="124" height="124" viewBox="0 0 124 124" fill="none" xmlns="http://www.w3.org/2000/svg">
<path d="M20.4138 19.602L19.8398 19.8398L19.602 20.4138L2.61418 61.426L2.37641 62L2.61418 62.574L19.602 103.586L19.8398 104.16L20.4138 104.398L61.4259 121.386L62 121.624L62.574 121.386L103.586 104.398L104.16 104.16L104.398 103.586L121.386 62.574L121.624 62L121.386 61.4259L104.398 20.4138L104.16 19.8398L103.586 19.602L62.574 2.61418L62 2.37641L61.426 2.61418L20.4138 19.602Z" fill="#AE5CAA" stroke="#FFF200" stroke-width="3"/>
<mask id="mask0_945_53778" style="mask-type:alpha" maskUnits="userSpaceOnUse" x="50" y="12" width="24" height="87">
<rect x="74" y="12" width="87" height="24" transform="rotate(90 74 12)" fill="#D9D9D9"/>
</mask>
<g mask="url(#mask0_945_53778)">
<path d="M54.5131 38.5781L52 43.8973L61.9476 48.5781L72 43.8973L69.3822 38.5781L61.9476 41.9824L54.5131 38.5781Z" fill="white"/>
<path d="M54.3936 57.5781L51.8405 62.8973L61.9468 67.5781L72.1596 62.8973L69.5 57.5781L61.9468 60.9824L54.3936 57.5781Z" fill="white"/>
<path d="M54.5131 76.5789L52 81.8145L61.9476 86.4219L72 81.8145L69.3822 76.5789L61.9476 79.9297L54.5131 76.5789Z" fill="white"/>
</g>
</svg>
