<svg width="36" height="40" viewBox="0 0 36 40" fill="none" xmlns="http://www.w3.org/2000/svg">
<g clip-path="url(#clip0_4958_26597)">
<path d="M15.541 12.3C15.6394 13.4 15.7378 14.5 15.9345 15.7C16.1312 17.6 16.7214 19.3 17.4099 21C17.6066 21.7 18.0001 22.4 18.2951 23.2C18.3935 23.3 18.2951 23.4 18.3935 23.6C18.2951 23.5 18.0984 23.6 18.0984 23.6C17.0165 22.9 16.0328 22.2 15.246 21.3C14.3607 20.5 13.6722 19.7 12.9837 18.7C12.3935 17.8 11.9017 16.8 11.4099 15.7C10.4263 14.1 10.0328 12.7 9.93449 11.1C9.83613 9.89998 9.6394 8.69998 9.83613 7.49998C9.83613 6.29998 9.83613 5.09998 9.93449 3.79998C10.1312 2.69998 10.4263 1.59998 10.7214 0.399985C10.8197 -0.100015 11.0165 -1.54478e-05 11.3115 -1.54478e-05C12.0984 0.399985 12.9837 0.799984 13.6722 1.29998C14.8525 2.09998 15.9345 2.89998 17.0165 3.79998C18.8853 5.49998 20.4591 7.39998 21.4427 9.79998C21.9345 11 22.3279 12.3 22.3279 13.7C22.4263 15.1 22.4263 16.5 22.0328 18C21.7378 19 21.4427 20.2 21.0492 21.1C20.9509 21.5 20.6558 21.9 20.4591 22.2C20.3607 22.3 20.2624 22.4 20.164 22.4L19.9673 22.2C18.7869 19.7 17.5083 17.2 16.5246 14.8C16.3279 14.1 16.0328 13.5 15.8361 12.8C15.8361 12.6 15.7378 12.4 15.7378 12.2C15.6394 12.4 15.541 12.3 15.541 12.3Z" fill="#BFBFCC"/>
<path d="M8.65574 30.4C9.14754 31.4 9.63934 32.4 10.2295 33.4C11.1148 35.1 12.1967 36.5 13.4754 37.8C13.9672 38.3 14.459 38.9 15.0492 39.5C15.1475 39.5 15.1475 39.7 15.2459 39.8C15.1475 39.8 14.9508 39.9 14.9508 39.9C13.7705 39.6 12.4918 39.3 11.5082 38.8C10.4262 38.4 9.44262 37.9 8.45902 37.2C7.67213 36.6 6.88525 35.8 6 35C4.52459 33.9 3.63934 32.7 3.04918 31.2C2.55738 30.2 1.96721 29.2 1.67213 27.9C1.18033 26.8 0.786885 25.6 0.491803 24.4C0.295082 23.4 0.196721 22.2 0 21C0 20.6 0.0983607 20.6 0.393443 20.5C1.27869 20.6 2.2623 20.7 3.04918 20.9C4.42623 21.2 5.80328 21.6 7.08197 22C9.44262 22.9 11.6066 24.1 13.2787 26C14.1639 27 14.9508 28 15.541 29.3C16.1311 30.6 16.623 31.9 16.7213 33.4C16.7213 34.4 16.918 35.6 16.918 36.7C16.918 37.1 16.8197 37.6 16.7213 38C16.7213 38.1 16.6229 38.3 16.5246 38.2L16.2295 38.1C14.2623 36.2 12.1967 34.3 10.4262 32.4C9.93443 31.9 9.54098 31.3 9.04918 30.8C8.95082 30.6 8.85246 30.5 8.7541 30.3C8.85246 30.4 8.65574 30.4 8.65574 30.4Z" fill="#BFBFCC"/>
<path d="M28.2294 28.1C27.7376 28.6 27.1475 29.1 26.6557 29.6C25.7704 30.4 24.7868 31 23.7048 31.6C23.3114 31.8 22.8196 32 22.3278 32.3C22.2294 32.3 22.2294 32.4 22.1311 32.5C22.2294 32.5 22.3278 32.7 22.3278 32.7C23.213 32.8 23.9999 32.9 24.8852 32.9C25.6721 32.9 26.4589 32.8 27.2458 32.5C27.9343 32.3 28.6229 32 29.4098 31.7C30.295 31.3 31.1802 30.7 31.9671 30C32.5573 29.5 33.0491 29 33.6393 28.4C34.0327 27.7 34.6229 27 35.1147 26.4C35.5081 25.7 35.8032 25 36.1966 24.4C36.1966 24.2 35.9999 24.1 35.8032 24C35.213 23.8 34.6229 23.6 33.9343 23.5C32.9507 23.3 32.0655 23.2 31.0819 23.2C29.3114 23.1 27.7376 23.5 26.1639 24.2C25.377 24.6 24.6884 25.1 23.9999 25.8C23.3114 26.5 22.6229 27.2 22.3278 28.1C22.1311 28.8 21.836 29.4 21.4425 30.1C21.3442 30.3 21.2458 30.6 21.1475 30.9C21.1475 31 21.1475 31.1 21.1475 31.1C21.2458 31.1 21.2458 31.1 21.3442 31.1C23.0163 30.4 24.6884 29.7 26.3606 29C26.754 28.8 27.1475 28.6 27.6393 28.3C27.7376 28.2 27.9343 28.2 28.0327 28.1H28.2294Z" fill="#BFBFCC"/>
</g>
<defs>
<clipPath id="clip0_4958_26597">
<rect width="36" height="40" fill="white"/>
</clipPath>
</defs>
</svg>
