<svg width="54" height="42" viewBox="0 0 54 42" fill="none" xmlns="http://www.w3.org/2000/svg">
<rect x="17.1016" y="11" width="20" height="4" rx="2" fill="#D5D1ED"/>
<rect x="17.1016" y="19" width="20" height="4" rx="2" fill="#D5D1ED"/>
<rect x="17.1016" y="27" width="20" height="4" rx="2" fill="#D5D1ED"/>
<path d="M7.5173 10.6742L7.50817 10.6916L7.4995 10.7092L2.75601 20.3371L2.422 21.015L2.76806 21.6869L7.50758 30.8884L11.9043 39.6715L12.319 40.5H13.2456H41.7048H42.6619L43.0652 39.6321L47.1477 30.8454L47.1496 30.8414L51.46 21.6361L51.7514 21.0139L51.4705 20.3869L47.1583 10.7589L47.1482 10.7365L47.1374 10.7144L43.0529 2.3423L42.642 1.5H41.7048H13.2456H12.3394L11.9178 2.30211L7.5173 10.6742Z" stroke="#AE5CAA" stroke-width="3"/>
</svg>
