<svg width="43" height="28" viewBox="0 0 43 28" fill="none" xmlns="http://www.w3.org/2000/svg">
<path d="M26.9651 3.13316C25.9797 2.07121 24.9047 2.2482 23.7401 2.86767C23.2922 1.71723 22.7547 0.832275 21.5005 0.832275C20.1568 0.832275 19.4401 1.62874 18.9922 2.95617C17.8276 2.2482 16.8422 2.2482 15.9464 3.04466C14.9609 3.92962 15.0505 5.08006 15.6776 6.14201C14.513 6.49599 13.6172 7.20396 13.6172 8.44289C13.6172 9.77033 14.513 10.3898 15.6776 10.8323C15.0505 12.2482 15.0505 13.1332 15.8568 13.9296C16.663 14.7261 17.5589 14.8146 18.9922 14.1951C20.6047 17.027 22.1276 17.027 23.8297 14.1066C24.8151 14.7261 25.8005 14.8146 26.7859 14.0181C27.8609 13.0447 27.6818 11.9827 27.0547 10.8323C28.2193 10.5668 29.1151 9.85882 29.1151 8.70838C29.2047 7.29245 28.2193 6.67298 26.9651 6.14201C27.6818 5.08006 27.7714 4.10661 26.9651 3.13316Z" fill="#D4D1E6"/>
<path d="M21.3212 18.7084C22.1275 18.7084 22.9337 18.7084 23.74 18.7084C25.5316 18.7084 26.965 20.1243 26.965 21.8942C26.965 23.3986 26.965 24.9031 26.965 26.4075C26.965 26.5845 26.8754 26.673 26.6962 26.7615C24.6358 27.7349 22.3962 28.0889 20.1566 27.9119C18.6337 27.8234 17.2004 27.4694 15.8566 26.85C15.5879 26.7615 15.5879 26.5845 15.5879 26.4075C15.5879 24.9916 15.5879 23.4871 15.5879 22.0712C15.5879 20.2128 17.0212 18.7969 18.9025 18.7969C19.7983 18.7084 20.515 18.7084 21.3212 18.7084Z" fill="#D4D1E6"/>
<path d="M9.85417 1.68142C9.1375 0.884956 8.33125 1.06195 7.43542 1.41593C7.16667 0.619469 6.71875 0 5.82292 0C4.8375 0 4.3 0.619469 4.03125 1.50442C3.13542 1.06195 2.41875 0.973451 1.70208 1.59292C0.985417 2.30088 1.075 3.09734 1.52292 3.89381C0.716667 4.24779 0 4.69027 0 5.66372C0 6.63717 0.716667 7.07964 1.52292 7.43363C1.075 8.49557 1.075 9.11504 1.6125 9.73451C2.23958 10.354 2.86667 10.354 3.85208 9.9115C5.01667 11.9469 6.18125 11.9469 7.43542 9.9115C8.15208 10.354 8.86875 10.4425 9.58542 9.82301C10.3917 9.11504 10.2125 8.31858 9.76458 7.43363C10.6604 7.25664 11.2875 6.72566 11.2875 5.84071C11.3771 4.77876 10.6604 4.33628 9.76458 3.9823C10.3917 3.09734 10.4812 2.38938 9.85417 1.68142Z" fill="#D4D1E6"/>
<path d="M5.73385 13.1855C6.36094 13.1855 6.89844 13.1855 7.52552 13.1855C8.86927 13.1855 9.94427 14.2475 9.94427 15.4864C9.94427 16.6369 9.94427 17.6988 9.94427 18.8493C9.94427 19.0263 9.85469 19.1148 9.7651 19.1148C8.24219 19.8227 6.62969 20.0882 4.9276 19.9112C3.8526 19.8227 2.7776 19.5572 1.7026 19.1148C1.52344 19.0263 1.52344 18.9378 1.52344 18.7608C1.52344 17.6988 1.52344 16.6369 1.52344 15.5749C1.52344 14.159 2.59844 13.1855 3.94219 13.1855C4.56927 13.1855 5.10677 13.1855 5.73385 13.1855Z" fill="#D4D1E6"/>
<path d="M41.3876 2.56679C40.671 1.77033 39.8647 1.94732 38.9689 2.3013C38.7001 1.41634 38.2522 0.796875 37.3564 0.796875C36.371 0.796875 35.8335 1.41634 35.5647 2.3013C34.7585 1.77033 33.9522 1.77033 33.3251 2.3898C32.6085 3.00926 32.6085 3.89422 33.146 4.69068C32.3397 4.95617 31.623 5.39864 31.623 6.3721C31.623 7.34555 32.3397 7.78803 33.146 8.14201C32.698 9.20395 32.698 9.82342 33.2355 10.4429C33.8626 11.0624 34.4897 11.0624 35.4751 10.6199C36.6397 12.6553 37.8043 12.6553 39.0585 10.6199C39.7751 11.0624 40.4918 11.1509 41.2085 10.5314C42.0147 9.82342 41.8355 9.02696 41.3876 8.14201C42.2835 7.96502 42.9105 7.43404 42.9105 6.54909C43.0001 5.48714 42.2835 5.04466 41.3876 4.69068C41.9251 3.89422 42.0147 3.18626 41.3876 2.56679Z" fill="#D4D1E6"/>
<path d="M37.2671 13.9824C37.8941 13.9824 38.4316 13.9824 39.0587 13.9824C40.4025 13.9824 41.4775 15.0444 41.4775 16.2833C41.4775 17.4337 41.4775 18.4957 41.4775 19.6461C41.4775 19.8231 41.3879 19.9116 41.2983 19.9116C39.7754 20.6196 38.1629 20.8851 36.4608 20.7081C35.3858 20.6196 34.3108 20.3541 33.2358 19.9116C33.0566 19.8231 33.0566 19.7346 33.0566 19.5576C33.0566 18.4957 33.0566 17.4337 33.0566 16.3718C33.0566 14.9559 34.1316 13.9824 35.4754 13.9824C36.1025 13.9824 36.7296 13.9824 37.2671 13.9824Z" fill="#D4D1E6"/>
</svg>
