<svg width="34" height="36" viewBox="0 0 34 36" fill="none" xmlns="http://www.w3.org/2000/svg">
<path d="M16.861 4.044C17.245 4.044 17.597 4.13733 17.917 4.324C18.2423 4.50533 18.4983 4.76933 18.685 5.116C18.877 5.45733 18.973 5.85467 18.973 6.308C18.973 6.76133 18.877 7.16133 18.685 7.508C18.4983 7.85467 18.2423 8.12133 17.917 8.308C17.597 8.48933 17.245 8.58 16.861 8.58C16.3223 8.58 15.9223 8.43333 15.661 8.14V8.5H13.941V2.564H15.749V4.42C16.005 4.16933 16.3757 4.044 16.861 4.044ZM16.429 7.172C16.637 7.172 16.8077 7.09733 16.941 6.948C17.0743 6.79333 17.141 6.58 17.141 6.308C17.141 6.036 17.0743 5.82533 16.941 5.676C16.8077 5.52667 16.637 5.452 16.429 5.452C16.221 5.452 16.0503 5.52667 15.917 5.676C15.7837 5.82533 15.717 6.036 15.717 6.308C15.717 6.58 15.7837 6.79333 15.917 6.948C16.0503 7.09733 16.221 7.172 16.429 7.172ZM22.0146 7.244C22.2066 7.244 22.3666 7.22 22.4946 7.172C22.6279 7.124 22.7719 7.04133 22.9266 6.924L23.8706 7.876C23.4332 8.34533 22.7959 8.58 21.9586 8.58C21.4306 8.58 20.9666 8.484 20.5666 8.292C20.1666 8.09467 19.8572 7.82267 19.6386 7.476C19.4199 7.12933 19.3106 6.74 19.3106 6.308C19.3106 5.87067 19.4199 5.48133 19.6386 5.14C19.8572 4.79333 20.1559 4.524 20.5346 4.332C20.9186 4.14 21.3479 4.044 21.8226 4.044C22.2546 4.044 22.6519 4.132 23.0146 4.308C23.3772 4.47867 23.6652 4.73467 23.8786 5.076C24.0919 5.412 24.1986 5.81467 24.1986 6.284L21.2066 6.86C21.3399 7.116 21.6092 7.244 22.0146 7.244ZM21.8306 5.276C21.6226 5.276 21.4519 5.33733 21.3186 5.46C21.1906 5.58267 21.1132 5.764 21.0866 6.004L22.4866 5.732C22.4386 5.59333 22.3559 5.484 22.2386 5.404C22.1266 5.31867 21.9906 5.276 21.8306 5.276ZM27.7771 8.348C27.5051 8.50267 27.1345 8.58 26.6651 8.58C26.0518 8.58 25.5798 8.43333 25.2491 8.14C24.9185 7.84133 24.7531 7.396 24.7531 6.804V3.14H26.5611V4.364H27.4571V5.684H26.5611V6.788C26.5611 6.92133 26.5958 7.02533 26.6651 7.1C26.7345 7.17467 26.8251 7.212 26.9371 7.212C27.0918 7.212 27.2278 7.172 27.3451 7.092L27.7771 8.348ZM32.9129 4.124V8.5H31.1929V8.14C30.9316 8.43333 30.5316 8.58 29.9929 8.58C29.6089 8.58 29.2542 8.48933 28.9289 8.308C28.6089 8.12133 28.3529 7.85467 28.1609 7.508C27.9742 7.16133 27.8809 6.76133 27.8809 6.308C27.8809 5.85467 27.9742 5.45733 28.1609 5.116C28.3529 4.76933 28.6089 4.50533 28.9289 4.324C29.2542 4.13733 29.6089 4.044 29.9929 4.044C30.4782 4.044 30.8489 4.16933 31.1049 4.42V4.124H32.9129ZM30.4249 7.172C30.6329 7.172 30.8036 7.09733 30.9369 6.948C31.0702 6.79333 31.1369 6.58 31.1369 6.308C31.1369 6.036 31.0702 5.82533 30.9369 5.676C30.8036 5.52667 30.6329 5.452 30.4249 5.452C30.2169 5.452 30.0462 5.52667 29.9129 5.676C29.7796 5.82533 29.7129 6.036 29.7129 6.308C29.7129 6.58 29.7796 6.79333 29.9129 6.948C30.0462 7.09733 30.2169 7.172 30.4249 7.172Z" fill="#D5D1ED"/>
<path d="M8.88245 25.276H7.34645V29.5H1.68245V12.7H9.77045C11.3225 12.7 12.6745 12.956 13.8265 13.468C14.9785 13.98 15.8665 14.716 16.4905 15.676C17.1145 16.636 17.4265 17.756 17.4265 19.036C17.4265 20.236 17.1545 21.284 16.6105 22.18C16.0665 23.076 15.2825 23.788 14.2585 24.316L17.7865 29.5H11.7385L8.88245 25.276ZM11.7145 19.036C11.7145 18.412 11.5225 17.932 11.1385 17.596C10.7545 17.244 10.1785 17.068 9.41045 17.068H7.34645V21.004H9.41045C10.1785 21.004 10.7545 20.836 11.1385 20.5C11.5225 20.148 11.7145 19.66 11.7145 19.036ZM27.1973 29.5L25.3973 26.692L23.3813 29.5H17.5013L22.4693 22.996L17.6453 16.372H23.7653L25.6373 19.156L27.6053 16.372H33.2933L28.4693 22.756L33.4133 29.5H27.1973Z" fill="#D5D1ED"/>
</svg>
