<svg width="81" height="39" viewBox="0 0 81 39" fill="none" xmlns="http://www.w3.org/2000/svg">
<path d="M11.424 25.368H9.376V31H1.824V8.6H12.608C14.6773 8.6 16.48 8.94133 18.016 9.624C19.552 10.3067 20.736 11.288 21.568 12.568C22.4 13.848 22.816 15.3413 22.816 17.048C22.816 18.648 22.4533 20.0453 21.728 21.24C21.0027 22.4347 19.9573 23.384 18.592 24.088L23.296 31H15.232L11.424 25.368ZM15.2 17.048C15.2 16.216 14.944 15.576 14.432 15.128C13.92 14.6587 13.152 14.424 12.128 14.424H9.376V19.672H12.128C13.152 19.672 13.92 19.448 14.432 19C14.944 18.5307 15.2 17.88 15.2 17.048ZM35.8438 31L33.4438 27.256L30.7558 31H22.9158L29.5398 22.328L23.1078 13.496H31.2678L33.7638 17.208L36.3878 13.496H43.9718L37.5398 22.008L44.1318 31H35.8438Z" fill="#D5D1ED"/>
<path d="M65.8008 22.376C65.8008 22.6743 65.6863 22.9604 65.4826 23.1714C65.2789 23.3823 65.0027 23.5008 64.7146 23.5008H62.4897L59.1686 30.3785C59.0783 30.5653 58.9397 30.7223 58.7682 30.8321C58.5966 30.9418 58.399 31 58.1973 31H58.143C57.9324 30.989 57.7294 30.9146 57.5589 30.7861C57.3883 30.6576 57.2576 30.4805 57.1826 30.2763L52.3137 17.0469L49.772 22.8447C49.6853 23.0406 49.546 23.2066 49.3708 23.323C49.1955 23.4393 48.9917 23.501 48.7835 23.5008H45.887C45.5989 23.5008 45.3226 23.3823 45.1189 23.1714C44.9152 22.9604 44.8008 22.6743 44.8008 22.376C44.8008 22.0776 44.9152 21.7915 45.1189 21.5806C45.3226 21.3696 45.5989 21.2511 45.887 21.2511H48.0838L51.4158 13.6582C51.5046 13.4564 51.6491 13.2863 51.8311 13.1693C52.0131 13.0522 52.2244 12.9935 52.4384 13.0006C52.6525 13.0076 52.8598 13.08 53.0343 13.2087C53.2087 13.3374 53.3426 13.5166 53.4189 13.7238L58.3322 27.0779L60.8468 21.8698C60.9374 21.6836 61.0762 21.5271 61.2477 21.4178C61.4192 21.3086 61.6167 21.2509 61.818 21.2511H64.7146C65.0027 21.2511 65.2789 21.3696 65.4826 21.5806C65.6863 21.7915 65.8008 22.0776 65.8008 22.376Z" fill="#D5D1ED"/>
<path d="M64.4333 9.544C64.8173 9.544 65.1693 9.63733 65.4893 9.824C65.8146 10.0053 66.0706 10.2693 66.2573 10.616C66.4493 10.9573 66.5453 11.3547 66.5453 11.808C66.5453 12.2613 66.4493 12.6613 66.2573 13.008C66.0706 13.3547 65.8146 13.6213 65.4893 13.808C65.1693 13.9893 64.8173 14.08 64.4333 14.08C63.8946 14.08 63.4946 13.9333 63.2333 13.64V14H61.5133V8.064H63.3213V9.92C63.5773 9.66933 63.9479 9.544 64.4333 9.544ZM64.0013 12.672C64.2093 12.672 64.3799 12.5973 64.5133 12.448C64.6466 12.2933 64.7133 12.08 64.7133 11.808C64.7133 11.536 64.6466 11.3253 64.5133 11.176C64.3799 11.0267 64.2093 10.952 64.0013 10.952C63.7933 10.952 63.6226 11.0267 63.4893 11.176C63.3559 11.3253 63.2893 11.536 63.2893 11.808C63.2893 12.08 63.3559 12.2933 63.4893 12.448C63.6226 12.5973 63.7933 12.672 64.0013 12.672ZM69.5868 12.744C69.7788 12.744 69.9388 12.72 70.0668 12.672C70.2002 12.624 70.3442 12.5413 70.4988 12.424L71.4428 13.376C71.0055 13.8453 70.3682 14.08 69.5308 14.08C69.0028 14.08 68.5388 13.984 68.1388 13.792C67.7388 13.5947 67.4295 13.3227 67.2108 12.976C66.9922 12.6293 66.8828 12.24 66.8828 11.808C66.8828 11.3707 66.9922 10.9813 67.2108 10.64C67.4295 10.2933 67.7282 10.024 68.1068 9.832C68.4908 9.64 68.9202 9.544 69.3948 9.544C69.8268 9.544 70.2242 9.632 70.5868 9.808C70.9495 9.97867 71.2375 10.2347 71.4508 10.576C71.6642 10.912 71.7708 11.3147 71.7708 11.784L68.7788 12.36C68.9122 12.616 69.1815 12.744 69.5868 12.744ZM69.4028 10.776C69.1948 10.776 69.0242 10.8373 68.8908 10.96C68.7628 11.0827 68.6855 11.264 68.6588 11.504L70.0588 11.232C70.0108 11.0933 69.9282 10.984 69.8108 10.904C69.6988 10.8187 69.5628 10.776 69.4028 10.776ZM75.3494 13.848C75.0774 14.0027 74.7067 14.08 74.2374 14.08C73.6241 14.08 73.1521 13.9333 72.8214 13.64C72.4907 13.3413 72.3254 12.896 72.3254 12.304V8.64H74.1334V9.864H75.0294V11.184H74.1334V12.288C74.1334 12.4213 74.1681 12.5253 74.2374 12.6C74.3067 12.6747 74.3974 12.712 74.5094 12.712C74.6641 12.712 74.8001 12.672 74.9174 12.592L75.3494 13.848ZM80.4852 9.624V14H78.7652V13.64C78.5038 13.9333 78.1038 14.08 77.5652 14.08C77.1812 14.08 76.8265 13.9893 76.5012 13.808C76.1812 13.6213 75.9252 13.3547 75.7332 13.008C75.5465 12.6613 75.4532 12.2613 75.4532 11.808C75.4532 11.3547 75.5465 10.9573 75.7332 10.616C75.9252 10.2693 76.1812 10.0053 76.5012 9.824C76.8265 9.63733 77.1812 9.544 77.5652 9.544C78.0505 9.544 78.4212 9.66933 78.6772 9.92V9.624H80.4852ZM77.9972 12.672C78.2052 12.672 78.3758 12.5973 78.5092 12.448C78.6425 12.2933 78.7092 12.08 78.7092 11.808C78.7092 11.536 78.6425 11.3253 78.5092 11.176C78.3758 11.0267 78.2052 10.952 77.9972 10.952C77.7892 10.952 77.6185 11.0267 77.4852 11.176C77.3518 11.3253 77.2852 11.536 77.2852 11.808C77.2852 12.08 77.3518 12.2933 77.4852 12.448C77.6185 12.5973 77.7892 12.672 77.9972 12.672Z" fill="#D5D1ED"/>
</svg>
