<svg width="33" height="38" viewBox="0 0 33 38" fill="none" xmlns="http://www.w3.org/2000/svg">
<g clip-path="url(#clip0_4958_26602)">
<path d="M26.7 6C24.9 4 22.8 4.3 20.6 5.4C19.9 3.2 18.7 1.6 16.4 1.5C13.8 1.5 12.5 3 11.7 5.5C9.6 4.2 7.7 4.1 5.9 5.7C4 7.4 4.2 9.5 5.4 11.7C3.2 12.5 1.5 13.6 1.5 16.1C1.5 18.7 3.3 19.8 5.4 20.6C4.2 23.2 4.3 25 5.7 26.5C7.2 28 8.9 28.1 11.5 27C14.5 32.3 17.4 32.3 20.7 26.9C22.6 28.1 24.5 28.2 26.2 26.7C28.2 24.9 27.9 22.8 26.8 20.6C29.1 20.1 30.6 18.8 30.7 16.5C30.9 13.8 29.1 12.6 26.7 11.7C28.1 9.6 28.2 7.7 26.7 6Z" stroke="#D6D1E8" stroke-width="4" stroke-miterlimit="10"/>
<path d="M23.7 27.5C23.9 28 24.1 28.6 24.3 29.1C25 30.8 25.7 32.4 26.4 34.1C26.6 34.5 26.7 34.9 26.6 35.3C26.6 36 26.2 36.6 25.7 37C25.1 37.5 24.3 37.6 23.5 37.4C22.8 37.2 22.3 36.8 21.9 36.2C21.8 36.1 21.8 36 21.8 35.9C21.2 34.4 20.6 33 19.9 31.5C19.8 31.2 19.7 31 19.6 30.7C19.4 30.2 19.2 29.8 19 29.3" fill="#D6D1E8"/>
</g>
<defs>
<clipPath id="clip0_4958_26602">
<rect width="32.2" height="37.5" fill="white"/>
</clipPath>
</defs>
</svg>
