<svg width="31" height="30" viewBox="0 0 31 30" fill="none" xmlns="http://www.w3.org/2000/svg">
<g clip-path="url(#clip0_4891_30966)">
<path d="M17.243 18.311C19.1548 17.4724 19.9912 15.4359 19.2145 13.5191C18.4378 11.6024 16.2871 10.7039 14.3753 11.5425C12.4037 12.381 11.627 14.4775 12.4635 16.4541C13.2999 18.3709 15.3312 19.1496 17.243 18.311ZM15.7494 5.01354C17.1832 3.33638 18.7963 2.4978 20.7678 3.39628C22.6199 4.23486 22.9784 5.91201 22.8589 7.88866C24.9499 7.70896 26.802 8.18815 27.5189 10.3445C28.1761 12.2013 27.4591 13.7587 25.7266 14.8968C27.2799 16.3942 28.2956 17.9516 27.2799 20.048C26.3838 21.845 24.7707 22.3242 22.7991 22.0247C22.9784 24.181 22.5004 26.0379 20.3496 26.7567C18.4378 27.4155 16.9442 26.6968 15.8688 25.0795C11.4478 28.314 9.17754 27.3556 8.52036 22.0846C6.01112 22.1445 4.69676 21.4856 4.03957 19.8084C3.38239 18.1313 3.86034 16.7536 5.7124 15.0166C4.21881 13.6988 3.20316 12.2013 4.09932 10.1648C4.93573 8.18815 6.72805 7.82876 8.69959 7.88866C8.46062 5.73232 8.99831 4.05516 11.0893 3.27648C13.0011 2.5577 14.4947 3.27648 15.7494 5.01354Z" stroke="#AD5DA4" stroke-width="5.041" stroke-miterlimit="10"/>
<path d="M27.5201 10.3641C26.7473 8.21025 24.9638 7.73163 22.8237 7.91111C23.0021 5.93679 22.6454 4.20177 20.8025 3.36418C18.7813 2.46676 17.1762 3.30435 15.7494 5.03937C14.501 3.30435 13.0148 2.58642 11.1125 3.24453C9.03181 4.02229 8.49678 5.7573 8.73457 7.85128C6.71334 7.79146 4.98935 8.15043 4.09764 10.1248C3.20592 12.2187 4.27598 13.7144 5.70273 15.0307C3.85984 16.7657 3.38426 18.1417 4.03819 19.8169C4.75156 21.5519 5.99997 22.21 8.55622 22.0904C9.21015 27.4151 11.4692 28.3125 15.9278 25.0818C16.9978 26.6971 18.5435 27.4151 20.3863 26.7569C22.5859 25.9792 23.0021 24.1843 22.8237 21.9707C24.8449 22.2698 26.45 21.7912 27.3417 19.9964C28.3524 17.9024 27.3417 16.287 25.7367 14.8512C27.4606 13.7743 28.174 12.2187 27.5201 10.3641Z" fill="#564A8D"/>
<path d="M20.0316 10.5996V14.9996C20.0316 15.4663 19.965 15.8663 19.8316 16.0663C19.6983 16.2663 19.4316 16.3996 19.165 16.3996C18.565 16.3996 18.2316 15.9329 18.2316 14.9996V10.5996H14.765V14.9996C14.765 15.9329 14.4316 16.3996 13.8316 16.3996C13.2316 16.3996 12.8983 15.9329 12.8983 14.9996V10.5996H9.43164V15.1996C9.43164 16.4663 9.83164 17.3996 10.565 18.0663C11.2983 18.7329 12.365 19.0663 13.6983 19.0663C14.2983 19.0663 14.765 18.9996 15.2316 18.8663C15.6983 18.7329 16.0983 18.4663 16.4316 18.1329C16.765 18.4663 17.165 18.7329 17.6316 18.8663C18.0983 18.9996 18.6316 19.0663 19.165 19.0663C20.4983 19.0663 21.565 18.7329 22.2983 18.0663C23.0316 17.3996 23.4316 16.3996 23.4316 15.1996V10.5996H20.0316Z" fill="#D6D1E8"/>
</g>
<defs>
<clipPath id="clip0_4891_30966">
<rect width="30.0667" height="30" fill="white" transform="translate(0.765625)"/>
</clipPath>
</defs>
</svg>
