<svg width="79" height="79" viewBox="0 0 79 79" fill="none" xmlns="http://www.w3.org/2000/svg">
<path d="M13.8237 13.0119L13.2497 13.2497L13.0119 13.8237L2.61418 38.926L2.37641 39.5L2.61418 40.074L13.0119 65.1763L13.2497 65.7503L13.8237 65.9881L38.926 76.3858L39.5 76.6236L40.074 76.3858L65.1763 65.9881L65.7503 65.7503L65.9881 65.1763L76.3858 40.074L76.6236 39.5L76.3858 38.926L65.9881 13.8237L65.7503 13.2497L65.1763 13.0119L40.074 2.61418L39.5 2.37641L38.926 2.61418L13.8237 13.0119Z" fill="#FFBD3D" stroke="#FFF45C" stroke-width="3"/>
<path fill-rule="evenodd" clip-rule="evenodd" d="M40.4888 21.6676C40.49 21.8759 40.4919 22.0841 40.4938 22.2924V24.3178C40.4938 24.3261 40.4943 24.3346 40.4948 24.3431C40.4968 24.3777 40.4988 24.4133 40.4689 24.4401C40.4378 24.4678 40.3444 24.4984 40.2697 24.4984C40.1234 24.5012 39.9772 24.4998 39.8309 24.4984H39.8309C39.6846 24.497 39.5384 24.4956 39.3921 24.4984C39.1743 24.504 39.0062 24.4401 39 24.3289C39 24.2525 39.0031 24.1761 39.0062 24.0997C39.0093 24.0233 39.0124 23.9469 39.0124 23.8705V21.671L34.5284 21.671C34.5077 21.671 34.4863 21.6716 34.4649 21.6721C34.3781 21.6744 34.2886 21.6767 34.2215 21.6432C34.1518 21.6084 34.0751 21.5039 34.0751 21.4204C34.0681 21.2568 34.0716 21.0931 34.0751 20.9295C34.0786 20.7659 34.082 20.6023 34.0751 20.4386C34.0611 20.195 34.2215 20.007 34.5005 20C34.6923 20 34.8841 20.0035 35.0759 20.007C35.2677 20.0104 35.4595 20.0139 35.6513 20.0139L39.4581 20.0139C39.5481 20.0035 39.6525 19.9989 39.7718 20.0002C39.8593 20.0002 39.9468 20.007 40.0342 20.0139L44.5367 20.0139C45.1156 20.0139 45.3806 20.2785 45.3667 20.8634C45.3667 20.9636 45.3488 21.0639 45.331 21.1642C45.3265 21.1892 45.322 21.2143 45.3178 21.2394C45.269 21.5736 45.0807 21.678 44.739 21.678C43.3222 21.6607 41.9055 21.6625 40.4888 21.6676ZM46.6413 31.1637C46.1278 31.1637 45.6138 31.1686 45.0995 31.1735C43.8772 31.1852 42.6535 31.1968 41.4332 31.1428C40.2286 31.0917 39.0297 30.9238 37.8367 30.7566L37.8367 30.7566L37.5063 30.7104C35.9606 30.4942 34.4218 30.2361 32.8901 29.9711C32.4676 29.8964 32.0507 29.7773 31.6343 29.6584L31.4836 29.6154C31.4349 29.6015 31.3652 29.4341 31.3931 29.3853C31.4766 29.2248 31.5811 29.0714 31.7064 28.9389C32.0406 28.5762 32.3748 28.2205 32.7299 27.8788L32.7763 27.8336C32.9908 27.6249 33.2073 27.4142 33.454 27.2581L33.5976 27.1656L33.5976 27.1656L33.5977 27.1656C34.3089 26.7077 35.0224 26.2483 35.7726 25.8562C36.636 25.4098 37.5898 25.2146 38.5507 25.0541C39.6717 24.8658 40.7579 25.0193 41.851 25.2215C43.1112 25.4587 44.2461 26.0096 45.2836 26.7141C45.8988 27.1357 46.4514 27.6538 47.0027 28.1708L47.0029 28.171L47.003 28.1711L47.0031 28.1712C47.1629 28.321 47.3226 28.4708 47.4838 28.6181C47.8041 28.911 48.1034 29.2248 48.375 29.5596C48.5995 29.8421 48.7906 30.1437 48.9839 30.4486L48.9839 30.4486C49.0244 30.5125 49.065 30.5766 49.1061 30.6407C49.2453 30.8708 49.1409 30.9894 48.8972 31.0173C48.5248 31.0521 48.1508 31.0852 47.7767 31.1184L47.7762 31.1184C47.402 31.1515 47.0277 31.1847 46.6552 31.2195C46.6513 31.2156 46.6496 31.2051 46.6476 31.1929C46.6461 31.1834 46.6443 31.1729 46.6413 31.1637ZM36.8453 36.2919C37.3883 36.3176 37.9297 36.3433 38.4689 36.3736C38.9015 36.35 39.3315 36.3231 39.759 36.2963L39.7591 36.2963L39.7592 36.2963L39.7593 36.2963L39.7595 36.2963C40.7218 36.2361 41.6717 36.1767 42.6117 36.1574C43.881 36.1271 45.1248 35.907 46.3668 35.6873L46.3668 35.6873L46.3668 35.6873L46.3668 35.6873L46.3669 35.6873L46.3669 35.6873C46.8417 35.6033 47.3163 35.5193 47.7919 35.446C48.4877 35.3388 49.1733 35.145 49.8575 34.9517C49.9743 34.9187 50.0911 34.8857 50.2079 34.8532C50.9599 34.637 51.0295 34.5184 50.8624 33.9395C50.8428 33.8707 50.8059 33.8089 50.7688 33.7466C50.7532 33.7205 50.7376 33.6943 50.7232 33.6675C50.6801 33.5792 50.6347 33.4921 50.5893 33.4052C50.4805 33.1968 50.3721 32.9893 50.2984 32.7678C50.2288 32.5656 50.1522 32.5307 49.9573 32.5446C49.5212 32.5744 49.0851 32.6076 48.6489 32.6408C47.5528 32.7242 46.4556 32.8076 45.355 32.8376C43.9833 32.8724 42.6047 32.8097 41.2261 32.7469C40.1539 32.6981 39.0747 32.6074 38.0094 32.4819C36.951 32.3563 35.9066 32.168 34.8622 31.9797C33.9322 31.8153 33.0022 31.6331 32.0722 31.4509C31.7002 31.3781 31.3282 31.3052 30.9562 31.2334C30.8448 31.2125 30.7264 31.1707 30.6359 31.1009C30.3853 30.9056 30.2042 30.9963 30.065 31.2265L30.0178 31.3058C29.8388 31.6062 29.6621 31.9027 29.5149 32.2168C29.132 33.0538 28.756 33.8907 28.4079 34.7416C28.2477 35.1391 28.2825 35.2089 28.7212 35.2926C29.0736 35.3607 29.4256 35.4329 29.7775 35.5051L29.7777 35.5052C30.7956 35.7141 31.8136 35.923 32.8431 36.0318C34.1777 36.1655 35.5159 36.2289 36.8451 36.2919H36.8451H36.8451H36.8451L36.8453 36.2919ZM32.6559 42.9471L33.3502 42.9784L33.8143 42.9295L33.8144 42.9295L33.8147 42.9295C35.1056 42.7935 36.3605 42.6614 37.6044 42.5181C39.335 42.3353 41.0262 41.9421 42.7162 41.5491L42.7163 41.5491L42.8681 41.5138C43.5524 41.3556 44.2168 41.1137 44.8794 40.8725C45.0932 40.7946 45.3069 40.7169 45.5209 40.642C46.2102 40.4049 46.8856 40.1468 47.561 39.8818C47.8529 39.7648 48.142 39.6362 48.4319 39.5072C48.5914 39.4363 48.7511 39.3652 48.9117 39.2959C48.9863 39.2622 49.0626 39.2309 49.1391 39.1996C49.2839 39.1402 49.4295 39.0806 49.5662 39.003C50.158 38.6543 50.7429 38.2986 51.3208 37.9289C51.356 37.9068 51.3931 37.8852 51.4307 37.8633C51.6532 37.7338 51.8926 37.5945 51.8569 37.2664C51.8415 37.0913 51.7919 36.9199 51.7418 36.7468L51.7417 36.7467L51.7417 36.7465C51.724 36.6853 51.7062 36.6239 51.6898 36.5619C51.5645 36.0877 51.467 36.0528 51.0075 36.2272C50.9202 36.2596 50.833 36.2928 50.7456 36.3259C50.3451 36.478 49.943 36.6307 49.5314 36.7224C48.3129 36.9804 47.0875 37.2315 45.8551 37.4268C44.6297 37.6221 43.3834 37.7964 42.144 37.8731C41.2488 37.9314 40.3479 37.9378 39.4468 37.9442H39.4468H39.4467H39.4467H39.4467H39.4467H39.4466C38.946 37.9478 38.4453 37.9514 37.9455 37.9638C35.7662 38.0196 33.6008 37.7964 31.4494 37.4547C30.745 37.3465 30.0459 37.1979 29.3456 37.0491L29.3456 37.0491L29.3455 37.0491L29.3455 37.0491L29.3455 37.0491L29.3454 37.0491L29.3454 37.0491L29.3454 37.0491L29.3453 37.0491L29.3453 37.0491L29.3453 37.0491L29.3453 37.0491L29.3452 37.0491C28.9173 36.9581 28.489 36.8671 28.0586 36.7851C27.9611 36.7712 27.7592 36.8549 27.7383 36.9316C27.7048 37.0517 27.6703 37.1716 27.6358 37.2914L27.6358 37.2915C27.4842 37.8186 27.3329 38.3446 27.2648 38.8844C27.1459 39.8196 27.0879 40.7598 27.0302 41.6964L27.0302 41.6964C27.0203 41.8565 27.0104 42.0165 27.0003 42.1764C26.9933 42.2949 27.1325 42.4832 27.2439 42.5251C27.5364 42.6297 27.8497 42.7204 28.1561 42.7343C29.6665 42.8127 31.1769 42.8806 32.6558 42.9471H32.6559ZM52.3729 40.2803L52.3728 40.2799L52.3728 40.2795L52.3727 40.279C52.3465 39.9821 52.3189 39.671 52.2914 39.3242C52.154 39.4016 52.0431 39.4605 51.9456 39.5122C51.885 39.5444 51.8295 39.5738 51.7761 39.6032C51.6584 39.6769 51.5419 39.7532 51.4254 39.8295L51.4254 39.8295L51.4253 39.8295L51.4253 39.8295L51.4253 39.8295L51.4252 39.8296L51.4252 39.8296C51.1559 40.0059 50.8861 40.1825 50.5995 40.3285C50.0146 40.6284 49.4158 40.8935 48.817 41.1585C48.3862 41.3527 47.9513 41.5343 47.5154 41.7164L47.5151 41.7165C47.3875 41.7698 47.2598 41.8232 47.1321 41.8769C47.0508 41.9094 46.9704 41.9443 46.89 41.9791L46.8899 41.9791C46.729 42.0489 46.5681 42.1186 46.401 42.1698L46.4008 42.1698C45.5166 42.4279 44.6324 42.6859 43.7412 42.923C42.7595 43.188 41.7778 43.4461 40.7891 43.6623C39.9118 43.8506 39.0206 44.011 38.1293 44.1156L37.8363 44.1495L37.8362 44.1495C36.3604 44.32 34.8841 44.4905 33.4017 44.569C32.2111 44.6318 31.0135 44.569 29.8229 44.4992C29.3183 44.4733 28.8163 44.3992 28.3137 44.325L28.3136 44.325L28.3136 44.325L28.3135 44.325L28.3135 44.325L28.3134 44.325L28.3134 44.325C28.0047 44.2794 27.6959 44.2338 27.386 44.1993C27.2885 44.1854 27.0727 44.3667 27.0866 44.4086C27.1018 44.4556 27.1164 44.5048 27.1311 44.5545L27.1311 44.5546C27.1972 44.7778 27.2671 45.0142 27.4208 45.1339C27.762 45.4059 28.1728 45.5942 28.5766 45.7756C28.8722 45.9122 29.176 46.0344 29.4803 46.1568L29.4803 46.1568C29.735 46.2592 29.99 46.3618 30.2407 46.473C31.4591 47.01 32.7124 47.4355 34.0005 47.7493C34.2275 47.8068 34.4518 47.8714 34.6754 47.9359L34.6755 47.9359L34.6755 47.9359L34.6756 47.9359L34.6757 47.9359L34.6757 47.9359L34.6757 47.9359C35.076 48.0513 35.4739 48.1659 35.8804 48.2375C37.0223 48.4328 38.1642 48.6141 39.313 48.7257C41.6176 48.9489 43.9223 49.0256 46.213 48.649C47.327 48.4677 48.4341 48.2445 49.5272 47.9586C50.1324 47.7993 50.7186 47.5757 51.3055 47.3519L51.3055 47.3519L51.3056 47.3519L51.3056 47.3519L51.3057 47.3519L51.3057 47.3518L51.3058 47.3518C51.5156 47.2718 51.7254 47.1918 51.9363 47.1146C52.0268 47.0868 52.1173 46.9682 52.1382 46.8705C52.2078 46.5706 52.2635 46.2568 52.2983 45.9499C52.4933 44.29 52.5699 42.6231 52.4306 40.9493C52.4125 40.7282 52.393 40.5085 52.3729 40.2803ZM51.6955 49.0597C51.6384 49.2268 51.5848 49.3877 51.5327 49.5441L51.5327 49.5442L51.5326 49.5444C51.4194 49.8839 51.3133 50.2022 51.1942 50.5173C51.1524 50.622 51.0341 50.7126 50.9366 50.7684L50.9365 50.7685C50.4561 51.0544 49.9757 51.3403 49.4814 51.5914C48.9035 51.8843 48.3117 52.1563 47.7129 52.4004C47.323 52.5609 46.9052 52.6724 46.4944 52.7771C46.0926 52.8847 45.6907 52.9832 45.2889 53.0816C44.9875 53.1555 44.6861 53.2294 44.3847 53.3071C43.1245 53.6279 41.8433 53.7744 40.5413 53.8302C40.2821 53.8411 40.024 53.8617 39.766 53.8823H39.766H39.7659H39.7659H39.7658H39.7657C39.3656 53.9142 38.9661 53.946 38.5639 53.9418C37.9316 53.9361 37.2992 53.8883 36.6668 53.8406C36.5263 53.83 36.3858 53.8194 36.2454 53.8093C36.1106 53.7994 35.9756 53.7905 35.8405 53.7815L35.8404 53.7815L35.8403 53.7814L35.8402 53.7814L35.8401 53.7814C35.305 53.7458 34.7681 53.71 34.2401 53.621C33.3489 53.4745 32.4647 53.3071 31.5943 53.077C30.7936 52.8677 30.0068 52.5887 29.2409 52.2819C29.0321 52.1982 28.8371 51.9332 28.7466 51.71C28.4904 51.113 28.2698 50.5008 28.05 49.8907L28.05 49.8907C28.013 49.7879 27.9761 49.6853 27.9389 49.5828C27.9076 49.5003 27.8961 49.409 27.8846 49.3176C27.8756 49.2466 27.8667 49.1756 27.8484 49.1085C27.7753 48.8156 27.7022 48.5244 27.6291 48.2332L27.6291 48.2331L27.629 48.233L27.629 48.2329L27.629 48.2327L27.629 48.2327C27.5559 47.9417 27.4828 47.6507 27.4098 47.3579C27.3889 47.2812 27.375 47.2045 27.4237 47.0371C27.4635 47.0554 27.5036 47.0736 27.544 47.092L27.5441 47.092L27.5445 47.0922L27.5447 47.0923L27.545 47.0924C27.674 47.1511 27.805 47.2106 27.932 47.2742C28.0132 47.3161 28.0929 47.361 28.1726 47.406C28.3319 47.4959 28.4913 47.5858 28.663 47.6509C28.8085 47.7102 28.9539 47.7699 29.0994 47.8297C29.7411 48.0935 30.3846 48.358 31.0373 48.5854C31.8519 48.8714 32.6805 49.1155 33.5091 49.3387C34.2889 49.5479 35.0757 49.7432 35.8694 49.8757L36.0186 49.9006C37.2227 50.1019 38.4332 50.3042 39.6501 50.3779C41.1958 50.4755 42.7555 50.4825 44.3012 50.4406C45.3943 50.4127 46.4944 50.2802 47.5806 50.1268C48.244 50.0337 48.8947 49.8521 49.5389 49.6722L49.6346 49.6455C50.0483 49.5325 50.4524 49.3941 50.8557 49.2559C51.0496 49.1895 51.2434 49.1231 51.4379 49.0597C51.4717 49.0512 51.5082 49.053 51.5628 49.0558C51.598 49.0575 51.6409 49.0597 51.6955 49.0597ZM49.8778 53.6C49.9295 53.4977 49.981 53.3955 50.0346 53.2946L50.0287 53.2858L50.0202 53.2737C50.008 53.2562 49.9935 53.2353 49.9789 53.2109C49.943 53.2199 49.9072 53.2275 49.8715 53.2349C49.7965 53.2507 49.7225 53.2663 49.6517 53.2946C49.589 53.3225 49.5298 53.3574 49.4706 53.3923C49.4115 53.4271 49.3523 53.462 49.2896 53.4899C48.8858 53.6643 48.4819 53.8386 48.0711 53.9781C47.2983 54.2362 46.5185 54.4942 45.7317 54.6965C45.0772 54.8639 44.4018 54.9824 43.7265 55.0731C43.4037 55.1163 43.0809 55.1617 42.7581 55.2072L42.758 55.2072L42.7579 55.2072L42.7577 55.2072C41.6739 55.3597 40.5891 55.5124 39.5001 55.5822C37.481 55.7078 35.4827 55.4916 33.4914 55.1289C33.3267 55.0983 33.1618 55.069 32.9969 55.0398L32.9966 55.0397L32.9962 55.0397C32.1857 54.8959 31.377 54.7525 30.6019 54.4454C30.5269 54.4126 30.4393 54.4113 30.3306 54.4097H30.3304C30.2777 54.409 30.2199 54.4081 30.1562 54.4036C30.1903 54.4791 30.2175 54.5478 30.2424 54.6105C30.2888 54.7276 30.3271 54.824 30.386 54.9057C30.6436 55.2405 30.9082 55.5753 31.1867 55.8891C31.3135 56.0319 31.4387 56.1758 31.5639 56.3196C31.9888 56.8076 32.4123 57.294 32.8856 57.7304C33.554 58.3441 34.2712 58.9021 35.1067 59.2996C35.2302 59.3589 35.3525 59.4199 35.4745 59.4808L35.4746 59.4808C35.8408 59.6636 36.205 59.8453 36.5967 59.9761C37.467 60.2691 38.3374 60.5201 39.2634 60.4783C39.3007 60.4783 39.3365 60.4838 39.3723 60.4894L39.3723 60.4894C39.4167 60.4962 39.4608 60.5031 39.5071 60.4992C39.7377 60.4861 39.9703 60.4833 40.2028 60.4804H40.2029H40.2029C40.7147 60.4741 41.226 60.4678 41.7143 60.3527C42.3174 60.2145 42.8942 59.9748 43.4696 59.7357L43.4697 59.7357L43.4697 59.7357L43.4698 59.7356L43.4699 59.7356C43.6782 59.649 43.8864 59.5625 44.0955 59.4809C44.3392 59.3903 44.5898 59.2926 44.7987 59.1462C45.1618 58.8916 45.5095 58.6176 45.856 58.3445L45.8561 58.3444C45.9747 58.2509 46.0932 58.1576 46.2121 58.0651C46.3047 57.9926 46.3996 57.9217 46.4947 57.8508C46.7285 57.6763 46.9631 57.5012 47.166 57.298C47.4645 56.9989 47.7373 56.6778 48.0084 56.3587L48.0089 56.3581C48.1107 56.2382 48.2122 56.1187 48.3148 56.0007C48.349 55.9616 48.3797 55.9157 48.4118 55.8677C48.4255 55.8472 48.4395 55.8263 48.4541 55.8054C48.5816 55.6189 48.7119 55.4334 48.8423 55.2477C49.0679 54.9265 49.2937 54.6051 49.5055 54.278C49.6452 54.0608 49.7616 53.8302 49.8778 53.6Z" fill="white"/>
</svg>
