<svg width="83" height="83" viewBox="0 0 83 83" fill="none" xmlns="http://www.w3.org/2000/svg">
<path d="M15.441 14.088L14.4843 14.4843L14.088 15.441L3.6903 40.5433L3.29402 41.5L3.6903 42.4567L14.088 67.5589L14.4843 68.5157L15.441 68.9119L40.5433 79.3097L41.5 79.706L42.4567 79.3097L67.559 68.9119L68.5157 68.5157L68.9119 67.559L79.3097 42.4567L79.706 41.5L79.3097 40.5433L68.9119 15.441L68.5157 14.4843L67.5589 14.088L42.4567 3.6903L41.5 3.29402L40.5433 3.6903L15.441 14.088Z" fill="#FFBD3D" stroke="#FFF45C" stroke-width="5"/>
<path fill-rule="evenodd" clip-rule="evenodd" d="M49.5696 41.8242V43.0903C49.2743 43.0343 48.9837 42.9813 48.6965 42.9289C47.8708 42.7782 47.0745 42.6329 46.2831 42.4399C44.1586 41.9196 42.1901 41.0698 40.5078 39.6216C39.9788 39.162 39.6927 38.6938 39.8921 37.9827C39.9225 37.8552 39.9231 37.7234 39.9237 37.5904C39.924 37.5334 39.9242 37.4762 39.9268 37.419C39.9596 36.8208 39.9858 36.2211 40.0121 35.621V35.621C40.0759 34.1595 40.1399 32.6956 40.2997 31.2449C40.5512 28.9642 41.1755 26.7963 42.5977 24.8973C43.6469 23.4838 44.8696 22.3392 46.5086 21.6628C46.63 21.6107 46.7514 21.4286 46.76 21.2986C46.786 20.9734 46.7828 20.6482 46.7795 20.323C46.7785 20.2146 46.7774 20.1062 46.7774 19.9978C46.7774 19.3995 47.1069 19.0093 47.6185 19.0006C48.1301 18.9919 48.477 19.3821 48.4857 19.9805C48.4914 20.2257 48.4896 20.4672 48.4877 20.7221V20.7222V20.7222C48.4867 20.855 48.4857 20.9913 48.4857 21.1338C49.7864 20.9257 51.0178 21.0644 52.2665 21.446C52.2665 21.2812 52.265 21.1217 52.2636 20.9658C52.26 20.5883 52.2567 20.2324 52.2752 19.8764C52.3012 19.3475 52.6914 18.9833 53.1597 19.0006C53.6453 19.0179 53.9748 19.3908 53.9835 19.9198C53.9847 20.0091 53.9861 20.0984 53.9875 20.1877L53.9875 20.1878L53.9875 20.1879C53.996 20.7227 54.0045 21.2566 53.9748 21.7842C53.9574 22.1224 54.0788 22.2958 54.3477 22.4779C59.1951 25.7037 59.2558 32.9705 54.4691 36.2917C53.203 37.1676 51.8156 37.6618 50.2894 37.8179C50.1593 37.8353 49.9512 37.896 49.9338 37.974C49.8564 38.3468 49.8076 38.7254 49.7688 39.0263L49.7688 39.0263L49.7688 39.0264C49.7597 39.0964 49.7512 39.1622 49.7431 39.2227C49.9472 39.3331 50.1461 39.4338 50.3386 39.5313C50.7512 39.7401 51.1344 39.9342 51.4774 40.1766C51.8676 40.4541 51.8849 40.9137 51.7202 41.3646C51.5641 41.7982 51.2172 41.9543 50.801 41.9369C50.4997 41.9305 50.1983 41.8957 49.8935 41.8604C49.786 41.848 49.6781 41.8355 49.5696 41.8242ZM48.0805 26.7739C48.0456 26.8989 48.0095 27.0282 47.9654 27.1606C48.0078 27.2718 48.0453 27.3863 48.0829 27.501L48.0829 27.5011C48.1684 27.762 48.2544 28.0243 48.399 28.2532C48.6504 28.6607 49.11 28.6261 49.3962 28.2445C49.8124 27.6808 49.8124 26.5969 49.3962 26.0419C49.058 25.5997 48.5897 25.6083 48.3209 26.1026C48.212 26.3032 48.1486 26.5303 48.0805 26.7738L48.0805 26.7739ZM53.7116 26.8274C53.6714 26.9459 53.6306 27.0663 53.5846 27.1866C53.6344 27.314 53.6781 27.4396 53.7207 27.5621C53.8113 27.823 53.897 28.0695 54.0268 28.2879C54.2783 28.7041 54.6859 28.6954 54.998 28.3312C55.4663 27.7762 55.4576 26.5622 54.972 26.0246C54.6945 25.7124 54.2696 25.6777 54.0528 26.0332C53.9 26.2716 53.8076 26.5444 53.7116 26.8274L53.7116 26.8274ZM35.9997 46.0825C37.1617 45.2067 38.0375 44.1054 38.7052 42.8047C41.8097 45.2414 45.365 46.1432 49.1979 46.3167C49.1904 46.3641 49.185 46.4086 49.18 46.4507C49.1675 46.5549 49.1569 46.644 49.1198 46.7242C48.955 47.0624 49.0851 47.2185 49.406 47.3746C49.6661 47.496 49.9089 47.7041 50.117 47.9209C50.4205 48.2418 50.4379 48.6493 50.2645 49.0482C50.091 49.4384 49.7875 49.6813 49.3539 49.6552C49.0792 49.6433 48.8086 49.5902 48.5449 49.5385L48.5449 49.5385L48.5447 49.5385C48.4256 49.5151 48.308 49.492 48.1919 49.4731C47.9327 49.886 47.6735 50.3042 47.4128 50.7247C47.2026 51.0638 46.9914 51.4044 46.7785 51.7451C46.8343 51.8089 46.8918 51.8711 46.9491 51.9331L46.9492 51.9332C47.0789 52.0735 47.2079 52.2131 47.3161 52.3694C47.6543 52.8637 47.5849 53.28 47.1167 53.6528C46.6137 54.0517 46.0934 53.939 45.5731 53.6875C45.4221 53.617 45.2737 53.5401 45.1253 53.4631L45.1252 53.463L45.1251 53.463L45.1251 53.463C44.8902 53.3412 44.6556 53.2195 44.4111 53.1239C42.0438 52.1787 39.8759 50.9126 38.0896 49.0656C37.2397 48.1897 36.5373 47.2099 35.9997 46.0825ZM32.1242 57.2511C32.4884 58.6212 32.9306 59.0895 33.7197 58.9854C34.3354 58.9074 34.5002 58.5692 34.5522 57.2511C34.8702 57.2077 35.1881 57.1624 35.5061 57.1172C36.142 57.0266 36.7779 56.936 37.4138 56.8609C37.5092 56.8522 37.6653 56.9476 37.7347 57.043C37.8144 57.147 37.8859 57.2594 37.9574 57.3718L37.9574 57.3718C38.0646 57.5404 38.1717 57.709 38.307 57.8494C38.6799 58.231 39.2609 58.2657 39.7031 58.0055C40.05 57.7974 40.1714 57.4072 40.05 56.8522C40.0066 56.6528 39.9633 56.462 39.9026 56.2365C40.2072 56.1217 40.5074 56.0069 40.8226 55.8864L40.8251 55.8854C41.1281 55.7695 41.445 55.6483 41.793 55.5168C37.5179 54.2941 34.5782 51.6926 32.8266 47.8164C32.6055 47.8507 32.3862 47.8849 32.1681 47.919L32.1653 47.9195C31.2808 48.0576 30.4175 48.1925 29.5487 48.3107C29.2365 48.354 28.9157 48.3714 28.5948 48.3627C28.2219 48.3454 28.1439 48.4928 28.1612 48.8483C28.2913 51.5625 29.1758 54.0339 30.5633 56.3406C30.5917 56.3855 30.6197 56.4307 30.6476 56.4757C30.9858 57.0212 31.307 57.5395 32.1242 57.2511ZM25.0758 48.3955C25.1539 51.3526 25.5354 54.2489 27.0703 56.9804C26.8218 56.9453 26.5842 56.9135 26.3542 56.8828C25.8457 56.8149 25.3741 56.7518 24.9024 56.6682C23.5583 56.4341 22.2489 56.0786 21.1736 55.1767C20.3845 54.5177 19.9596 53.6679 20.003 52.636C20.133 49.6096 22.96 48.2481 25.0758 48.3955Z" fill="white"/>
</svg>
