<svg width="72" height="71" viewBox="0 0 72 71" fill="none" xmlns="http://www.w3.org/2000/svg">
<path d="M11.6828 11.4577L36 1.61409L60.3172 11.4577L70.3708 35.1777L60.3172 58.8977L36 68.7412L11.6828 58.8977L1.62917 35.1777L11.6828 11.4577Z" fill="#AF5CAA" stroke="#FFF500" stroke-width="3"/>
<path fill-rule="evenodd" clip-rule="evenodd" d="M44.1675 38.9606V39.984C43.929 39.9389 43.6942 39.896 43.4623 39.8537L43.4621 39.8537L43.4617 39.8536L43.4616 39.8536L43.4616 39.8536C42.7941 39.7318 42.1505 39.6143 41.5107 39.4583C39.7932 39.0377 38.2019 38.3507 36.842 37.18C36.4144 36.8085 36.183 36.4299 36.3443 35.8551C36.3688 35.752 36.3693 35.6455 36.3698 35.538C36.37 35.4919 36.3702 35.4457 36.3723 35.3994C36.3988 34.9159 36.42 34.4311 36.4412 33.946L36.4412 33.9459L36.4412 33.9459C36.4928 32.7644 36.5445 31.5811 36.6737 30.4082C36.877 28.5646 37.3818 26.8121 38.5314 25.2769C39.3796 24.1342 40.3681 23.2089 41.693 22.6621C41.7911 22.62 41.8892 22.4728 41.8963 22.3677C41.9173 22.1048 41.9147 21.8419 41.912 21.579C41.9112 21.4914 41.9103 21.4038 41.9103 21.3162C41.9103 20.8325 42.1767 20.517 42.5903 20.51C43.0039 20.503 43.2843 20.8184 43.2913 21.3021C43.2959 21.5004 43.2944 21.6956 43.2929 21.9018C43.2921 22.0091 43.2913 22.1193 43.2913 22.2345C44.3428 22.0662 45.3382 22.1784 46.3477 22.4868C46.3477 22.3537 46.3465 22.2247 46.3453 22.0987V22.0987V22.0987C46.3425 21.7935 46.3398 21.5058 46.3547 21.218C46.3757 20.7904 46.6912 20.496 47.0697 20.51C47.4623 20.524 47.7287 20.8255 47.7357 21.2531L47.739 21.4699C47.7458 21.9022 47.7527 22.3338 47.7287 22.7602C47.7146 23.0336 47.8128 23.1738 48.0301 23.321C51.9487 25.9288 51.9978 31.8033 48.1282 34.4881C47.1048 35.1961 45.9831 35.5957 44.7494 35.7219C44.6442 35.7359 44.476 35.785 44.462 35.8481C44.3994 36.1495 44.3599 36.4555 44.3285 36.6987L44.3285 36.6988C44.3212 36.7554 44.3143 36.8086 44.3077 36.8575C44.4728 36.9467 44.6336 37.0282 44.7892 37.1069C45.1227 37.2758 45.4325 37.4327 45.7097 37.6286C46.0252 37.853 46.0392 38.2245 45.906 38.589C45.7799 38.9395 45.4994 39.0657 45.163 39.0517C44.9194 39.0465 44.6758 39.0183 44.4294 38.9898L44.4294 38.9898C44.3425 38.9798 44.2553 38.9697 44.1675 38.9606ZM42.9638 26.7939C42.9355 26.8949 42.9063 26.9995 42.8707 27.1065C42.9049 27.1964 42.9353 27.289 42.9657 27.3818C43.0348 27.5927 43.1043 27.8048 43.2212 27.9898C43.4245 28.3192 43.796 28.2912 44.0273 27.9828C44.3638 27.5271 44.3638 26.6508 44.0273 26.2022C43.7539 25.8447 43.3754 25.8517 43.1581 26.2513C43.0701 26.4134 43.0188 26.597 42.9638 26.7939L42.9638 26.7939ZM47.5159 26.8372C47.4834 26.933 47.4505 27.0303 47.4132 27.1275C47.4535 27.2305 47.4888 27.3321 47.5232 27.4311C47.5965 27.642 47.6658 27.8413 47.7707 28.0178C47.974 28.3543 48.3035 28.3473 48.5558 28.0529C48.9344 27.6042 48.9274 26.6228 48.5348 26.1882C48.3105 25.9358 47.967 25.9078 47.7917 26.1952C47.6682 26.3879 47.5935 26.6084 47.5159 26.8372ZM33.1974 42.403C34.1368 41.695 34.8448 40.8047 35.3845 39.7532C37.8942 41.723 40.7683 42.4521 43.8668 42.5923C43.8607 42.6306 43.8564 42.6666 43.8523 42.7006C43.8422 42.7848 43.8336 42.8568 43.8037 42.9217C43.6705 43.1951 43.7756 43.3213 44.035 43.4475C44.2453 43.5456 44.4416 43.7139 44.6098 43.8891C44.8552 44.1485 44.8692 44.478 44.729 44.8004C44.5888 45.1159 44.3434 45.3122 43.9929 45.2911C43.7708 45.2815 43.5521 45.2386 43.3389 45.1968C43.2426 45.1779 43.1474 45.1592 43.0536 45.1439C42.844 45.4776 42.6345 45.8156 42.4238 46.1556L42.4235 46.1561L42.4225 46.1577C42.2529 46.4311 42.0826 46.7059 41.9109 46.9806C41.9561 47.0322 42.0026 47.0825 42.0489 47.1326L42.0489 47.1327L42.049 47.1327C42.1538 47.2461 42.2581 47.359 42.3456 47.4853C42.619 47.8849 42.5629 48.2214 42.1843 48.5228C41.7778 48.8453 41.3571 48.7541 40.9365 48.5508C40.8144 48.4938 40.6944 48.4316 40.5744 48.3694L40.5744 48.3693C40.3845 48.2709 40.1948 48.1725 39.9972 48.0952C38.0834 47.3311 36.3309 46.3076 34.8868 44.8145C34.1998 44.1064 33.632 43.3143 33.1974 42.403ZM30.0646 51.4319C30.359 52.5395 30.7165 52.9181 31.3545 52.8339C31.8522 52.7708 31.9854 52.4974 32.0274 51.4319C32.2845 51.3969 32.5415 51.3603 32.7986 51.3236L32.7988 51.3236C33.3128 51.2504 33.8268 51.1772 34.3408 51.1165C34.4179 51.1094 34.5441 51.1866 34.6001 51.2637C34.6646 51.3478 34.7224 51.4386 34.7802 51.5295L34.7802 51.5295C34.8668 51.6658 34.9535 51.802 35.0628 51.9156C35.3642 52.2241 35.8339 52.2521 36.1914 52.0418C36.4718 51.8735 36.57 51.5581 36.4718 51.1094C36.4368 50.9482 36.4017 50.794 36.3527 50.6117C36.599 50.5189 36.8418 50.426 37.0967 50.3286L37.0977 50.3282C37.3429 50.2344 37.5993 50.1364 37.8809 50.0299C34.4249 49.0415 32.0485 46.9384 30.6324 43.8049C30.453 43.8328 30.2749 43.8606 30.0979 43.8882C29.3829 44 28.685 44.109 27.9826 44.2045C27.7303 44.2396 27.4709 44.2536 27.2115 44.2466C26.9101 44.2325 26.847 44.3517 26.861 44.6391C26.9662 46.8333 27.6812 48.8312 28.8028 50.6959C28.8258 50.7322 28.8484 50.7687 28.871 50.8051C29.1443 51.2461 29.4041 51.665 30.0646 51.4319ZM24.3652 44.2736C24.4283 46.6641 24.7368 49.0054 25.9775 51.2136C25.7766 51.1852 25.5845 51.1595 25.3985 51.1347C24.9875 51.0798 24.6063 51.0288 24.225 50.9612C23.1385 50.772 22.0799 50.4846 21.2107 49.7555C20.5728 49.2227 20.2293 48.5357 20.2643 47.7015C20.3695 45.255 22.6548 44.1544 24.3652 44.2736Z" fill="white"/>
</svg>
