<svg width="72" height="73" viewBox="0 0 72 73" fill="none" xmlns="http://www.w3.org/2000/svg">
<g clip-path="url(#clip0_5_6471)">
<path d="M11.6828 12.4577L36 2.61409L60.3172 12.4577L70.3708 36.1777L60.3172 59.8977L36 69.7412L11.6828 59.8977L1.62917 36.1777L11.6828 12.4577Z" fill="#AF5CAA" stroke="#FFF500" stroke-width="3"/>
<path d="M33.8687 46.4944C33.606 46.9322 33.1681 47.195 32.5551 47.0198C31.9421 46.8447 31.8545 46.3192 31.8545 45.7062C30.7161 46.1441 29.49 46.2317 28.3516 46.1441C27.3883 46.0565 26.5126 45.7938 25.7244 45.2684C24.2357 44.3051 23.6227 42.466 24.2357 40.9773C24.4984 40.1891 25.0238 39.5761 25.6368 39.0507C26.3374 38.5252 27.1256 37.9998 27.8262 37.4744C27.9137 37.3868 28.0889 37.2992 28.264 37.2116C27.9137 36.8614 27.5634 36.5986 27.3007 36.3359C26.6001 35.5478 25.8996 34.8472 25.199 34.059C24.3232 32.9206 24.2357 31.607 24.8487 30.2058C25.0238 29.8555 25.2865 29.4177 25.4617 29.0674C25.812 28.2792 25.8996 27.4035 25.5493 26.6153C25.2865 25.8272 24.9363 25.1266 24.6735 24.426C24.586 24.0757 24.4984 23.7254 24.4984 23.3751C24.4108 22.6745 24.7611 22.1491 25.5493 22.0615C26.6877 21.8864 27.7386 22.0615 28.7895 22.587C30.7161 23.5503 32.1172 25.039 33.2557 26.7905C34.4817 28.5419 35.445 30.381 36.2332 32.3076C36.2332 32.3951 36.3207 32.4827 36.4083 32.7454C36.4959 32.5703 36.671 32.3951 36.671 32.3076C36.8462 31.4318 36.9337 30.5561 36.8462 29.6804C36.7586 28.5419 36.1456 27.5786 35.1823 26.9656C35.3574 26.7029 35.5326 26.4402 35.7077 26.0899C37.8095 27.4911 38.1598 29.5928 37.8095 31.9573C39.0355 29.9431 40.5242 28.4544 43.0638 28.6295C43.0638 28.9798 42.9763 29.3301 42.9763 29.6804C41.0497 29.5052 39.9112 30.6437 39.0355 32.0448C38.5101 32.9206 38.4225 33.0957 38.5976 33.446C38.7728 33.3584 38.8603 33.2709 39.0355 33.1833C41.4 31.7821 43.9396 30.7312 46.6543 30.2058C48.0555 29.9431 49.3691 29.8555 50.7703 30.2058C51.8211 30.4685 52.6969 30.9064 53.485 31.607C54.1856 32.3076 54.1856 33.0081 53.3975 33.6212C52.9596 33.9714 52.4342 34.3217 51.9087 34.672C51.646 34.8472 51.3833 35.0223 51.1206 35.1099C49.9821 35.6353 49.4567 36.5986 49.194 37.8247C49.1064 38.5252 48.8437 39.1383 48.5809 39.7513C48.3182 40.3643 47.7928 40.8021 47.2673 41.0649C46.2165 41.5903 44.9905 41.7654 43.852 41.9406C43.239 42.0282 42.626 42.0282 42.1005 42.1157C42.3633 42.9915 42.626 43.7796 42.8887 44.6553C43.0638 45.4435 43.1514 46.1441 43.0638 46.9322C42.8011 49.1216 40.787 50.0849 39.1231 49.9097C37.5468 49.7346 36.2332 48.9464 35.0947 47.808C34.6568 47.3701 34.3066 46.9322 33.8687 46.4944Z" fill="white"/>
</g>
<defs>
<clipPath id="clip0_5_6471">
<rect y="0.177673" width="72" height="72" rx="32" fill="white"/>
</clipPath>
</defs>
</svg>
