<svg width="72" height="73" viewBox="0 0 72 73" fill="none" xmlns="http://www.w3.org/2000/svg">
<g clip-path="url(#clip0_5_6469)">
<path d="M10.9237 11.6861L36 1.53526L61.0763 11.6861L71.4569 36.1777L61.0763 60.6692L36 70.8201L10.9237 60.6692L0.543058 36.1777L10.9237 11.6861Z" stroke="#8757B5"/>
<path fill-rule="evenodd" clip-rule="evenodd" d="M44.1685 39.9606V40.984C43.9298 40.9388 43.6948 40.8959 43.4627 40.8536L43.4627 40.8536C42.7951 40.7318 42.1515 40.6143 41.5117 40.4583C39.7942 40.0377 38.2029 39.3507 36.843 38.18C36.4153 37.8085 36.184 37.4299 36.3452 36.8551C36.3698 36.752 36.3703 36.6455 36.3708 36.538C36.371 36.4919 36.3712 36.4457 36.3733 36.3994C36.3998 35.9159 36.421 35.4311 36.4422 34.946L36.4422 34.9459L36.4422 34.9459C36.4938 33.7644 36.5455 32.5811 36.6747 31.4082C36.878 29.5646 37.3827 27.8121 38.5324 26.2769C39.3806 25.1342 40.369 24.2089 41.6939 23.6621C41.7921 23.62 41.8902 23.4728 41.8972 23.3677C41.9183 23.1048 41.9156 22.8419 41.913 22.579C41.9121 22.4914 41.9113 22.4038 41.9113 22.3162C41.9113 21.8325 42.1776 21.517 42.5912 21.51C43.0048 21.503 43.2852 21.8184 43.2922 22.3021C43.2969 22.5004 43.2954 22.6956 43.2939 22.9018C43.2931 23.0091 43.2922 23.1193 43.2922 23.2345C44.3438 23.0662 45.3392 23.1784 46.3486 23.4868C46.3486 23.3537 46.3474 23.2247 46.3463 23.0987V23.0987V23.0987C46.3434 22.7935 46.3408 22.5058 46.3557 22.218C46.3767 21.7904 46.6921 21.496 47.0707 21.51C47.4632 21.524 47.7296 21.8255 47.7366 22.2531L47.7399 22.4699V22.4699C47.7468 22.9022 47.7537 23.3338 47.7296 23.7602C47.7156 24.0336 47.8138 24.1738 48.0311 24.321C51.9497 26.9288 51.9988 32.8033 48.1292 35.4881C47.1057 36.1961 45.9841 36.5957 44.7503 36.7219C44.6452 36.7359 44.477 36.785 44.4629 36.8481C44.4004 37.1495 44.3609 37.4555 44.3295 37.6987L44.3295 37.6988C44.3222 37.7554 44.3153 37.8086 44.3087 37.8575C44.4738 37.9467 44.6345 38.0282 44.7902 38.1069C45.1237 38.2758 45.4335 38.4327 45.7107 38.6286C46.0262 38.853 46.0402 39.2245 45.907 39.589C45.7808 39.9395 45.5004 40.0657 45.1639 40.0517C44.9204 40.0465 44.6768 40.0183 44.4304 39.9898L44.4304 39.9898C44.3435 39.9798 44.2562 39.9697 44.1685 39.9606ZM42.9647 27.7939C42.9365 27.8949 42.9073 27.9995 42.8716 28.1065C42.9059 28.1964 42.9362 28.289 42.9667 28.3818C43.0358 28.5927 43.1053 28.8048 43.2221 28.9898C43.4254 29.3192 43.797 29.2912 44.0283 28.9828C44.3648 28.5271 44.3648 27.6508 44.0283 27.2022C43.7549 26.8447 43.3764 26.8517 43.1591 27.2513C43.071 27.4134 43.0198 27.597 42.9647 27.7939L42.9647 27.7939ZM47.5169 27.8372C47.4844 27.933 47.4514 28.0303 47.4142 28.1275C47.4545 28.2305 47.4898 28.3321 47.5242 28.4311C47.5975 28.642 47.6667 28.8413 47.7717 29.0178C47.975 29.3543 48.3045 29.3473 48.5568 29.0529C48.9354 28.6042 48.9284 27.6228 48.5358 27.1882C48.3115 26.9358 47.968 26.9078 47.7927 27.1952C47.6692 27.3879 47.5944 27.6084 47.5169 27.8372ZM33.1976 43.4032C34.137 42.6952 34.845 41.8049 35.3848 40.7534C37.8944 42.7232 40.7685 43.4523 43.867 43.5925C43.8609 43.6308 43.8566 43.6668 43.8525 43.7008C43.8425 43.785 43.8338 43.8571 43.8039 43.922C43.6707 44.1954 43.7758 44.3215 44.0352 44.4477C44.2455 44.5459 44.4418 44.7141 44.61 44.8893C44.8554 45.1487 44.8694 45.4782 44.7292 45.8007C44.589 46.1161 44.3437 46.3124 43.9932 46.2914C43.7711 46.2817 43.5523 46.2388 43.3391 46.197C43.2428 46.1781 43.1476 46.1594 43.0538 46.1442C42.8443 46.4779 42.6347 46.8159 42.424 47.1558L42.4236 47.1564C42.2538 47.4304 42.0832 47.7056 41.9112 47.9808C41.9563 48.0324 42.0028 48.0827 42.0491 48.1329L42.0492 48.1329L42.0492 48.1329C42.154 48.2463 42.2583 48.3592 42.3458 48.4855C42.6192 48.8851 42.5631 49.2216 42.1846 49.523C41.778 49.8455 41.3574 49.7544 40.9368 49.5511C40.8147 49.4941 40.6947 49.4319 40.5748 49.3697L40.5747 49.3696L40.5746 49.3696C40.3847 49.2711 40.195 49.1727 39.9974 49.0954C38.0837 48.3313 36.3311 47.3078 34.8871 45.8147C34.2001 45.1067 33.6322 44.3145 33.1976 43.4032ZM30.066 52.4321C30.3604 53.5397 30.7179 53.9183 31.3558 53.8342C31.8536 53.7711 31.9867 53.4977 32.0288 52.4321C32.2859 52.3971 32.5429 52.3605 32.7999 52.3239L32.8002 52.3238C33.3142 52.2506 33.8282 52.1774 34.3421 52.1167C34.4193 52.1097 34.5454 52.1868 34.6015 52.2639C34.666 52.348 34.7238 52.4389 34.7815 52.5297L34.7815 52.5297C34.8682 52.666 34.9548 52.8023 35.0642 52.9158C35.3656 53.2243 35.8353 53.2523 36.1928 53.042C36.4732 52.8738 36.5713 52.5583 36.4732 52.1097C36.4382 51.9484 36.4031 51.7942 36.354 51.612C36.6004 51.5191 36.8432 51.4263 37.098 51.3288L37.0991 51.3284C37.3443 51.2346 37.6006 51.1366 37.8822 51.0301C34.4263 50.0417 32.0498 47.9387 30.6338 44.8052C30.4544 44.833 30.2763 44.8608 30.0993 44.8885C29.3842 45.0002 28.6864 45.1092 27.984 45.2047C27.7316 45.2398 27.4723 45.2538 27.2129 45.2468C26.9114 45.2328 26.8484 45.352 26.8624 45.6394C26.9675 47.8335 27.6826 49.8314 28.8042 51.6961C28.8271 51.7324 28.8498 51.7689 28.8723 51.8053C29.1457 52.2463 29.4054 52.6653 30.066 52.4321ZM24.367 45.2734C24.4301 47.6639 24.7386 50.0052 25.9794 52.2134C25.7784 52.185 25.5864 52.1593 25.4004 52.1345C24.9894 52.0796 24.6081 52.0286 24.2268 51.961C23.1403 51.7718 22.0817 51.4844 21.2125 50.7553C20.5746 50.2225 20.2311 49.5355 20.2661 48.7013C20.3713 46.2548 22.6566 45.1542 24.367 45.2734Z" fill="#8757B5"/>
</g>
<defs>
<clipPath id="clip0_5_6469">
<rect y="0.177673" width="72" height="72" rx="32" fill="white"/>
</clipPath>
</defs>
</svg>
