<svg width="72" height="73" viewBox="0 0 72 73" fill="none" xmlns="http://www.w3.org/2000/svg">
<g clip-path="url(#clip0_5_6052)">
<path d="M10.9237 11.6861L36 1.53526L61.0763 11.6861L71.4569 36.1777L61.0763 60.6692L36 70.8201L10.9237 60.6692L0.543058 36.1777L10.9237 11.6861Z" stroke="#8757B5"/>
<path fill-rule="evenodd" clip-rule="evenodd" d="M37.4888 17.5946C37.49 17.8029 37.4919 18.0111 37.4938 18.2194V20.2448C37.4938 20.2531 37.4943 20.2616 37.4948 20.2701C37.4968 20.3047 37.4988 20.3403 37.4689 20.3671C37.4378 20.3948 37.3444 20.4254 37.2697 20.4254C37.1234 20.4282 36.9772 20.4268 36.8309 20.4254H36.8309C36.6846 20.424 36.5384 20.4226 36.3921 20.4254C36.1743 20.431 36.0062 20.3671 36 20.2559C36 20.1795 36.0031 20.1031 36.0062 20.0267C36.0093 19.9503 36.0124 19.8739 36.0124 19.7975V17.598L31.5274 17.598C31.5067 17.598 31.4854 17.5986 31.4639 17.5991C31.3771 17.6014 31.2876 17.6037 31.2206 17.5702C31.1508 17.5354 31.0741 17.4309 31.0741 17.3474C31.0671 17.1838 31.0706 17.0201 31.0741 16.8565C31.0776 16.6929 31.0811 16.5293 31.0741 16.3656C31.0601 16.122 31.2206 15.934 31.4995 15.927C31.6913 15.927 31.8831 15.9305 32.0749 15.934C32.2667 15.9374 32.4585 15.9409 32.6503 15.9409L36.4581 15.9409C36.5481 15.9305 36.6525 15.9259 36.7718 15.9272C36.8593 15.9272 36.9468 15.934 37.0343 15.9409L41.5357 15.9409C42.1146 15.9409 42.3796 16.2055 42.3657 16.7904C42.3657 16.8906 42.3478 16.9909 42.33 17.0912C42.3255 17.1162 42.3211 17.1413 42.3169 17.1664C42.268 17.5006 42.0797 17.605 41.738 17.605C40.3216 17.5877 38.9052 17.5895 37.4888 17.5946ZM43.6403 27.0907C43.1269 27.0907 42.6128 27.0956 42.0985 27.1005C40.8762 27.1122 39.6525 27.1238 38.4323 27.0698C37.2276 27.0187 36.0288 26.8508 34.8358 26.6836L34.8358 26.6836L34.5053 26.6374C32.9596 26.4212 31.4209 26.1631 29.8891 25.8981C29.4666 25.8234 29.0497 25.7043 28.6334 25.5854L28.6334 25.5854L28.6334 25.5854L28.6334 25.5854L28.4826 25.5424C28.4339 25.5285 28.3643 25.3611 28.3921 25.3123C28.4757 25.1518 28.5801 24.9984 28.7054 24.8659C29.0396 24.5032 29.3738 24.1475 29.7289 23.8058L29.7753 23.7606C29.9898 23.5519 30.2063 23.3412 30.4531 23.1851L30.5967 23.0926C31.3079 22.6347 32.0214 22.1753 32.7716 21.7832C33.635 21.3368 34.5889 21.1416 35.5497 20.9811C36.6707 20.7928 37.7569 20.9463 38.85 21.1485C40.1103 21.3857 41.2452 21.9366 42.2826 22.6411C42.8979 23.0627 43.4504 23.5808 44.0018 24.0978C44.1617 24.2478 44.3215 24.3977 44.4828 24.5451C44.8031 24.838 45.1025 25.1518 45.374 25.4866C45.5985 25.7691 45.7897 26.0707 45.9829 26.3756L45.9832 26.376L45.9835 26.3765C46.0238 26.4401 46.0642 26.5039 46.1051 26.5677C46.2443 26.7978 46.1399 26.9164 45.8962 26.9443C45.5238 26.9791 45.1497 27.0123 44.7756 27.0454L44.7755 27.0454L44.7754 27.0454L44.7753 27.0454C44.401 27.0785 44.0268 27.1117 43.6542 27.1465C43.6503 27.1426 43.6486 27.1321 43.6466 27.1199C43.6451 27.1104 43.6434 27.0999 43.6403 27.0907ZM33.8463 32.2191C34.3892 32.2449 34.9307 32.2705 35.4699 32.3008C35.9026 32.2772 36.3327 32.2503 36.7604 32.2236H36.7604H36.7604H36.7604H36.7605C37.7228 32.1634 38.6727 32.1039 39.6127 32.0846C40.882 32.0544 42.1258 31.8343 43.3678 31.6145L43.3678 31.6145C43.8427 31.5305 44.3172 31.4465 44.7929 31.3732C45.4887 31.266 46.1743 31.0723 46.8584 30.879C46.9753 30.846 47.0921 30.813 47.2089 30.7804C47.9609 30.5642 48.0305 30.4456 47.8634 29.8668C47.8438 29.798 47.8069 29.7361 47.7697 29.6738C47.7542 29.6477 47.7385 29.6215 47.7241 29.5948C47.6811 29.5065 47.6356 29.4194 47.5902 29.3324C47.4815 29.1241 47.3731 28.9165 47.2994 28.6951C47.2298 28.4928 47.1532 28.4579 46.9583 28.4719C46.5222 28.5017 46.0861 28.5348 45.6498 28.568C44.5537 28.6514 43.4566 28.7349 42.3559 28.7648C40.9843 28.7997 39.6057 28.7369 38.2271 28.6741C37.1548 28.6253 36.0756 28.5347 35.0103 28.4091C33.952 28.2836 32.9076 28.0953 31.8632 27.907C30.9332 27.7426 30.0032 27.5604 29.0732 27.3782C28.7012 27.3053 28.3292 27.2324 27.9572 27.1607C27.8458 27.1398 27.7274 27.0979 27.6369 27.0282C27.3862 26.8329 27.2052 26.9236 27.066 27.1537L27.0187 27.233C26.8397 27.5335 26.6631 27.8299 26.5159 28.1441C26.133 28.981 25.757 29.8179 25.4088 30.6688C25.2487 31.0664 25.2835 31.1361 25.7222 31.2198C26.0746 31.2879 26.4267 31.3602 26.7787 31.4324C27.7966 31.6413 28.8145 31.8503 29.8441 31.9591C31.1788 32.0928 32.517 32.1562 33.8463 32.2191ZM29.6559 38.8749L30.3502 38.9062L30.8143 38.8573L30.8144 38.8572L30.8147 38.8572C32.1056 38.7213 33.3605 38.5891 34.6044 38.4458C36.335 38.263 38.0262 37.8698 39.7162 37.4768L39.7163 37.4768L39.8681 37.4415C40.5524 37.2833 41.2168 37.0414 41.8794 36.8002C42.0932 36.7224 42.3069 36.6446 42.5209 36.5697C43.2102 36.3326 43.8856 36.0745 44.561 35.8095C44.8529 35.6925 45.142 35.5639 45.4319 35.4349C45.5914 35.364 45.7511 35.293 45.9117 35.2237C45.9863 35.1899 46.0626 35.1587 46.1391 35.1273C46.2839 35.068 46.4295 35.0083 46.5662 34.9307C47.158 34.582 47.7429 34.2263 48.3208 33.8567C48.356 33.8345 48.3931 33.8129 48.4307 33.791C48.6532 33.6616 48.8926 33.5223 48.8569 33.1941C48.8415 33.019 48.7919 32.8477 48.7418 32.6746L48.7417 32.6744L48.7417 32.6743C48.724 32.613 48.7062 32.5516 48.6898 32.4897C48.5645 32.0154 48.467 31.9806 48.0075 32.1549C47.9202 32.1874 47.833 32.2205 47.7456 32.2537C47.3451 32.4058 46.943 32.5585 46.5314 32.6501C45.3129 32.9081 44.0875 33.1592 42.8551 33.3545C41.6297 33.5498 40.3834 33.7242 39.144 33.8009C38.2488 33.8592 37.3479 33.8656 36.4468 33.872H36.4468H36.4467H36.4467H36.4467H36.4467H36.4466C35.946 33.8755 35.4453 33.8791 34.9455 33.8915C32.7662 33.9473 30.6008 33.7242 28.4494 33.3824C27.745 33.2742 27.0459 33.1257 26.3456 32.9769L26.3456 32.9768L26.3455 32.9768L26.3455 32.9768L26.3455 32.9768L26.3454 32.9768L26.3454 32.9768L26.3454 32.9768L26.3453 32.9768L26.3453 32.9768L26.3453 32.9768L26.3453 32.9768L26.3452 32.9768C25.9173 32.8859 25.489 32.7949 25.0586 32.7129C24.9611 32.6989 24.7592 32.7826 24.7383 32.8593C24.7048 32.9794 24.6703 33.0993 24.6358 33.2191L24.6358 33.2192C24.4842 33.7463 24.3329 34.2723 24.2648 34.8122C24.1459 35.7473 24.0879 36.6875 24.0302 37.6241L24.0302 37.6242C24.0203 37.7843 24.0104 37.9443 24.0003 38.1041C23.9933 38.2227 24.1325 38.411 24.2439 38.4528C24.5364 38.5574 24.8497 38.6481 25.1561 38.662C26.6665 38.7404 28.1769 38.8084 29.6558 38.8749H29.6559ZM49.3719 36.2073L49.3718 36.2069L49.3718 36.2065L49.3718 36.2061C49.3455 35.9091 49.3179 35.598 49.2904 35.2512C49.153 35.3286 49.0421 35.3875 48.9446 35.4392C48.884 35.4714 48.8286 35.5008 48.7752 35.5302C48.6574 35.6039 48.541 35.6802 48.4244 35.7565L48.4244 35.7565L48.4244 35.7565L48.4243 35.7565L48.4243 35.7565L48.4243 35.7566L48.4242 35.7566C48.1549 35.9329 47.8852 36.1095 47.5985 36.2555C47.0136 36.5554 46.4148 36.8205 45.816 37.0855C45.3852 37.2797 44.9503 37.4613 44.5144 37.6434L44.5141 37.6435C44.3865 37.6968 44.2588 37.7502 44.1311 37.8039C44.0499 37.8364 43.9694 37.8713 43.889 37.9061L43.8889 37.9062C43.728 37.9759 43.5671 38.0456 43.4 38.0968L43.3998 38.0968C42.5156 38.3549 41.6314 38.6129 40.7403 38.85C39.7585 39.1151 38.7768 39.3731 37.7881 39.5893C36.9108 39.7776 36.0196 39.938 35.1284 40.0427L34.8353 40.0765L34.8353 40.0765C33.3594 40.247 31.8831 40.4175 30.4007 40.496C29.2101 40.5588 28.0125 40.496 26.8219 40.4262C26.3173 40.4003 25.8153 40.3262 25.3127 40.252L25.3126 40.252L25.3126 40.252L25.3125 40.252L25.3125 40.252L25.3124 40.252L25.3124 40.252C25.0038 40.2064 24.6949 40.1608 24.385 40.1263C24.2875 40.1124 24.0717 40.2937 24.0856 40.3356C24.1008 40.3826 24.1154 40.4318 24.1301 40.4816L24.1301 40.4816C24.1962 40.7048 24.2661 40.9412 24.4198 41.0609C24.761 41.3329 25.1718 41.5212 25.5756 41.7026C25.8712 41.8392 26.1751 41.9614 26.4793 42.0838L26.4794 42.0838C26.7341 42.1862 26.989 42.2888 27.2397 42.4C28.4581 42.937 29.7114 43.3625 30.9995 43.6763C31.2265 43.7338 31.4509 43.7984 31.6744 43.8629L31.6745 43.8629L31.6746 43.8629L31.6746 43.8629L31.6747 43.8629L31.6747 43.8629L31.6747 43.8629C32.0751 43.9783 32.4729 44.0929 32.8794 44.1645C34.0213 44.3598 35.1632 44.5412 36.312 44.6527C38.6167 44.8759 40.9213 44.9526 43.212 44.576C44.326 44.3947 45.4331 44.1715 46.5262 43.8856C47.1314 43.7263 47.7176 43.5027 48.3045 43.2789L48.3045 43.2789L48.3046 43.2789L48.3046 43.2789L48.3047 43.2789L48.3047 43.2788L48.3048 43.2788C48.5146 43.1988 48.7245 43.1188 48.9353 43.0417C49.0258 43.0138 49.1163 42.8952 49.1372 42.7975C49.2068 42.4976 49.2626 42.1838 49.2974 41.8769C49.4923 40.217 49.5689 38.5501 49.4297 36.8763C49.4115 36.6552 49.3921 36.4355 49.3719 36.2073ZM48.6945 44.9869C48.6374 45.1541 48.5838 45.315 48.5317 45.4714L48.5317 45.4714L48.5316 45.4716C48.4185 45.8111 48.3124 46.1295 48.1932 46.4446C48.1514 46.5492 48.0331 46.6399 47.9356 46.6957L47.9355 46.6957C47.4551 46.9816 46.9747 47.2676 46.4804 47.5187C45.9025 47.8116 45.3107 48.0836 44.7119 48.3277C44.322 48.4881 43.9042 48.5997 43.4934 48.7043C43.0916 48.8119 42.6897 48.9104 42.2879 49.0089C41.9865 49.0828 41.6851 49.1566 41.3837 49.2344C40.1235 49.5552 38.8424 49.7016 37.5404 49.7574C37.2811 49.7684 37.023 49.789 36.765 49.8095H36.765H36.7649H36.7649H36.7648H36.7648C36.3647 49.8414 35.9651 49.8733 35.563 49.869C34.9306 49.8633 34.2983 49.8156 33.666 49.7679C33.5255 49.7573 33.3849 49.7467 33.2444 49.7365C33.1097 49.7267 32.9747 49.7177 32.8396 49.7087L32.8395 49.7087L32.8394 49.7087L32.8393 49.7087L32.8392 49.7087C32.3041 49.673 31.7672 49.6373 31.2392 49.5482C30.3479 49.4017 29.4637 49.2344 28.5933 49.0042C27.7926 48.795 27.0059 48.516 26.24 48.2091C26.0311 48.1254 25.8361 47.8604 25.7456 47.6372C25.4894 47.0403 25.2688 46.428 25.0491 45.8179L25.0491 45.8179C25.0121 45.7152 24.9751 45.6125 24.938 45.51C24.9066 45.4276 24.8951 45.3363 24.8836 45.2448C24.8746 45.1739 24.8657 45.1028 24.8474 45.0358C24.7743 44.7428 24.7012 44.4517 24.6281 44.1605L24.6281 44.1604L24.6281 44.1602L24.628 44.1601L24.628 44.16L24.628 44.1599C24.5549 43.8689 24.4819 43.5779 24.4088 43.2852C24.3879 43.2085 24.374 43.1317 24.4227 42.9644C24.4625 42.9826 24.5027 43.0009 24.543 43.0192L24.5431 43.0193L24.5435 43.0195L24.5438 43.0196L24.5441 43.0197C24.673 43.0783 24.804 43.1379 24.931 43.2015C25.0122 43.2433 25.0919 43.2883 25.1716 43.3332C25.331 43.4231 25.4903 43.513 25.6621 43.5781C25.8075 43.6374 25.9529 43.6972 26.0984 43.757C26.7402 44.0208 27.3836 44.2853 28.0363 44.5127C28.851 44.7986 29.6795 45.0427 30.5081 45.2659C31.2879 45.4751 32.0747 45.6704 32.8684 45.8029L33.0176 45.8279C34.2217 46.0291 35.4322 46.2314 36.6491 46.3051C38.1948 46.4027 39.7545 46.4097 41.3002 46.3679C42.3933 46.34 43.4934 46.2075 44.5796 46.054C45.243 45.961 45.8937 45.7793 46.5379 45.5995L46.6336 45.5728C47.0473 45.4598 47.4515 45.3213 47.8547 45.1832C48.0487 45.1167 48.2424 45.0504 48.4369 44.9869C48.4708 44.9785 48.5072 44.9803 48.5618 44.983C48.597 44.9848 48.6399 44.9869 48.6945 44.9869ZM46.8768 49.527C46.9285 49.4247 46.9801 49.3225 47.0336 49.2216C47.0294 49.2153 47.0246 49.2083 47.0193 49.2007C47.0071 49.1832 46.9925 49.1623 46.9779 49.1379C46.9421 49.1469 46.9062 49.1545 46.8705 49.1619C46.7955 49.1777 46.7215 49.1933 46.6507 49.2216C46.588 49.2495 46.5288 49.2844 46.4697 49.3193C46.4105 49.3541 46.3513 49.389 46.2886 49.4169C45.8848 49.5913 45.481 49.7656 45.0702 49.9051C44.2973 50.1632 43.5175 50.4212 42.7307 50.6235C42.0762 50.7909 41.4009 50.9094 40.7255 51.0001C40.4027 51.0433 40.08 51.0887 39.7571 51.1342L39.757 51.1342L39.7569 51.1342L39.7568 51.1342C38.6729 51.2867 37.5881 51.4394 36.4992 51.5092C34.48 51.6348 32.4817 51.4186 30.4904 51.0559C30.3257 51.0253 30.1608 50.996 29.996 50.9668L29.9956 50.9667L29.9952 50.9667C29.1848 50.8229 28.376 50.6795 27.6009 50.3724C27.5259 50.3396 27.4383 50.3383 27.3296 50.3367H27.3294C27.2767 50.336 27.219 50.3351 27.1553 50.3306C27.1893 50.4061 27.2166 50.4748 27.2415 50.5375C27.2879 50.6546 27.3261 50.751 27.385 50.8327C27.6427 51.1675 27.9072 51.5023 28.1857 51.8161C28.3125 51.9589 28.4378 52.1028 28.5629 52.2466C28.9879 52.7346 29.4113 53.221 29.8846 53.6574C30.553 54.2711 31.2702 54.8291 32.1057 55.2266C32.2293 55.2859 32.3515 55.3469 32.4736 55.4078L32.4736 55.4078C32.8398 55.5906 33.2041 55.7724 33.5957 55.9031C34.4661 56.1961 35.3364 56.4471 36.2624 56.4053C36.2997 56.4053 36.3356 56.4108 36.3713 56.4164L36.3714 56.4164C36.4157 56.4232 36.4599 56.4301 36.5061 56.4262C36.7367 56.4131 36.9693 56.4103 37.2018 56.4074H37.2019H37.202C37.7137 56.4011 38.225 56.3948 38.7133 56.2798C39.3164 56.1415 39.8933 55.9018 40.4687 55.6627L40.4687 55.6627L40.4687 55.6627L40.4688 55.6626L40.4689 55.6626C40.6772 55.576 40.8854 55.4895 41.0945 55.4079C41.3382 55.3173 41.5889 55.2196 41.7977 55.0732C42.1608 54.8186 42.5085 54.5446 42.8551 54.2715L42.8552 54.2714C42.9738 54.1779 43.0922 54.0846 43.2111 53.9921C43.3037 53.9196 43.3987 53.8487 43.4937 53.7778C43.7275 53.6033 43.9621 53.4282 44.165 53.225C44.4636 52.9259 44.7363 52.6048 45.0074 52.2857L45.0079 52.2851C45.1097 52.1652 45.2113 52.0457 45.3139 51.9277C45.348 51.8886 45.3787 51.8427 45.4108 51.7947C45.4246 51.7742 45.4385 51.7533 45.4531 51.7324C45.5806 51.5459 45.711 51.3604 45.8413 51.1747C46.0669 50.8535 46.2927 50.5321 46.5045 50.205C46.6443 49.9878 46.7607 49.7572 46.8768 49.527Z" fill="#8757B5"/>
</g>
<defs>
<clipPath id="clip0_5_6052">
<rect y="0.177673" width="72" height="72" rx="32" fill="white"/>
</clipPath>
</defs>
</svg>
