<svg width="139" height="41" viewBox="0 0 139 41" fill="none" xmlns="http://www.w3.org/2000/svg">
<path fill-rule="evenodd" clip-rule="evenodd" d="M138.375 20.5L129.199 41L117.775 35.9185L124.677 20.5L117.775 5.08145L129.199 0L138.375 20.5Z" fill="#AD5DA4"/>
<path d="M50.9278 15.7402C50.0879 15.7402 49.248 15.9076 48.492 16.1588C47.7361 16.41 47.0642 16.8286 46.4763 17.4147V15.9914H40.765V30.5597H46.8123V23.6942C46.8123 22.6895 46.9802 21.9359 47.4002 21.4336C47.8201 20.9312 48.4081 20.7638 49.08 20.7638C50.2558 20.7638 50.8438 21.601 50.8438 23.2756V30.5597H56.891V22.2708C56.891 20.094 56.3031 18.4194 55.2112 17.331C54.1194 16.3263 52.6915 15.7402 50.9278 15.7402Z" fill="white"/>
<path d="M70.4134 15.7402C69.5735 15.7402 68.7336 15.9076 67.9777 16.1588C67.2218 16.41 66.5499 16.8286 65.9619 17.4147V15.9914H60.2506V30.5597H66.2979V23.6942C66.2979 22.6895 66.4659 21.9359 66.8858 21.4336C67.3058 20.9312 67.8937 20.7638 68.5656 20.7638C69.7415 20.7638 70.3294 21.601 70.3294 23.2756V30.5597H76.3767V22.2708C76.3767 20.094 75.7887 18.4194 74.6969 17.331C73.605 16.3263 72.1772 15.7402 70.4134 15.7402Z" fill="white"/>
<path d="M86.7914 19.8428C87.2954 19.8428 87.7993 20.0102 88.1353 20.2614C88.5552 20.5126 88.8072 20.9312 88.9751 21.3499L84.2717 22.2708C84.3557 21.4336 84.6077 20.8475 85.0276 20.4289C85.5316 20.094 86.1195 19.8428 86.7914 19.8428ZM87.4633 26.3734C86.1195 26.3734 85.1956 25.9548 84.7757 25.1175L94.7705 23.1918C94.7705 21.601 94.4345 20.2614 93.6786 19.173C92.9227 18.0845 91.9988 17.1635 90.8229 16.5775C89.6471 15.9914 88.3032 15.7402 86.8754 15.7402C85.2796 15.7402 83.8518 16.0751 82.5919 16.6612C81.3321 17.331 80.3242 18.1683 79.5683 19.3404C78.8124 20.5126 78.4764 21.7685 78.4764 23.2756C78.4764 24.6989 78.8124 26.0385 79.5683 27.127C80.3242 28.2991 81.3321 29.2201 82.6759 29.8062C84.0197 30.476 85.5316 30.8109 87.2954 30.8109C90.067 30.8109 92.2508 30.0574 93.6786 28.4666L90.487 25.285C89.983 25.7036 89.4791 25.9548 89.0591 26.1222C88.6392 26.3734 88.0513 26.3734 87.4633 26.3734Z" fill="white"/>
<path d="M103.169 17.5822V15.9914H97.4581V30.5597H103.505V24.1128C103.505 22.0197 104.513 20.9312 106.613 20.9312C107.033 20.9312 107.453 20.9312 107.957 21.0149V15.6565C105.773 15.7402 104.177 16.41 103.169 17.5822Z" fill="white"/>
<path d="M36.3975 15.1541C36.1455 15.0704 35.8936 14.9867 35.5576 14.9867H35.4736C35.0537 14.9029 34.5497 14.7355 34.1298 14.6518C34.0458 14.4843 34.0458 14.3168 34.0458 14.1494C34.0458 13.8145 33.9618 13.5633 33.9618 13.2284C33.8778 13.2284 33.7938 13.2284 33.7098 13.2284C33.6259 13.647 33.6259 14.0657 33.5419 14.568C33.2899 14.4843 33.1219 14.4843 32.8699 14.4006C32.45 14.2331 32.03 13.9819 31.6941 13.8982C30.8542 13.5633 30.3503 14.2331 30.4342 15.3216V15.4053C30.4342 15.4053 30.4342 15.4053 30.4342 15.489C30.4342 15.6565 30.4342 15.8239 30.4342 15.9076C30.4342 18.5869 30.4342 20.4289 30.4342 23.1081C30.4342 25.7873 30.4342 26.8758 30.4342 29.555C30.4342 30.3923 31.1062 31.0621 31.8621 30.9784C33.0379 30.9784 34.2138 30.9784 35.3896 30.9784C36.2295 30.9784 36.8175 30.3923 36.8175 29.555C36.8175 25.285 36.8175 22.8569 36.8175 19.0055C36.8175 18.8381 36.9015 18.7543 36.9015 18.5032C36.9015 18.0008 36.9854 17.4984 37.1534 17.0798C37.3214 16.0751 37.1534 15.4053 36.3975 15.1541Z" fill="white"/>
<path d="M32.8699 2.09282C33.3739 3.43244 32.8699 4.60461 32.114 5.69305C31.6941 6.36286 31.1901 7.03267 30.7702 7.78621C30.0143 9.29328 30.6022 10.5492 32.03 11.6376C33.2059 11.0515 34.2138 10.3817 34.6337 9.46073C35.0537 8.45602 34.8017 7.53503 34.2978 6.61404C35.8936 7.95366 36.5655 9.79564 34.9697 11.8888C35.0537 11.8888 35.1377 11.8051 35.1377 11.8051C36.2295 11.1353 36.8175 10.298 37.0694 9.29328C37.5734 7.28385 36.7335 5.44187 35.1377 3.85107C34.5497 3.18126 33.5419 2.42773 32.8699 2.09282Z" fill="white"/>
<path d="M13.6983 20.5L11.1931 14.9033L0.345332 19.7285L0 20.5L0.345332 21.2715L11.1931 26.0967L13.6983 20.5Z" fill="#AD5DA4"/>
<path d="M20.6 5.08145L9.17621 0L0.345332 19.7285L11.1931 14.9033L13.6983 20.5L20.6 5.08145Z" fill="#AD5DA4"/>
<path fill-rule="evenodd" clip-rule="evenodd" d="M0.345332 21.2715L11.1931 26.0967L13.6983 20.5L20.6 35.9185L9.17621 41L0.345332 21.2715Z" fill="#AD5DA4"/>
</svg>
